<?xml version="1.0" encoding="utf-8"?>
<!-- Generator: Adobe Illustrator 24.2.3, SVG Export Plug-In . SVG Version: 6.00 Build 0)  -->
<svg version="1.1" id="Layer_1" xmlns="http://www.w3.org/2000/svg" xmlns:xlink="http://www.w3.org/1999/xlink" x="0px" y="0px"
	 viewBox="0 0 90 90" style="enable-background:new 0 0 90 90;" xml:space="preserve">
<style type="text/css">
	.st0{fill:#2081E2;}
</style>
<path class="st0" d="M9.3,48.2l0.3-0.5L27,20.6c0.3-0.4,0.9-0.4,1,0.1c2.9,6.5,5.4,14.6,4.2,19.7c-0.5,2.1-1.9,4.9-3.4,7.5
	c-0.2,0.4-0.4,0.7-0.7,1.1c-0.1,0.2-0.3,0.3-0.5,0.3H9.8C9.3,49.1,9.1,48.6,9.3,48.2z"/>
<path class="st0" d="M89.3,54.1v4.6c0,0.2-0.2,0.5-0.4,0.6c-1.4,0.6-6.5,2.9-8.5,5.8c-5.3,7.3-9.2,17.7-18.3,17.7H24.7
	c-13.3,0-24.1-10.8-24.1-24.1v-0.4c0-0.3,0.3-0.6,0.6-0.6h20.9c0.4,0,0.8,0.4,0.6,0.8c-0.1,1.4,0.1,2.8,0.8,4
	c1.3,2.5,3.8,4.1,6.6,4.1h10.3v-8.1H30.3c-0.5,0-0.9-0.6-0.5-1.1c0.1-0.2,0.2-0.3,0.3-0.5c1-1.4,2.4-3.5,3.8-5.9
	c1-1.6,1.8-3.4,2.6-5.2c0.1-0.3,0.2-0.6,0.4-1c0.2-0.5,0.4-1.1,0.5-1.6c0.1-0.4,0.2-0.9,0.4-1.4c0.3-1.5,0.5-3.1,0.5-4.7
	c0-0.6,0-1.3-0.1-1.9c0-0.8-0.1-1.4-0.2-2.2c-0.1-0.6-0.2-1.2-0.3-1.8c-0.1-1-0.3-1.8-0.5-2.8l-0.1-0.3c-0.2-0.6-0.3-1.3-0.5-1.9
	c-0.5-2-1.3-4-1.9-5.8c-0.2-0.8-0.5-1.4-0.9-2.2c-0.4-1.1-0.9-2-1.3-2.9c-0.2-0.4-0.4-0.8-0.5-1.2c-0.2-0.4-0.4-0.9-0.6-1.3
	c-0.1-0.3-0.3-0.6-0.4-0.9l-1.3-2.4c-0.2-0.3,0.1-0.6,0.4-0.6l8,2.2l0,0l0,0l1.1,0.3l1.2,0.3l0.4,0.1V7.2c0-2.3,1.8-4.1,4.1-4.1
	c1.1,0,2.2,0.4,2.9,1.2C48.4,5,48.8,6,48.8,7.2v7l0.9,0.2c0.1,0,0.1,0,0.2,0.1c0.2,0.1,0.5,0.4,0.9,0.6c0.3,0.2,0.6,0.5,1,0.9
	c0.8,0.6,1.7,1.4,2.7,2.4c0.2,0.2,0.5,0.4,0.8,0.8c1.3,1.2,2.7,2.6,4.1,4.2c0.4,0.4,0.8,0.9,1.2,1.4c0.4,0.4,0.8,1,1.2,1.4
	c0.4,0.6,1,1.3,1.4,1.9c0.2,0.3,0.4,0.6,0.6,1c0.5,0.9,1.1,1.7,1.5,2.6c0.2,0.4,0.4,0.9,0.5,1.3c0.5,1.2,1,2.4,1.2,3.5
	c0.1,0.2,0.1,0.5,0.2,0.8v0.1c0.1,0.3,0.1,0.8,0.1,1.1c0.1,1.2,0.1,2.5-0.2,3.7c-0.1,0.5-0.2,1-0.4,1.5c-0.2,0.5-0.3,1.1-0.5,1.5
	c-0.4,1.1-1,2-1.6,3c-0.2,0.3-0.4,0.8-0.6,1.1c-0.2,0.4-0.5,0.8-0.8,1.1c-0.3,0.4-0.6,0.9-1.1,1.3c-0.3,0.4-0.6,0.9-1,1.3
	c-0.5,0.5-1,1.2-1.5,1.7c-0.3,0.3-0.6,0.8-1,1c-0.3,0.3-0.6,0.6-1,1c-0.5,0.5-0.9,0.9-1.3,1.2l-0.9,0.8c-0.1,0.1-0.3,0.2-0.4,0.2
	h-6.3v8.1h8c1.7,0,3.4-0.6,4.8-1.8c0.4-0.4,2.5-2.2,4.9-4.8c0.1-0.1,0.2-0.1,0.3-0.2l21.8-6.3C88.9,53.3,89.3,53.6,89.3,54.1z"/>
</svg>
