<?xml version="1.0" encoding="utf-8"?>
<!-- Generator: Adobe Illustrator 24.2.3, SVG Export Plug-In . SVG Version: 6.00 Build 0)  -->
<svg version="1.1" id="Layer_1" xmlns="http://www.w3.org/2000/svg" xmlns:xlink="http://www.w3.org/1999/xlink" x="0px" y="0px"
	 viewBox="0 0 450 450" style="enable-background:new 0 0 450 450;" xml:space="preserve">
<style type="text/css">
	.st0{fill:#8C6D41;}
	.st1{fill:#E0C78F;}
	.st2{fill:#9E804F;}
	.st3{fill:#9A7D4B;}
	.st4{fill:#B69963;}
	.st5{fill:#B39560;}
	.st6{fill:#BFA26C;}
	.st7{fill:#C5A872;}
	.st8{fill:#BB9E69;}
	.st9{fill:#A48652;}
	.st10{fill:#C1A46F;}
	.st11{fill:#C0A26D;}
	.st12{fill:#BD9F6A;}
	.st13{fill:#BDA06B;}
	.st14{fill:#BB9D69;}
	.st15{fill:#B59965;}
	.st16{fill:#B3945F;}
	.st17{fill:#BD9F69;}
	.st18{fill:#A58754;}
	.st19{fill:#A88C5A;}
	.st20{fill:#977A4A;}
	.st21{fill:#B49561;}
	.st22{fill:#BFA26B;}
	.st23{display:none;}
	.st24{display:inline;}
	.st25{fill:none;}
	.st26{fill:#E0B064;}
	.st27{display:inline;fill:#E0B064;}
	.st28{display:inline;fill:none;stroke:#112F39;stroke-width:7;stroke-miterlimit:10;}
	.st29{fill:#110C05;}
	.st30{fill:#40311D;}
	.st31{fill:#4A3A24;}
	.st32{fill:#3F301D;}
	.st33{fill:#645236;}
	.st34{fill:#59462D;}
</style>
<g id="bg_x5F_border">
	<ellipse class="st0" cx="224.8" cy="224.9" rx="222.7" ry="221.2"/>
	<ellipse class="st1" cx="224.5" cy="225.8" rx="202.4" ry="196"/>
</g>
<g>
	<path class="st2" d="M426.9,234.1v-2c0-1.5,0.2-8.6-0.2-9.1c-0.2-0.3-0.7-0.3-1-0.5l-86.8,1.5l-0.1,1.4c-1-0.8-3.3-0.8-2.9-2.8
		c2.4,0.1,4.5-1.3,6.3-2.4l84,0.9l0.6-0.3c0-5.1-0.7-10.3-0.8-15.4v-0.5c1,8.9,1.6,17.7,1.5,26.8
		C427.5,232.2,427.7,233.5,426.9,234.1L426.9,234.1z"/>
	<path class="st3" d="M22.2,210.4c-0.1,3.4,0.1,6.7,0,10.1l92.5-2c1,0.5,5.9,2.3,4.8,3.9c-0.1,0.1-0.8-0.1-0.9,0l-96.9,0.5
		c0-1.3-0.2-2.3-0.3-3.7L22.2,210.4L22.2,210.4z"/>
	<path class="st4" d="M320.9,94.3c-9.1,0.2-18.4-0.2-27.2,0c-3.1,0.1-6.7,1.3-10,0.5l1.5-2.2c13.7-0.9,27.2,0.5,40.5-0.8l0,0"/>
	<path class="st5" d="M422.4,266.4c0.2-1.4-0.8-0.9-1.7-0.9c-10-0.3-22.4,0.9-32,0.2c-0.9-0.1-1.6-0.9-1.5,0.8
		c-0.6-0.7-0.9-1.4-1.5-2c4.8-1,9.9-0.3,14.8-0.5c1.2,0,2.2-0.5,3.3-0.5c5.3-0.1,13.4,0.7,18.3,0.1c1-0.1,0.7-0.9,1.2-1.4
		C423.1,263.5,422.9,264.9,422.4,266.4L422.4,266.4z"/>
	<path class="st6" d="M93.8,82L93.8,82c6,1.4,6.9,0.1,12.8,0c14.1-0.2,28.3,0.7,42.4,0.5c-0.2,0.9-1.6,0.9-3.1,1
		c-4.8,0.2-10.7-0.2-15.8,0l-27.4,1"/>
	<path class="st7" d="M171.4,101.9c-0.6,0.2-2.1,1.4-3.1,1.4c-3.1,0.3-7.9-0.5-9.5-0.5H88.9l-2.1,2h84.1
		C176.2,104.1,176.7,102.4,171.4,101.9z"/>
	<path class="st8" d="M155.6,92.3h-75l16.2,2c1.7-0.7,45.2,0.7,54.9-0.5C153.9,93.5,156,93.4,155.6,92.3z"/>
	<path class="st9" d="M294.9,43.6l-26.4,0.1c-40.5,1.3-80.7,1.4-120.8,0.3c-2.1,0.8-4.1,2-6.3,2.8h166.1c-2.5-1.2-5.1-2.9-7.7-3.4"
		/>
	<path class="st10" d="M319,62.9c-11.4,0.1-22.6,1.5-33.9,1.4c-3.5,0-6.9,0.1-10.4,0c-0.8-0.5,0-0.9,0.7-0.9c8-0.9,16.3-0.5,24.3-1
		c11-0.7,20.5-1.6,31.6-1.4c0.7,0,1.3,0.5,2.6-0.5c1.5,1,3.7,1.7,4.8,3.4"/>
	<polygon class="st11" points="147.7,63.7 194.8,64.9 195.4,62.9 	"/>
	<path class="st12" d="M31.2,171.9c0,1.6-0.2,1.3,1.2,1.4c5.1,0.3,10.1,0.3,15.1,0.5c3.1,0.1,7.2-0.3,10.2,0
		c0.7,0.1,1.5,0.3,0.7,0.9l-28.2,0.5C30.7,174.1,30.9,173,31.2,171.9L31.2,171.9z"/>
	<path class="st13" d="M426,204.7v0.5l-1.2-2.7l-16.9-0.1c-1.7-1.3,4.9-0.9,5.3-0.9c0.7-0.1,1.3-0.5,1.5-0.5h10.4
		c-0.3-1.5,0.1-5-1.7-5.3l-47.6-0.5c-0.8-0.5,0-0.9,0.7-0.9c4.4-0.5,8.7-0.3,13.2-0.5c2,0,4.1,0,6.3,0c8.7-0.1,18.8,0.1,27.6,0v-3.4
		C424.5,195.1,425.3,199.6,426,204.7L426,204.7z"/>
	<path class="st14" d="M418.6,170.4c-0.6-0.9-0.7-0.9-1.6-1c-3-0.2-7,0.5-9.9,0.5c-11.5,0.2-22.9-0.2-34.4-0.5l0.7-0.9l43.7-1
		c0.1-0.1-0.8-3.8-0.9-4.4C417.8,165.2,418,168,418.6,170.4L418.6,170.4z"/>
	<path class="st14" d="M420.6,177.5c-0.7-1.2-0.3-0.8-1.3-0.7c-4.1,0.2-9.3,0.7-13.4,0.7c-0.8-0.5,0-0.9,0.7-0.9
		c3.5-0.3,9.5,0,12.8-0.5c0.7-0.1,0.1-1.7,0.2-2.4C420,175.1,420.3,176.2,420.6,177.5L420.6,177.5z"/>
	<path class="st15" d="M426.9,234.1c-0.1,4.2-0.6,8-0.9,12c-0.1-0.5,0.2-2.3-0.2-2.4c-2.6-0.3-6.8,0.1-9.7,0
		c-3.7-0.1-12.5,0.2-15.3-0.3c-0.8-0.2-1.3,0.3-1-1h26.4l0.9-10.1C426.9,232.8,426.9,233.4,426.9,234.1L426.9,234.1z"/>
	<path class="st16" d="M316.9,400.4c-1.5,0.8-2.8,1.5-4.5,2.4c1.3-1.7-1.5-0.5-2.1-0.7c-20.8-1-43,0.9-64.1,0.1
		c-0.6,0-1.8,0.3-1.7-0.5c14.6-1.7,29.2-1.4,43.9-1.4c3.3,0,6.7,0,10.1,0C304.6,400.4,310.8,400.2,316.9,400.4L316.9,400.4z"/>
	<path class="st17" d="M346.6,382c-1.2,1-2.4,1.5-3.3,2.4c0.8-1.3,0.6-0.9-0.7-0.9c-11.3-0.5-22.9,0.3-34.1,0
		c-7.5-0.2-15.2-1.2-22.9-1.4c-3.9-0.1-8.5,0.5-12.2,0c-0.7-0.1-1.5-0.3-0.7-0.9L346.6,382L346.6,382z"/>
	<path class="st18" d="M284.3,389.7c0.8,0.7,0,0.9-0.7,0.9c-2.2,0.2-4.9-0.1-7.4,0c-47.7,2.3-95.8,0.2-143.8,0.5l-2.6-0.8
		L284.3,389.7L284.3,389.7z"/>
	<path class="st19" d="M372.8,359.2c-2.2,0.1-13.5,0.1-16.4,0.1c-51.7-0.1-103.6-0.1-155.4,0l0.6,1l155.2,0.3h14.7L372.8,359.2z"/>
	<path class="st20" d="M289,411.8c-2.7,1.2-5.5,2.4-8.2,3.4c-0.5-0.8-1.8-0.5-2.5-0.5c-10-0.1-20.2-0.1-30.2,0
		c-4.3,0-9.9-0.3-13.9,0c-2.1,0.2-5.3,1.5-7,1.4c-2,0-2-1.4-4.3-1.5c-2.9-0.1-6.5,0.1-9.7,0c-12.4-0.2-25.9,0.5-38.2,0
		c-1,0-4.3-1.4-3.9,0.5c-2.5-0.8-5-2-7.3-2.8c5-0.8,11.2-0.5,16.1-0.5c13.3,0,26.9,0.1,40.2,0c0.8,0,1.6,0.5,2.3,0.3
		c1.4-0.2,2.3-3.4,6-2.2c2.3,0.8,4.5,2,7.5,1.7L289,411.8L289,411.8z"/>
	<path class="st21" d="M301.6,374.6c-0.1,1.2,0.1,1,1,1.2c3.1,0.6,6.4-0.1,9.3-0.1c13.6-0.1,27.6-0.1,41.3-0.9c0.9,0,2-0.3,1.7,1
		c1.2-0.8,2.3-1.7,3.3-2.8l0.1-0.8L301.6,374.6z"/>
	<path class="st22" d="M93.1,374.3l2.6,1l49.3,0.5l-0.2,1.4H96.6C95.5,376.3,94.2,375.5,93.1,374.3L93.1,374.3z"/>
</g>
<g id="ornaments" class="st23">
	<g class="st24">
		<path class="st25" d="M33.4,178c-4.8,2.3-9.4,5.3-12.8,9.3l-3.5,5.8c2.8-2.5,5.6-4.9,8.6-6.9L33.4,178z"/>
		<path class="st26" d="M13.3,182.3c-0.1-0.4,0-1,0-1.4c-0.1,0.3-0.4,1.2-0.7,2.1c0.1,0.1,0.2,0.1,0.3,0.1
			C13.1,182.9,13.2,182.6,13.3,182.3z"/>
		<path class="st26" d="M48.3,129.5c2.2-1.2,4.3-2,6.3-3.9c1.9-2,1.6-5.4-1.3-3l-1-0.2c-0.9,0.8-1.9,1.3-3.2,1.8
			c-7.2,2-14.4,4.7-19.9,10.1c3.3-6.4,6.6-12.7,10-19.2l0.3-1.6c1.1-1.5,0.1-3.3-1.3-2.1l-1.5,2.7l-1.4,0.5
			C-7.5,185.2-4.3,278.8,43,346.7c0.7,0.9,1.3,1.1,1.7,0c0.2-0.7,0.2-1.8,0.5-2.4c-3.3-3.9-5.8-8.5-8.3-12.8
			c-12.2-21.9-21.3-45.9-25.7-70.7c0.1-1.2,0.6-0.4,0.8,0.1c2.2,4.2,3.8,8.2,6.4,12.1c7.1,10.5,19,18.6,20.1,32.4
			c0.3,4.6-0.9,8.7-1.7,13.2c6.7-8.8,4.9-19.1-0.7-27.9c-0.5-0.7-4.8-5.9-4.4-6.3c2.1,0.1,3.5,1.2,5.7,1.2c8.4,0,11.3-13.2-1.3-11.6
			c-1.3,0.1-2.5,1.1-4.1,0.8c-0.1,1.1,0,0.7,0.6,0.9c2.1,0.7,4.4,0,6.4,0.8c4,1.5,3.5,5.8-0.7,6.9c-2.4,0.5-4.4-0.4-6.5-1.5
			c-15.1-8.4-25.6-30.3-22.3-47.2c1.6-8.2,9.2-15.7,18.1-12.3c1.7,0.8,1.8,0.2,0.5-0.8c-5.4-3.6-10.2-3.1-15.3,0.7l-5.1,6
			c0.1-4.8,5.4-14.1,9.9-15.9c6.6-2.4,11.1,2.2,15.1,6.7c-1.3-4.8-4.6-8-9.2-9.5c-0.6-0.2-1.1,0.3-0.9-0.9h9.4c-0.8-1.2-3-1.8-4.2-2
			c-9.4-1.3-15.2,4.1-19.4,11.5c-0.7-6.6,1.3-13.2,5.6-18.3c5.4-6.5,13.3-9.9,18.6-16.3c0.7-0.9,4.6-6.3,4.8-6.9
			c0.1-0.3,0.3-1.3-0.1-1.3c-4.4,0.8-8.4,1.2-12.2,3.5c-8.4,4.9-11,14.9-15.1,23.1c-0.2,0.4-0.2,1.2-0.9,1.3
			c1.6-12.9,7.9-25.7,15.7-36.1L35,156.6c-10.3,5.1-17.2,15.5-21.7,25.9c0.1,0.3,0.2,0.5,0.4,0.6c-0.3,0.8,0,2.5-1.7,2.4
			c-0.1-0.1,0.2-1.3,0.5-2.4c-0.4-0.3-0.5-0.9-0.1-1.9c2.4-9.4,4.9-20,8.7-28.9c3.8-9,16.7-27,28.1-18.6c6.2,4.4,3.3,14.7-4.6,14.1
			c-1.7-0.1-4-0.9-4.1-3c-2.2,1.6,0.6,4.7,2.5,5.3c4.7,1.2,8.6-1.1,10.7-4.9C57.8,138.3,55.4,132.5,48.3,129.5z M20.5,187.3
			c3.5-4,8.1-6.9,12.8-9.3l-7.6,8.2c-3,2.1-5.8,4.4-8.6,6.9L20.5,187.3z"/>
		<path class="st26" d="M12.1,185.3c1.7,0.1,1.3-1.6,1.7-2.4c-0.3-0.1-0.4-0.4-0.4-0.6c-0.1,0.3-0.2,0.5-0.3,0.8
			c-0.1,0-0.2-0.1-0.3-0.1C12.3,184.1,12,185.2,12.1,185.3z"/>
	</g>
	<path class="st27" d="M374.2,64.7C309.5,4.8,214.2-11.7,132.8,27c-19.8,9.4-42,23.6-57.4,38.8c-0.6,0.5,0,1.6,0.5,2.1
		c0.2,0.1,0.3,0.3,0.5,0.4c2.1-0.2,3.8-2.9,5.4-4.3c28.7-25,62.6-42.4,100.2-50.5c2.8-0.5,10.9-2.5,13.2-2.2c1.4,0.2-0.9,1.3-1,1.4
		c-4.7,4.5-9.5,9.2-12.5,15c-0.3,0-0.6,0.2-0.8-0.2c-1.2-1.7-1.1-5.8-4.5-6.6c-1.9-0.5-8.9,0.3-9.3,2.5c-0.5,2.1,4.4-0.2,5.6-0.2
		c4.6-0.1,6.1,2.8,5.6,6.8c-0.6,6.2-11.5,13.2-17.2,14.7c-8.5,2.3-17.3,0.2-25.8-1c-0.1-1.1,0-0.6,0.6-0.9c5.5-1.5,6.5-3.3,10.2-7.1
		c0.3-0.3,3.8-2.8,1.1-2.2c-8,1.7-12.2,8.9-19.9,11.2c-3.8,1.2-8.1,1.7-11.9,3.1c-9.9,3.5-22.5,10.1-26.2,20.4
		c2.8-2.1,4.8-5,7.4-7.1c8.2-6.8,27.4-15.9,35.9-5.7c1.5,1.6,1.6,3.6,3,5.1c0.6-5.8-2.5-9.3-7.9-11.3c-0.5-0.2-3.6-0.4-2.7-1.3
		c0.9-0.9,9.1-1.3,10.7-1.2c11.7,0.3,18.5,3.9,30.4-0.9c8.9-3.6,13.6-10.1,18.8-17.6c1.9-3,3.6-5.9,5.5-9c-0.1,3.2-0.9,5.9-0.6,9.3
		c0.5,5.4,4.8,13.8,10.8,14.6c-7.3-5.8-11.2-17.7-5.8-26c0.9-1.5,4.8-5.9,6.5-6.3c2.5-0.6,6.5,0,9.3-0.5
		c-8.6,7.1-11.7,19.8-4.2,28.9c7.6,9.2,22.1,6.5,29.2-2.1c5.1-6.2,3.9-15.3,0.3-22l-3.7-5.2h6.5c1.5,0,7.2,4,8.6,5.1
		c6.1,5.1,8.3,10.5,6,18.1c-0.6,1.6-1.7,3.5-2,4.6c-0.6,1.8,1.4,1.1,2.3,0.2c2.5-2.3,3.3-6.6,3.6-9.7c5.2,13.9,18.4,22.8,33,24.9
		c17.5,2.5,32.4-10.9,48.2,3.1c3.1,2.7,5.8,6.3,5.4,10.6c-0.9,9.1-13.2,8-17,0.8c-1-1.8-0.8-5.2-3.5-4.6
		c-1.6,6.7,6.4,13.1,12.7,13.2c3.7,0,9.3-3.1,10.3-6.7c3.5-13.2-14.3-23.3-25.8-22.9c-5.6,0.1-11.2,2.1-16.5,3.7
		c0.2-1.2,1.2-1.5,1.9-2.8c3.9-7.6-3.5-13.1-10.6-13.7c-0.6,0-2.7-0.3-2.8,0.4c6.9,1.1,16.7,8.4,8.6,14.8c-3.7,2.9-11,1.6-15.3,0.6
		c-8.8-2.1-17.1-7.6-22.1-14.8c1.6-0.2,3.1,0.3,4.8,0.2c2.9-0.2,7.1-2.5,7.3-5.7c-3.7,1.5-5.8,3.6-10.2,3.3
		c-6.2-0.3-7.9-10.6-10.9-14.8c-2.1-3.1-5.7-4.9-8.5-7.3c45.6,3.3,85.6,24,120.3,51.9c1,0.9,5.3,5.2,5.8,5.4
		c0.3,0.1,1.6-0.1,1.6-0.2C375.4,66.5,375.3,65.5,374.2,64.7z M233.1,15c7.3,11.7,1.7,27.2-13.1,27.2c-20,0.1-18.5-31.9,0.1-32.7
		C225.5,9.3,230.2,10.2,233.1,15z"/>
	<g class="st24">
		<path class="st26" d="M415.4,299.2c0.2-0.9-0.1-0.6-0.6-0.9c-1.8-1.2-3.7-1.1-5.7-1.3c5.8-5.7,10.4-12.9,14.1-20.2
			c1-1.9,1.5-4.2,2.5-6.2c2.7-4.9,8.8-6.8,9.2-13.2c0-1.2-0.1-3.7-1.2-4.3c-0.1,5-3.5,8.6-6.2,12.5c-0.2,0.3-0.3,1.2-0.9,0.5
			c-0.2-0.2,0.6-1.7,0.7-2.3c1-5.8,0.8-12.4-0.9-18.1c-0.8-2.8-2.1-4.7-3.1-7.3c7.9,2.3,17.6-4.4,16.2-12.9c-0.2-1.3-1-2.5-2.5-2.3
			c3.4,5.7-3.7,13.1-9.4,13.2c-5.2,0-16.1-5.1-18.9-9.4l-1.7-3.5c-0.1,3.8,1.9,7.9,5.2,9.9c4,2.5,6.4,2.1,9.4,6.7
			c7.1,11,3.9,25.4-1.6,36.3c-0.2,0.4-0.4,0.6-0.5,0.8h0.2l0.4-0.8c-0.3,0.6-0.3,2.4-1.7,2.9c-0.4-1.3,0.6-2.8,0.8-3.8v0.2
			c1.6-9.2,2-16.5-5-23.3l-1.6-1.3l-1-0.7c-0.2-0.1-0.4-0.1-0.6,0l-1.1,1.5c-0.1,0.1-0.1,0.3-0.2,0.5c-2.7,11.3,6.8,17.3,5.8,27.2
			c-1.1,10.7-10.2,18.7-18.5,24.5c0.1-2.7,1.3-5.4,1.7-8.2c0.3-2.7,0.4-5.4,0.1-8.1c-0.1-0.4-0.2-1.8-0.8-1.8
			c-0.6,6-1.1,13.4-4.1,18.8c-0.8,1.4-2.4,2.4-2.5,4.2c0.2,1,0.4,1.8,0.8,2.9c0.9,0,1.2-0.4,1.7-1
			C399.6,304.5,405.6,298.7,415.4,299.2z M411.5,252.7l3.2,5.3c1.1,2.7,3.1,8.2,2.7,10.9c-0.1,0.4-0.2,0.9-0.8,1
			C415,264.2,411.1,258.8,411.5,252.7z"/>
		<path class="st26" d="M411.5,109.4c-0.7-0.9-2.2-1-1.9,0.4c0.2,1.2,0.6,2.4,1.1,3.6c6.3,11.4,11.8,21.1,16.8,34
			c5,12.9,8.8,26.4,11.8,39.5l0.7,0.7c0,0.7,0,1.5,0.2,2.2c-0.1-0.2-0.3-0.4-0.6-0.2c-2.8-12.5-10.4-24.7-17.7-35.2
			c-3.4-3.6-6.6-7.1-9.8-10.9c-2.3-4.6-3.5-9.7-3.4-15.4c-1.8-4.3-3.3,0.7-3.5,3.2c-0.2,3,0,5.6,1.1,8.5c-4.1-3.4-8-7-11.2-11.4h-1
			c-0.1-0.1-0.2-0.2-0.3-0.3c0.1,0.1,0.2,0.1,0.3,0.2c0.2-2-1.1-5.8-3-7c-0.6-1.9-0.9-4.2-1.6-6c-0.7-1.9-1.1,0.8-1.3,1.7
			c-0.2,3.3,0.3,7.7,1.7,10.7c0.3,0.5,1.2,1.6,1.7,2.4c0.1,0.2,0.1,0.4,0.2,0.5c6.3,9.4,15.5,12.4,22.9,20.2
			c2.8,3.1,4.9,6.6,7.2,9.9c0.1,1.3-1,0.7-1.7,0c-5.1-3-11.4-8-17.5-4.2c-2.4,1.4-3.9,4.5-2.3,7.1c0.9,1.8,4.8,2.3,3.8,0
			c-0.7-1.4-1.6-3.2,0.6-4.4c4.7-2.7,12.8,3.4,16.2,6.3c7,5.9,12.3,13.6,15.5,22.1l-6.4-3.6c-5.8-1.1-12.1-0.2-15.3,5.3
			c-0.3,0.8-0.5,1.4,0.5,0.8c3.9-3.4,10.1-5.4,15.1-3.3c9.6,4.1,12.3,12.9,11.3,22.6c-0.3,4.2-3.7,8.3-7.5,9.4
			c5.8-12-1.9-27.7-16.8-25.5c-3.2,0.6-6.3,3.8-8,6.4c-1.1,1.8-1.6,3.7-3,5.3c-1.7-5.9-0.2-13.5,5.1-17.2c2.2-1.4,5.9-2.9,8.1-4.2
			c0.2-0.1,0.6-0.6,0.5-0.7c-5.8-0.3-12.8,4.3-15.1,9.7c-2.2,5.4-0.8,18.9,3,23.5c1.5,1.8,3.8,2.5,4.9,4c2.3,2.4,3.3,6,7.2,7.5
			c6.1,2.1,8.2-1.7,12.3-4.6c2.7-1.9,4.7-2.1,7.1-5.1c0.9-1.1,3.1-5.8,3.4-2.4c0.2,1.9,0,4.7,0,6.7c-1.4,45.6-12.9,87.7-39.4,125.4
			c-0.1,3.8,1.1,1.7,2.3,0.1c21-28,35.4-70.9,38.3-105.5C448.2,193.7,436.9,150.2,411.5,109.4z M420.3,224.8c-1.4-0.8-4.5-4.3-5-5.7
			c-1.1-0.1-1.7-1-0.7-1.7c-0.7-1.2-0.2-7.7,0.9-7.9c0.2,0,0.5,0.1,0.6,0.2c1.5,9,15.9,10.7,14.5,0c-1-7.7-8.9-4.7-12.8-1
			c-1.3,0.3-1.7-0.1-1.3-1.3c0.6-1.1,1.8-3.1,2.2-3.8c0.2-0.6,1.4-3.8,1.1-4.1c-3.7,1.9-4.8,6.8-6.9,10.2l-1.8,5.7
			c-6.1-4.4-3.5-10.5,0.5-15.4c6.7-8.3,20.5-3.5,21.4,6.4C433.7,212.9,429.4,228.1,420.3,224.8z"/>
	</g>
	<g class="st24">
		<path class="st26" d="M326.8,388.8c-3.5,0.8-8.1,3-9.1,6.6c-0.7,2.5,2.7-1.1,3.1-1.4c5-3.5,12.4-4.6,18.5-3.8
			c-0.1-0.6-0.8-1-1.3-1.2c-3.2-1.5-8.4-2.3-11.9-3.3l0.1,0.2c-6.8-1.8-8.6-2.9-15.9-0.3c-10.9,3.8-9.3,8.9-14.4,17
			c-3,4.6-11.2,13.7-16.6,15.2c-0.2,0.1-0.9,0.3-0.9-0.1c3.8-5.2,3.8-10.6-3.1-12.9c-1.7-0.5-5-1.6-6.1,0c7.5,0.3,11,6.8,6.3,12.9
			c-4.7,5.9-17.1,9.5-24.6,9.3l4.3-5.5c2.4-4.7,2.1-10.5-1.1-14.7c-0.1,2.9,0.6,5.9,0.2,8.9c-0.6,5.2-6.1,11.4-11.7,11.2
			c3.8-8.1-1.5-17.7-11-13.2c-2.5,1.2-4.1,3.2-3.6,6c1.1,0.1,1-1,2-1.7c10.6-7.9,13.7,6,6.6,12.6c-5.9,5.6-22.5,6.2-27.9-0.4
			c-2.8-3.6-3.2-8.9-2.2-13.1c0.3-1.2,1.1-2.3,1.6-3.5c0.6-1.5-1-1-1.9-0.2c-2.7,2.3-3.4,8.7-2,11.9l1.7,3.8c-3-2.2-5.7-5.4-7.6-8.5
			c-2.2-3.6-3.5-7.9-7.3-10.4c-0.3-0.1-3.5-2.1-2.8-0.5c0.3,0.8,3.2,3.1,4.1,4.6c0.1,0.3,2.1,3.7,0.7,3c-0.7-0.2-2.1-2.2-3-2.9
			c-6.3-5-15.7-9.4-23.5-11.3c-11.2-2.9-29.1-2.4-29.7-17.8c-0.6-0.1-0.6,0.6-0.7,1.1c-2,9.2,5.5,13.2,13.2,15.1
			c-0.4,0.8-1.1,0.5-1.8,0.6c-15.9,3.2-28.7-3.6-27-20.8c0-0.4,0.4-1.4-0.3-1.3c-3.1,6.3-2.4,12.6,2,18.1c2.4,3.1,4.1,3.8,7.4,5.4
			c0.2,0.1,1.6,0.3,0.8,1c-0.3,0.2-8.4-1.5-9.5-1.9c-1.5-0.5-3.2-1.3-4.7-1.9c-0.2-0.1-2.8-1.9-2-0.4c1.2,2.9,11.7,5.7,14.8,5.9
			c13.4,0.8,22.6-4.4,37.2-0.5c1.8,0.4,4.7,1.3,5.9,2.5c-8.3-0.4-15.5,11.6-6.5,16.1c2.8,1.3,9,1.2,10.3-1.9c0.8-1.5-2.2,0.9-2.8,1
			c-8.7,1.8-12.2-5.5-5-10.8c5.4-4,13.5-0.8,18.6,2.5c8.7,5.6,13.5,14.2,23,19.2c9.2,4.7,22.9,4.9,30-3.3c0.4-0.5,1.1-2.1,1.2-2.2
			c0.1-0.1,1.6,0.4,2.1,0.4c14.9,0.2,23-2.4,36.2-8.7c8.1-3.9,13.7-9.2,18.8-16.3c4,15.2,23,10.3,24.4-3.8c-2.7,3.7-4.3,7.9-8.7,9.7
			c-7.4,3.2-14.1-1.8-12.7-9.7c1-6.3,5.6-10.9,11.4-13.2c0.2,0,0.3-0.1,0.5-0.1c-0.2,0.1-0.4,0.1-0.5,0.2c2.4-0.5,4.7-0.7,6.9-0.7
			c0.8,0,1.6,0.1,2.3,0c2.8,0.1,5.6,0.5,8.5,1.1C330.5,389.1,328,388.4,326.8,388.8z"/>
		<path class="st26" d="M224,428.6c3.1,0,5.5-6.3,1.8-7.2c-0.4,4.6-5,6.7-5.8,0.9c-0.2-1.6,0.9-5.9-0.7-6.3
			c-1.3-0.2-2.7,3.7-2.7,4.7C216.5,424.2,220.2,428.7,224,428.6z"/>
	</g>
	<ellipse class="st28" cx="222.3" cy="225" rx="174.4" ry="169.1"/>
</g>
<g id="hat">
	<g>
		<path class="st29" d="M38.6,256.7c-0.4-3.2,0.4-6.8,0-10.1c1.8-4.5,3.2-10.5,6.3-14.6c11.8-12.7,46.9-3.2,61.6,2.8
			c1.8-11,4.1-21.8,5-33.2c1.8-23.8,0.4-46.5,0-70.3l-0.9-15.1c-4.5-0.9-3.2-5.4,0.9-7.2c1.3-8.3,13.3-11,20-12.7
			c52.8-12.7,131.3-12.7,184.7-1.8c6.3,1.3,26.5,5.9,29.2,11c0.9,1.8,1.8,7.2,1.8,9.6c0,24.2-9.2,51.9-8.3,78.4
			c0,5.4,3.7,33.2,6.8,35.5c6.3,4.1,46.5-10.1,57,11.4c12.3,25.1-19.1,57.5-36.9,71.6c-63.3,50.6-147.2,65.2-223,35.1
			C111.1,334.7,44,293.6,38.6,256.7L38.6,256.7z"/>
		<g>
			<path class="st30" d="M318.9,234.8c0.9-0.4,2.2-2.8,5-1.8c-0.4,8.7,5,36,0,41.5c-2.2,2.8-29.2,11-34.6,12.3
				c-25.6,5.9-62.9,9.2-88.9,7.2c-7.2-0.4-17.3-2.2-24.2-5c1.3-2.8,4.5-4.1,9.6-3.2c2.2-9.6,3.7-19.1,3.2-29.7
				c1.3-4.5,3.2-6.8,8.3-5.4c36,1.3,85.8,0.9,119.5-13.3C317.5,237,318.4,235.7,318.9,234.8L318.9,234.8z"/>
			<path class="st31" d="M58.6,244.9c1.8,27.8,27.3,46.5,48.7,59.2c66.5,39.7,161.9,35.5,228.4-2.2c20.5-11.8,45.2-31,49.2-55.7
				c3.7-4.1,6.3,10.5,6.3,12.7c-0.4,17.3-39.3,46.1-53.3,53.8C254.1,357,127.3,357,62.2,278.6C55.8,270.2,36.4,244.4,58.6,244.9
				L58.6,244.9z"/>
			<path class="st32" d="M199.4,126.3l-11,105.3c-0.4,1.3-0.4,3.2-1.8,3.2c-2.8,0.4-29.2,0.9-30.6,0c-0.4-33.2,5-66.1,6.8-99.3
				c0.4-4.1,0.4-9.2-1.8-12.7C171.7,119,190.4,120.4,199.4,126.3L199.4,126.3z"/>
			<path class="st33" d="M318.9,234.8l2.2,3.7c-41.5,14.2-84.2,20-128.1,15.1c-2.8,9.2,0.4,27.8-5,34.6c-1.8,1.8-9.2,1.3-11.8,0.9
				c-6.3-0.4-13.7-1.8-20-3.2c-5.4-9.6-6.8-21.4-3.2-34.6c-5.4-0.4-27.8-5.9-27.3-11.4c0-0.9,0.4-1.8,0.9-2.8l10.1,1.3
				c5.4,0.4,11.8,3.7,17.7,4.5C209.5,251.6,264.6,248,318.9,234.8L318.9,234.8z"/>
			<path class="st34" d="M161.7,122.7c-9.6-1.3-29.7-4.1-37.3-8.3c-2.2-1.3-5-1.3-4.1-5c7.2-1.8,13.3,1.8,19.6,3.2
				c64.7,10.1,131.7,11,196.1-4.5c1.3,5.4-2.2,5.9-6.3,7.9c-27.3,11.8-98.4,12.3-129.4,11C187.7,125.9,173.5,124.4,161.7,122.7
				L161.7,122.7z"/>
			<path class="st30" d="M136.5,237.9c-2.8-0.4-5.4,0-8.3,0c-0.4,0.4,0.9,1.8,1.8,2.8c0.9,0.4,18.7,6.8,20,6.8
				c2.2,0.4,6.3-1.3,6.8-0.9c0.9,0.9-1.8,19.6-1.8,24.7c0.4,5.4,4.1,9.2,1.8,14.2c-8.3-1.8-24.7-7.2-31.9-10.5
				c-2.8-1.3-4.5-3.2-5.9-5.9l3.2-34.6L136.5,237.9L136.5,237.9z"/>
		</g>
	</g>
</g>
</svg>
