<?xml version="1.0" encoding="utf-8"?>
<!-- Generator: Adobe Illustrator 24.2.3, SVG Export Plug-In . SVG Version: 6.00 Build 0)  -->
<svg version="1.1" id="Layer_1" xmlns="http://www.w3.org/2000/svg" xmlns:xlink="http://www.w3.org/1999/xlink" x="0px" y="0px"
	 viewBox="177 0 1044 867" style="enable-background:new 0 0 1221 867;" xml:space="preserve">
<style type="text/css">
	.st0{fill:#010101;}
</style>
<g>
	<path class="st0" d="M672.6,368.1H523.2V398h149.3c16.2,0,26.1-2.2,26.1-15C698.7,370.3,688.8,368.1,672.6,368.1z"/>
	<path class="st0" d="M869.2,2.3H351.8c-95.2,0-172.5,77.3-172.5,172.5v517.5c0,95.2,77.3,172.5,172.5,172.5h517.5
		c95.2,0,172.5-77.3,172.5-172.5V174.8C1041.7,79.5,964.5,2.3,869.2,2.3z M830.4,584.5H706.3v-72.7c0-22.2-13.2-31.2-35.9-31.2
		H523.2v104h-124V278.3H694c73.9,0,131.7,15.8,131.7,83.8c0,40.9-24.2,61.3-51.4,68.3c32.6,9.6,56.1,35.9,56.1,77.5V584.5z"/>
</g>
</svg>
