<?xml version="1.0" encoding="utf-8"?>
<!-- Generator: Adobe Illustrator 24.2.3, SVG Export Plug-In . SVG Version: 6.00 Build 0)  -->
<svg version="1.1" id="Layer_1" xmlns="http://www.w3.org/2000/svg" xmlns:xlink="http://www.w3.org/1999/xlink" x="0px" y="0px"
	 viewBox="0 0 512 512" style="enable-background:new 0 0 512 512;" xml:space="preserve">
<style type="text/css">
	.st0{fill:#797979;}
</style>
<g>
	<path class="st0" d="M437.6,8.2C317.1,7.9,196.6,8,76.1,8C38.8,8,8.5,32.8,1.1,69.3c-0.2,1.1-0.7,2.1-1.1,3.1v295.4
		c1.9,7,3.2,14.2,5.8,21c12.1,31.5,34.5,52.2,67.5,60.1c78.6,18.8,157.3,37.2,236.1,55.5c41,9.6,75.1-19.1,74.8-61.3
		c-0.5-68.4-0.1-136.7-0.2-205.1c0-40.4-26.3-75.9-65.4-86.8c-73.3-20.5-146.8-40.5-220.2-60.8c-3.7-1-7.4-2-11.1-3.1
		c-9.1-2.7-14.2-11.1-11.8-19.5C78,59,86.5,54.4,96,57c22.8,6.2,45.5,12.6,68.3,18.7c4,1.1,8.2,1.7,12.2,1.7
		c86.1,0.1,172.3,0.1,258.4,0.1c10.2,0,17.2,5.5,18.1,14.1c1,10-6.3,17.6-17.1,17.6c-35.2,0-70.3,0-105.5,0c-4,0-9.1-1.4-10.1,4.5
		c-1,5.9,4.3,6.2,8.1,7.4c22.4,6.8,41.3,19,56.7,36.6c2.9,3.3,6,4.9,10.3,4.8c13.3-0.2,26.7-0.2,40,0c10.6,0.1,17.8,6.9,17.7,16.3
		c-0.1,8.3-6.8,15.3-15.2,15.4c-7,0.2-14,0-21,0.1c-6.1,0.1-8.3,2.8-6.5,8.6c4.3,14,5.7,28.2,5.6,42.8c-0.2,45.7-0.1,91.5-0.1,137.2
		c0,7.4,1.3,8.7,8.6,8.8c14.2,0.3,28.4,0,41.7-5.9c24.4-10.9,39.3-29.4,44.7-55.6c0.2-1.1,0.7-2.2,1-3.2V72.4
		c-2.6-7.8-4.3-16.1-8.1-23.3C490,22.5,467.7,8.2,437.6,8.2z M288.1,285c23.5,0,42.5,19.2,42.4,42.6c-0.1,23.5-19.2,42.3-42.8,42.2
		c-23.2-0.1-42.1-19.1-42.2-42.3C245.5,304.1,264.6,285,288.1,285z"/>
</g>
</svg>
