<?xml version="1.0" encoding="utf-8"?>
<!-- Generator: Adobe Illustrator 24.2.3, SVG Export Plug-In . SVG Version: 6.00 Build 0)  -->
<svg version="1.1" id="Layer_1" xmlns="http://www.w3.org/2000/svg" xmlns:xlink="http://www.w3.org/1999/xlink" x="0px" y="0px"
	 viewBox="0 0 100 100" style="enable-background:new 0 0 100 100;" xml:space="preserve">
<style type="text/css">
	.st0{fill:#110C05;}
	.st1{fill:#40311D;}
	.st2{fill:#4A3A24;}
	.st3{fill:#3F301D;}
	.st4{fill:#645236;}
	.st5{fill:#59462D;}
</style>
<g>
	<path class="st0" d="M2.8,58.2c-0.1-0.8,0.1-1.8,0-2.6c0.5-1.2,0.8-2.7,1.7-3.7c3-3.3,12.1-0.8,15.8,0.7c0.5-2.8,1-5.7,1.3-8.5
		c0.5-6.1,0.2-12,0-18.1L21.3,22c-1.2-0.2-0.8-1.4,0.3-1.8c0.4-2.1,3.4-2.9,5.1-3.3c13.6-3.3,33.8-3.3,47.5-0.5
		c1.6,0.3,6.8,1.5,7.5,2.8c0.3,0.5,0.5,1.9,0.5,2.5C82,27.9,79.8,35.1,80,41.9c0,1.4,0.9,8.6,1.7,9.2c1.6,1.1,11.9-2.6,14.6,2.9
		c3.1,6.4-5,14.8-9.5,18.4c-16.3,13-37.9,16.7-57.4,9C21.4,78.2,4.1,67.7,2.8,58.2L2.8,58.2z"/>
	<g>
		<path class="st1" d="M74.9,52.5c0.2-0.1,0.6-0.7,1.3-0.4c-0.1,2.3,1.3,9.2,0,10.7c-0.6,0.7-7.5,2.8-8.9,3.1
			c-6.6,1.5-16.2,2.3-22.9,1.9c-1.9-0.1-4.4-0.6-6.2-1.3c0.4-0.8,1.2-1,2.4-0.9c0.6-2.4,0.9-4.9,0.8-7.6c0.3-1.1,0.8-1.8,2.1-1.4
			c9.3,0.4,22.1,0.2,30.7-3.4C74.5,53.1,74.7,52.8,74.9,52.5L74.9,52.5z"/>
		<path class="st2" d="M7.9,55.1c0.4,7.1,7.1,12,12.6,15.3c17.2,10.2,41.6,9.1,58.8-0.6c5.3-3,11.6-7.9,12.7-14.3
			c0.9-1.1,1.7,2.7,1.6,3.3c-0.2,4.4-10.1,11.9-13.7,13.8C58.3,84.1,25.6,84,8.9,63.9C7.1,61.7,2.1,54.9,7.9,55.1L7.9,55.1z"/>
		<path class="st3" d="M44.1,24.6l-2.8,27.1c-0.1,0.3-0.1,0.8-0.5,0.9c-0.8,0.2-7.5,0.3-7.8,0C33,44,34.3,35.5,34.8,27
			c0.1-1.1,0.1-2.3-0.4-3.3C37,22.7,41.7,23.1,44.1,24.6L44.1,24.6z"/>
		<path class="st4" d="M74.9,52.5l0.6,0.9c-10.7,3.6-21.7,5.1-33,3.9c-0.6,2.3,0.1,7.2-1.2,8.9c-0.4,0.5-2.4,0.3-3,0.3
			c-1.6-0.1-3.6-0.5-5.1-0.9c-1.4-2.5-1.7-5.5-0.9-8.9c-1.4-0.1-7.1-1.5-7-3c0-0.2,0.1-0.5,0.2-0.7l2.6,0.3c1.5,0.2,3.1,1,4.6,1.2
			C46.7,56.9,60.9,55.9,74.9,52.5L74.9,52.5z"/>
		<path class="st5" d="M34.3,23.7c-2.5-0.3-7.6-1-9.6-2.2c-0.6-0.3-1.2-0.4-1-1.3c1.9-0.5,3.5,0.5,5,0.8c16.7,2.5,34,2.9,50.5-1.2
			c0.3,1.3-0.6,1.6-1.6,2c-7,3.1-25.4,3.1-33.4,2.8C41,24.5,37.4,24.1,34.3,23.7L34.3,23.7z"/>
		<path class="st1" d="M27.9,53.4c-0.7-0.1-1.4,0-2.1,0c-0.1,0.1,0.2,0.5,0.4,0.7c0.2,0.2,4.8,1.7,5.1,1.8c0.6,0.1,1.7-0.3,1.7-0.3
			c0.2,0.2-0.5,5-0.4,6.3c0.1,1.5,1,2.3,0.4,3.7c-2.1-0.5-6.3-1.8-8.2-2.7c-0.7-0.3-1.2-0.8-1.5-1.5l0.8-8.9L27.9,53.4L27.9,53.4z"
			/>
	</g>
</g>
</svg>
