<?xml version="1.0" encoding="utf-8"?>
<!-- Generator: Adobe Illustrator 24.2.3, SVG Export Plug-In . SVG Version: 6.00 Build 0)  -->
<svg version="1.1" id="Capa_1" xmlns="http://www.w3.org/2000/svg" xmlns:xlink="http://www.w3.org/1999/xlink" x="0px" y="0px"
	 viewBox="0 0 512 512" style="enable-background:new 0 0 512 512;" xml:space="preserve">
<style type="text/css">
	.st0{fill:#F4A32C;}
	.st1{fill:#ED9015;}
	.st2{fill:#FFEB7E;}
	.st3{fill:#FFE02F;}
	.st4{fill:#AD6A50;}
	.st5{fill:#BD7B62;}
	.st6{fill:#7A4838;stroke:#7A4838;stroke-width:4;stroke-miterlimit:10;}
</style>
<path class="st0" d="M460.9,360.2c-30-142.9-97.6-215.4-129.2-242.5l-4.6-3.8h-94.2l-93.2,110.3l-46,185.7l59.4,87.6l60.9,14.6
	h123.1C417.2,512,477.4,438.5,460.9,360.2L460.9,360.2z"/>
<path class="st1" d="M111.2,360.2c30-142.9,97.6-215.4,129.2-242.5l6.2-3.8h-60.1l-6.2,3.8c-31.5,27.1-99.2,99.6-129.2,242.5
	C34.6,438.5,94.8,512,174.9,512h60.1C154.9,512,94.7,438.5,111.2,360.2L111.2,360.2z"/>
<path class="st0" d="M352.6,26.6C324.3,9.7,291.3,0,256,0c-9.1,0-17.9,0.6-26.7,1.9l-22.8,18l-8.2,30.6l34.8,44.8h94.4l4.1-3.4
	c7.3-6.3,16.6-15,26.9-26.5C369.3,53.5,366.3,34.8,352.6,26.6L352.6,26.6z"/>
<path class="st1" d="M213.5,60.5c-10.7-13.9-7.7-35.7,6.1-45.3c8.1-5.6,16.5-10.6,25.3-14.8c-31.1,1.8-60.2,11.2-85.4,26.3
	c-13.7,8.2-16.7,26.9-6.1,38.8c10.3,11.5,19.5,20.2,26.9,26.5l3.7,3.4H244l-3.7-3.9C233,84.1,223.8,73.9,213.5,60.5L213.5,60.5z"/>
<path class="st2" d="M273.9,202.6c-56.2,18.6-96.7,71.6-96.7,134s40.5,115.4,96.7,134c69.6-5.1,124.5-63.1,124.5-134
	S343.5,207.7,273.9,202.6z"/>
<path class="st3" d="M182.6,336.6c0-65.2,46.4-119.5,107.9-131.8c-8.6-1.7-17.5-2.6-26.6-2.6c-74.2,0-134.4,60.2-134.4,134.4
	S189.7,471,264,471c9.1,0,18-0.9,26.6-2.6C229,456.1,182.6,401.8,182.6,336.6L182.6,336.6z"/>
<path class="st4" d="M276.2,120.8v58.1c0,8.5,6.9,15.5,15.5,15.5s15.5-6.9,15.5-15.5v-58.1H276.2z"/>
<path class="st5" d="M276.2,89.4h-41.9c-6.7,1.9-11.7,8.1-11.7,15.5s4.9,13.5,11.7,15.5h41.9l3.1-0.9V92L276.2,89.4z"/>
<path class="st4" d="M223.2,104.8c0-8.5,6.9-15.5,15.5-15.5h-49.9c-8.5,0-15.5,6.9-15.5,15.5s6.9,15.5,15.5,15.5h49.9
	C230.1,120.3,223.2,113.4,223.2,104.8z"/>
<path class="st5" d="M323.2,89.4h-16.1l-2.9,3.5v23l2.9,4.4h16.1c8.5,0,15.5-6.9,15.5-15.5S331.8,89.4,323.2,89.4z"/>
<path class="st5" d="M291.6,73.4c-8.5,0-15.5,6.9-15.5,15.5v32c0,8.5,6.9,15.5,15.5,15.5s15.5-6.9,15.5-15.5v-32
	C307.1,80.3,300.2,73.4,291.6,73.4z"/>
<g>
	<path class="st6" d="M296.8,266.9c-4.1-2.8-9-4.8-13.8-6.2c-0.7,0-1.4-0.7-2.1-0.7c-5.5-1.4-11-2.1-16.5-2.1
		c-4.8,0-9.6,0.7-14.5,1.4c-0.7,0-2.1,0.7-2.8,0.7c-4.8,1.4-9,3.4-13.1,5.5c-20,11-33.1,32.4-33.1,55.8c0,23.4,13.1,44.8,33.7,55.8
		c4.1,2.1,9,4.1,13.8,5.5v-2.8v-10.3c-4.8-1.4-9.6-4.1-13.8-6.9c-22.7-16.5-28.2-48.2-11.7-70.9c3.4-4.8,7.6-9,12.4-12.4
		c4.1-2.8,9-5.5,13.8-6.9c4.8-1.4,9.6-2.1,14.5-2.1c11,0,21.4,3.4,30.3,10.3c13.1,9.6,20.7,24.8,20.7,41.3s-8.3,31.7-21.4,41.3
		c-4.1,2.8-9,5.5-13.8,6.9v11v2.1c4.8-1.4,9.6-2.8,13.8-5.5c20-10.3,33.7-31.7,33.7-55.8C328.5,297.9,316.1,277.9,296.8,266.9z"/>
	<path class="st6" d="M365,374.9c-0.7-0.7-0.7-1.4-2.1-1.4c-0.7,0-2.1,0.7-2.8,2.8c-0.7,2.1-1.4,3.4-1.4,4.1
		c-1.4,3.4-2.8,6.2-4.1,9.6c-1.4,2.1-2.8,4.1-5.5,6.9c-1.4,1.4-3.4,2.8-5.5,4.1c-2.8,1.4-5.5,2.1-9,2.1h-23.4
		c-6.2,0-10.3-1.4-11.7-3.4c-2.1-2.1-2.8-6.2-2.8-11v-6.2v-13.1v-1.4l0.7-80.6v-9c0-2.8,0.7-4.1,1.4-6.2l0,0
		c0.7-1.4,2.1-2.1,3.4-2.8c4.1-1.4,7.6-2.8,11.7-3.4c2.1-0.7,3.4-1.4,4.8-2.1c0.7-0.7,1.4-1.4,1.4-2.8c0-0.7-0.7-1.4-1.4-2.1
		c-1.4-0.7-2.8-0.7-4.1-0.7c-2.8,0-4.8,0-6.9,0v-24.1h-9v13.8c0,5.5-5.5,10.3-13.1,10.3c-7.6,0-13.1-4.8-13.1-10.3v-13.8h-8.3v13.8
		c0,5.5-6.2,10.3-13.1,10.3c-6.9,0-13.1-4.8-13.1-10.3v-13.8H230v24.1h-1.4c-2.8,0-5.5,0-9-0.7c-1.4,0-2.8,0-4.1,0.7
		c0,0.7-0.7,1.4-0.7,2.1c0,1.4,0.7,2.1,1.4,2.8c0.7,0.7,2.8,1.4,4.8,2.1c4.1,0.7,8.3,2.1,11.7,4.1c1.4,0.7,2.1,1.4,2.8,2.8
		c0.7,0.7,0.7,0.7,0.7,1.4c0.7,1.4,0.7,2.8,0.7,4.8v6.9v2.8v76.5v4.1v11v7.6c0,4.8-0.7,8.3-2.8,10.3s-5.5,3.4-11.7,3.4H199
		c-3.4,0-6.2-0.7-9-2.1c-2.1-1.4-4.1-2.8-5.5-4.1c-2.1-2.1-4.1-4.8-5.5-6.9c-2.1-2.8-4.1-6.2-4.8-9.6c-0.7-1.4-0.7-2.8-1.4-4.1
		c-1.4-1.4-2.1-2.8-2.8-2.8s-1.4,0.7-2.1,1.4c-0.7,0.7-0.7,2.1-0.7,2.8v0.7v0.7c0.7,4.1,1.4,7.6,2.1,11c0.7,3.4,1.4,6.2,1.4,9
		c0.7,2.8,0.7,6.2,0.7,9c0,1.4,0.7,2.1,0.7,2.8c0.7,0.7,0.7,1.4,2.1,1.4c6.2,0,12.4,0,17.9,0c5.5,0,11.7,0,16.5,0
		c5.5,0,10.3,0,15.2,0s9.6,0,14.5,0c2.8,0,6.2,0,10.3,0l0,0v-21.4V386v-10.3v-2.8l0.7-93v-5.5h31v5.5l-0.7,94.4v2.1v11v2.1v21.4l0,0
		c4.1,0,6.9,0,10.3,0c4.8,0,9.6,0,14.5,0.7c4.8,0,10.3,0.7,15.2,0.7c5.5,0,11,0,16.5,0.7c5.5,0,11.7,0.7,17.9,0.7
		c0.7,0,1.4-0.7,2.1-1.4s0.7-2.1,0.7-2.8c0-3.4,0.7-6.2,1.4-9c0.7-2.8,1.4-6.2,2.1-9c0.7-3.4,1.4-6.9,2.8-11v-0.7v-0.7
		C365.7,376.3,365,375.6,365,374.9z M283,266.8v-2.1h0.7L283,266.8L283,266.8z"/>
</g>
</svg>
