<?xml version="1.0" encoding="utf-8"?>
<!-- Generator: Adobe Illustrator 24.2.3, SVG Export Plug-In . SVG Version: 6.00 Build 0)  -->
<svg version="1.1" xmlns="http://www.w3.org/2000/svg" xmlns:xlink="http://www.w3.org/1999/xlink" x="0px" y="0px"
	 viewBox="0 0 100 100" style="enable-background:new 0 0 100 100;" xml:space="preserve">
<style type="text/css">
	.st0{fill:none;}
	.st1{opacity:6.000000e-02;}
	.st2{fill:none;stroke:#000000;}
	.st3{fill:url(#SVGID_1_);}
	.st4{fill:none;stroke:#FFFFFF;stroke-width:6;stroke-opacity:6.000000e-02;}
	.st5{clip-path:url(#SVGID_3_);fill:url(#SVGID_4_);}
	.st6{display:none;opacity:0.24;clip-path:url(#SVGID_3_);fill:url(#SVGID_5_);enable-background:new    ;}
	.st7{fill:none;stroke:#000000;stroke-opacity:8.000000e-02;}
	.st8{fill:none;stroke:#FFFFFF;stroke-opacity:5.000000e-02;}
	.st9{fill:#110C05;}
	.st10{fill:#40311D;}
	.st11{fill:#4A3A24;}
	.st12{fill:#3F301D;}
	.st13{fill:#645236;}
	.st14{fill:#59462D;}
</style>
<pattern  y="100" width="24" height="24" patternUnits="userSpaceOnUse" id="p-grain" viewBox="6.4 -30.4 24 24" style="overflow:visible;">
	<g>
		<rect x="6.4" y="-30.4" class="st0" width="24" height="24"/>
		<rect x="6.4" y="-30.4" width="24" height="24"/>
		<g>
			<path d="M0.4-12.4l12,12 M6.4-30.4l24,24 M24.4-36.4l12,12"/>
			<g class="st1">
				<path class="st2" d="M0.4-12.4l12,12 M6.4-30.4l24,24 M24.4-36.4l12,12"/>
			</g>
		</g>
	</g>
</pattern>
<g id="Layer_2">
	<g>
		
			<radialGradient id="SVGID_1_" cx="-547.6274" cy="649.6275" r="0.1738" gradientTransform="matrix(400 0 0 -400 219101 259901)" gradientUnits="userSpaceOnUse">
			<stop  offset="0" style="stop-color:#6B4323"/>
			<stop  offset="0.6" style="stop-color:#512F1A"/>
			<stop  offset="1" style="stop-color:#382014"/>
		</radialGradient>
		<circle class="st3" cx="50.1" cy="50" r="49.7"/>
		<circle class="st4" cx="50.1" cy="50" r="46.2"/>
		<g>
			<defs>
				<circle id="SVGID_2_" cx="50.1" cy="50" r="42.2"/>
			</defs>
			<clipPath id="SVGID_3_">
				<use xlink:href="#SVGID_2_"  style="overflow:visible;"/>
			</clipPath>
			
				<linearGradient id="SVGID_4_" gradientUnits="userSpaceOnUse" x1="-547.4734" y1="649.5977" x2="-547.4734" y2="649.3494" gradientTransform="matrix(340 0 0 -340 186191 220871)">
				<stop  offset="0" style="stop-color:#BA8C34"/>
				<stop  offset="0" style="stop-color:#AF8027"/>
				<stop  offset="2.131386e-05" style="stop-color:#79593C"/>
				<stop  offset="1" style="stop-color:#B78246"/>
			</linearGradient>
			<rect x="7.8" y="7.8" class="st5" width="84.4" height="84.4"/>
			<pattern  id="SVGID_5_" xlink:href="#p-grain" patternTransform="matrix(0.2483 0 0 -0.2483 -6112.5806 -10025.2324)">
			</pattern>
			<rect x="7.8" y="7.8" class="st6" width="84.4" height="84.4"/>
		</g>
		<circle class="st7" cx="50.1" cy="50" r="42.2"/>
		<circle class="st8" cx="50.1" cy="50" r="41.7"/>
	</g>
</g>
<g id="Layer_1">
	<g>
		<path class="st9" d="M12.9,56.4c-0.1-0.6,0.1-1.4,0-2c0.4-0.9,0.6-2.1,1.3-2.9c2.4-2.6,9.5-0.6,12.4,0.5c0.4-2.2,0.8-4.5,1-6.7
			c0.4-4.8,0.2-9.4,0-14.2L27.4,28c-0.9-0.2-0.6-1.1,0.2-1.4c0.3-1.6,2.7-2.3,4-2.6c10.7-2.6,26.6-2.6,37.3-0.4
			c1.3,0.2,5.3,1.2,5.9,2.2c0.2,0.4,0.4,1.5,0.4,2c-0.2,4.9-1.9,10.5-1.7,15.9c0,1.1,0.7,6.8,1.3,7.2c1.3,0.9,9.3-2,11.5,2.3
			c2.4,5-3.9,11.6-7.5,14.5c-12.8,10.2-29.8,13.1-45.1,7.1C27.5,72.1,13.9,63.9,12.9,56.4L12.9,56.4z"/>
		<g>
			<path class="st10" d="M69.5,51.9c0.2-0.1,0.5-0.5,1-0.3c-0.1,1.8,1,7.2,0,8.4c-0.5,0.5-5.9,2.2-7,2.4c-5.2,1.2-12.7,1.8-18,1.5
				c-1.5-0.1-3.5-0.5-4.9-1c0.3-0.6,0.9-0.8,1.9-0.7c0.5-1.9,0.7-3.8,0.6-6c0.2-0.9,0.6-1.4,1.6-1.1c7.3,0.3,17.4,0.2,24.1-2.7
				C69.2,52.4,69.4,52.2,69.5,51.9L69.5,51.9z"/>
			<path class="st11" d="M16.9,54c0.3,5.6,5.6,9.4,9.9,12c13.5,8,32.7,7.1,46.2-0.5c4.2-2.4,9.1-6.2,10-11.2
				c0.7-0.9,1.3,2.1,1.3,2.6c-0.2,3.5-7.9,9.3-10.8,10.8c-17,9-42.7,9-55.8-6.8C16.3,59.2,12.3,53.8,16.9,54L16.9,54z"/>
			<path class="st12" d="M45.3,30l-2.2,21.3c-0.1,0.2-0.1,0.6-0.4,0.7c-0.6,0.2-5.9,0.2-6.1,0c0-6.8,1-13.4,1.4-20.1
				c0.1-0.9,0.1-1.8-0.3-2.6C39.8,28.5,43.5,28.8,45.3,30L45.3,30z"/>
			<path class="st13" d="M69.5,51.9l0.5,0.7c-8.4,2.8-17,4-25.9,3.1c-0.5,1.8,0.1,5.7-0.9,7c-0.3,0.4-1.9,0.2-2.4,0.2
				c-1.3-0.1-2.8-0.4-4-0.7c-1.1-2-1.3-4.3-0.7-7c-1.1-0.1-5.6-1.2-5.5-2.4c0-0.2,0.1-0.4,0.2-0.5l2,0.2c1.2,0.2,2.4,0.8,3.6,0.9
				C47.4,55.4,58.5,54.6,69.5,51.9L69.5,51.9z"/>
			<path class="st14" d="M37.6,29.3c-2-0.2-6-0.8-7.5-1.7c-0.5-0.2-0.9-0.3-0.8-1c1.5-0.4,2.7,0.4,3.9,0.6c13.1,2,26.7,2.3,39.7-0.9
				c0.2,1-0.5,1.3-1.3,1.6c-5.5,2.4-20,2.4-26.2,2.2C42.9,29.9,40.1,29.6,37.6,29.3L37.6,29.3z"/>
			<path class="st10" d="M32.6,52.6c-0.5-0.1-1.1,0-1.6,0c-0.1,0.1,0.2,0.4,0.3,0.5c0.2,0.2,3.8,1.3,4,1.4c0.5,0.1,1.3-0.2,1.3-0.2
				c0.2,0.2-0.4,3.9-0.3,4.9c0.1,1.2,0.8,1.8,0.3,2.9c-1.6-0.4-4.9-1.4-6.4-2.1c-0.5-0.2-0.9-0.6-1.2-1.2l0.6-7L32.6,52.6L32.6,52.6
				z"/>
		</g>
	</g>
</g>
</svg>
