<?xml version="1.0" encoding="utf-8"?>
<!-- Generator: Adobe Illustrator 24.2.3, SVG Export Plug-In . SVG Version: 6.00 Build 0)  -->
<svg version="1.1" id="colour_copy" xmlns="http://www.w3.org/2000/svg" xmlns:xlink="http://www.w3.org/1999/xlink" x="0px"
	 y="0px" viewBox="0 0 512 512" style="enable-background:new 0 0 512 512;" xml:space="preserve">
<style type="text/css">
	.st0{fill:#FFCD52;}
	.st1{fill:#F29327;}
</style>
<path class="st0" d="M318.1,478.1c-6.2,0-11.5-4.4-12.7-10.5c-5.3-26.7-25.9-30.8-65-36.3c-11.1-1.6-22.7-3.2-34.5-5.8
	c-29.9-6.7-57.8-20.3-81.5-39.6c-46.9-38.8-74.1-96.4-74.2-157.3c0.1-35.8,9.2-71,26.5-102.4c3.4-6.3,11.3-8.7,17.6-5.2
	c6.3,3.4,8.7,11.3,5.2,17.6c0,0-0.1,0.1-0.1,0.1c-15.2,27.5-23.2,58.4-23.3,89.8c0.1,53,23.8,103.3,64.7,137.1
	c20.6,16.8,44.8,28.6,70.7,34.4c10.8,2.4,21.8,3.9,32.5,5.4c38.2,5.4,77.6,10.9,86.9,57c1.4,7.1-3.2,13.9-10.2,15.3
	C319.8,478,318.9,478.1,318.1,478.1L318.1,478.1z"/>
<path class="st0" d="M193.7,478.1c-7.2,0-13-5.8-13-13c0-0.9,0.1-1.7,0.3-2.5c9.2-46.1,48.7-51.6,86.9-57
	c10.7-1.5,21.7-3.1,32.5-5.4c25.9-5.8,50.1-17.6,70.7-34.4c40.9-33.8,64.6-84.1,64.7-137.1c-0.1-31.4-8.1-62.3-23.3-89.8
	c-3.5-6.3-1.3-14.2,5-17.7c6.3-3.5,14.2-1.3,17.7,5c0,0.1,0.1,0.1,0.1,0.2c17.3,31.3,26.4,66.6,26.5,102.4
	c-0.1,60.9-27.3,118.5-74.2,157.3c-23.7,19.4-51.6,32.9-81.5,39.6c-11.8,2.6-23.3,4.2-34.5,5.8c-39,5.5-59.6,9.6-65,36.3
	C205.2,473.7,199.9,478.1,193.7,478.1L193.7,478.1z"/>
<g>
	<path class="st1" d="M102.3,40.8c-4.5,3.7-23.2,19.7-24.8,35.4c-1.6,15.5,12.4,25.8,12.6,25.7c0.2,0.1,17.1-3.8,21.8-18.6
		C116.6,68.2,102.3,40.8,102.3,40.8z"/>
	<path class="st1" d="M35.9,97.3c0.5,5.5,3.5,28.6,15.1,38c11.4,9.3,26.8,3.6,26.9,3.4c0.2-0.1,5.9-15.5-3.4-26.9
		C64.9,100.3,35.9,97.3,35.9,97.3z"/>
	<path class="st1" d="M139.3,96.1c0,0-3.6,29.7-15.2,39.2c-7.4,6.1-17.7,7.5-26.5,3.6l-0.5-0.5c-3.9-8.8-2.6-19.1,3.6-26.5
		C110.1,100.3,139.3,96.1,139.3,96.1z"/>
	<path class="st1" d="M15.2,149.4c0.5,5.9,3.1,30.8,15.4,41.2c12.1,10.3,28.7,4.5,28.8,4.2c0.3-0.1,6.7-16.5-3.1-29
		C46.4,153.3,15.2,149.4,15.2,149.4L15.2,149.4z"/>
	<path class="st1" d="M126.4,150.5c0,0-4.5,31.9-17.2,41.8c-8.1,6.4-19.2,7.7-28.6,3.2l-0.6-0.6c-4-9.5-2.3-20.5,4.4-28.4
		C94.9,154.3,126.4,150.5,126.4,150.5L126.4,150.5z"/>
	<path class="st1" d="M1.4,223c2,6,11.2,31.3,26.6,39.1c15.2,7.6,31.1-2.7,31.2-3c0.2-0.2,2.8-18.9-10.6-29.5
		C35,219,1.4,223,1.4,223z"/>
	<path class="st1" d="M117.8,195.6c0,0,3.4,34.5-7.2,48c-6.8,8.8-18.1,12.9-29,10.7l-0.7-0.5c-6.7-8.9-7.7-20.9-2.7-30.8
		C85.9,207.6,117.8,195.6,117.8,195.6L117.8,195.6z"/>
	<path class="st1" d="M9.1,295.9c3.1,6.1,16.8,31.6,34.5,37.4c17.4,5.7,32.7-7.7,32.7-8.1c0.2-0.2,0-20.6-15.9-29.7
		C44.2,286.4,9.1,295.9,9.1,295.9z"/>
	<path class="st1" d="M128.5,248.4c0,0,9.1,36.1-0.1,52.2c-5.9,10.4-17.2,16.6-29.2,16l-0.9-0.4c-8.5-8.4-11.5-21-7.7-32.3
		C96.5,266.2,128.5,248.4,128.5,248.4z"/>
	<path class="st1" d="M36.4,351.9c3.7,6.3,20.4,32.6,39.7,37.5c19.1,4.9,34.5-10.7,34.5-11.1c0.2-0.3-1.5-22.1-19.3-30.6
		C73.3,339.1,36.4,351.9,36.4,351.9L36.4,351.9z"/>
	<path class="st1" d="M161,292.1c0,0,12.4,38.1,3.8,56c-5.6,11.6-17.2,19.1-30.1,19.3l-0.9-0.3c-9.7-8.4-13.9-21.6-10.7-34.1
		C128,313.6,161,292.1,161,292.1z"/>
	<path class="st1" d="M87.3,407.1c5.1,5.7,27.6,29.5,48.5,30.6c20.6,1.1,33.3-18,33.2-18.4c0.2-0.3-6.1-22.4-26-27.6
		C122.7,386.4,87.3,407.1,87.3,407.1L87.3,407.1z"/>
	<path class="st1" d="M203.4,320.4c0,0,20.5,36.6,15.2,56.9c-3.4,13.1-13.9,23.1-27.1,25.9l-1-0.2c-11.7-6.7-18.7-19.5-17.9-33
		C173.8,349.2,203.4,320.4,203.4,320.4L203.4,320.4z"/>
	<path class="st1" d="M409.4,40.8c4.5,3.7,23.2,19.7,24.8,35.4c1.6,15.5-12.4,25.8-12.6,25.7c-0.2,0.1-17.1-3.8-21.8-18.6
		C395.1,68.2,409.4,40.8,409.4,40.8L409.4,40.8z"/>
	<path class="st1" d="M475.9,97.3c-0.5,5.5-3.5,28.6-15.1,38c-11.4,9.3-26.8,3.6-26.9,3.4c-0.2-0.1-5.9-15.5,3.4-26.9
		C446.8,100.3,475.9,97.3,475.9,97.3z"/>
	<path class="st1" d="M372.5,96.1c0,0,3.6,29.7,15.2,39.2c7.4,6.1,17.7,7.5,26.5,3.6l0.5-0.5c3.9-8.8,2.6-19.1-3.6-26.5
		C401.7,100.3,372.5,96.1,372.5,96.1z"/>
	<path class="st1" d="M496.5,149.4c-0.5,5.9-3.1,30.8-15.4,41.2c-12.1,10.3-28.7,4.5-28.8,4.2c-0.3-0.1-6.7-16.5,3.1-29
		C465.3,153.3,496.5,149.4,496.5,149.4L496.5,149.4z"/>
	<path class="st1" d="M385.3,150.5c0,0,4.5,31.9,17.2,41.8c8.1,6.4,19.2,7.7,28.6,3.2l0.6-0.6c4-9.5,2.3-20.5-4.4-28.4
		C416.8,154.3,385.3,150.5,385.3,150.5L385.3,150.5z"/>
	<path class="st1" d="M510.3,223c-2,6-11.2,31.3-26.6,39.1c-15.2,7.6-31.1-2.7-31.2-3c-0.2-0.2-2.8-18.9,10.6-29.5
		C476.8,219,510.3,223,510.3,223z"/>
	<path class="st1" d="M394,195.6c0,0-3.4,34.5,7.2,48c6.8,8.8,18.1,12.9,29,10.7l0.7-0.5c6.7-8.9,7.7-20.9,2.7-30.8
		C425.9,207.6,394,195.6,394,195.6L394,195.6z"/>
	<path class="st1" d="M502.6,295.9c-3.1,6.1-16.8,31.6-34.5,37.4c-17.4,5.7-32.7-7.7-32.7-8.1c-0.2-0.2,0-20.6,15.9-29.7
		C467.6,286.4,502.6,295.9,502.6,295.9L502.6,295.9z"/>
	<path class="st1" d="M383.2,248.4c0,0-9.1,36.1,0.1,52.2c5.9,10.4,17.2,16.6,29.2,16l0.9-0.4c8.5-8.4,11.5-21,7.7-32.3
		C415.2,266.2,383.2,248.4,383.2,248.4L383.2,248.4z"/>
	<path class="st1" d="M475.3,351.9c-3.7,6.3-20.4,32.6-39.7,37.5c-19.1,4.9-34.5-10.7-34.5-11.1c-0.2-0.3,1.5-22.1,19.3-30.6
		C438.4,339.1,475.3,351.9,475.3,351.9z"/>
	<path class="st1" d="M350.7,292.1c0,0-12.4,38.1-3.8,56c5.6,11.6,17.2,19.1,30.1,19.3l0.9-0.3c9.7-8.4,13.9-21.6,10.7-34.1
		C383.7,313.6,350.7,292.1,350.7,292.1L350.7,292.1z"/>
	<path class="st1" d="M424.4,407.1c-5.1,5.7-27.6,29.5-48.5,30.6c-20.6,1.1-33.3-18-33.2-18.4c-0.2-0.3,6.1-22.4,26-27.6
		C389.1,386.4,424.4,407.1,424.4,407.1L424.4,407.1z"/>
	<path class="st1" d="M308.3,320.4c0,0-20.5,36.6-15.2,56.9c3.4,13.1,13.9,23.1,27.1,25.9l1-0.2c11.7-6.7,18.7-19.5,17.9-33
		C338,349.2,308.3,320.4,308.3,320.4L308.3,320.4z"/>
</g>
</svg>
