<?xml version="1.0" encoding="utf-8"?>
<!-- Generator: Adobe Illustrator 24.2.3, SVG Export Plug-In . SVG Version: 6.00 Build 0)  -->
<svg version="1.1" xmlns="http://www.w3.org/2000/svg" xmlns:xlink="http://www.w3.org/1999/xlink" x="0px" y="0px"
	 viewBox="0 0 450 450" style="enable-background:new 0 0 450 450;" xml:space="preserve">
<style type="text/css">
	.st0{fill:#112F39;stroke:#E0B064;stroke-width:7;stroke-miterlimit:10;}
	.st1{fill:#E0C78F;stroke:#E0B064;stroke-width:5;stroke-miterlimit:10;}
	.st2{fill:#9E804F;}
	.st3{fill:#9A7D4B;}
	.st4{fill:#B69963;}
	.st5{fill:#B39560;}
	.st6{fill:#BFA26C;}
	.st7{fill:#C5A872;}
	.st8{fill:#BB9E69;}
	.st9{fill:#A48652;}
	.st10{fill:#C1A46F;}
	.st11{fill:#C0A26D;}
	.st12{fill:#BD9F6A;}
	.st13{fill:#BDA06B;}
	.st14{fill:#BB9D69;}
	.st15{fill:#B59965;}
	.st16{fill:none;}
	.st17{fill:#E0B064;}
	.st18{fill:#B3945F;}
	.st19{fill:#BD9F69;}
	.st20{fill:#A58754;}
	.st21{fill:#A88C5A;}
	.st22{fill:#977A4A;}
	.st23{fill:#B49561;}
	.st24{fill:#BFA26B;}
	.st25{fill:none;stroke:#112F39;stroke-width:7;stroke-miterlimit:10;}
	.st26{fill:#110C05;}
	.st27{fill:#40311D;}
	.st28{fill:#4A3A24;}
	.st29{fill:#3F301D;}
	.st30{fill:#645236;}
	.st31{fill:#59462D;}
</style>
<g id="Layer_3">
	<ellipse class="st0" cx="224.8" cy="224.9" rx="218.4" ry="216.9"/>
	<ellipse class="st1" cx="222.4" cy="224.7" rx="177.6" ry="172"/>
</g>
<g id="Layer_1">
	<path class="st2" d="M391.1,230.5v-1.6c0-1.3,0.2-7.1-0.2-7.7c-0.2-0.3-0.6-0.3-0.9-0.4l-72,1.3l-0.1,1.2c-0.9-0.6-2.8-0.6-2.5-2.4
		c2,0.1,3.7-1.1,5.3-2.1l69.6,0.8l0.4-0.3c0-4.2-0.6-8.7-0.7-12.9v-0.4c0.9,7.5,1.3,14.8,1.2,22.4C391.6,229,391.8,230,391.1,230.5
		L391.1,230.5z"/>
	<path class="st3" d="M53.8,210.7c-0.1,2.8,0.1,5.6,0,8.4l76.8-1.6c0.9,0.4,4.9,1.9,4,3.2c-0.1,0.1-0.7-0.1-0.8,0l-80.5,0.4
		c0-1.1-0.2-1.9-0.3-3L53.8,210.7L53.8,210.7z"/>
	<path class="st4" d="M303,113.8c-7.6,0.2-15.4-0.2-22.9,0c-2.7,0.1-5.6,1.1-8.4,0.4l1.2-1.8c11.5-0.8,22.9,0.4,34-0.6l0,0"/>
	<path class="st5" d="M387.4,257.4c0.2-1.2-0.7-0.8-1.5-0.8c-8.4-0.3-17.9,0.8-25.9,0.2c-0.8-0.1-1.3-0.8-1.2,0.6
		c-0.4-0.5-0.8-1.2-1.2-1.6c4-0.9,8.3-0.3,12.5-0.4c1,0,1.9-0.4,2.8-0.4c4.4-0.1,10.3,0.5,14.4,0.1c0.9-0.1,0.6-0.8,1-1.2
		C388,255,387.8,256.2,387.4,257.4L387.4,257.4z"/>
	<path class="st6" d="M112.1,103.6L112.1,103.6c5,1.2,5.8,0.1,10.7,0c11.9-0.2,23.7,0.5,35.6,0.4c-0.2,0.8-1.4,0.8-2.6,0.9
		c-4,0.2-9.1-0.2-13.3,0l-22.9,0.9"/>
	<path class="st7" d="M177.3,120.2c-0.4,0.2-1.8,1.2-2.7,1.2c-2.7,0.3-6.7-0.4-8.1-0.4H108l-1.8,1.6h70.7
		C181.3,122,181.8,120.6,177.3,120.2z"/>
	<path class="st8" d="M164,112.2h-63.1l13.7,1.6c1.5-0.5,38,0.5,46.2-0.4C162.5,113.2,164.4,113,164,112.2z"/>
	<path class="st9" d="M283.7,71.5l-22.2,0.1c-34,1.1-67.8,1.2-101.5,0.3c-1.8,0.6-3.5,1.6-5.3,2.4h139.7c-2.1-1-4.3-2.5-6.5-2.8"/>
	<path class="st10" d="M302.2,87.6c-9.5,0.1-19.1,1.3-28.5,1.2c-2.9,0-5.8,0.1-8.8,0c-0.7-0.4,0-0.8,0.6-0.8
		c6.7-0.8,13.7-0.4,20.4-0.9c9.2-0.5,17.2-1.4,26.6-1.2c0.6,0,1.1,0.4,2.2-0.4c1.2,0.9,3,1.5,4,2.8"/>
	<polygon class="st11" points="157.4,88.3 197,89.3 197.5,87.6 	"/>
	<path class="st12" d="M59.5,178.6c0,1.4-0.2,1.1,1,1.2c4.3,0.3,8.5,0.3,12.7,0.4c2.7,0.1,6.1-0.3,8.6,0c0.6,0.1,1.2,0.3,0.6,0.8
		l-23.7,0.4C58.9,180.4,59.2,179.4,59.5,178.6L59.5,178.6z"/>
	<path class="st13" d="M390.4,205.9v0.4l-1-2.3l-13.2-0.1c-1.5-1.1,3.1-0.8,3.5-0.8c0.6-0.1,1.1-0.4,1.2-0.4h8.8
		c-0.3-1.3,0.1-4.1-1.5-4.4l-39-0.4c-0.7-0.4,0-0.8,0.6-0.8c3.6-0.4,7.4-0.3,11.1-0.4c1.7,0,3.5,0,5.3,0c7.4-0.1,14.8,0.1,22.2,0
		v-2.8C389.1,197.9,389.8,201.7,390.4,205.9L390.4,205.9z"/>
	<path class="st14" d="M384.2,177.4c-0.4-0.8-0.6-0.8-1.3-0.9c-2.6-0.2-4.9,0.4-7.4,0.4c-9.7,0.2-19.2-0.2-28.9-0.4l0.6-0.8
		l35.7-0.9c0.1-0.1-0.7-3.1-0.8-3.7C383.5,173,383.6,175.3,384.2,177.4L384.2,177.4z"/>
	<path class="st14" d="M385.9,183.3c-0.6-1-0.3-0.6-1.1-0.5c-3.5,0.2-6.8,0.5-10.3,0.5c-0.7-0.4,0-0.8,0.6-0.8
		c2.9-0.3,7.1,0,9.8-0.4c0.6-0.1,0.1-1.5,0.2-2.1C385.3,181.3,385.5,182.3,385.9,183.3L385.9,183.3z"/>
	<path class="st15" d="M391.1,230.5c-0.1,3.5-0.4,6.7-0.8,10.1c-0.1-0.4,0.2-1.9-0.2-2.1c-2.2-0.3-5.7,0.1-8.2,0
		c-3-0.1-9.5,0.2-11.9-0.3c-0.7-0.2-1.1,0.3-0.9-0.9h21.2l0.8-8.4C391.1,229.4,391.1,229.9,391.1,230.5L391.1,230.5z"/>
	<g>
		<path class="st16" d="M37.1,178.9c-4.7,2.3-9.2,5.2-12.6,9.1l-3.4,5.7c2.7-2.5,5.5-4.8,8.4-6.8L37.1,178.9z"/>
		<path class="st17" d="M17.4,183.1c-0.1-0.4,0-1,0-1.4c-0.1,0.3-0.4,1.2-0.7,2.1c0.1,0.1,0.2,0.1,0.3,0.1
			C17.2,183.7,17.3,183.4,17.4,183.1z"/>
		<path class="st17" d="M51.7,131.4c2.2-1.2,4.2-2,6.2-3.8c1.9-2,1.6-5.3-1.3-2.9l-1-0.2c-0.9,0.8-1.9,1.3-3.1,1.8
			c-7.1,2-14.1,4.6-19.5,9.9c3.2-6.3,6.5-12.5,9.8-18.8l0.3-1.6c1.1-1.5,0.1-3.2-1.3-2.1l-1.5,2.6l-1.4,0.5
			c-41.9,69.2-38.8,161,7.6,227.6c0.7,0.9,1.3,1.1,1.7,0c0.2-0.7,0.2-1.8,0.5-2.4c-3.2-3.8-5.7-8.3-8.1-12.6
			c-12-21.5-20.9-45-25.2-69.3c0.1-1.2,0.6-0.4,0.8,0.1c2.2,4.1,3.7,8,6.3,11.9c7,10.3,18.6,18.2,19.7,31.8
			c0.3,4.5-0.9,8.5-1.7,12.9c6.6-8.6,4.8-18.7-0.7-27.4c-0.5-0.7-4.7-5.8-4.3-6.2c2.1,0.1,3.4,1.2,5.6,1.2c8.2,0,11.1-12.9-1.3-11.4
			c-1.3,0.1-2.5,1.1-4,0.8c-0.1,1.1,0,0.7,0.6,0.9c2.1,0.7,4.3,0,6.3,0.8c3.9,1.5,3.4,5.7-0.7,6.8c-2.4,0.5-4.3-0.4-6.4-1.5
			c-14.8-8.2-25.1-29.7-21.9-46.3c1.6-8,9-15.4,17.8-12.1c1.7,0.8,1.8,0.2,0.5-0.8c-5.3-3.5-10-3-15,0.7l-5,5.9
			c0.1-4.7,5.3-13.8,9.7-15.6c6.5-2.4,10.9,2.2,14.8,6.6c-1.3-4.7-4.5-7.8-9-9.3c-0.6-0.2-1.1,0.3-0.9-0.9h9.2
			c-0.8-1.2-2.9-1.8-4.1-2c-9.2-1.3-14.9,4-19,11.3c-0.7-6.5,1.3-12.9,5.5-17.9c5.3-6.4,13-9.7,18.2-16c0.7-0.9,4.5-6.2,4.7-6.8
			c0.1-0.3,0.3-1.3-0.1-1.3c-4.3,0.8-8.2,1.2-12,3.4c-8.2,4.8-10.8,14.6-14.8,22.7c-0.2,0.4-0.2,1.2-0.9,1.3
			c1.6-12.7,7.7-25.2,15.4-35.4l10-10.4c-10.1,5-16.9,15.2-21.3,25.4c0.1,0.3,0.2,0.5,0.4,0.6c-0.3,0.8,0,2.5-1.7,2.4
			c-0.1-0.1,0.2-1.3,0.5-2.4c-0.4-0.3-0.5-0.9-0.1-1.9c2.4-9.2,4.8-19.6,8.5-28.3c3.7-8.8,16.4-26.5,27.6-18.2
			c6.1,4.3,3.2,14.4-4.5,13.8c-1.7-0.1-3.9-0.9-4-2.9c-2.2,1.6,0.6,4.6,2.5,5.2c4.6,1.2,8.4-1.1,10.5-4.8
			C61,140,58.7,134.3,51.7,131.4z M24.5,188c3.4-3.9,7.9-6.8,12.6-9.1l-7.5,8c-2.9,2.1-5.7,4.3-8.4,6.8L24.5,188z"/>
		<path class="st17" d="M16.2,186.1c1.7,0.1,1.3-1.6,1.7-2.4c-0.3-0.1-0.4-0.4-0.4-0.6c-0.1,0.3-0.2,0.5-0.3,0.8
			c-0.1,0-0.2-0.1-0.3-0.1C16.4,184.9,16.1,186,16.2,186.1z"/>
	</g>
	<path class="st17" d="M371.3,67.8C307.9,9.1,214.4-7.1,134.6,30.8C115.2,40,93.4,53.9,78.3,68.9c-0.6,0.5,0,1.6,0.5,2.1
		c0.2,0.1,0.3,0.3,0.5,0.4c2.1-0.2,3.7-2.8,5.3-4.2c28.1-24.5,61.4-41.6,98.3-49.5c2.7-0.5,10.7-2.5,12.9-2.2c1.4,0.2-0.9,1.3-1,1.4
		c-4.6,4.4-9.3,9-12.3,14.7c-0.3,0-0.6,0.2-0.8-0.2c-1.2-1.7-1.1-5.7-4.4-6.5c-1.9-0.5-8.7,0.3-9.1,2.5c-0.5,2.1,4.3-0.2,5.5-0.2
		c4.5-0.1,6,2.7,5.5,6.7c-0.6,6.1-11.3,12.9-16.9,14.4c-8.3,2.3-17,0.2-25.3-1c-0.1-1.1,0-0.6,0.6-0.9c5.4-1.5,6.4-3.2,10-7
		c0.3-0.3,3.7-2.7,1.1-2.2c-7.8,1.7-12,8.7-19.5,11c-3.7,1.2-7.9,1.7-11.7,3c-9.7,3.4-22.1,9.9-25.7,20c2.7-2.1,4.7-4.9,7.3-7
		c8-6.7,26.9-15.6,35.2-5.6c1.5,1.6,1.6,3.5,2.9,5c0.6-5.7-2.5-9.1-7.7-11.1c-0.5-0.2-3.5-0.4-2.6-1.3c0.9-0.9,8.9-1.3,10.5-1.2
		c11.5,0.3,18.1,3.8,29.8-0.9c8.7-3.5,13.3-9.9,18.4-17.3c1.9-2.9,3.5-5.8,5.4-8.8c-0.1,3.1-0.9,5.8-0.6,9.1
		c0.5,5.3,4.7,13.5,10.6,14.3c-7.2-5.7-11-17.4-5.7-25.5c0.9-1.5,4.7-5.8,6.4-6.2c2.5-0.6,6.4,0,9.1-0.5c-8.4,7-11.5,19.4-4.1,28.3
		c7.5,9,21.7,6.4,28.6-2.1c5-6.1,3.8-15,0.3-21.6l-3.6-5.1h6.4c1.5,0,7.1,3.9,8.4,5c6,5,8.1,10.3,5.9,17.8c-0.6,1.6-1.7,3.4-2,4.5
		c-0.6,1.8,1.4,1.1,2.3,0.2c2.5-2.3,3.2-6.5,3.5-9.5c5.1,13.6,18,22.4,32.4,24.4c17.2,2.5,31.8-10.7,47.3,3c3,2.6,5.7,6.2,5.3,10.4
		c-0.9,8.9-12.9,7.8-16.7,0.8c-1-1.8-0.8-5.1-3.4-4.5c-1.6,6.6,6.3,12.8,12.5,12.9c3.6,0,9.1-3,10.1-6.6c3.4-12.9-14-22.9-25.3-22.5
		c-5.5,0.1-11,2.1-16.2,3.6c0.2-1.2,1.2-1.5,1.9-2.7c3.8-7.5-3.4-12.8-10.4-13.4c-0.6,0-2.6-0.3-2.7,0.4c6.8,1.1,16.4,8.2,8.4,14.5
		c-3.6,2.8-10.8,1.6-15,0.6c-8.6-2.1-16.8-7.5-21.7-14.5c1.6-0.2,3,0.3,4.7,0.2c2.8-0.2,7-2.5,7.2-5.6c-3.6,1.5-5.7,3.5-10,3.2
		c-6.1-0.3-7.7-10.4-10.7-14.5c-2.1-3-5.6-4.8-8.3-7.2c44.7,3.2,84,23.5,118,50.9c1,0.9,5.2,5.1,5.7,5.3c0.3,0.1,1.6-0.1,1.6-0.2
		C372.5,69.6,372.4,68.6,371.3,67.8z M233,19.1c7.2,11.5,1.7,26.7-12.8,26.7c-19.6,0.1-18.1-31.3,0.1-32.1
		C225.5,13.5,230.1,14.4,233,19.1z"/>
	<g>
		<path class="st18" d="M301.3,369.3c-1.2,0.6-2.4,1.3-3.7,2.1c1.1-1.5-1.2-0.4-1.8-0.5c-17.5-0.9-36.1,0.8-53.9,0.1
			c-0.4,0-1.6,0.3-1.5-0.4c12.2-1.5,24.6-1.2,36.9-1.2c2.8,0,5.6,0,8.5,0C291,369.3,296.2,369.2,301.3,369.3L301.3,369.3z"/>
		<path class="st19" d="M324.6,354c-1,0.9-2,1.3-2.8,2.1c0.7-1.1,0.4-0.8-0.6-0.8c-9.4-0.4-19.2,0.3-28.6,0
			c-6.3-0.2-12.8-1-19.2-1.2c-3.3-0.1-7.2,0.4-10.2,0c-0.6-0.1-1.2-0.3-0.6-0.8L324.6,354L324.6,354z"/>
		<path class="st20" d="M272.3,360.5c0.7,0.5,0,0.8-0.6,0.8c-1.9,0.2-4.2-0.1-6.2,0c-40.1,1.9-80.5,0.2-120.9,0.4l-2.2-0.6
			L272.3,360.5L272.3,360.5z"/>
		<g>
			<path class="st21" d="M331.1,335c1.3-1.2,7-1.1,8.5-0.5l0.8,1c0.2,1.2,0.2,2.4,0.4,3.7c-2.2,2.6-4.8,4.9-7.3,7.2
				c-0.3-0.1-0.3-0.2,0-0.4l-0.7-0.5c0.4-1.4-0.6-8.8-1.6-9.1l-130.5-0.4l-0.4-0.9C244,334.9,287.5,334.9,331.1,335L331.1,335z"/>
			<path class="st22" d="M280.4,378.9c-2.5,1-4.8,2.1-7.3,2.8c-0.4-0.6-1.6-0.4-2.2-0.4c-8.9-0.1-17.7-0.1-26.6,0
				c-3.7,0-8.8-0.3-12.2,0c-1.9,0.2-4.6,1.3-6.2,1.2c-1.8,0-1.8-1.2-3.7-1.3c-2.6-0.1-5.7,0.1-8.5,0c-10.9-0.2-21.8,0.4-32.7,0
				c-0.9,0-3.7-1.2-3.5,0.4c-2.2-0.6-4.4-1.6-6.5-2.4c4.4-0.6,8.9-0.4,13.2-0.4c11.7,0,23.7,0.1,35.5,0c0.7,0,1.5,0.4,2,0.3
				c1.2-0.2,2-2.8,5.3-1.8c2,0.6,3.9,1.6,6.6,1.5L280.4,378.9L280.4,378.9z"/>
			<path class="st23" d="M333.6,346.4c-0.9,0.9-1.9,1.6-2.8,2.4c0.2-1.2-0.7-0.9-1.5-0.9c-11.5,0.6-23.2,0.6-34.7,0.8
				c-2.5,0-5.2,0.5-7.9,0.1c-0.8-0.1-1,0-0.9-1l47.8-2.1v0.6H333.6z"/>
			<path class="st24" d="M117.4,347.6l2.2,0.9l41.4,0.4l-0.2,1.2h-40.5C119.3,349.2,118.4,348.5,117.4,347.6L117.4,347.6z"/>
		</g>
	</g>
	<g>
		<path class="st17" d="M411.7,297.8c0.2-0.9-0.1-0.6-0.6-0.9c-1.8-1.2-3.6-1.1-5.6-1.3c5.7-5.6,10.2-12.7,13.8-19.8
			c1-1.9,1.5-4.1,2.5-6.1c2.6-4.8,8.6-6.7,9-12.9c0-1.2-0.1-3.6-1.2-4.2c-0.1,4.9-3.4,8.4-6.1,12.3c-0.2,0.3-0.3,1.2-0.9,0.5
			c-0.2-0.2,0.6-1.7,0.7-2.3c1-5.7,0.8-12.2-0.9-17.8c-0.8-2.7-2.1-4.6-3-7.2c7.7,2.3,17.3-4.3,15.9-12.7c-0.2-1.3-1-2.5-2.5-2.3
			c3.3,5.6-3.6,12.8-9.2,12.9c-5.1,0-15.8-5-18.5-9.2l-1.7-3.4c-0.1,3.7,1.9,7.7,5.1,9.7c3.9,2.5,6.3,2.1,9.2,6.6
			c7,10.8,3.8,24.9-1.6,35.6c-0.2,0.4-0.4,0.6-0.5,0.8h0.2l0.4-0.8c-0.3,0.6-0.3,2.4-1.7,2.8c-0.4-1.3,0.6-2.7,0.8-3.7v0.2
			c1.6-9,2-16.2-4.9-22.9l-1.6-1.3l-1-0.7c-0.2-0.1-0.4-0.1-0.6,0l-1.1,1.5c-0.1,0.1-0.1,0.3-0.2,0.5c-2.6,11.1,6.7,17,5.7,26.7
			c-1.1,10.5-10,18.3-18.1,24c0.1-2.6,1.3-5.3,1.7-8c0.3-2.6,0.4-5.3,0.1-7.9c-0.1-0.4-0.2-1.8-0.8-1.8c-0.6,5.9-1.1,13.1-4,18.4
			c-0.8,1.4-2.4,2.4-2.5,4.1c0.2,1,0.4,1.8,0.8,2.8c0.9,0,1.2-0.4,1.7-1C396.3,303,402.1,297.3,411.7,297.8z M407.9,252.2l3.1,5.2
			c1.1,2.6,3,8,2.6,10.7c-0.1,0.4-0.2,0.9-0.8,1C411.4,263.5,407.5,258.2,407.9,252.2z"/>
		<path class="st17" d="M407.9,111.6c-0.7-0.9-2.2-1-1.9,0.4c0.2,1.2,0.6,2.4,1.1,3.5c6.2,11.2,11.6,20.7,16.5,33.3
			c4.9,12.7,8.6,25.9,11.6,38.7l0.7,0.7c0,0.7,0,1.5,0.2,2.2c-0.1-0.2-0.3-0.4-0.6-0.2c-2.7-12.3-10.2-24.2-17.4-34.5
			c-3.3-3.5-6.5-7-9.6-10.7c-2.3-4.5-3.4-9.5-3.3-15.1c-1.8-4.2-3.2,0.7-3.4,3.1c-0.2,2.9,0,5.5,1.1,8.3c-4-3.3-7.8-6.9-11-11.2h-1
			c-0.1-0.1-0.2-0.2-0.3-0.3c0.1,0.1,0.2,0.1,0.3,0.2c0.2-2-1.1-5.7-2.9-6.9c-0.6-1.9-0.9-4.1-1.6-5.9c-0.7-1.9-1.1,0.8-1.3,1.7
			c-0.2,3.2,0.3,7.6,1.7,10.5c0.3,0.5,1.2,1.6,1.7,2.4c0.1,0.2,0.1,0.4,0.2,0.5c6.2,9.2,15.2,12.2,22.5,19.8c2.7,3,4.8,6.5,7.1,9.7
			c0.1,1.3-1,0.7-1.7,0c-5-2.9-11.2-7.8-17.2-4.1c-2.4,1.4-3.8,4.4-2.3,7c0.9,1.8,4.7,2.3,3.7,0c-0.7-1.4-1.6-3.1,0.6-4.3
			c4.6-2.6,12.6,3.3,15.9,6.2c6.9,5.8,12.1,13.3,15.2,21.7l-6.3-3.5c-5.7-1.1-11.9-0.2-15,5.2c-0.3,0.8-0.5,1.4,0.5,0.8
			c3.8-3.3,9.9-5.3,14.8-3.2c9.4,4,12.1,12.7,11.1,22.2c-0.3,4.1-3.6,8.1-7.4,9.2c5.7-11.8-1.9-27.2-16.5-25
			c-3.1,0.6-6.2,3.7-7.8,6.3c-1.1,1.8-1.6,3.6-2.9,5.2c-1.7-5.8-0.2-13.2,5-16.9c2.2-1.4,5.8-2.8,7.9-4.1c0.2-0.1,0.6-0.6,0.5-0.7
			c-5.7-0.3-12.6,4.2-14.8,9.5s-0.8,18.5,2.9,23c1.5,1.8,3.7,2.5,4.8,3.9c2.3,2.4,3.2,5.9,7.1,7.4c6,2.1,8-1.7,12.1-4.5
			c2.6-1.9,4.6-2.1,7-5c0.9-1.1,3-5.7,3.3-2.4c0.2,1.9,0,4.6,0,6.6c-1.4,44.7-12.7,86-38.6,123c-0.1,3.7,1.1,1.7,2.3,0.1
			c20.6-27.5,34.7-69.5,37.6-103.5C443.9,194.3,432.8,151.7,407.9,111.6z M416.6,224.8c-1.4-0.8-4.4-4.2-4.9-5.6
			c-1.1-0.1-1.7-1-0.7-1.7c-0.7-1.2-0.2-7.6,0.9-7.7c0.2,0,0.5,0.1,0.6,0.2c1.5,8.8,15.6,10.5,14.2,0c-1-7.6-8.7-4.6-12.6-1
			c-1.3,0.3-1.7-0.1-1.3-1.3c0.6-1.1,1.8-3,2.2-3.7c0.2-0.6,1.4-3.7,1.1-4c-3.6,1.9-4.7,6.7-6.8,10l-1.8,5.6
			c-6-4.3-3.4-10.3,0.5-15.1c6.6-8.1,20.1-3.4,21,6.3C429.7,213.2,425.5,228.1,416.6,224.8z"/>
	</g>
	<g>
		<path class="st17" d="M324.9,385.7c-3.4,0.8-7.9,2.9-8.9,6.5c-0.7,2.5,2.6-1.1,3-1.4c4.9-3.4,12.2-4.5,18.1-3.7
			c-0.1-0.6-0.8-1-1.3-1.2c-3.1-1.5-8.2-2.3-11.7-3.2l0.1,0.2c-6.7-1.8-8.4-2.8-15.6-0.3c-10.7,3.7-9.1,8.7-14.1,16.7
			c-2.9,4.5-11,13.4-16.3,14.9c-0.2,0.1-0.9,0.3-0.9-0.1c3.7-5.1,3.7-10.4-3-12.7c-1.7-0.5-4.9-1.6-6,0c7.4,0.3,10.8,6.7,6.2,12.7
			c-4.6,5.8-16.8,9.3-24.1,9.1l4.2-5.4c2.4-4.6,2.1-10.3-1.1-14.4c-0.1,2.8,0.6,5.8,0.2,8.7c-0.6,5.1-6,11.2-11.5,11
			c3.7-7.9-1.5-17.4-10.8-12.9c-2.5,1.2-4,3.1-3.5,5.9c1.1,0.1,1-1,2-1.7c10.4-7.7,13.4,5.9,6.5,12.4c-5.8,5.5-22.1,6.1-27.4-0.4
			c-2.7-3.5-3.1-8.7-2.2-12.8c0.3-1.2,1.1-2.3,1.6-3.4c0.6-1.5-1-1-1.9-0.2c-2.6,2.3-3.3,8.5-2,11.7l1.7,3.7
			c-2.9-2.2-5.6-5.3-7.5-8.3c-2.2-3.5-3.4-7.7-7.2-10.2c-0.3-0.1-3.4-2.1-2.7-0.5c0.3,0.8,3.1,3,4,4.5c0.1,0.3,2.1,3.6,0.7,2.9
			c-0.7-0.2-2.1-2.2-2.9-2.8c-6.2-4.9-15.4-9.2-23-11.1c-11-2.8-28.5-2.4-29.1-17.5c-0.6-0.1-0.6,0.6-0.7,1.1
			c-2,9,5.4,12.9,12.9,14.8c-0.4,0.8-1.1,0.5-1.8,0.6c-15.6,3.1-28.1-3.5-26.5-20.4c0-0.4,0.4-1.4-0.3-1.3c-3,6.2-2.4,12.4,2,17.8
			c2.4,3,4,3.7,7.3,5.3c0.2,0.1,1.6,0.3,0.8,1c-0.3,0.2-8.2-1.5-9.3-1.9c-1.5-0.5-3.1-1.3-4.6-1.9c-0.2-0.1-2.7-1.9-2-0.4
			c1.2,2.8,11.5,5.6,14.5,5.8c13.1,0.8,22.2-4.3,36.5-0.5c1.8,0.4,4.6,1.3,5.8,2.5c-8.1-0.4-15.2,11.4-6.4,15.8
			c2.7,1.3,8.8,1.2,10.1-1.9c0.8-1.5-2.2,0.9-2.7,1c-8.5,1.8-12-5.4-4.9-10.6c5.3-3.9,13.2-0.8,18.2,2.5
			c8.5,5.5,13.2,13.9,22.6,18.8c9,4.6,22.5,4.8,29.4-3.2c0.4-0.5,1.1-2.1,1.2-2.2c0.1-0.1,1.6,0.4,2.1,0.4
			c14.6,0.2,22.6-2.4,35.5-8.5c7.9-3.8,13.4-9,18.4-16c3.9,14.9,22.6,10.1,23.9-3.7c-2.6,3.6-4.2,7.7-8.5,9.5
			c-7.3,3.1-13.8-1.8-12.5-9.5c1-6.2,5.5-10.7,11.2-12.9c0.2,0,0.3-0.1,0.5-0.1c-0.2,0.1-0.4,0.1-0.5,0.2c2.4-0.5,4.6-0.7,6.8-0.7
			c0.8,0,1.6,0.1,2.3,0c2.7,0.1,5.5,0.5,8.3,1.1C328.5,386,326,385.3,324.9,385.7z"/>
		<path class="st17" d="M224,424.7c3,0,5.4-6.2,1.8-7.1c-0.4,4.5-4.9,6.6-5.7,0.9c-0.2-1.6,0.9-5.8-0.7-6.2
			c-1.3-0.2-2.6,3.6-2.6,4.6C216.7,420.4,220.3,424.8,224,424.7z"/>
	</g>
	<ellipse class="st25" cx="222.4" cy="225" rx="171" ry="165.8"/>
</g>
<g id="Layer_2">
	<g>
		<path class="st26" d="M68.8,251.4c-0.4-2.7,0.4-5.7,0-8.4c1.5-3.8,2.7-8.8,5.3-12.2c9.9-10.7,39.2-2.7,51.4,2.3
			c1.5-9.1,3.4-18.3,4.2-27.8c1.5-19.8,0.4-38.8,0-58.6l-0.8-12.6c-3.8-0.8-2.7-4.6,0.8-6.1c1.1-6.9,11-9.1,16.8-10.7
			c44.2-10.7,109.6-10.7,154.2-1.5c5.3,1.1,22.1,4.9,24.4,9.1c0.8,1.5,1.5,6.1,1.5,8c0,20.2-7.6,43.4-6.9,65.5
			c0,4.6,3,27.8,5.7,29.7c5.3,3.4,38.8-8.4,47.6,9.5c10.3,20.9-16,48-30.8,59.8c-52.9,42.3-123,54.4-186.2,29.3
			C129.4,316.5,73.4,282.2,68.8,251.4L68.8,251.4z"/>
		<g>
			<path class="st27" d="M303,233.1c0.8-0.4,1.9-2.3,4.2-1.5c-0.4,7.2,4.2,30.1,0,34.6c-1.9,2.3-24.4,9.1-28.9,10.3
				c-21.3,4.9-52.5,7.6-74.2,6.1c-6.1-0.4-14.5-1.9-20.2-4.2c1.1-2.3,3.8-3.4,8-2.7c1.9-8,3-16,2.7-24.7c1.1-3.8,2.7-5.7,6.9-4.6
				c30.1,1.1,71.6,0.8,99.7-11C301.8,235,302.6,233.9,303,233.1L303,233.1z"/>
			<path class="st28" d="M85.6,241.5c1.5,23.2,22.8,38.8,40.7,49.5c55.6,33.1,135.2,29.7,190.7-1.9c17.1-9.9,37.7-25.9,41.1-46.4
				c3-3.4,5.3,8.8,5.3,10.7c-0.4,14.5-32.7,38.5-44.5,44.9c-70.1,36.9-175.9,36.9-230.3-28.6C83.3,262.8,66.9,241.1,85.6,241.5
				L85.6,241.5z"/>
			<path class="st29" d="M203.2,142.5l-9.1,87.9c-0.4,1.1-0.4,2.7-1.5,2.7c-2.3,0.4-24.4,0.8-25.5,0c-0.4-27.8,4.2-55.2,5.7-83
				c0.4-3.4,0.4-7.6-1.5-10.7C180,136.4,195.6,137.5,203.2,142.5L203.2,142.5z"/>
			<path class="st30" d="M303,233.1l1.9,3c-34.6,11.8-70.4,16.8-107,12.6c-2.3,7.6,0.4,23.2-4.2,28.9c-1.5,1.5-7.6,1.1-9.9,0.8
				c-5.3-0.4-11.4-1.5-16.8-2.7c-4.6-8-5.7-17.9-2.7-28.9c-4.6-0.4-23.2-4.9-22.8-9.5c0-0.8,0.4-1.5,0.8-2.3l8.4,1.1
				c4.6,0.4,9.9,3,14.8,3.8C211.6,247.2,257.7,244.1,303,233.1L303,233.1z"/>
			<path class="st31" d="M171.6,139.5c-8-1.1-24.7-3.4-31.2-6.9c-1.9-1.1-4.2-1.1-3.4-4.2c6.1-1.5,11,1.5,16.4,2.7
				c54.1,8.4,110,9.1,163.7-3.8c1.1,4.6-1.9,4.9-5.3,6.5c-22.8,9.9-82.2,10.3-108.1,9.1C193.3,142.1,181.5,141,171.6,139.5
				L171.6,139.5z"/>
			<path class="st27" d="M150.7,235.8c-2.3-0.4-4.6,0-6.9,0c-0.4,0.4,0.8,1.5,1.5,2.3c0.8,0.4,15.6,5.7,16.8,5.7
				c1.9,0.4,5.3-1.1,5.7-0.8c0.8,0.8-1.5,16.4-1.5,20.6c0.4,4.6,3.4,7.6,1.5,11.8c-6.9-1.5-20.6-6.1-26.7-8.8
				c-2.3-1.1-3.8-2.7-4.9-4.9l2.7-28.9L150.7,235.8L150.7,235.8z"/>
		</g>
	</g>
</g>
</svg>
