<?xml version="1.0" encoding="utf-8"?>
<!-- Generator: Adobe Illustrator 24.2.3, SVG Export Plug-In . SVG Version: 6.00 Build 0)  -->
<svg version="1.1" id="Capa_1" xmlns="http://www.w3.org/2000/svg" xmlns:xlink="http://www.w3.org/1999/xlink" x="0px" y="0px"
	 viewBox="0 0 512 512" style="enable-background:new 0 0 512 512;" xml:space="preserve">
<style type="text/css">
	.st0{fill:#F4A32C;}
	.st1{fill:#ED9015;}
	.st2{fill:#FFE02F;}
	.st3{fill:#AD6A50;}
	.st4{fill:#BD7B62;}
	.st5{fill:#513027;stroke:#513027;stroke-width:8;stroke-miterlimit:10;}
</style>
<path class="st0" d="M460.9,360.2c-30-142.9-97.6-215.4-129.2-242.5l-4.6-3.8h-94.2l-93.2,110.3l-46,185.7l59.4,87.6l60.9,14.6
	h123.1C417.2,512,477.4,438.5,460.9,360.2L460.9,360.2z"/>
<path class="st1" d="M111.2,360.2c30-142.9,97.6-215.4,129.2-242.5l6.2-3.8h-60.1l-6.2,3.8c-31.5,27.1-99.2,99.6-129.2,242.5
	C34.6,438.5,94.8,512,174.9,512H235C154.9,512,94.7,438.5,111.2,360.2L111.2,360.2z"/>
<path class="st0" d="M352.6,26.6C324.3,9.7,291.3,0,256,0c-9.1,0-17.9,0.6-26.7,1.9l-22.8,18l-8.2,30.6l34.8,44.8h94.4l4.1-3.4
	c7.3-6.3,16.6-15,26.9-26.5C369.3,53.5,366.3,34.8,352.6,26.6L352.6,26.6z"/>
<path class="st1" d="M213.5,60.5c-10.7-13.9-7.7-35.7,6.1-45.3c8.1-5.6,16.5-10.6,25.3-14.8c-31.1,1.8-60.2,11.2-85.4,26.3
	c-13.7,8.2-16.7,26.9-6.1,38.8C163.7,77,172.9,85.7,180.3,92l3.7,3.4h60l-3.7-3.9C233,84.1,223.8,73.9,213.5,60.5L213.5,60.5z"/>
<path class="st2" d="M264.4,179.4c-111.5,3.3-146,84.6-165.9,161.8c-21.9,85,29.9,134.1,154.6,139.4C404.4,482,450.8,413,431,341.2
	C416.5,288.8,375.2,178.8,264.4,179.4z"/>
<path class="st3" d="M276.2,120.8v40.5c0,8.5,6.9,15.5,15.5,15.5s15.5-6.9,15.5-15.5v-40.5C307.2,120.8,276.2,120.8,276.2,120.8z"/>
<path class="st4" d="M276.2,89.4h-41.9c-6.7,1.9-11.7,8.1-11.7,15.5s4.9,13.5,11.7,15.5h41.9l3.1-0.9V92L276.2,89.4z"/>
<path class="st3" d="M223.2,104.8c0-8.5,6.9-15.5,15.5-15.5h-49.9c-8.5,0-15.5,6.9-15.5,15.5s6.9,15.5,15.5,15.5h49.9
	C230.1,120.3,223.2,113.4,223.2,104.8z"/>
<path class="st4" d="M323.2,89.4h-16.1l-2.9,3.5v23l2.9,4.4h16.1c8.5,0,15.5-6.9,15.5-15.5S331.8,89.4,323.2,89.4z"/>
<path class="st4" d="M291.6,73.4c-8.5,0-15.5,6.9-15.5,15.5v32c0,8.5,6.9,15.5,15.5,15.5s15.5-6.9,15.5-15.5v-32
	C307.1,80.3,300.2,73.4,291.6,73.4z"/>
<g>
	<path class="st5" d="M306.9,241c-5.8-3.9-12.6-6.7-19.4-8.7c-1,0-2-1-2.9-1c-7.7-2-15.4-2.9-23.2-2.9c-6.7,0-13.5,1-20.4,2
		c-1,0-2.9,1-3.9,1c-6.7,2-12.6,4.8-18.4,7.7c-28.1,15.4-46.5,45.5-46.5,78.3s18.4,62.9,47.3,78.3c5.8,2.9,12.6,5.8,19.4,7.7v-3.9
		V385c-6.7-2-13.5-5.8-19.4-9.7c-31.9-23.2-39.6-67.7-16.4-99.5c4.8-6.7,10.7-12.6,17.4-17.4c5.8-3.9,12.6-7.7,19.4-9.7
		c6.7-2,13.5-2.9,20.4-2.9c15.4,0,30,4.8,42.5,14.5c18.4,13.5,29.1,34.8,29.1,58s-11.7,44.5-30,58c-5.8,3.9-11.6,7.7-18.4,9.7v15.4
		v2.9c6.7-2,12.5-3.9,18.4-7.7c28.1-14.5,47.3-44.5,47.3-78.3C351.4,284.5,334,256.5,306.9,241z"/>
	<path class="st5" d="M402.6,392.6c-1-1-1-2-2.9-2c-1,0-2.9,1-3.9,3.9c-1,2.9-2,4.8-2,5.8c-2,4.8-3.9,8.7-5.8,13.5
		c-2,2.9-3.9,5.8-7.7,9.7c-2,2-4.8,3.9-7.7,5.8c-3.9,2-7.7,2.9-12.6,2.9h-32.8c-8.7,0-14.5-2-16.4-4.8c-2.9-2.9-3.9-8.7-3.9-15.4
		v-8.7v-18.4v-2l1-113.1v-12.6c0-3.9,1-5.8,2-8.7l0,0c1-2,2.9-2.9,4.8-3.9c5.8-2,10.7-3.9,16.4-4.8c2.9-1,4.8-2,6.7-2.9
		c1-1,2-2,2-3.9c0-1-1-2-2-2.9c-2-1-3.9-1-5.8-1c-3.9,0-6.7,0-9.7,0v-33.8h-12.6v19.4c0,7.7-7.7,14.5-18.4,14.5
		c-10.7,0-18.4-6.7-18.4-14.5v-19.4h-11.7v19.4c0,7.7-8.7,14.5-18.4,14.5s-18.4-6.7-18.4-14.5v-19.4h-11.2v33.8h-2
		c-3.9,0-7.7,0-12.6-1c-2,0-3.9,0-5.8,1c0,1-1,2-1,2.9c0,2,1,2.9,2,3.9c1,1,3.9,2,6.7,2.9c5.8,1,11.7,2.9,16.4,5.8
		c2,1,2.9,2,3.9,3.9c1,1,1,1,1,2c1,2,1,3.9,1,6.7v9.7v3.9v107.4v5.8v15.4V410c0,6.7-1,11.7-3.9,14.5c-2.9,2.8-7.7,4.8-16.4,4.8
		h-32.8c-4.8,0-8.7-1-12.6-2.9c-2.9-2-5.8-3.9-7.7-5.8c-2.9-2.9-5.8-6.7-7.7-9.7c-2.9-3.9-5.8-8.7-6.7-13.5c-1-2-1-3.9-2-5.8
		c-2-2-2.9-3.9-3.9-3.9c-1,0-2,1-2.9,2c-1,1-1,2.9-1,3.9v1v1c1,5.8,2,10.7,2.9,15.4c1,4.8,2,8.7,2,12.6c1,3.9,1,8.7,1,12.6
		c0,2,1,2.9,1,3.9c1,1,1,2,2.9,2c8.7,0,17.4,0,25.1,0c7.7,0,16.4,0,23.2,0c7.7,0,14.5,0,21.3,0c6.9,0,13.5,0,20.4,0
		c3.9,0,8.7,0,14.5,0l0,0v-30v-3.9v-14.5v-3.9l1-130.6v-7.7h43.5v7.7l-1,132.5v2.9v15.4v2.9v30l0,0c5.8,0,9.7,0,14.5,0
		c6.7,0,13.5,0,20.4,1c6.7,0,14.5,1,21.3,1c7.7,0,15.4,0,23.2,1c7.7,0,16.4,1,25.1,1c1,0,2-1,2.9-2s1-2.9,1-3.9c0-4.8,1-8.7,2-12.6
		c1-3.9,2-8.7,2.9-12.6c1-4.8,2-9.7,3.9-15.4v-1v-1C403.6,394.6,402.6,393.6,402.6,392.6z M287.5,240.9v-2.9h1L287.5,240.9
		L287.5,240.9z"/>
</g>
</svg>
