<?xml version="1.0" encoding="utf-8"?>
<!-- Generator: Adobe Illustrator 24.2.3, SVG Export Plug-In . SVG Version: 6.00 Build 0)  -->
<svg version="1.1" id="Capa_1" xmlns="http://www.w3.org/2000/svg" xmlns:xlink="http://www.w3.org/1999/xlink" x="0px" y="0px"
	 viewBox="0 0 512 512" style="enable-background:new 0 0 512 512;" xml:space="preserve">
<style type="text/css">
	.st0{fill:#656566;}
	.st1{fill:#545456;}
	.st2{fill:#F4A32C;}
	.st3{fill:#ED9015;}
</style>
<path class="st0" d="M256,35.2c-100.5,0-181.9,17.5-181.9,39c0,0.1,15.5,225.5,15.5,225.6c58.6,32.5,274.2,32.5,332.8,0
	c0-0.1,15.5-225.5,15.5-225.6C437.9,52.7,356.5,35.2,256,35.2z"/>
<path class="st1" d="M105.4,64.1c0-5.3,4.3-10.4,12.1-15.2c-27.1,6.8-43.4,15.6-43.4,25.3c0,0.1,15.5,225.5,15.5,225.6
	c8.2,4.5,19.4,8.4,32.8,11.7C118.4,253.3,105.4,64.2,105.4,64.1z"/>
<path class="st0" d="M418,363.5H94C36.6,375.2,0,393,0,412.9c0,35.3,114.6,63.9,256,63.9s256-28.6,256-63.9
	C512,393,475.4,375.2,418,363.5z"/>
<path class="st1" d="M61.5,427.6c0-16.5,25.1-31.5,66.2-42.8v-21.3H94c-132.9,27.1-123,78.2,17.9,102.2
	C80.2,455.1,61.5,441.9,61.5,427.6z"/>
<path class="st2" d="M89.5,297.7l4.7,68c0,19.2,72.5,34.7,161.9,34.7S418,384.9,418,365.7l4.7-68
	C364.2,330.4,147.9,330.4,89.5,297.7z"/>
<path class="st3" d="M123.6,328.4c-0.1-0.8-0.5-7.7-1.3-18.9c-13.4-3.3-24.7-7.2-32.8-11.8l4.7,68c0,8,12.5,15.3,33.5,21.1
	L123.6,328.4z"/>
</svg>
