<?xml version="1.0" encoding="utf-8"?>
<!-- Generator: Adobe Illustrator 24.2.3, SVG Export Plug-In . SVG Version: 6.00 Build 0)  -->
<svg version="1.1" id="Capa_1" xmlns="http://www.w3.org/2000/svg" xmlns:xlink="http://www.w3.org/1999/xlink" x="0px" y="0px"
	 viewBox="0 0 512 512" style="enable-background:new 0 0 512 512;" xml:space="preserve">
<style type="text/css">
	.st0{fill:#F2BF2F;}
	.st1{fill:#EAA418;}
</style>
<path class="st0" d="M499.9,188.3l-165.8-15.4l-65.9-153c-4.6-10.7-19.8-10.7-24.4,0l-65.9,153L12.1,188.3
	c-11.6,1.1-16.3,15.5-7.5,23.2l125.1,109.9L93,483.9c-2.6,11.4,9.7,20.3,19.7,14.3l143.2-85l143.2,85c10,6,22.3-3,19.8-14.3
	l-36.6-162.5l125.1-109.9C516.2,203.8,511.5,189.3,499.9,188.3z"/>
<path class="st1" d="M268.2,19.9c-4.6-10.7-19.8-10.7-24.4,0l-65.9,153L12.1,188.3c-11.6,1.1-16.3,15.5-7.5,23.2l125.1,109.9
	L93,483.9c-2.6,11.4,9.7,20.3,19.7,14.3l32-19c4.4-182.1,89-310.3,156-383.7L268.2,19.9z"/>
</svg>
