<?xml version="1.0" encoding="utf-8"?>
<!-- Generator: Adobe Illustrator 24.2.3, SVG Export Plug-In . SVG Version: 6.00 Build 0)  -->
<svg version="1.1" id="Layer_1" xmlns="http://www.w3.org/2000/svg" xmlns:xlink="http://www.w3.org/1999/xlink" x="0px" y="0px"
	 viewBox="0 0 71 55" style="enable-background:new 0 0 71 55;" xml:space="preserve">
<g>
	<g>
		<path d="M60.3,5.2C55.8,3,51,1.5,45.9,0.5c-0.1,0-0.2,0-0.2,0.1c-0.6,1.1-1.3,2.5-1.8,3.7C38.4,3.4,33,3.4,27.6,4.1
			c-0.5-1.2-1.2-2.6-1.8-3.7c0-0.1-0.1-0.1-0.2-0.1c-5.1,0.8-9.9,2.3-14.5,4.3c0,0-0.1,0-0.1,0.1C1.7,18.4-1,31.8,0.1,45
			c0,0.1,0,0.1,0.1,0.2c6,4.5,11.9,7.3,17.6,9.1c0.1,0,0.2,0,0.2-0.1c1.4-1.9,2.6-3.8,3.7-5.9c0.1-0.1,0-0.3-0.1-0.3
			c-1.9-0.8-3.8-1.7-5.5-2.7c-0.1-0.1-0.1-0.3,0-0.4c0.4-0.3,0.8-0.6,1.1-0.9c0.1-0.1,0.2-0.1,0.2,0c11.6,5.4,24.1,5.6,35.7,0.4
			c0.1,0,0.2,0,0.2,0c0.4,0.3,0.7,0.6,1.1,0.9c0.1,0.1,0.1,0.3,0,0.4c-1.8,1-3.6,1.9-5.6,2.6c-0.1,0-0.2,0.2-0.1,0.3
			c1,2.1,2.2,4.1,3.6,5.9c0.1,0.1,0.2,0.1,0.2,0.1c5.8-1.7,11.7-4.4,17.8-8.8c0.1,0,0.1-0.1,0.1-0.2C72.1,30.5,68.3,17.1,60.3,5.2
			C60.4,5.2,60.4,5.2,60.3,5.2z M23.6,37.2c-3.5,0-6.3-3.3-6.3-7.2s2.9-7.1,6.5-7.1c3.6,0,6.4,3.3,6.3,7.2
			C30,34.1,27.2,37.2,23.6,37.2z M47.2,37.4c-3.5,0-6.3-3.3-6.3-7.2s2.9-7.1,6.5-7.1c3.6,0,6.4,3.3,6.3,7.2
			C53.6,34.3,50.8,37.5,47.2,37.4z"/>
	</g>
</g>
</svg>
