<?xml version="1.0" encoding="utf-8"?>
<!-- Generator: Adobe Illustrator 24.2.3, SVG Export Plug-In . SVG Version: 6.00 Build 0)  -->
<svg version="1.1" id="Capa_1" xmlns="http://www.w3.org/2000/svg" xmlns:xlink="http://www.w3.org/1999/xlink" x="0px" y="0px"
	 viewBox="0 0 512 512" style="enable-background:new 0 0 512 512;" xml:space="preserve">
<style type="text/css">
	.st0{fill:#F4A32C;}
	.st1{fill:#ED9015;}
	.st2{fill:#FFE02F;}
	.st3{fill:#AD6A50;}
	.st4{fill:#BD7B62;}
	.st5{fill:#110C05;}
	.st6{fill:#40311D;}
	.st7{fill:#4A3A24;}
	.st8{fill:#3F301D;}
	.st9{fill:#645236;}
	.st10{fill:#59462D;}
</style>
<g>
	<path class="st0" d="M460.9,360.2c-30-142.9-97.6-215.4-129.2-242.5l-4.6-3.8h-94.2l-93.2,110.3l-46,185.7l59.4,87.6l60.9,14.6
		h123.1C417.2,512,477.4,438.5,460.9,360.2L460.9,360.2z"/>
	<path class="st1" d="M111.2,360.2c30-142.9,97.6-215.4,129.2-242.5l6.2-3.8h-60.1l-6.2,3.8c-31.5,27.1-99.2,99.6-129.2,242.5
		C34.6,438.5,94.8,512,174.9,512H235C154.9,512,94.7,438.5,111.2,360.2L111.2,360.2z"/>
	<path class="st0" d="M352.6,26.6C324.3,9.7,291.3,0,256,0c-9.1,0-17.9,0.6-26.7,1.9l-22.8,18l-8.2,30.6l34.8,44.8h94.4l4.1-3.4
		c7.3-6.3,16.6-15,26.9-26.5C369.3,53.5,366.3,34.8,352.6,26.6L352.6,26.6z"/>
	<path class="st1" d="M213.5,60.5c-10.7-13.9-7.7-35.7,6.1-45.3c8.1-5.6,16.5-10.6,25.3-14.8c-31.1,1.8-60.2,11.2-85.4,26.3
		c-13.7,8.2-16.7,26.9-6.1,38.8C163.7,77,172.9,85.7,180.3,92l3.7,3.4h60l-3.7-3.9C233,84.1,223.8,73.9,213.5,60.5L213.5,60.5z"/>
	<path class="st2" d="M264.4,179.4c-111.5,3.3-146,84.6-165.9,161.8c-21.9,85,29.9,134.1,154.6,139.4C404.4,482,450.8,413,431,341.2
		C416.5,288.8,375.2,178.8,264.4,179.4z"/>
	<path class="st3" d="M276.2,120.8v40.5c0,8.5,6.9,15.5,15.5,15.5s15.5-6.9,15.5-15.5v-40.5H276.2z"/>
	<path class="st4" d="M276.2,89.4h-41.9c-6.7,1.9-11.7,8.1-11.7,15.5s4.9,13.5,11.7,15.5h41.9l3.1-0.9V92L276.2,89.4z"/>
	<path class="st3" d="M223.2,104.8c0-8.5,6.9-15.5,15.5-15.5h-49.9c-8.5,0-15.5,6.9-15.5,15.5s6.9,15.5,15.5,15.5h49.9
		C230.1,120.3,223.2,113.4,223.2,104.8z"/>
	<path class="st4" d="M323.2,89.4h-16.1l-2.9,3.5v23l2.9,4.4h16.1c8.5,0,15.5-6.9,15.5-15.5S331.8,89.4,323.2,89.4z"/>
	<path class="st4" d="M291.6,73.4c-8.5,0-15.5,6.9-15.5,15.5v32c0,8.5,6.9,15.5,15.5,15.5s15.5-6.9,15.5-15.5v-32
		C307.1,80.3,300.2,73.4,291.6,73.4z"/>
</g>
<g>
	<path class="st5" d="M111,370.6c-0.3-2.5,0.3-5.6,0-8.2c1.6-3.8,2.5-8.5,5.3-11.6c9.4-10.3,37.9-2.5,49.5,2.2
		c1.6-8.8,3.1-17.9,4.1-26.7c1.6-19.1,0.6-37.6,0-56.8l-0.9-12.5c-3.8-0.6-2.5-4.4,0.9-5.6c1.3-6.6,10.7-9.1,16-10.3
		c42.6-10.3,106-10.3,149-1.6c5,0.9,21.3,4.7,23.5,8.8c0.9,1.6,1.6,6,1.6,7.8c-0.6,19.4-7.5,42-6.9,63.3c0,4.4,2.8,27,5.3,28.9
		c5,3.4,37.3-8.2,45.8,9.1c9.7,20.1-15.7,46.4-29.8,57.7c-51.1,40.8-118.9,52.4-180,28.2C169.3,433.4,115.1,400.4,111,370.6
		L111,370.6z"/>
	<g>
		<path class="st6" d="M337.1,352.8c0.6-0.3,1.9-2.2,4.1-1.3c-0.3,7.2,4.1,28.9,0,33.6c-1.9,2.2-23.5,8.8-27.9,9.7
			c-20.7,4.7-50.8,7.2-71.8,6c-6-0.3-13.8-1.9-19.4-4.1c1.3-2.5,3.8-3.1,7.5-2.8c1.9-7.5,2.8-15.4,2.5-23.8c0.9-3.4,2.5-5.6,6.6-4.4
			c29.2,1.3,69.3,0.6,96.3-10.7C335.8,354.6,336.5,353.7,337.1,352.8L337.1,352.8z"/>
		<path class="st7" d="M127,360.9c1.3,22.3,22.3,37.6,39.5,48c53.9,32,130.5,28.5,184.4-1.9c16.6-9.4,36.4-24.8,39.8-44.8
			c2.8-3.4,5.3,8.5,5,10.3c-0.6,13.8-31.7,37.3-43,43.3c-67.7,36.1-170.3,35.8-222.7-27.3C124.5,381.6,108.8,360.3,127,360.9
			L127,360.9z"/>
		<path class="st8" d="M240.5,265.3l-8.8,85c-0.3,0.9-0.3,2.5-1.6,2.8c-2.5,0.6-23.5,0.9-24.5,0c0-27,4.1-53.6,5.6-80.3
			c0.3-3.4,0.3-7.2-1.3-10.3C218.2,259.3,233,260.6,240.5,265.3L240.5,265.3z"/>
		<path class="st9" d="M337.1,352.8l1.9,2.8c-33.6,11.3-68.1,16-103.5,12.2c-1.9,7.2,0.3,22.6-3.8,27.9c-1.3,1.6-7.5,0.9-9.4,0.9
			c-5-0.3-11.3-1.6-16-2.8c-4.4-7.8-5.3-17.2-2.8-27.9c-4.4-0.3-22.3-4.7-22-9.4c0-0.6,0.3-1.6,0.6-2.2l8.2,0.9
			c4.7,0.6,9.7,3.1,14.4,3.8C248.7,366.6,293.2,363.4,337.1,352.8L337.1,352.8z"/>
		<path class="st10" d="M209.8,262.4c-7.8-0.9-23.8-3.1-30.1-6.9c-1.9-0.9-3.8-1.3-3.1-4.1c6-1.6,11,1.6,15.7,2.5
			c52.4,7.8,106.6,9.1,158.4-3.8c0.9,4.1-1.9,5-5,6.3c-22,9.7-79.7,9.7-104.7,8.8C230.8,265,219.5,263.7,209.8,262.4L209.8,262.4z"
			/>
		<path class="st6" d="M189.7,355.6c-2.2-0.3-4.4,0-6.6,0c-0.3,0.3,0.6,1.6,1.3,2.2c0.6,0.6,15.1,5.3,16,5.6
			c1.9,0.3,5.3-0.9,5.3-0.9c0.6,0.6-1.6,15.7-1.3,19.8c0.3,4.7,3.1,7.2,1.3,11.6c-6.6-1.6-19.8-5.6-25.7-8.5
			c-2.2-0.9-3.8-2.5-4.7-4.7l2.5-27.9L189.7,355.6L189.7,355.6z"/>
	</g>
</g>
</svg>
