<?xml version="1.0" encoding="utf-8"?>
<!-- Generator: Adobe Illustrator 24.2.3, SVG Export Plug-In . SVG Version: 6.00 Build 0)  -->
<svg version="1.1" id="Layer_1" xmlns="http://www.w3.org/2000/svg" xmlns:xlink="http://www.w3.org/1999/xlink" x="0px" y="0px"
	 viewBox="0 0 450 450" style="enable-background:new 0 0 450 450;" xml:space="preserve">
<style type="text/css">
	.st0{fill:#112F39;}
	.st1{fill:#E0C78F;stroke:#8C6D41;stroke-width:10;stroke-miterlimit:10;}
	.st2{fill:#9E804F;}
	.st3{fill:#9A7D4B;}
	.st4{fill:#B69963;}
	.st5{fill:#B39560;}
	.st6{fill:#BFA26C;}
	.st7{fill:#C5A872;}
	.st8{fill:#BB9E69;}
	.st9{fill:#A48652;}
	.st10{fill:#C1A46F;}
	.st11{fill:#C0A26D;}
	.st12{fill:#BD9F6A;}
	.st13{fill:#BDA06B;}
	.st14{fill:#BB9D69;}
	.st15{fill:#B59965;}
	.st16{fill:#B3945F;}
	.st17{fill:#BD9F69;}
	.st18{fill:#A58754;}
	.st19{fill:#A88C5A;}
	.st20{fill:#977A4A;}
	.st21{fill:#B49561;}
	.st22{fill:#BFA26B;}
	.st23{display:none;}
	.st24{display:inline;}
	.st25{fill:none;}
	.st26{fill:#E0B064;}
	.st27{display:inline;fill:#E0B064;}
	.st28{display:inline;fill:none;stroke:#112F39;stroke-width:7;stroke-miterlimit:10;}
	.st29{fill:#110C05;}
	.st30{fill:#40311D;}
	.st31{fill:#4A3A24;}
	.st32{fill:#3F301D;}
	.st33{fill:#645236;}
	.st34{fill:#59462D;}
</style>
<g id="bg_x5F_border">
	<ellipse class="st0" cx="224.8" cy="224.9" rx="218.4" ry="216.9"/>
	<ellipse class="st1" cx="222.4" cy="224.7" rx="177.6" ry="172"/>
</g>
<g id="woody">
	<path class="st2" d="M395.7,231.6v-1.7c0-1.3,0.2-7.3-0.2-7.8c-0.2-0.3-0.6-0.3-0.9-0.4l-74.3,1.3l-0.1,1.2
		c-0.9-0.7-2.9-0.7-2.5-2.4c2.1,0.1,3.8-1.1,5.4-2.1l71.9,0.8l0.5-0.3c0-4.3-0.6-8.8-0.7-13.1v-0.4c0.9,7.6,1.4,15.1,1.3,22.8
		C396.2,230,396.4,231.1,395.7,231.6L395.7,231.6z"/>
	<path class="st3" d="M50.1,211.4c-0.1,2.9,0.1,5.7,0,8.6l79.2-1.7c0.9,0.4,5,2,4.1,3.3c-0.1,0.1-0.7-0.1-0.8,0l-83,0.4
		c0-1.1-0.2-2-0.3-3.1L50.1,211.4L50.1,211.4z"/>
	<path class="st4" d="M305,112.7c-7.8,0.2-15.7-0.2-23.3,0c-2.7,0.1-5.7,1.1-8.6,0.4l1.3-1.9c11.7-0.8,23.3,0.4,34.6-0.7l0,0"/>
	<path class="st5" d="M391.9,259c0.2-1.2-0.7-0.8-1.5-0.8c-8.6-0.3-19.2,0.8-27.4,0.2c-0.8-0.1-1.4-0.8-1.3,0.7
		c-0.5-0.6-0.8-1.2-1.3-1.7c4.1-0.9,8.5-0.3,12.7-0.4c1,0,1.9-0.4,2.9-0.4c4.5-0.1,11.5,0.6,15.6,0.1c0.9-0.1,0.6-0.8,1-1.2
		C392.5,256.6,392.3,257.8,391.9,259L391.9,259z"/>
	<path class="st6" d="M110.5,102.3L110.5,102.3c5.1,1.2,5.9,0.1,10.9,0c12.1-0.2,24.2,0.6,36.3,0.4c-0.2,0.8-1.4,0.8-2.7,0.9
		c-4.1,0.2-9.2-0.2-13.5,0l-23.4,0.9"/>
	<path class="st7" d="M176.9,119.2c-0.5,0.2-1.8,1.2-2.7,1.2c-2.7,0.3-6.8-0.4-8.2-0.4h-59.7l-1.8,1.7h72
		C181,121.1,181.4,119.6,176.9,119.2z"/>
	<path class="st8" d="M163.4,111H99.1l13.9,1.7c1.5-0.6,38.7,0.6,47-0.4C161.9,112,163.7,111.9,163.4,111z"/>
	<path class="st9" d="M285.3,69.6l-22.6,0.1c-34.6,1.1-69.1,1.2-103.4,0.3c-1.8,0.7-3.5,1.7-5.4,2.4h142.2c-2.2-1-4.3-2.5-6.6-2.9"
		/>
	<path class="st10" d="M304.2,86c-9.7,0.1-19.4,1.3-29,1.2c-3,0-5.9,0.1-8.9,0c-0.7-0.4,0-0.8,0.6-0.8c6.9-0.8,14-0.4,20.8-0.9
		c9.4-0.6,17.5-1.4,27.1-1.2c0.6,0,1.1,0.4,2.3-0.4c1.3,0.9,3.1,1.5,4.1,2.9"/>
	<polygon class="st11" points="156.6,86.7 197,87.7 197.5,86 	"/>
	<path class="st12" d="M56.9,178.7c0,1.4-0.2,1.1,1,1.2c4.3,0.3,8.7,0.3,12.9,0.4c2.7,0.1,6.2-0.3,8.8,0c0.6,0.1,1.3,0.3,0.6,0.8
		l-24.1,0.4C56.4,180.6,56.6,179.6,56.9,178.7L56.9,178.7z"/>
	<path class="st13" d="M394.9,206.6v0.4l-1-2.3l-14.5-0.1c-1.5-1.1,4.2-0.8,4.5-0.8c0.6-0.1,1.1-0.4,1.3-0.4h8.9
		c-0.3-1.3,0.1-4.2-1.5-4.5l-40.7-0.4c-0.7-0.4,0-0.8,0.6-0.8c3.7-0.4,7.5-0.3,11.3-0.4c1.7,0,3.5,0,5.4,0c7.5-0.1,16.1,0.1,23.6,0
		v-2.9C393.6,198.4,394.3,202.3,394.9,206.6L394.9,206.6z"/>
	<path class="st14" d="M388.6,177.5c-0.5-0.8-0.6-0.8-1.4-0.9c-2.6-0.2-6,0.4-8.5,0.4c-9.8,0.2-19.6-0.2-29.4-0.4l0.6-0.8l37.4-0.9
		c0.1-0.1-0.7-3.2-0.8-3.7C387.9,173,388,175.4,388.6,177.5L388.6,177.5z"/>
	<path class="st14" d="M390.3,183.5c-0.6-1-0.3-0.7-1.1-0.6c-3.5,0.2-8,0.6-11.5,0.6c-0.7-0.4,0-0.8,0.6-0.8c3-0.3,8.2,0,10.9-0.4
		c0.6-0.1,0.1-1.5,0.2-2.1C389.8,181.4,390,182.4,390.3,183.5L390.3,183.5z"/>
	<path class="st15" d="M395.7,231.6c-0.1,3.5-0.5,6.8-0.8,10.2c-0.1-0.4,0.2-2-0.2-2.1c-2.3-0.3-5.8,0.1-8.3,0
		c-3.1-0.1-10.7,0.2-13.1-0.3c-0.7-0.2-1.1,0.3-0.9-0.9H395l0.8-8.6C395.7,230.5,395.7,231,395.7,231.6L395.7,231.6z"/>
	<g>
		<path class="st16" d="M303.2,373c-1.3,0.7-2.4,1.3-3.8,2.1c1.1-1.5-1.3-0.4-1.8-0.6c-17.8-0.9-36.8,0.8-54.9,0.1
			c-0.5,0-1.6,0.3-1.5-0.4c12.5-1.5,25-1.2,37.6-1.2c2.9,0,5.7,0,8.7,0C292.7,373,298,372.9,303.2,373L303.2,373z"/>
		<path class="st17" d="M326.9,357.4c-1,0.9-2.1,1.3-2.9,2.1c0.7-1.1,0.5-0.8-0.6-0.8c-9.6-0.4-19.6,0.3-29.2,0
			c-6.4-0.2-13-1-19.6-1.2c-3.3-0.1-7.3,0.4-10.4,0c-0.6-0.1-1.3-0.3-0.6-0.8L326.9,357.4L326.9,357.4z"/>
		<path class="st18" d="M273.6,364c0.7,0.6,0,0.8-0.6,0.8c-1.9,0.2-4.2-0.1-6.3,0c-40.8,2-82,0.2-123.1,0.4l-2.3-0.7L273.6,364
			L273.6,364z"/>
		<g>
			<path class="st19" d="M333.5,338.1c1.4-1.2,7.1-1.1,8.7-0.6l0.8,1c0.2,1.2,0.2,2.4,0.5,3.7c-2.3,2.6-4.9,5-7.4,7.4
				c-0.3-0.1-0.3-0.2,0-0.4l-0.7-0.6c0.5-1.4-0.6-8.9-1.6-9.3L200.9,339l-0.5-0.9C244.8,338,289.2,338,333.5,338.1L333.5,338.1z"/>
			<path class="st20" d="M282,382.8c-2.5,1-4.9,2.1-7.4,2.9c-0.5-0.7-1.6-0.4-2.3-0.4c-9-0.1-18.1-0.1-27.1,0c-3.8,0-8.9-0.3-12.5,0
				c-1.9,0.2-4.7,1.3-6.3,1.2c-1.8,0-1.8-1.2-3.8-1.3c-2.6-0.1-5.8,0.1-8.7,0c-11.1-0.2-23.2,0.4-34.3,0c-0.9,0-3.8-1.2-3.5,0.4
				c-2.3-0.7-4.5-1.7-6.6-2.4c4.5-0.7,10-0.4,14.5-0.4c11.9,0,24.1,0.1,36.1,0c0.7,0,1.5,0.4,2.1,0.3c1.3-0.2,2.1-2.9,5.4-1.9
				c2.1,0.7,4,1.7,6.7,1.5L282,382.8L282,382.8z"/>
			<path class="st21" d="M336.1,349.7c-0.9,0.9-1.9,1.7-2.9,2.4c0.2-1.2-0.7-0.9-1.5-0.9c-11.7,0.7-23.7,0.7-35.3,0.8
				c-2.5,0-5.3,0.6-8,0.1c-0.8-0.1-1,0-0.9-1l48.7-2.1v0.7H336.1z"/>
			<path class="st22" d="M109,350.9l2.3,0.9l42.2,0.4l-0.2,1.2H112C111,352.5,110,351.8,109,350.9L109,350.9z"/>
		</g>
	</g>
</g>
<g id="ornaments" class="st23">
	<g class="st24">
		<path class="st25" d="M37.1,178.9c-4.7,2.3-9.2,5.2-12.6,9.1l-3.4,5.7c2.7-2.5,5.5-4.8,8.4-6.8L37.1,178.9z"/>
		<path class="st26" d="M17.4,183.1c-0.1-0.4,0-1,0-1.4c-0.1,0.3-0.4,1.2-0.7,2.1c0.1,0.1,0.2,0.1,0.3,0.1
			C17.2,183.7,17.3,183.4,17.4,183.1z"/>
		<path class="st26" d="M51.7,131.4c2.2-1.2,4.2-2,6.2-3.8c1.9-2,1.6-5.3-1.3-2.9l-1-0.2c-0.9,0.8-1.9,1.3-3.1,1.8
			c-7.1,2-14.1,4.6-19.5,9.9c3.2-6.3,6.5-12.5,9.8-18.8l0.3-1.6c1.1-1.5,0.1-3.2-1.3-2.1l-1.5,2.6l-1.4,0.5
			C-3,186,0.1,277.8,46.5,344.4c0.7,0.9,1.3,1.1,1.7,0c0.2-0.7,0.2-1.8,0.5-2.4c-3.2-3.8-5.7-8.3-8.1-12.6
			c-12-21.5-20.9-45-25.2-69.3c0.1-1.2,0.6-0.4,0.8,0.1c2.2,4.1,3.7,8,6.3,11.9c7,10.3,18.6,18.2,19.7,31.8
			c0.3,4.5-0.9,8.5-1.7,12.9c6.6-8.6,4.8-18.7-0.7-27.4c-0.5-0.7-4.7-5.8-4.3-6.2c2.1,0.1,3.4,1.2,5.6,1.2c8.2,0,11.1-12.9-1.3-11.4
			c-1.3,0.1-2.5,1.1-4,0.8c-0.1,1.1,0,0.7,0.6,0.9c2.1,0.7,4.3,0,6.3,0.8c3.9,1.5,3.4,5.7-0.7,6.8c-2.4,0.5-4.3-0.4-6.4-1.5
			c-14.8-8.2-25.1-29.7-21.9-46.3c1.6-8,9-15.4,17.8-12.1c1.7,0.8,1.8,0.2,0.5-0.8c-5.3-3.5-10-3-15,0.7l-5,5.9
			c0.1-4.7,5.3-13.8,9.7-15.6c6.5-2.4,10.9,2.2,14.8,6.6c-1.3-4.7-4.5-7.8-9-9.3c-0.6-0.2-1.1,0.3-0.9-0.9h9.2
			c-0.8-1.2-2.9-1.8-4.1-2c-9.2-1.3-14.9,4-19,11.3c-0.7-6.5,1.3-12.9,5.5-17.9c5.3-6.4,13-9.7,18.2-16c0.7-0.9,4.5-6.2,4.7-6.8
			c0.1-0.3,0.3-1.3-0.1-1.3c-4.3,0.8-8.2,1.2-12,3.4c-8.2,4.8-10.8,14.6-14.8,22.7c-0.2,0.4-0.2,1.2-0.9,1.3
			c1.6-12.7,7.7-25.2,15.4-35.4l10-10.4c-10.1,5-16.9,15.2-21.3,25.4c0.1,0.3,0.2,0.5,0.4,0.6c-0.3,0.8,0,2.5-1.7,2.4
			c-0.1-0.1,0.2-1.3,0.5-2.4c-0.4-0.3-0.5-0.9-0.1-1.9c2.4-9.2,4.8-19.6,8.5-28.3c3.7-8.8,16.4-26.5,27.6-18.2
			c6.1,4.3,3.2,14.4-4.5,13.8c-1.7-0.1-3.9-0.9-4-2.9c-2.2,1.6,0.6,4.6,2.5,5.2c4.6,1.2,8.4-1.1,10.5-4.8
			C61,140,58.7,134.3,51.7,131.4z M24.5,188c3.4-3.9,7.9-6.8,12.6-9.1l-7.5,8c-2.9,2.1-5.7,4.3-8.4,6.8L24.5,188z"/>
		<path class="st26" d="M16.2,186.1c1.7,0.1,1.3-1.6,1.7-2.4c-0.3-0.1-0.4-0.4-0.4-0.6c-0.1,0.3-0.2,0.5-0.3,0.8
			c-0.1,0-0.2-0.1-0.3-0.1C16.4,184.9,16.1,186,16.2,186.1z"/>
	</g>
	<path class="st27" d="M371.3,67.8c-63.4-58.7-156.9-74.9-236.7-37C115.2,40,93.4,53.9,78.3,68.9c-0.6,0.5,0,1.6,0.5,2.1
		c0.2,0.1,0.3,0.3,0.5,0.4c2.1-0.2,3.7-2.8,5.3-4.2c28.1-24.5,61.4-41.6,98.3-49.5c2.7-0.5,10.7-2.5,12.9-2.2c1.4,0.2-0.9,1.3-1,1.4
		c-4.6,4.4-9.3,9-12.3,14.7c-0.3,0-0.6,0.2-0.8-0.2c-1.2-1.7-1.1-5.7-4.4-6.5c-1.9-0.5-8.7,0.3-9.1,2.5c-0.5,2.1,4.3-0.2,5.5-0.2
		c4.5-0.1,6,2.7,5.5,6.7c-0.6,6.1-11.3,12.9-16.9,14.4c-8.3,2.3-17,0.2-25.3-1c-0.1-1.1,0-0.6,0.6-0.9c5.4-1.5,6.4-3.2,10-7
		c0.3-0.3,3.7-2.7,1.1-2.2c-7.8,1.7-12,8.7-19.5,11c-3.7,1.2-7.9,1.7-11.7,3c-9.7,3.4-22.1,9.9-25.7,20c2.7-2.1,4.7-4.9,7.3-7
		c8-6.7,26.9-15.6,35.2-5.6c1.5,1.6,1.6,3.5,2.9,5c0.6-5.7-2.5-9.1-7.7-11.1c-0.5-0.2-3.5-0.4-2.6-1.3c0.9-0.9,8.9-1.3,10.5-1.2
		c11.5,0.3,18.1,3.8,29.8-0.9c8.7-3.5,13.3-9.9,18.4-17.3c1.9-2.9,3.5-5.8,5.4-8.8c-0.1,3.1-0.9,5.8-0.6,9.1
		c0.5,5.3,4.7,13.5,10.6,14.3c-7.2-5.7-11-17.4-5.7-25.5c0.9-1.5,4.7-5.8,6.4-6.2c2.5-0.6,6.4,0,9.1-0.5c-8.4,7-11.5,19.4-4.1,28.3
		c7.5,9,21.7,6.4,28.6-2.1c5-6.1,3.8-15,0.3-21.6l-3.6-5.1h6.4c1.5,0,7.1,3.9,8.4,5c6,5,8.1,10.3,5.9,17.8c-0.6,1.6-1.7,3.4-2,4.5
		c-0.6,1.8,1.4,1.1,2.3,0.2c2.5-2.3,3.2-6.5,3.5-9.5c5.1,13.6,18,22.4,32.4,24.4c17.2,2.5,31.8-10.7,47.3,3c3,2.6,5.7,6.2,5.3,10.4
		c-0.9,8.9-12.9,7.8-16.7,0.8c-1-1.8-0.8-5.1-3.4-4.5c-1.6,6.6,6.3,12.8,12.5,12.9c3.6,0,9.1-3,10.1-6.6c3.4-12.9-14-22.9-25.3-22.5
		c-5.5,0.1-11,2.1-16.2,3.6c0.2-1.2,1.2-1.5,1.9-2.7c3.8-7.5-3.4-12.8-10.4-13.4c-0.6,0-2.6-0.3-2.7,0.4c6.8,1.1,16.4,8.2,8.4,14.5
		c-3.6,2.8-10.8,1.6-15,0.6c-8.6-2.1-16.8-7.5-21.7-14.5c1.6-0.2,3,0.3,4.7,0.2c2.8-0.2,7-2.5,7.2-5.6c-3.6,1.5-5.7,3.5-10,3.2
		c-6.1-0.3-7.7-10.4-10.7-14.5c-2.1-3-5.6-4.8-8.3-7.2c44.7,3.2,84,23.5,118,50.9c1,0.9,5.2,5.1,5.7,5.3c0.3,0.1,1.6-0.1,1.6-0.2
		C372.5,69.6,372.4,68.6,371.3,67.8z M233,19.1c7.2,11.5,1.7,26.7-12.8,26.7c-19.6,0.1-18.1-31.3,0.1-32.1
		C225.5,13.5,230.1,14.4,233,19.1z"/>
	<g class="st24">
		<path class="st26" d="M411.7,297.8c0.2-0.9-0.1-0.6-0.6-0.9c-1.8-1.2-3.6-1.1-5.6-1.3c5.7-5.6,10.2-12.7,13.8-19.8
			c1-1.9,1.5-4.1,2.5-6.1c2.6-4.8,8.6-6.7,9-12.9c0-1.2-0.1-3.6-1.2-4.2c-0.1,4.9-3.4,8.4-6.1,12.3c-0.2,0.3-0.3,1.2-0.9,0.5
			c-0.2-0.2,0.6-1.7,0.7-2.3c1-5.7,0.8-12.2-0.9-17.8c-0.8-2.7-2.1-4.6-3-7.2c7.7,2.3,17.3-4.3,15.9-12.7c-0.2-1.3-1-2.5-2.5-2.3
			c3.3,5.6-3.6,12.8-9.2,12.9c-5.1,0-15.8-5-18.5-9.2l-1.7-3.4c-0.1,3.7,1.9,7.7,5.1,9.7c3.9,2.5,6.3,2.1,9.2,6.6
			c7,10.8,3.8,24.9-1.6,35.6c-0.2,0.4-0.4,0.6-0.5,0.8h0.2l0.4-0.8c-0.3,0.6-0.3,2.4-1.7,2.8c-0.4-1.3,0.6-2.7,0.8-3.7v0.2
			c1.6-9,2-16.2-4.9-22.9l-1.6-1.3l-1-0.7c-0.2-0.1-0.4-0.1-0.6,0l-1.1,1.5c-0.1,0.1-0.1,0.3-0.2,0.5c-2.6,11.1,6.7,17,5.7,26.7
			c-1.1,10.5-10,18.3-18.1,24c0.1-2.6,1.3-5.3,1.7-8c0.3-2.6,0.4-5.3,0.1-7.9c-0.1-0.4-0.2-1.8-0.8-1.8c-0.6,5.9-1.1,13.1-4,18.4
			c-0.8,1.4-2.4,2.4-2.5,4.1c0.2,1,0.4,1.8,0.8,2.8c0.9,0,1.2-0.4,1.7-1C396.3,303,402.1,297.3,411.7,297.8z M407.9,252.2l3.1,5.2
			c1.1,2.6,3,8,2.6,10.7c-0.1,0.4-0.2,0.9-0.8,1C411.4,263.5,407.5,258.2,407.9,252.2z"/>
		<path class="st26" d="M407.9,111.6c-0.7-0.9-2.2-1-1.9,0.4c0.2,1.2,0.6,2.4,1.1,3.5c6.2,11.2,11.6,20.7,16.5,33.3
			c4.9,12.7,8.6,25.9,11.6,38.7l0.7,0.7c0,0.7,0,1.5,0.2,2.2c-0.1-0.2-0.3-0.4-0.6-0.2c-2.7-12.3-10.2-24.2-17.4-34.5
			c-3.3-3.5-6.5-7-9.6-10.7c-2.3-4.5-3.4-9.5-3.3-15.1c-1.8-4.2-3.2,0.7-3.4,3.1c-0.2,2.9,0,5.5,1.1,8.3c-4-3.3-7.8-6.9-11-11.2h-1
			c-0.1-0.1-0.2-0.2-0.3-0.3c0.1,0.1,0.2,0.1,0.3,0.2c0.2-2-1.1-5.7-2.9-6.9c-0.6-1.9-0.9-4.1-1.6-5.9c-0.7-1.9-1.1,0.8-1.3,1.7
			c-0.2,3.2,0.3,7.6,1.7,10.5c0.3,0.5,1.2,1.6,1.7,2.4c0.1,0.2,0.1,0.4,0.2,0.5c6.2,9.2,15.2,12.2,22.5,19.8c2.7,3,4.8,6.5,7.1,9.7
			c0.1,1.3-1,0.7-1.7,0c-5-2.9-11.2-7.8-17.2-4.1c-2.4,1.4-3.8,4.4-2.3,7c0.9,1.8,4.7,2.3,3.7,0c-0.7-1.4-1.6-3.1,0.6-4.3
			c4.6-2.6,12.6,3.3,15.9,6.2c6.9,5.8,12.1,13.3,15.2,21.7l-6.3-3.5c-5.7-1.1-11.9-0.2-15,5.2c-0.3,0.8-0.5,1.4,0.5,0.8
			c3.8-3.3,9.9-5.3,14.8-3.2c9.4,4,12.1,12.7,11.1,22.2c-0.3,4.1-3.6,8.1-7.4,9.2c5.7-11.8-1.9-27.2-16.5-25
			c-3.1,0.6-6.2,3.7-7.8,6.3c-1.1,1.8-1.6,3.6-2.9,5.2c-1.7-5.8-0.2-13.2,5-16.9c2.2-1.4,5.8-2.8,7.9-4.1c0.2-0.1,0.6-0.6,0.5-0.7
			c-5.7-0.3-12.6,4.2-14.8,9.5s-0.8,18.5,2.9,23c1.5,1.8,3.7,2.5,4.8,3.9c2.3,2.4,3.2,5.9,7.1,7.4c6,2.1,8-1.7,12.1-4.5
			c2.6-1.9,4.6-2.1,7-5c0.9-1.1,3-5.7,3.3-2.4c0.2,1.9,0,4.6,0,6.6c-1.4,44.7-12.7,86-38.6,123c-0.1,3.7,1.1,1.7,2.3,0.1
			c20.6-27.5,34.7-69.5,37.6-103.5C443.9,194.3,432.8,151.7,407.9,111.6z M416.6,224.8c-1.4-0.8-4.4-4.2-4.9-5.6
			c-1.1-0.1-1.7-1-0.7-1.7c-0.7-1.2-0.2-7.6,0.9-7.7c0.2,0,0.5,0.1,0.6,0.2c1.5,8.8,15.6,10.5,14.2,0c-1-7.6-8.7-4.6-12.6-1
			c-1.3,0.3-1.7-0.1-1.3-1.3c0.6-1.1,1.8-3,2.2-3.7c0.2-0.6,1.4-3.7,1.1-4c-3.6,1.9-4.7,6.7-6.8,10l-1.8,5.6
			c-6-4.3-3.4-10.3,0.5-15.1c6.6-8.1,20.1-3.4,21,6.3C429.7,213.2,425.5,228.1,416.6,224.8z"/>
	</g>
	<g class="st24">
		<path class="st26" d="M324.9,385.7c-3.4,0.8-7.9,2.9-8.9,6.5c-0.7,2.5,2.6-1.1,3-1.4c4.9-3.4,12.2-4.5,18.1-3.7
			c-0.1-0.6-0.8-1-1.3-1.2c-3.1-1.5-8.2-2.3-11.7-3.2l0.1,0.2c-6.7-1.8-8.4-2.8-15.6-0.3c-10.7,3.7-9.1,8.7-14.1,16.7
			c-2.9,4.5-11,13.4-16.3,14.9c-0.2,0.1-0.9,0.3-0.9-0.1c3.7-5.1,3.7-10.4-3-12.7c-1.7-0.5-4.9-1.6-6,0c7.4,0.3,10.8,6.7,6.2,12.7
			c-4.6,5.8-16.8,9.3-24.1,9.1l4.2-5.4c2.4-4.6,2.1-10.3-1.1-14.4c-0.1,2.8,0.6,5.8,0.2,8.7c-0.6,5.1-6,11.2-11.5,11
			c3.7-7.9-1.5-17.4-10.8-12.9c-2.5,1.2-4,3.1-3.5,5.9c1.1,0.1,1-1,2-1.7c10.4-7.7,13.4,5.9,6.5,12.4c-5.8,5.5-22.1,6.1-27.4-0.4
			c-2.7-3.5-3.1-8.7-2.2-12.8c0.3-1.2,1.1-2.3,1.6-3.4c0.6-1.5-1-1-1.9-0.2c-2.6,2.3-3.3,8.5-2,11.7l1.7,3.7
			c-2.9-2.2-5.6-5.3-7.5-8.3c-2.2-3.5-3.4-7.7-7.2-10.2c-0.3-0.1-3.4-2.1-2.7-0.5c0.3,0.8,3.1,3,4,4.5c0.1,0.3,2.1,3.6,0.7,2.9
			c-0.7-0.2-2.1-2.2-2.9-2.8c-6.2-4.9-15.4-9.2-23-11.1c-11-2.8-28.5-2.4-29.1-17.5c-0.6-0.1-0.6,0.6-0.7,1.1
			c-2,9,5.4,12.9,12.9,14.8c-0.4,0.8-1.1,0.5-1.8,0.6c-15.6,3.1-28.1-3.5-26.5-20.4c0-0.4,0.4-1.4-0.3-1.3c-3,6.2-2.4,12.4,2,17.8
			c2.4,3,4,3.7,7.3,5.3c0.2,0.1,1.6,0.3,0.8,1c-0.3,0.2-8.2-1.5-9.3-1.9c-1.5-0.5-3.1-1.3-4.6-1.9c-0.2-0.1-2.7-1.9-2-0.4
			c1.2,2.8,11.5,5.6,14.5,5.8c13.1,0.8,22.2-4.3,36.5-0.5c1.8,0.4,4.6,1.3,5.8,2.5c-8.1-0.4-15.2,11.4-6.4,15.8
			c2.7,1.3,8.8,1.2,10.1-1.9c0.8-1.5-2.2,0.9-2.7,1c-8.5,1.8-12-5.4-4.9-10.6c5.3-3.9,13.2-0.8,18.2,2.5
			c8.5,5.5,13.2,13.9,22.6,18.8c9,4.6,22.5,4.8,29.4-3.2c0.4-0.5,1.1-2.1,1.2-2.2c0.1-0.1,1.6,0.4,2.1,0.4
			c14.6,0.2,22.6-2.4,35.5-8.5c7.9-3.8,13.4-9,18.4-16c3.9,14.9,22.6,10.1,23.9-3.7c-2.6,3.6-4.2,7.7-8.5,9.5
			c-7.3,3.1-13.8-1.8-12.5-9.5c1-6.2,5.5-10.7,11.2-12.9c0.2,0,0.3-0.1,0.5-0.1c-0.2,0.1-0.4,0.1-0.5,0.2c2.4-0.5,4.6-0.7,6.8-0.7
			c0.8,0,1.6,0.1,2.3,0c2.7,0.1,5.5,0.5,8.3,1.1C328.5,386,326,385.3,324.9,385.7z"/>
		<path class="st26" d="M224,424.7c3,0,5.4-6.2,1.8-7.1c-0.4,4.5-4.9,6.6-5.7,0.9c-0.2-1.6,0.9-5.8-0.7-6.2
			c-1.3-0.2-2.6,3.6-2.6,4.6C216.7,420.4,220.3,424.8,224,424.7z"/>
	</g>
	<ellipse class="st28" cx="222.4" cy="225" rx="171" ry="165.8"/>
</g>
<g id="hat">
	<g>
		<path class="st29" d="M59.9,253c-0.4-2.8,0.4-6,0-8.9c1.6-4,2.8-9.3,5.6-12.9c10.5-11.3,41.5-2.8,54.4,2.4
			c1.6-9.7,3.6-19.3,4.4-29.4c1.6-21,0.4-41.1,0-62.1l-0.8-13.3c-4-0.8-2.8-4.8,0.8-6.4c1.2-7.3,11.7-9.7,17.7-11.3
			c46.7-11.3,116.1-11.3,163.2-1.6c5.6,1.2,23.4,5.2,25.8,9.7c0.8,1.6,1.6,6.4,1.6,8.5c0,21.4-8.1,45.9-7.3,69.3
			c0,4.8,3.2,29.4,6,31.4c5.6,3.6,41.1-8.9,50.4,10.1c10.9,22.2-16.9,50.8-32.6,63.3c-56,44.7-130.2,57.6-197.1,31
			C124,321.9,64.7,285.6,59.9,253L59.9,253z"/>
		<g>
			<path class="st30" d="M307.7,233.6c0.8-0.4,2-2.4,4.4-1.6c-0.4,7.7,4.4,31.8,0,36.7c-2,2.4-25.8,9.7-30.6,10.9
				c-22.6,5.2-55.6,8.1-78.6,6.4c-6.4-0.4-15.3-2-21.4-4.4c1.2-2.4,4-3.6,8.5-2.8c2-8.5,3.2-16.9,2.8-26.2c1.2-4,2.8-6,7.3-4.8
				c31.8,1.2,75.8,0.8,105.6-11.7C306.5,235.6,307.3,234.4,307.7,233.6L307.7,233.6z"/>
			<path class="st31" d="M77.6,242.5c1.6,24.6,24.2,41.1,43.1,52.4c58.8,35.1,143.1,31.4,201.9-2c18.1-10.5,39.9-27.4,43.5-49.2
				c3.2-3.6,5.6,9.3,5.6,11.3c-0.4,15.3-34.7,40.7-47.1,47.6c-74.1,39.1-186.2,39.1-243.8-30.2C75.2,265,57.9,242.1,77.6,242.5
				L77.6,242.5z"/>
			<path class="st32" d="M202.1,137.7l-9.7,93.1c-0.4,1.2-0.4,2.8-1.6,2.8c-2.4,0.4-25.8,0.8-27,0c-0.4-29.4,4.4-58.4,6-87.8
				c0.4-3.6,0.4-8.1-1.6-11.3C177.6,131.3,194.1,132.5,202.1,137.7L202.1,137.7z"/>
			<path class="st33" d="M307.7,233.6l2,3.2c-36.7,12.5-74.5,17.7-113.2,13.3c-2.4,8.1,0.4,24.6-4.4,30.6c-1.6,1.6-8.1,1.2-10.5,0.8
				c-5.6-0.4-12.1-1.6-17.7-2.8c-4.8-8.5-6-18.9-2.8-30.6c-4.8-0.4-24.6-5.2-24.2-10.1c0-0.8,0.4-1.6,0.8-2.4l8.9,1.2
				c4.8,0.4,10.5,3.2,15.7,4C211,248.5,259.8,245.3,307.7,233.6L307.7,233.6z"/>
			<path class="st34" d="M168.7,134.5c-8.5-1.2-26.2-3.6-33-7.3c-2-1.2-4.4-1.2-3.6-4.4c6.4-1.6,11.7,1.6,17.3,2.8
				c57.2,8.9,116.5,9.7,173.3-4c1.2,4.8-2,5.2-5.6,6.9c-24.2,10.5-87,10.9-114.4,9.7C191.7,137.3,179.2,136.1,168.7,134.5
				L168.7,134.5z"/>
			<path class="st30" d="M146.5,236.4c-2.4-0.4-4.8,0-7.3,0c-0.4,0.4,0.8,1.6,1.6,2.4c0.8,0.4,16.5,6,17.7,6c2,0.4,5.6-1.2,6-0.8
				c0.8,0.8-1.6,17.3-1.6,21.8c0.4,4.8,3.6,8.1,1.6,12.5c-7.3-1.6-21.8-6.4-28.2-9.3c-2.4-1.2-4-2.8-5.2-5.2l2.8-30.6L146.5,236.4
				L146.5,236.4z"/>
		</g>
	</g>
</g>
</svg>
