<?xml version="1.0" encoding="utf-8"?>
<!-- Generator: Adobe Illustrator 24.2.3, SVG Export Plug-In . SVG Version: 6.00 Build 0)  -->
<svg version="1.1" id="Capa_1" xmlns="http://www.w3.org/2000/svg" xmlns:xlink="http://www.w3.org/1999/xlink" x="0px" y="0px"
	 viewBox="0 0 512 512" style="enable-background:new 0 0 512 512;" xml:space="preserve">
<style type="text/css">
	.st0{fill:#656566;}
	.st1{fill:#545456;}
	.st2{fill:#F4A32C;}
	.st3{fill:#ED9015;}
	.st4{display:none;}
	.st5{display:inline;fill:#F4A32C;}
</style>
<path class="st0" d="M256,35.2c-100.5,0-181.9,17.5-181.9,39c0,0.1,15.5,225.5,15.5,225.6c58.6,32.5,274.2,32.5,332.8,0
	c0-0.1,15.5-225.5,15.5-225.6C437.9,52.7,356.5,35.2,256,35.2z"/>
<path class="st1" d="M105.4,64.1c0-5.3,4.3-10.4,12.1-15.2c-27.1,6.8-43.4,15.6-43.4,25.3c0,0.1,15.5,225.5,15.5,225.6
	c8.2,4.5,19.4,8.4,32.8,11.7C118.4,253.3,105.4,64.2,105.4,64.1z"/>
<path class="st0" d="M418,363.5H94C36.6,375.2,0,393,0,412.9c0,35.3,114.6,63.9,256,63.9s256-28.6,256-63.9
	C512,393,475.4,375.2,418,363.5z"/>
<path class="st1" d="M61.5,427.6c0-16.5,25.1-31.5,66.2-42.8v-21.3H94c-132.9,27.1-123,78.2,17.9,102.2
	C80.2,455.1,61.5,441.9,61.5,427.6z"/>
<path class="st2" d="M89.5,297.7l4.7,68c0,19.2,72.5,34.7,161.9,34.7s161.9-15.5,161.9-34.7l4.7-68
	C364.2,330.4,147.9,330.4,89.5,297.7z"/>
<path class="st3" d="M123.6,328.4c-0.1-0.8-0.5-7.7-1.3-18.9c-13.4-3.3-24.7-7.2-32.8-11.8l4.7,68c0,8,12.5,15.3,33.5,21.1
	L123.6,328.4z"/>
<g class="st4">
	<path class="st5" d="M248.3,137.8c8.5,0,9.1-12.3,16-26.5c5.9-12.3,18.5-27.2,38.2-27.2c14.9,0,21.5,8.9,21.5,17.6
		c0,7.8-4.3,16.5-13.7,16.5c-9.8,0-13-5.5-13-11.2c0-8.2,4.6-6.6,4.6-11.4c0-0.9-0.7-1.6-2.3-1.6c-7.1,0-12.8,13.5-16,29l-3,14.9
		h18.3l-2.7,10.7H278L257.9,237c-1.4,6.2-4.3,15.1-8.7,23.8c-6.2,11.9-18.5,27-38.2,27c-14.9,0-21.5-8.9-21.5-17.6
		c0-8,4.3-16.7,13.7-16.7c9.8,0,13,6.4,13,12.1c0,8.5-4.6,5.9-4.6,10.7c0,0.9,0.7,1.6,2.3,1.6c10.7,0,16.5-37.5,19.7-51.4l17.8-78
		h-18.1l3-10.7H248.3z"/>
</g>
<g>
	<path class="st2" d="M214.9,274.8c-0.7-1-1-2.2-1-3.6c0.2-2.2,0.6-3.5,1.4-4c0.8-0.4,2.3-0.6,4.5-0.6c4.4,0,7.6-0.8,9.5-2.3
		c1.9-1.5,2.9-3.3,3.2-5.2c0.3-2,0.4-5.2,0.4-9.8v-79.6h-17.1c-1.4,0-2.4-0.5-3.2-1.5c-0.8-1-1.2-2.2-1.2-3.6
		c0.2-2.4,0.7-3.8,1.5-4.2c0.9-0.4,2.4-0.6,4.6-0.6h15.3v-10.7c0-17.6,4.1-31.8,12.4-42.8c8.3-11,19.9-16.7,34.9-17
		c8.4,0,15.9,2.3,22.5,7c6.7,4.7,10,10.7,10,18c0,5.1-1.5,9.6-4.5,13.4c-3,3.8-7.1,5.8-12.4,5.8c-3.1,0-5.7-0.9-7.9-2.6
		c-2.2-1.7-3.3-3.1-3.3-4.1c0-0.2,0.8-1,2.4-2.6c1.6-1.5,3.1-3.4,4.3-5.5c1.3-2.1,1.9-4.6,1.9-7.5c0-3.7-1.4-6.9-4.2-9.6
		c-2.8-2.6-6.4-4-10.6-4c-6.8,0-11.9,2.6-15.1,7.9c-3.2,5.3-5.2,11-5.9,17.3c-0.7,6.2-1,13.4-1,21.6v15.3h25.1h1.5
		c1.5,0,2.7,0.3,3.5,0.9c0.8,0.6,1.2,1.9,1.4,4c0,1.4-0.4,2.6-1.3,3.6c-0.9,1-1.9,1.5-3.1,1.5h-27.1v79.6c0,5.3,0.4,9.1,1.3,11.4
		c0.9,2.3,2.5,3.9,4.9,4.7c2.4,0.9,6.4,1.3,12,1.3h1.5c1.5,0,2.6,0.3,3.2,0.8c0.6,0.5,1,1.8,1.2,3.8c0,1.4-0.3,2.6-1,3.6
		c-0.7,1-1.6,1.5-2.8,1.5c-9.9-0.5-20.6-0.8-32-0.8c-8,0-16.9,0.3-26.6,0.8C216.6,276.3,215.6,275.8,214.9,274.8z"/>
</g>
</svg>
