<?xml version="1.0" encoding="utf-8"?>
<!-- Generator: Adobe Illustrator 24.2.3, SVG Export Plug-In . SVG Version: 6.00 Build 0)  -->
<svg version="1.1" id="Layer_1" xmlns="http://www.w3.org/2000/svg" xmlns:xlink="http://www.w3.org/1999/xlink" x="0px" y="0px"
	 viewBox="0 0 511 511" style="enable-background:new 0 0 511 511;" xml:space="preserve">
<style type="text/css">
	.st0{fill:#FDBF00;}
	.st1{fill:#FF9F00;}
	.st2{fill:#FF7816;}
</style>
<path class="st0" d="M377.8,149.3l-84.7-12l-37.7-74.6l-37.7,74.6l-84.7,12l61.4,58.7l-14.4,82l75.5-38.9l75.5,38.9l-14.4-82
	L377.8,149.3z"/>
<path class="st1" d="M313.2,393.9c18.6,12.3,33.2,30.2,41,52.1L326,456.2c-10.5-29.9-38.9-50-70.7-50s-60.2,20.1-70.7,50L156.6,446
	c7.8-21.9,22.5-39.8,41-52.1C128.7,364,80.2,281.4,80.2,181.6h29.9c0,54.5,15.9,103.3,42.2,138.3c26,35,62.3,56.3,103,56.3
	c81.4,0,145.2-85.3,145.2-194.6h29.9C430.5,281.4,382,364,313.2,393.9z"/>
<path class="st2" d="M313.2,393.9c18.6,12.3,33.2,30.2,41,52.1L326,456.2c-10.5-29.9-38.9-50-70.7-50v-29.9
	c81.4,0,145.2-85.3,145.2-194.6h29.9C430.5,281.4,382,364,313.2,393.9z"/>
<path class="st1" d="M396.3,407.3c-11.8,0-40-0.7-80-44.9c27.2-30,51.7-44.9,80-44.9c11.8,0,40,0.7,80,44.9
	C449.1,392.4,424.6,407.3,396.3,407.3z"/>
<path class="st1" d="M380.3,294.5c5-40.2,16.6-66.5,39.7-82.7c9.7-6.8,32.7-22.3,90.9-9.1c-5,40.2-16.2,66.5-39.3,82.7
	C443.9,304.7,410.8,301.5,380.3,294.5z"/>
<path class="st1" d="M407.1,199.9c-15.7-37.4-18.8-65.9-6.9-91.5c5-10.7,17.5-35.9,74.5-53.5c15.7,37.3,18.8,65.9,6.9,91.5
	C476.6,157,464,182.3,407.1,199.9z"/>
<g>
	<path class="st0" d="M114.4,407.3c-11.8,0-40-0.7-80-44.9c27.2-30,51.7-44.9,80-44.9c11.8,0,40,0.7,80,44.9
		C167.2,392.4,142.6,407.3,114.4,407.3z"/>
	<path class="st0" d="M38.1,285.4c-9.7-6.8-30.8-23.5-38.3-82.7c39.5-9,67.6-7.1,90.8,9.1c9.7,6.8,32.3,23.5,39.8,82.7
		C127.3,294.8,76.5,312.2,38.1,285.4z"/>
	<path class="st0" d="M103.6,199.9c-38.7-12-62.6-27.9-74.5-53.5c-5-10.7-16.2-36.5,6.9-91.5c38.7,11.9,62.6,27.9,74.5,53.5
		C115.5,119.1,126.8,144.9,103.6,199.9z"/>
</g>
<path class="st1" d="M316.5,208l14.4,82l-75.5-38.9V62.8l37.7,74.6l84.7,12L316.5,208z"/>
</svg>
