<?xml version="1.0" encoding="utf-8"?>
<!-- Generator: Adobe Illustrator 24.2.3, SVG Export Plug-In . SVG Version: 6.00 Build 0)  -->
<svg version="1.1" id="Layer_1" xmlns="http://www.w3.org/2000/svg" xmlns:xlink="http://www.w3.org/1999/xlink" x="0px" y="0px"
	 viewBox="0 0 148 148" style="enable-background:new 0 0 148 148;" xml:space="preserve">
<style type="text/css">
	.st0{fill-rule:evenodd;clip-rule:evenodd;fill:#04CD58;}
</style>
<path class="st0" d="M74,40c-12.7,0-23,10.3-23,23s10.3,23,23,23s23-10.3,23-23S86.7,40,74,40z M74,73c-5.5,0-10-4.5-10-10
	s4.5-10,10-10c5.5,0,10,4.5,10,10S79.5,73,74,73z"/>
<path class="st0" d="M104,19H44L0,63l74,74l74-74L104,19z M40,79L24,63l16-16c18.7-18.8,49.3-18.8,68,0l16,16l-16,16
	C89.3,97.8,58.7,97.8,40,79z"/>
</svg>
