<svg version="1.2" xmlns="http://www.w3.org/2000/svg" viewBox="0 0 320 177" width="320" height="177">
	<title>RealmsWorld</title>
	<style>
		.s0 { fill: #fbcb4b } 
	</style>
	<g>
		<path class="s0" d="m141 32.4h37.4v-9.7h-37.4c0 0.9 0 9.7 0 9.7z"/>
		<path class="s0" d="m204.3 12.4l-22.8-9.9c-1.5-0.8-3.2-1.2-4.8-1.3h-33.6c-1.6 0.1-3.3 0.5-4.8 1.3l-22.8 9.9c-1.1 0.6-2.1 1.4-2.7 2.5-0.6 1.1-1 2.4-0.9 3.7v39.6c0 1.2 0 2.5 1.2 3.7l7.2 7.4c1.2 1.3 2.1 1.3 3.6 1.3h16.5c0 1 0 10 0 9.9h39.1v-10h-39v-9.8h-17.8c-1.2 0-1.2-1.3-1.2-1.3v-47c0 0 0-1.3 1.2-1.3h74.4c1.2 0 1.2 1.3 1.2 1.3v47c0 0 0 1.3-1.2 1.3h-17.6v9.9h16.4c1.5 0 2.4 0 3.6-1.3l7.2-7.4c1.2-1.2 1.2-2.5 1.2-3.7v-39.6c0.1-1.3-0.3-2.6-0.9-3.7-0.6-1.1-1.6-1.9-2.7-2.5z"/>
	</g>
	<g>
		<path class="s0" d="m174 163.1h30v-6.7h-11.3q-0.1 0-0.2 0-0.2-0.1-0.3-0.2-0.1-0.1-0.2-0.3 0-0.1 0-0.3v-17.3q0.1-0.7-0.1-1.4-0.2-0.6-0.7-1.1l-4.5-5q-0.4-0.4-1-0.7-0.6-0.2-1.2-0.1l-9.6 0.1-6 6.5h16.4q0.1 0 0.2 0.1 0.2 0 0.3 0.2 0.1 0.1 0.1 0.2 0.1 0.2 0.1 0.3v18.2q0 0.2-0.1 0.3 0 0.2-0.1 0.3-0.1 0.1-0.3 0.2-0.1 0-0.2 0h-11.3z"/>
		<path class="s0" d="m192 123.4v-6.6h-6v6.6z"/>
		<path class="s0" d="m7.3 137.4v18.2q0 0.1 0 0.3 0.1 0.1 0.2 0.3 0.1 0.1 0.2 0.1 0.2 0.1 0.3 0.1h23.2v6.6h-22.4q-0.7 0.1-1.2-0.1-0.6-0.2-1.1-0.7l-4.5-5q-0.4-0.5-0.6-1.1-0.2-0.7-0.1-1.4v-16.5q-0.1-0.7 0.1-1.3 0.2-0.7 0.6-1.2l4.5-5q0.5-0.4 1.1-0.7 0.5-0.2 1.2-0.1h22.4v6.7h-23.2q-0.1-0.1-0.3 0-0.1 0.1-0.2 0.2-0.1 0.1-0.2 0.3 0 0.1 0 0.3z"/>
		<path fill-rule="evenodd" class="s0" d="m43 150.6l14.2-6.6c0.9-0.5 2-0.8 3-0.8h3.7q0.2 0 0.3-0.1 0.2 0 0.3-0.2 0.1-0.1 0.2-0.2 0-0.2 0-0.3v-5q0-0.2 0-0.3-0.1-0.2-0.2-0.3-0.1-0.1-0.2-0.2-0.2-0.1-0.3-0.1h-23.3v-6.6h10.5c1.1 0 2.1 0.3 3 0.8l14.2 6.6c0.7 0.4 1.3 1 1.7 1.7 0.4 0.8 0.6 1.6 0.6 2.5v13.2q0 0.7-0.2 1.4-0.2 0.6-0.6 1.1l-4.5 5q-0.4 0.5-1 0.7-0.6 0.2-1.2 0.1h-15q-0.6 0.1-1.2-0.1-0.6-0.2-1-0.7l-4.5-4.9q-0.4-0.5-0.6-1.2-0.2-0.7-0.2-1.3c0-0.9 0.2-1.7 0.6-2.5 0.4-0.7 1-1.3 1.7-1.7zm4.5 5.8h16.4q0.2 0.1 0.3 0 0.2-0.1 0.3-0.2 0.1-0.1 0.1-0.3 0.1-0.1 0.1-0.3v-5q0-0.1-0.1-0.3 0-0.1-0.1-0.2-0.1-0.2-0.3-0.2-0.1-0.1-0.3-0.1h-16.4q-0.2 0-0.3 0.1-0.2 0-0.3 0.2-0.1 0.1-0.1 0.2-0.1 0.2-0.1 0.3v5q0 0.2 0.1 0.3 0 0.2 0.1 0.3 0.2 0.1 0.3 0.2 0.1 0 0.3 0z"/>
		<path fill-rule="evenodd" class="s0" d="m217.8 163q-0.6 0.1-1.2-0.1-0.6-0.2-1-0.7l-4.5-5q-0.5-0.5-0.7-1.1-0.2-0.7-0.1-1.3v-13.2c0-0.9 0.2-1.7 0.6-2.5 0.4-0.7 1-1.3 1.7-1.7l14.2-6.6c0.9-0.5 1.9-0.8 3-0.8h3.7q0.2 0 0.3-0.1 0.2 0 0.3-0.1 0.1-0.2 0.1-0.3 0.1-0.2 0.1-0.3v-12.4h6v46.2zm16.4-7.4v-18.2q0-0.1 0-0.3-0.1-0.1-0.2-0.2-0.1-0.2-0.2-0.2-0.2-0.1-0.3-0.1h-16.5q-0.1 0-0.3 0.1-0.1 0-0.2 0.2-0.1 0.1-0.2 0.2 0 0.2 0 0.3v18.2q0 0.1 0 0.3 0.1 0.2 0.2 0.3 0.1 0.1 0.2 0.2 0.2 0 0.3 0h16.5q0.1 0 0.3 0 0.1-0.1 0.2-0.2 0.1-0.1 0.2-0.3 0-0.2 0-0.3z"/>
		<path fill-rule="evenodd" class="s0" d="m279.1 167c-0.4 0.7-1 1.3-1.7 1.7l-14.2 6.6c-0.9 0.5-1.9 0.8-3 0.8h-10.4v-6.6h23.1q0.2 0 0.3 0 0.2-0.1 0.3-0.2 0.1-0.1 0.1-0.3 0.1-0.1 0.1-0.3v-5q0-0.1-0.1-0.3 0-0.1-0.1-0.2-0.1-0.2-0.3-0.2-0.1-0.1-0.3-0.1h-3.7c-1 0-2.1-0.3-3-0.8l-14.2-6.6c-0.7-0.4-1.3-1-1.7-1.7-0.4-0.7-0.6-1.6-0.5-2.4v-13.2q-0.1-0.7 0.1-1.4 0.2-0.6 0.6-1.1l4.5-5q0.4-0.4 1-0.7 0.6-0.2 1.2-0.1h15q0.6-0.1 1.2 0.1 0.6 0.3 1 0.7l4.5 5q0.5 0.5 0.7 1.1 0.2 0.7 0.1 1.4v26.4c0 0.8-0.2 1.7-0.6 2.4zm-22.9-30.4q-0.1 0-0.3 0.1-0.1 0.2-0.1 0.3-0.1 0.2-0.1 0.3v18.2q0 0.2 0.1 0.3 0 0.2 0.1 0.3 0.2 0.1 0.3 0.2 0.1 0 0.3 0h16.4q0.2 0 0.3 0 0.2-0.1 0.3-0.2 0.1-0.1 0.1-0.3 0.1-0.1 0.1-0.3v-18.2q0-0.1-0.1-0.3 0-0.1-0.1-0.3-0.1-0.1-0.3-0.1-0.1-0.1-0.3-0.1h-16.4q-0.2 0-0.3 0.1z"/>
		<path fill-rule="evenodd" class="s0" d="m316.9 142.4l-14.2 6.6c-1 0.5-2 0.7-3 0.8h-3.8q-0.1 0-0.3 0-0.1 0.1-0.2 0.2-0.1 0.1-0.2 0.3 0 0.1 0 0.3v5q0 0.1 0 0.3 0.1 0.1 0.2 0.3 0.1 0.1 0.2 0.1 0.2 0.1 0.3 0.1h23.2v6.7h-10.5c-1-0.1-2-0.4-2.9-0.9l-14.3-6.6c-0.7-0.4-1.2-1-1.6-1.7-0.4-0.8-0.6-1.6-0.6-2.5v-13.2q-0.1-0.7 0.1-1.3 0.2-0.7 0.6-1.2l4.5-5q0.5-0.4 1.1-0.7 0.6-0.2 1.2-0.1h14.9q0.7-0.1 1.2 0.1 0.6 0.3 1.1 0.7l4.5 5c0.7 0.8 0.7 1.5 0.7 2.5 0.1 0.8-0.1 1.7-0.5 2.4-0.4 0.8-1 1.4-1.7 1.8zm-4.5-5.9h-16.5q-0.1 0-0.3 0.1-0.1 0.1-0.2 0.2-0.1 0.1-0.2 0.2 0 0.2 0 0.4v5q0 0.1 0 0.3 0.1 0.1 0.2 0.2 0.1 0.2 0.2 0.2 0.2 0.1 0.3 0.1h16.5q0.2 0 0.3-0.1 0.1 0 0.2-0.2 0.1-0.1 0.2-0.2 0.1-0.2 0.1-0.3v-5q0-0.2-0.1-0.3-0.1-0.2-0.2-0.3-0.1-0.1-0.2-0.2-0.2-0.1-0.3-0.1z"/>
		<path class="s0" d="m151 129.9h16.7l-6.2 6.6h-11.3q-0.2 0-0.3 0.1-0.1 0.1-0.2 0.2-0.2 0.1-0.2 0.2-0.1 0.2-0.1 0.4v25.7h-6.1v-24.9q-0.1-0.7 0.1-1.3 0.2-0.7 0.6-1.2l4.7-5q0.4-0.4 1-0.7 0.6-0.2 1.3-0.1z"/>
		<path class="s0" d="m124.1 136.6h11.3v-6.6h-11.3q-0.2 0-0.3 0-0.2-0.1-0.3-0.2-0.1-0.1-0.1-0.3-0.1-0.2-0.1-0.3v-12.4h-6v12.4q0 0.1 0 0.3-0.1 0.2-0.2 0.3-0.1 0.1-0.2 0.2-0.2 0-0.3 0h-6.8l-6 6.6h12.8q0.1 0 0.3 0.1 0.1 0 0.2 0.1 0.1 0.2 0.2 0.3 0 0.2 0 0.3v17.4q-0.1 0.7 0.1 1.3 0.2 0.7 0.7 1.2l4.5 4.9q0.4 0.5 1 0.7 0.6 0.2 1.2 0.1h10.5v-6.6h-11.2q-0.2 0-0.3 0-0.2-0.1-0.3-0.2-0.1-0.1-0.1-0.3-0.1-0.1-0.1-0.3v-18.2q0-0.1 0.1-0.3 0-0.2 0.1-0.3 0.1-0.1 0.3-0.1 0.1-0.1 0.3-0.1z"/>
		<path class="s0" d="m87.6 129.9h15.4l-5.9 6.6h-10.2q-0.2 0-0.3 0.1-0.2 0.1-0.3 0.2-0.1 0.1-0.1 0.2-0.1 0.2-0.1 0.4v25.7h-5.9v-24.9q-0.1-0.7 0.1-1.4 0.2-0.6 0.6-1.1l4.5-5q0.4-0.5 1-0.7 0.6-0.2 1.2-0.1z"/>
	</g>
</svg>