<?xml version="1.0" encoding="utf-8"?>
<!-- Generator: Adobe Illustrator 24.2.3, SVG Export Plug-In . SVG Version: 6.00 Build 0)  -->
<svg version="1.1" id="Layer_1" xmlns="http://www.w3.org/2000/svg" xmlns:xlink="http://www.w3.org/1999/xlink" x="0px" y="0px"
	 viewBox="0 0 450 450" style="enable-background:new 0 0 450 450;" xml:space="preserve">
<style type="text/css">
	.st0{fill:#120D05;}
	.st1{fill:#E0C78F;}
	.st2{fill:#112F39;}
	.st3{fill:#DDC28B;}
	.st4{fill:#DDC38C;}
	.st5{fill:#DBC088;}
	.st6{fill:#DCC28A;}
	.st7{fill:#112E38;}
	.st8{fill:#DBBF87;}
	.st9{fill:#E0B064;}
	.st10{fill:#112E39;}
	.st11{fill:#E0B165;}
	.st12{fill:#DFB065;}
	.st13{fill:#A48757;}
	.st14{fill:#997E4E;}
	.st15{fill:#A48857;}
	.st16{fill:#A58958;}
	.st17{fill:#D9BE86;}
	.st18{fill:#907343;}
	.st19{fill:#122328;}
	.st20{fill:#122429;}
	.st21{fill:#A38756;}
	.st22{fill:#DEC48E;}
	.st23{fill:#9E804F;}
	.st24{fill:#9A7D4B;}
	.st25{fill:#B49763;}
	.st26{fill:#A08453;}
	.st27{fill:#B69963;}
	.st28{fill:#B3874A;}
	.st29{fill:#D5B980;}
	.st30{fill:#B39560;}
	.st31{fill:#B08448;}
	.st32{fill:#68502B;}
	.st33{fill:#745B34;}
	.st34{fill:#BFA26C;}
	.st35{fill:#7B6239;}
	.st36{fill:#C5A872;}
	.st37{fill:#9C7E4C;}
	.st38{fill:#BB9E69;}
	.st39{fill:#927445;}
	.st40{fill:#967849;}
	.st41{fill:#8D7347;}
	.st42{fill:#D6B679;}
	.st43{fill:#CDAC70;}
	.st44{fill:#C7A970;}
	.st45{fill:#A48652;}
	.st46{fill:#C1A46F;}
	.st47{fill:#C0A26D;}
	.st48{fill:#A28453;}
	.st49{fill:#D4B476;}
	.st50{fill:#D0AE71;}
	.st51{fill:#5F6551;}
	.st52{fill:#74775D;}
	.st53{fill:#D3B376;}
	.st54{fill:#9D7D4B;}
	.st55{fill:#71745B;}
	.st56{fill:#BD9F6A;}
	.st57{fill:#BDA06B;}
	.st58{fill:#BB9D69;}
	.st59{fill:#B59965;}
	.st60{fill:#E0C690;}
	.st61{fill:#D2B072;}
	.st62{fill:#776C4C;}
	.st63{fill:#1C3633;}
	.st64{fill:#DCC089;}
	.st65{fill:#DCC189;}
	.st66{fill:#CFAD70;}
	.st67{fill:#2A3E39;}
	.st68{fill:#676248;}
	.st69{fill:#9F8353;}
	.st70{fill:#705731;}
	.st71{fill:#D8BC84;}
	.st72{fill:#110C05;}
	.st73{fill:#40311D;}
	.st74{fill:#4A3A24;}
	.st75{fill:#3F301D;}
	.st76{fill:#645236;}
	.st77{fill:#59462D;}
	.st78{fill:#D1AF71;}
	.st79{fill:#113039;}
	.st80{fill:#CAAA70;}
	.st81{fill:#DABE86;}
	.st82{fill:#B3945F;}
	.st83{fill:#BD9F69;}
	.st84{fill:#A58754;}
	.st85{fill:#A88C5A;}
	.st86{fill:#977A4A;}
	.st87{fill:#B49561;}
	.st88{fill:#BFA26B;}
	.st89{fill:#AA8D5B;}
	.st90{fill:#DABD84;}
	.st91{fill:#BA9C65;}
	.st92{fill:#A36A4A;}
	.st93{fill:#796137;}
	.st94{fill:#4D291A;}
	.st95{fill:#2A160D;}
	.st96{fill:#463225;}
	.st97{fill:#6F402A;}
	.st98{fill:#6D3F29;}
	.st99{fill:#221109;}
	.st100{fill:#4F2C1B;}
	.st101{fill:#B87B56;}
	.st102{fill:#473226;}
	.st103{fill:#663B26;}
	.st104{fill:#693C27;}
	.st105{fill:#DEC9B2;}
	.st106{fill:#4B3528;}
	.st107{fill:#4D3629;}
	.st108{fill:#4C3528;}
	.st109{fill:#3F2215;}
	.st110{fill:#443124;}
	.st111{fill:#162D26;}
	.st112{fill:#4C3629;}
	.st113{fill:#172B23;}
	.st114{fill:#473324;}
	.st115{fill:#493327;}
	.st116{fill:#C5AA91;}
	.st117{fill:#4E3C2C;}
	.st118{fill:#513B2D;}
	.st119{fill:#594233;}
	.st120{fill:#C5AA90;}
	.st121{fill:#453224;}
	.st122{fill:#836951;}
	.st123{fill:#967155;}
	.st124{fill:#8B6C53;}
	.st125{fill:#7A6049;}
	.st126{fill:#22110A;}
	.st127{fill:#4E2B1B;}
	.st128{fill:#3E2114;}
	.st129{fill:#483327;}
	.st130{fill:#DFCBB3;}
	.st131{fill:#C4A890;}
	.st132{fill:#3F2D20;}
	.st133{fill:#332418;}
	.st134{fill:#765944;}
	.st135{fill:#443123;}
	.st136{fill:#523B2B;}
	.st137{fill:#4A291A;}
	.st138{fill:#423022;}
	.st139{fill:#83624A;}
	.st140{fill:#85654D;}
	.st141{fill:#5B4635;}
	.st142{fill:#B48C6A;}
	.st143{fill:#574130;}
	.st144{fill:#8D6D54;}
	.st145{fill:#8A674D;}
	.st146{fill:#C49C77;}
	.st147{fill:#4D3626;}
	.st148{fill:#9F7C5F;}
	.st149{fill:#402D20;}
	.st150{fill:#9C7559;}
	.st151{fill:#906D54;}
	.st152{fill:#6A513D;}
	.st153{fill:#85664E;}
	.st154{fill:#8F6D53;}
	.st155{fill:#916E52;}
	.st156{fill:#816148;}
	.st157{fill:#7F614B;}
	.st158{fill:#1A130D;}
	.st159{fill:#19120B;}
	.st160{fill:#725642;}
	.st161{fill:#150F0A;}
	.st162{fill:#725742;}
	.st163{fill:#2A1F14;}
	.st164{fill:#8E6A50;}
	.st165{fill:#694D39;}
	.st166{fill:#4A3426;}
	.st167{fill:#7F624C;}
	.st168{fill:#2B1E14;}
	.st169{fill:#543D2D;}
	.st170{fill:#3B2A1D;}
	.st171{fill:#D7BB83;}
	.st172{fill:#3D2C1F;}
	.st173{fill:#9E8253;}
	.st174{fill:#A28655;}
	.st175{fill:#2D2015;}
	.st176{fill:#211810;}
	.st177{fill:#4A2919;}
	.st178{fill:#4C3627;}
	.st179{fill:#684D39;}
	.st180{fill:#C69872;}
	.st181{fill:#7A5D47;}
	.st182{fill:#8C6B51;}
	.st183{fill:#5B4231;}
	.st184{fill:#4E3828;}
	.st185{fill:#86664E;}
	.st186{fill:#6E5632;}
	.st187{fill:#AE8867;}
	.st188{fill:#9A775A;}
	.st189{fill:#4E2A1B;}
	.st190{fill:#7C4E37;}
	.st191{fill:#29160D;}
	.st192{fill:#3E2C1E;}
	.st193{fill:#6C533F;}
	.st194{fill:#1B140D;}
	.st195{fill:#795B45;}
	.st196{fill:#7D5D46;}
	.st197{fill:#483325;}
	.st198{fill:#866750;}
	.st199{fill:#2C1F15;}
	.st200{fill:#584130;}
	.st201{fill:#B38F72;}
	.st202{fill:#6E664B;}
	.st203{fill:#726A4C;}
	.st204{fill:#CAA96D;}
	.st205{fill:#0F2E38;}
	.st206{fill:#122F39;}
	.st207{fill:#DEAF64;}
	.st208{fill:#BC8D4B;}
	.st209{fill:#BB8C4A;}
	.st210{fill:#6C542F;}
	.st211{fill:#846C42;}
	.st212{fill:#9F8253;}
	.st213{fill:#7F673F;}
	.st214{fill:#A58856;}
	.st215{fill:#D0AE70;}
	.st216{fill:#D3B173;}
	.st217{fill:#D3B477;}
	.st218{fill:#C5A76D;}
	.st219{fill:#CCAC70;}
	.st220{fill:#DABE85;}
</style>
<path class="st0" d="M64,63.7l17,11.1c25.7-26.1,59.1-45,94.4-53.9c66.8-16.9,138.7,4.2,186.7,54l17.2-11.3c1.1-1.3-1.5-2.8,0.7-4.8
	c0.9-0.8,12.6-8.3,13.5-8.5c3.7-1,4,1,6,1.3c1,0.2,1.9-0.4,2.9-0.4c7.3,0.1,14.1,10.7,16.6,16.9c1.6,4,3.3,10.4-0.2,13.7l-31.8,23.3
	c12.5,19.3,22.4,39.7,28.9,62c18.1,62.6,5.7,130.2-32.1,182.3c-0.3,1.1,2.6,4.6,3.3,6.2c2.5,5.7,1,9.7-2.8,14.4
	c-6.6,8.2-17.1,9.6-26.7,10.6C330.9,404.7,299,423,263.8,431c-64.6,14.6-122.9-4.5-173.1-46c-1-0.9-3.8-3.8-4.7-4.2
	c-1.7-0.7-7.6-0.3-10.2-0.7c-7.2-1.1-17.6-5.3-21.8-11.5c-4-5.9-4-9.9-0.4-16c0.8-1.4,3.3-3.8,3.7-4.5c0.2-0.5,0.2-0.7,0.1-1.2
	c-0.2-1-4.2-6.2-5.2-7.8C18.4,284.8,9.3,221.6,29.3,159.9c6.3-19.5,15.6-37.4,26.6-54.6c-10-8.6-21.2-15.7-31.6-23.8
	C19.7,76.3,25,66,28.2,61.2c2.6-4.1,7.2-9.9,12.4-10.1c1,0,1.9,0.5,2.8,0.3c2.3-0.4,3-2.7,6.5-1.7c1.8,0.5,11.1,7,12.8,8.5
	C65.9,61,63.2,62.2,64,63.7L64,63.7z"/>
<path class="st1" d="M283,86.1c0.4,0,0.8,0,1.1,0c2.2,0.2,15.1,7.6,16.5,9.4c0.2,0.3,0.4,0.6,0.6,1c0.7,1.2,1.2,1.5,2.5,1.9l1.1,0.7
	l0.8-0.4c3.2,1.9,6.1,4.2,8.7,6.9l-0.1,0.9c-6.7,4.7-13.3,9.4-20,14.1c-3.2,1.1-6.6,1.5-10.3,1.2c6.2-0.4,8.3,0.2,6.3,1.8
	c-16.4,11.5-33.1,22.7-49.5,34.2l-3.1,1.5c-10.8,0-21.6,0-32.4,0l-1.9-0.8c-12.5-9-25.2-17.9-37.8-26.8c-1.1-0.9-1.2-1.5-0.3-1.9
	c5.1-0.1,10.1,0,15.1,0.1l0.4,0.6l0.8,0.4c4.8,11.3,20.4,19.4,32,21.3c14.7,2.4,33.8-3.1,43.3-15.1c8.1-10.3,1.5-13.7-8.5-11.9
	c-1.9-0.6-2.6-7.2-2.5-9.2c0.2-4.2,0.7-8.3,1.5-12.5c0.6-5.8,0.8-6.8-5.1-7.7c-13.4-2-23.9-2.5-37.4-0.5c-3.1,0.5-5.6,1.1-8,2.8
	c-0.5,0.6-0.6,1-0.2,1.3l0.2,3.5l0.5,0.8c0.5,3.6,0.5,7.5,0.4,11.2c-0.1,2.4-0.3,8.3-1.2,10.2c-0.4,0.8-0.5,1.1-1.4,1
	c-3.1-1.1-6.6-2.1-9.9-1.7c-2.3,0.3-2.9,1.5-3.5,3.7l-0.8,0.1c0.2,2-2,2.5-2.4,0.7c-0.1,0.3-0.2,0.7-0.4,0.7
	c-3.6,0.2-8.5,0.2-12.1,0l-0.5-0.7c-0.3,1.8-2.3,0.7-3.5,0c-2.5-1.8-5.1-3.4-7.6-5.2c-1.3-1.2-1.5-1.9-0.5-2.3
	c-1.4,0.2-2.6-0.2-3.9-0.7c-2-1.5-4.4-2.6-6.2-4.5c-1.5-0.9-1.8-1.7-0.8-2.2l5.5-0.4c-2.4-0.2-4.8,0-7.2,0.5l-2.3-1.2
	c-2.6-1.1-7.6-4.9-10.2-6.7c-0.9-0.7-1.2-1.2-0.9-1.8c8.5-7.2,18.3-13.9,28.6-18.5c0.3-0.1,0.7-0.2,1-0.2s0.8,0,1.1,0l3.3-0.7
	c39.4,0.2,78.8,0.2,118.1,0L283,86.1L283,86.1z"/>
<path class="st2" d="M387.4,119.6c0.9,0.8,1.8,1.7,2.4,2.7c3.9,6.2,7.3,13.6,10.2,20.3c27.3,62,22.2,132.7-13.4,190.1
	c-2.5,3.4-4.9,7.1-6.9,10.6c-1.1-3.1-2.4-6.2-3.5-9.3c-3.5-9.8-6.2-19.9-9.3-29.8c4.2-6,10.6-12,18.4-12.3l-3-0.5
	c-0.8-0.6-1.2-1-0.4-1.9c6.1-6.6,10.9-14.7,13.8-23.2l1.9-2.6c-1.3-0.2-1.5-1.3-0.5-3.1c1.2-7.6,0.3-15.3-3.3-22
	c-0.3-1.1,0-1.6,1.2-1.6c6.5,1.4,13.8-4,12.7-11.1c-1.5,15.8-18,10.9-25.9,2.9c0.9,1.9,2.4,3.5,4.2,4.5
	c10.6,3.8,12.3,16.6,10.3,26.8c-0.5,2.8-2.3,9.3-3.8,11.5c-0.2,0.4-0.7,0.5-1.1,0.6c-0.9,2.3-1.2,1.1-0.7-0.7l-0.6-1.1
	c1.3-6.7,1.3-13.8-3.7-18.9l-0.1-1.2c-2.1-2.5-3.4-2.5-4,0l0.5,1c-0.6,3.3,0.1,6.6,1.3,9.6c4.8,9.1,5.8,16.2-0.4,25.2
	c-1.7,2.5-9.4,10.7-11.9,11.4c-1,0.3-1.1-0.2-1.3-1.2c0.9-3.2,1.5-6.5,1.7-9.9c-0.7,5.4-1.7,11.7-6,15.2c-2.3-7.4-5.5-14.2-9.1-21.2
	c3.7-7.5,6-15.8,7.8-24l1-0.9c-0.5-1-0.3-2.1,0.7-3.4c-0.4-4,0.3-8.6,1.8-12.3c0.3-1,0.1-1.7-0.5-2.2c0.8-2.1,1.2-4.5,1.2-7.1
	c0.4-2.7,0.6-6.2-0.4-9c0.4-0.9,0.6-1.8,0.4-2.8l-0.7-11c-0.2-0.9-0.5-1.6-1-2.3c0.8-1.7,0.2-3.9-0.9-5.5c0.4-1,0.4-2.1,0.1-3.3
	c-1.7-2.7-2.6-6.5-2.2-9.7c-1-0.8-1.2-1.3-0.5-1.4l-0.2-1.5c-1.1-0.1-1.6-1.9-0.7-2.6c-1.1-1-1.4-1.9-0.9-2.7l-1-2.9l-1.1-1.1
	c-1.1-3.7-2.6-7.2-4.1-10.7l0.1-1.6c-1.5-1-2.1-2.2-1.8-3.7c-2-1.5-3.9-4.9-4-7.4l-1-0.4c-1-2.2-2.3-4.4-3.7-6.4l0-1.1
	c1.8-1.5,3.8-3.4,5.5-5.2c2.7,2.7,4.8,6.6,5.5,10.4c0.4,0.3,0.8,0.7,1.1,1.1s0.6,0.8,0.9,1.2c16.6,34.1,22.5,72.1,13.7,109.4
	c-2.4,10.3-5.9,18.8-9.8,28.5c0,0.1,0.1,0.5,0.2,0.5c1-0.5,7.5-19,8.2-21.6c5.7-22.7,8-42.1,4.5-65.7c-2.9-19.7-8.9-34.8-16.9-52.7
	c-0.4-0.9-0.6-1.9-0.7-2.9c-0.5-0.4-0.7-0.7,0-0.7c-0.3-1,0.4-1.9,2-2.5c0.6-1.9,1.7-3.1,3.3-3.5c0.9-1.7,1.6-2,2.3-1.1
	c1.4-0.3,1.8,1.4,1.8,2.6l1.3,0.6c4.2,4.9,9,9.2,14.5,12.9c4.2,3.2,7.3,7.5,10,12l0,1.4c1,1.9-0.4,0.9-1.5,0l-0.8,0.4
	c-2.9-2.1-6-3.6-9.3-4.4c-4.5-1.2-10.2,5.9-4.2,7.5c-2.3-4.2,0.8-6.5,4.9-5.7c6.3,1.2,14.1,9.1,17.6,14.1c1.6,2.3,5.9,9,6.1,11.4
	c0.1,1.1-0.1,1.2-1.1,1.4c-5.3-4.2-12.8-4.9-17.3,0.9l-0.6,0.1c-0.1,0.4-0.1,1.1,0.4,0.7c1.2-3.3,7.1-4.9,10.4-4.4
	c11.1,1.7,15.9,16.4,11.5,25.9c0.7-0.9,1.4-1,2.2-0.1c0.9,1.1-0.1,15.9-0.2,16.9c-2.1,23.7-5.7,44.7-14.6,66.8
	c-5.2,12.9-11.3,23.8-18.7,35.4c0,0,0.1,0.3,0.1,0.3c7.2-9.7,13.1-21.2,17.9-32.5c17.5-42.1,21.5-88.3,8.4-132.5
	c-4.8-16.4-11.4-29.4-19.2-44.4c-0.5-1-0.8-2.2-1.1-3.3c-1.1-0.7-1.4-1.2-0.7-1.5c0.4-1.9,2.5-2.1,3.6-2.2
	C387,118.4,387.3,118.6,387.4,119.6L387.4,119.6z"/>
<path class="st3" d="M166.6,206.7c-2.8,2.6-7.6,4.6-10.6,7.2c-0.8,0.5-6.9-2.2-6.9-2.6c1.6-1.8,7.5-2.4,7.6-5.2
	c0-0.6-0.4-1.2-0.3-1.8c0.2-1.1,2.7-1.7,1.9-4c-1.6-4.8-10.9-0.6-14.3-0.1c-2.4,0.3-1.7-1.2-3-3.1c-1.2-1.7-3.2-2.4-4.2-3.6
	s-1.2-3.1-2.4-4.6c-1-1.2-3-3-4.7-2.2c-3.3,1.6,0.1,6-0.4,6.5c-2.5-0.7-8.3-5.6-10.2-2.1c-1.1,2.1,0.3,4.6,1.6,6.2
	c1.1,1.3,3.1,2.3,3.8,3.5c0.8,1.3,0.8,3,2,4.3c0.9,1,3.2,2.5,4.6,2.6c-0.8,2.9-1.7,3.9,0.2,6.7c1.5,2.3,3.6,3,5.6,4.1l-0.2,0.8
	c-22.7,0.6-45.4,1-68.1,1.3c-0.4-2.7-0.4-5.5,0-8.4c-0.2-0.3-0.3-0.7-0.4-1s-0.2-0.7-0.2-1c0.3-7.5,1.9-16.1,3.8-23.4
	c0.1-0.3,0.3-0.6,0.5-0.9s0.4-0.6,0.7-0.8c1.2-0.9,1.3-1.2,0.5-1.1l0.2-1.5c-0.1-0.3-0.2-0.6-0.2-0.9c-0.3-2.2,4.5-14.5,5.9-17.2
	l1.3-1.2c0.7-1.4,2.1-1.8,4.2-1.1l19.3-0.5c2.7,0.4,5.6,0.9,8.3,1.6c12.3,8.9,25,17.4,38,25.7c4.5,3.1,9.3,6.4,13.1,10.3
	C165.2,200.7,169.4,205.3,166.6,206.7L166.6,206.7z"/>
<path class="st4" d="M356.1,162.4c1.9,4.2,3.9,8.9,5.1,13.4c0.9,1.6,1.1,2.9,0.6,4.1c0.6,0,1,0.5,1.2,1.5c0.2,0.8,0.5,1.8,0.7,2.6
	c0.1,1,0.3,2,0.7,3c0.8,3.2,1.5,6.4,2.2,9.7l0.3,3.1c-2.7,0.2-2.8,0.3-0.4,0.3c1,0.6,1.3,3.7,1.2,4.8c0,0.3-0.1,0.6-0.3,0.6
	c-2.3,0-4.6,0-7,0c-0.3,0-0.5-0.2-0.5-0.6v0.6l7.9,0.1l0.6,2.6c0.5,4.3,0.7,8.5,0.6,12.8c-20.6,0-41.3-0.1-62-0.5l-0.4-0.8
	c2.4-1.4,5.5-3.8,5.8-6.9c0.1-1.2-0.7-2.6-0.2-3.5c0.3-0.4,3.3-1.9,4.2-3.1c1.1-1.5,0.8-2.9,1.4-4.1c0.5-0.9,2.3-1.9,3.1-2.8
	c2.9-3.2,6.5-8.7-1.1-7.8c-2.1,0.2-5.9,4-6.9,3.7c-1.7-0.4,1.5-2.8,1.8-3.4c2-3.2-2.1-5.6-5.6-2.4c-2.3,2.1-2.2,5.1-3.6,6.7
	c-1.1,1.2-4.6,2.9-5.8,4.5c-3.5,0.3-11-4.3-13.5-1.1c-1.9,2.4,0.4,3.3,0.9,5c0.3,1.1,0,2,0.6,3.1c1,2,5.4,2.7,6.9,4.5
	c0,0.5-5.6,3-6.7,2.8c-0.7-0.1-8-5.1-9.3-5.9c-1.4-1.1-1.5-1.6-0.4-1.5c0.8-1.5,1.4-2.9,2-4.4c3.1-3.6,6.8-6.6,11.1-9
	c13.4-10.4,26.9-20.7,40.5-30.8l2.5-1.3l2.8-0.7c6.1,0.1,12.1-0.1,17.9-0.3L356.1,162.4L356.1,162.4z"/>
<path class="st5" d="M140,221.6c-19,10.6-45.2,37-56,56.2c-1,1.3-3.7-0.1-2.4-1.7l2.7-3.2c-0.5-1.6-1.2-1.8-1.9-0.7
	c-2-0.5-1.8,1.9-1.1,3.2c-0.1,0.6-0.4,1.1-0.8,1.6c0.2,1.7-1,2.4-1.9,0.9c-0.3-0.3-0.6-0.6-0.9-1s-0.5-0.7-0.7-1.1
	c-6.3-16.5-9.1-33.5-9.3-51.2c0-0.4,0.1-0.8,0.2-1.3s0.3-0.9,0.5-1.3l0.2-0.8c23.7-0.1,47.3-0.2,71-0.4L140,221.6L140,221.6z"/>
<path class="st6" d="M369.2,229c-0.2,3.6-0.5,7.2-0.7,10.8c-0.4,4.1-1,8.1-1.8,12.3l-0.7,1.9c-8.7,0.1-17.3,0.2-26,0.4l-0.5-0.4
	c-10.1-11.6-23-21.1-35.3-30.1c-1-0.6-0.8-1.4,0.4-1.8l64.4-1.1C369.7,221.5,369.5,227.8,369.2,229L369.2,229z"/>
<path class="st2" d="M320.4,102.1c-2.1,1.5-4.1,3-6.2,4.5c-2.4-2.3-6.5-6.2-9.5-7.4l-1.1-0.7c-1.5-0.3-2.3-0.9-2.5-1.9
	c-5.9-4.1-11.7-7.3-18.2-10.4l-2.8-0.7c-1-0.7-2.1-1.3-3.1-2l-0.6,0.2c-23.8-9.6-50-13.4-75.9-9.6c-12.4,1.8-22.6,5.3-34.4,9.3
	c-1,0.3-2,0.4-3,0.4c-0.9,1.4-2.5,2.2-4.7,2.2c-6.2,2.9-12,6-17.8,9.9c-3.7,2.5-9.1,6.3-12.4,9.3c-0.6,0.6,0.2,0.7,0.4,1.3
	c-2.2-1.6-4.6-3.5-6.9-5.2C177.4,52.2,265.2,52.2,320.4,102.1L320.4,102.1z"/>
<path class="st7" d="M356.5,79c-1.5,1.1-3.2,2.3-4.7,3.3c0.2-0.3-0.1-1-0.4-1.3c-0.9-1.4-4.3-4.1-5.7-5.4
	c-49.1-43.9-116.1-59.8-178.9-39.7c-28,9-53.7,24.9-75.1,45.3l-0.2,1.5c-1.8-1.2-3.5-2.6-5.5-3.7c50.3-49.4,121.7-69.2,189.8-48.9
	c30.7,9.1,57.1,26.8,80.5,48L356.5,79L356.5,79z"/>
<path class="st8" d="M201.1,281.5l0.2-3.6c13.5,0.3,27.1,0.4,40.7,0.4l0.3,2.1c2.6,9.8,6.9,17.3,15.3,23.1l-0.4,0.8
	c-19.9,1.1-42.7,0.8-63.6,0.3c-2,0-4.1-0.1-6.1-0.3c-0.7,0,0.5-1.3,0.9-1.5c0.9-1.3,2.1-1.8,3.1-3
	C196.3,294.4,199.7,288.7,201.1,281.5L201.1,281.5z"/>
<path class="st9" d="M356.5,79c-1.2-0.6-2.6-1.9-3.6-2.8c-26.5-24.1-55.4-41.3-90.5-48.8C199,13.7,138.7,32.2,90.9,75.5
	c-1.4,1.3-2.7,3.7-4.7,3.5c-0.4-0.2-1.4-0.7-1.4-0.8c-0.5-0.8,2.7-4.1,3.4-4.8c24.7-24.8,64.4-44.4,98.3-50.9
	C245,11.4,309,29.5,352.5,71c1.3,1.2,4.6,4.3,5.5,5.6C358.9,78,357.5,78.2,356.5,79L356.5,79z"/>
<path class="st7" d="M61.8,109.5c1.6,1.1,3.2,2.2,4.7,3.3c-2,2-3.7,4.5-5.1,7.5l-2.4,3.2l-0.6-0.1l-1.4,2.3
	c-4.1,5.9-8.3,15.6-11.1,22.3c-21.7,52.4-20.1,110.9,4.2,162c3.4,7.2,7.8,15.8,12.4,22.2c0.4,0.5,0.5,1.1,1.3,1.1
	c-0.6,1.8-1.8,4.5-2.6,6.3c-0.3,0-0.6-0.1-0.7-0.3C22,281.1,14.3,208,42.8,142.9c2.9-6.6,6.2-13.9,10-20c0.6-1,1.5-1.8,2.4-2.6
	l0-1.5c1.1-2.1,3.9-6.7,5.3-8.5C60.9,109.9,61.3,109.7,61.8,109.5L61.8,109.5z"/>
<path class="st10" d="M93.8,139.7c-1.9,2.5-3.5,5.6-4.9,8.5l-1.2,0.8v1.5l-4.2,8.4l-1.2,0.9c0.4,1.3-0.1,2.4-1.5,3.4
	c-2.9,6.7-5,12.2-6.9,19.4c0.6,1.3,0.3,2.2-0.7,2.6c-2.2,8.6-4,18.2-4.4,27.2l-0.3,6.9c0.8,1.4,0.8,2.4,0,2.8
	c0.1,19.9,2.8,37.4,10.2,55.8l1,0.5l1.9,5.1c-1.4,2.9-2.7,5.5-4,8.6c-0.3,0.1-0.7,0.1-0.8,0c-7.7-17.4-13.6-36.8-15.1-57.1
	c-2.4-32.4,6.2-65.4,21.8-93.6c0.2-0.4,0.6-0.8,0.9-1.2s0.7-0.7,1.1-1.1c0.2-0.5,0.3-0.9-0.1-1.3c1.4-1.6,2.3-3.4,2.6-5.3l0.7-0.5
	C89.6,135.4,91.2,137.3,93.8,139.7L93.8,139.7z"/>
<path class="st11" d="M389.6,117c41,67.1,41,152.1-1.5,218.6c-0.8,1.2-5.8,8.8-6.3,9.2c-1.4,1-1.7-0.6-2-1.5c-0.1-0.8,0-1.3,0.4-2.1
	c1.4-3,4.8-7.1,6.7-10.3c39.7-66.1,39.9-145,0.6-211.4C386.2,117.7,388,114.3,389.6,117L389.6,117z"/>
<path class="st12" d="M52.3,119.2c0.9-1.2,1.4-1.8,2.1-0.1c1.2-0.3,1.4,0.1,0.8,1.2c-38.1,64.3-38.5,141.6-1.5,206.4
	c2.2,3.9,4.8,7.5,7.1,11.4c0.3,0.6,0.8,1,0.7,1.8c-0.3,0.6-1.2,3.4-2,2.6C29,298.8,16.8,243.3,25.9,190.2
	C30.2,164.8,39.3,141.1,52.3,119.2L52.3,119.2z"/>
<path class="st5" d="M243.3,267c-0.4,1.3-0.5,2.1-0.7,3.4c-0.4,2.6-0.5,5.3-0.6,8c-13.5,0.1-27-0.2-40.5-0.7l-0.4-0.6
	c-0.1-3.3-1.4-6.9-1.5-9.7l-0.4-1.9c7-4.7,14.2-8.9,21.7-12.6c7.7,3.7,15.7,7.6,22.5,12.7L243.3,267L243.3,267z"/>
<path class="st13" d="M93.8,139.7c7.6,7.1,18.1,13.8,26.6,20.1c0.8,0.8,0.9,1.1-0.3,1.4c-1.7-0.4-12.1-0.8-12.3-0.2
	c-0.4,0.8,11.3,0.7,12.1,0.4c1.2,0,2.3,0.2,3.4,0.6c10.4,7.8,21,15.3,31.3,23.3c4.1,3.2,11.1,8.1,14.2,12.1l0.5,1.3
	c-1.9,2.1-1.6,4.1-0.6,6.6l-0.6,0.6c-0.5,0.3-0.9,0.7-1.5,0.7c0.2-0.1,1-1.2,1-1.3c-1.9-3.3-5-6.5-7.9-8.9
	c-10.4-8.4-23.4-16-34.6-23.4c-4-2.6-10.4-8.2-14.2-10c-2.8-1.3-10.5-0.6-13.9-0.6c-4,0-8,0.3-12,0.3c-1.6,0-2.9-1-4.2,0.4
	c0.5-1.1,0.9-2.2,1.5-3.4c6.7,0.3,13.4,0.2,20.1-0.1c0.2,0,1.3-0.2,1.2-0.2c-5-3.8-10.9-7.4-15.9-10.5c1.3-2.4,3.1-6.4,4.7-8.4
	C92.7,139.8,92.8,139.5,93.8,139.7L93.8,139.7z"/>
<path class="st14" d="M243.3,267c-0.1-0.9-1.4-1.7-2.1-2.2c-3.9-2.6-8.5-5.1-12.5-7.3c-2.6-1.4-5.3-2.5-7.8-3.9
	c-7.5,3.3-14.1,8.3-21.2,12.3c-0.2,0.2-0.1,1.1-0.1,1.4c-0.7-1.6-1.3-3.2-2.1-4.7c-0.5-0.9-2.5-3-2.1-3.8l26.6-18.2l25.5,16.4
	c0.4,0.7-0.9,2.1-1.3,2.8C245.2,262,244.1,264.5,243.3,267L243.3,267z"/>
<path class="st15" d="M184.7,305.3l-0.4,1.4c-5.7,5.5-11.9,10.7-19.9,12.2c-8.8,1.7-15.6-0.4-23.8-3.3c-6.5-1.6-13.2,3.1-15.2,9.4
	l-0.8,0.3c-0.3,1.3-6.2,0.9-6.4,0.5l0.2-2.4c2.2-9,7.2-21.7,18-21.6c3.3,0,6.4,3.5,9.2,5.1c10.4,6.2,22,6.5,32.9,1.5
	C180.6,307.6,182.8,305.8,184.7,305.3z"/>
<path class="st16" d="M321.2,161.6l1.4-0.6c3.5,0.3,6.9,0.3,10.4,0.2l1.3,0.7c-14.1,10.5-27.8,21.6-41.9,32.2
	c-4.2,3.1-8,4.6-11.5,9.1c-0.9,1.2-1.5,3-2.7,4.1c-0.7-0.4-0.7-1.3,0.1-2.6l-1.5-0.9c-1.6,0.5-4.4-0.4-3.7-2.4
	c2.6-6.6,2.8-5.2,8-9.1C294.4,182,307.8,171.8,321.2,161.6L321.2,161.6z"/>
<path class="st17" d="M181.5,278.5l0.6-0.8c1.3,0,9.5,0.2,9.9,0.8c0.8,1.2-0.4,5-1.1,6.3c-3,8.2-17.8,15.3-25.8,16.4
	c-2.6,0.2-5.1,0.2-7.6,0c-0.7-0.1-0.9-0.2-1.5-0.4c-8.1-3.6,0.5-7.9,5.1-9.1l0.8,0.5c2.5,2.6,6.6,4.6,10.3,4.1c1.3-0.2,4-1.2,2.9-3
	c-0.2-0.3-4.1-2.1-5.1-3c-1.1-1-1.7-2-2.4-3.3l-0.4-1.4c0.2-0.7,10.9-7,12.7-6.8C179.8,278,181.1,277.9,181.5,278.5L181.5,278.5z"/>
<path class="st18" d="M118.5,323.5c0.1,0.5-0.2,1.8,0.2,1.9c1.7,0.3,4.2-0.1,6,0l2.7-0.4c61.3-0.2,122.7-0.2,184.3,0l3.2,0.4
	c0.5,0,1.2-0.4,2-0.4c2.1-0.1,4.3,0.1,6.4,0c0.4,0.9-0.1,1.3-1.6,1.2l-5.3-0.1c-0.1,0.6-0.3,1-0.7,1.2c-38.8,0.1-77.6,0.1-116.4,0
	c-3.9,0.4-7.8,0.7-11.7,0.8c-17.5,0.1-35.1,0.2-52.6,0.2c-3.9,0-7.8-0.3-11.7-0.6l-0.9,0.7c-3.2-0.3-6-0.2-2.9,3.2l-0.2,0.9
	l-2.2-1.5C117.5,328.5,117.9,326,118.5,323.5L118.5,323.5z"/>
<path class="st19" d="M381.6,122.9l-0.1,0.8c-5.1,2.1-9.7,5.2-13.9,9.4c-0.4,0.4-0.8,0.2-1.3-0.1l-0.9-0.5c-1.4-7.5-1.1,0.2-0.4,3.2
	c0.6,1.2,0.6,2.1,0.2,2.9c-1.1-0.1-1.2,1.2-1.8,1.6c-0.5,0.4-1.3,0.3-1.8,0.8c-0.6,0.6-0.8,1.9-1.5,2.6c-0.7,0.8-2,0.9-2.6,2
	l-0.5,0.1c-1.7-2.8-3.5-5.5-5.3-8.3c1.1-1.3,2.5-2.4,2.5-4.2c0-1.2-1-2.8,0.2-4c7-5.7,14.5-10.6,21.7-16c0.3-0.1,0.7-0.2,0.8-0.1
	c0.8,1.2,4.8,7.9,5,8.9L381.6,122.9L381.6,122.9z"/>
<path class="st5" d="M340.5,255.4c-0.3-0.4-0.4-0.8-0.2-1.2c8.5-0.1,17.1-0.2,25.7-0.2l0,1.4c-1.6,7.2-4.1,17.3-7.5,23.8
	c-0.3,0.6-0.4,1.1-1.3,1.1C352.5,271.3,347,263.2,340.5,255.4L340.5,255.4z"/>
<path class="st20" d="M88.7,131.1l-0.6,0.2c-0.5,2.6-2.4,5.6-4.5,6.9c-0.6-2-2.2-1.9-3.6-2.9c-1.7-1.2-2.7-3.1-4.8-3.8l-0.7-0.5
	c0.1-3-0.3-4.9-3.4-5.7c-3.8-0.9-7.6,3.3-0.7,1.4c2.6,0.1,3.6,4.6,1.5,5.6c-0.8-0.1-1.5-0.4-2.3-1.2c-1.8-0.8-3.3-1.8-4.5-3.1
	c0.2-1-0.8-1.5-3-1.4c-1.3-0.3-2.8-0.8-1.8-2.2l-0.4-0.9c1.6-3.4,3.5-6.6,5.7-9.7l1.2-0.6c6.1,4.4,13.5,9.3,19.1,14.2
	C87.4,128.6,88.4,129.1,88.7,131.1L88.7,131.1z"/>
<path class="st21" d="M350.3,151.2l-0.3,0.8c-1,0.5-10.8,6.8-10.2,6.9c4,0.7,10.4,0.2,14.5-0.3c0.6,1.2,1.2,2.5,1.8,3.7
	c-1.9-1.6-4.7-0.4-6.7-0.3c-4.9,0.1-10,0-15.1,0c-0.2-0.7,0.1-1.2,0.9-1.6c-3.8-0.1-7.6,0-11.4,0.4c-0.8-0.3-0.6-0.8-0.1-1.4
	c7-5.3,15.2-10.4,21.8-16C347.6,145.7,348.8,148.6,350.3,151.2L350.3,151.2z"/>
<path class="st22" d="M206.9,161.3c-2.1-1.5-1-2,3.1-1.5c7.7-0.3,15.8-0.3,23.5-0.3c3.9-0.4,4.9,0.1,2.8,1.4
	c-1.3,1.4-4.9,3.5-6.6,4.6c-2.8,1.9-5.7,3.6-8.6,5.4c-0.5,0.1-4.3-2.4-5.1-2.9C214.1,166.6,208.4,162.9,206.9,161.3z"/>
<path class="st23" d="M369.2,230.5V229c0-1.2,0.2-6.6-0.2-7.1c-0.2-0.3-0.5-0.3-0.8-0.4l-64.1,1.2l-0.1,1.1
	c-0.8-0.6-2.5-0.6-2.2-2.2c1.8,0.1,3.3-1,4.7-1.9l62,0.7l0.4-0.3c0-3.9-0.5-8-0.6-11.9v-0.4c0.8,6.9,1.2,13.7,1.1,20.7
	C369.6,229.1,369.8,230.1,369.2,230.5L369.2,230.5z"/>
<path class="st24" d="M68.7,212.2c-0.1,2.6,0.1,5.2,0,7.8l68.4-1.5c0.8,0.4,4.4,1.8,3.6,3c-0.1,0.1-0.6-0.1-0.7,0l-71.7,0.4
	c0-1-0.2-1.8-0.3-2.8L68.7,212.2L68.7,212.2z"/>
<path class="st14" d="M242.2,280.4c-0.1-0.3-0.5-1.5-0.6-1.5l-29.5,0c-3.5-0.6-7.2,0.1-10.7-0.8c0.2,1.3-0.2,2.3-0.4,3.4
	c-0.1-1.5,0.1-3,0-4.5l40.7,0.7c-0.3-2.6,0.2-5,0.7-7.4L242.2,280.4L242.2,280.4z"/>
<path class="st25" d="M240.8,157.9c-1.4,1-2.7,2.3-4.4,3c0.1-0.1,0.8-1.1,0.7-1.1c-2.3,0.6-4.7,0.4-7.1,0.4c-4.9,0-9.9,0.1-14.8,0.1
	c-3,0.1-6,0.5-9-0.1c-0.1,0.1,0.6,1,0.7,1.1c-1.3-0.5-2.4-1.8-3.6-2.6l34.8,0L240.8,157.9L240.8,157.9z"/>
<path class="st26" d="M180,278.9c-3.7,1.4-8.1,4.9-11.6,7c-0.6,0.3-1-0.2-0.8,1.2c-1.4-2.8-1.6-4.6-1.5-7.8l0.2-0.8
	c4-0.3,9.1-0.3,13.2-0.2C179.8,278.3,179.9,278.6,180,278.9L180,278.9z"/>
<path class="st19" d="M382.3,108.4c0.4,0.5,0.3,1-0.2,1.6l4.8,7.2c0.3,0.5,0.4,1.3-0.2,1.6c0.3,1.2-0.7,0.6-1.5,0.9
	c-0.8,0.4-1.2,1.2-2.2,1.3l-1-0.2c-1.7-2.9-3.4-5.7-5.2-8.4C378.4,111.3,380.8,109.2,382.3,108.4L382.3,108.4z"/>
<path class="st27" d="M294.2,120.7c-1.3,0.9-2.7,2.1-4,3l0.5-1.1c-6.8,0.2-13.7-0.2-20.4,0c-2.4,0.1-5,1-7.5,0.4l1.1-1.7
	C274.1,120.6,284.3,121.7,294.2,120.7L294.2,120.7z"/>
<path class="st28" d="M61.8,109.5c-1.8,3.8-4.4,7.2-6.6,10.8c0.2-1.4-0.6-0.1-1.3-0.7c-0.8-0.7,0-1.8-1.6-0.4
	c2.2-3.7,4.2-7.4,6.7-10.8C59.5,107.7,61.1,109,61.8,109.5z"/>
<path class="st29" d="M78.5,277.7l1.5,0.2c-1-1.3,0.6-2.3,0.6-2.6c0-0.2-0.6-0.5-0.5-1c0-0.4,0.3-2.4,0.4-2.5
	c0.3-0.6,1.3-0.2,1.8-0.4c0.4-0.2,0.1-0.9,1.2-0.8c0.6,0.1,1.8,1.8,1.6,2.4c-0.2,0.7-3.2,3.5-3.2,4.2l2.2,0.6
	c-1,1.8-1.7,3.8-2.6,5.6c-0.9,0.1-0.9-0.6-1.2-1.2C79.6,280.8,79.1,279.2,78.5,277.7L78.5,277.7z"/>
<path class="st30" d="M365.9,255.4c0.2-1.1-0.6-0.7-1.3-0.7c-7.5-0.3-15.9,0.7-23.1,0.2c-0.7-0.1-1.2-0.7-1.1,0.6
	c-0.4-0.5-0.7-1.1-1.1-1.5c3.6-0.8,7.4-0.3,11.1-0.4c0.9,0,1.7-0.4,2.5-0.4c3.9-0.1,9.2,0.5,12.8,0.1c0.8-0.1,0.5-0.7,0.9-1.1
	C366.4,253.2,366.2,254.3,365.9,255.4L365.9,255.4z"/>
<path class="st31" d="M389.6,117l-1.1-0.7c-0.3,1.2-1.4,2-1.1,3.3c-0.1-0.3-0.6-0.5-0.7-0.7c-0.1-0.2-0.1-0.8-0.4-1.2
	c-0.7-1.1-4.9-7.1-5-7.6c-0.1-0.6,0.9-1.1,1-1.6c0.7-0.4,0.8-1.1,1.6-0.4C385.1,109,388.5,115.2,389.6,117L389.6,117z"/>
<path class="st32" d="M123.3,162c-1.4,0.6-2.6,0.1-3.8,0.1c-3,0.1-6.1,0.5-9.2,0.2c-2-0.2-3.4-1.1-5.3-1.1c-0.1-1,0-0.6,0.6-0.7
	c3.9-0.8,9.6-0.5,13.6-0.2c0.7,0.1,1.3,0.7,1.1-0.6C121.3,160.5,122.3,161.3,123.3,162L123.3,162z"/>
<path class="st33" d="M323.7,159.4c-0.2,1.3,0.5,0.6,1.1,0.6c2.8,0,9.1-0.8,11.4-0.1c0.3,0.1,0.8,0.5,0.6,0.7
	c-0.9,0.3-1.8,0.9-2.5,1.5c-4.3,0-8.8,0.3-13.1-0.4C321.9,161.1,322.7,160.1,323.7,159.4L323.7,159.4z"/>
<path class="st34" d="M138.9,113.2c2.5,1.1,2.9,0.1,5.3,0c5.9-0.2,11.8,0.5,17.7,0.4c-0.1,0.7-0.7,0.7-1.3,0.8c-2,0.2-4.5-0.2-6.6,0
	l-11.4,0.8c0.3,0.5,0.7,1.1,1.1,1.5C141.9,115.9,140.3,114.5,138.9,113.2L138.9,113.2z"/>
<path class="st35" d="M273.1,201.4c-0.2,0.6,2,1.8,2.1,1.8c0.8,0.2,1.8-0.8,1.9-0.7c0,0,0,0.6,0.4,0.9c0.4,0.3,1.8,0.8,1.8,1.1
	c0,0.1-0.9,1.5-1.1,2.8c-0.1,0.5-0.5,0.6,0.4,1.5c-2.3-1.5-4.6-2.8-6.8-4.5C271.6,204,272.8,202.3,273.1,201.4L273.1,201.4z"/>
<path class="st36" d="M180.7,130.7h-15.8l0.5,1.1c-1.2-0.8-2.4-1.8-3.6-2.6c1.2,0.9,2.7,0,3.5,0h13.1c0.3,0,1.2,0.7,1.8,0.4
	c0.2,0,0.5-0.9,0.6-1.1C181.8,128.9,181.7,130.2,180.7,130.7L180.7,130.7z"/>
<path class="st37" d="M66.5,112.9c0.1,0.1,0.2,0.3,0.4,0.4c-1.3,2.6-3.2,4.9-4.7,7.3c-0.7,1.2-1.2,2.7-1.9,3.8
	c0.4,1.1,0.3,1.1-0.7,0.7c0.1-0.7-0.2-1.6-1.1-1.5c0,1.1-1,1.6-1.5,2.2c0.7-2.3,2.6-4.2,3.9-6.2c1.1-1.7,2.4-4.8,3.7-6.2
	C65.3,112.8,65.6,112.7,66.5,112.9L66.5,112.9z"/>
<path class="st38" d="M149.8,121.1h17.1c0.1,0.8-0.4,0.9-0.9,1.1c-2.2,0.9-12.1-0.1-12.5,0.4l0.7,1.5
	C152.8,123,151.3,122.1,149.8,121.1L149.8,121.1z"/>
<path class="st39" d="M357.6,145.6c0.1,0.1-0.1,0.6,0,0.7c0,1.3-0.4,2-1.1,2.2c-1.8-3.5-3.7-6.9-5.5-10.4c0.2-0.2,0.5-0.5,0.7-0.7
	c0.9-0.2,1.1,0.2,1.5,0.8C354.2,139.4,356.8,144.1,357.6,145.6L357.6,145.6z"/>
<path class="st40" d="M383,121.1c0.3,0.5,0.5,1.1,0.7,1.5c-0.6,0.2-1.2,0.3-1.8,0.4c-0.1,0.3-0.2,0.3-0.4,0l-5.5-9.7
	c0.2-0.1,0.4-0.5,0.7-0.7c0.7,0,1.1,0.4,1.5,0.9C379.8,115.4,381.7,118.8,383,121.1L383,121.1z"/>
<path class="st41" d="M83.6,138.2c1.1-2,2.7-4,3.7-6.1c0.5-1,0.1-3,1.4-1c0,0.2,0,0.5,0,0.7c0,3.3-1.8,4.5-3.3,7.1
	c0.3-1.7-0.9-1.3-1.8-0.4L83.6,138.2L83.6,138.2z"/>
<g>
	<path class="st2" d="M92,83.1c0.2-0.7,0.7-1.2,1.6-1.7c27.2-26.7,63.5-44.6,100.5-50.8c2.6-0.4,3.3,1.4,1,2.6
		c-4.2,4-8.1,8.4-10.9,13.5c-0.7,0.3-1.3,0.3-1.7-0.3l-1.8-4.4c-0.8-2.6-8-1.1-8.9,0.2c4.9-1.7,10.4-1.1,9.8,5.5
		c-0.8,8.7-13.6,15-21.3,15.5c-3.8,0.2-13.1-0.5-16.5-1.7c-1.2-0.4-1.6-1.2-0.6-2.1c4.2-0.9,6.7-3.6,9.4-6.8
		c0.1-0.2-3.4,1.4-3.7,1.8c-6.1,4.9-11.8,9-19.8,10c-8.9,2.8-18.2,7.3-23.4,15.5c7.9-9.3,28.6-20.8,37.2-7.2
		c-0.9-3.8-4.4-6.1-7.9-6.8c-1-0.4-1.2-0.9-0.8-1.9c1-2.5,20.3-0.8,22.6-0.1c18,1,25.6-10.7,33.9-25.3c0.9-1,1.1-0.4,1.6,0.7
		c-1.4,6.7-0.2,13.6,4.9,18.3c-5.2-7.2-6.5-14.8-1.7-22.5c3.4-5.5,7.2-5.6,13.2-5.5c0.8,0.3,1.3,0.6,0.9,1.4
		c-13.9,11.3-4.9,36.1,13.5,28.8c13-5.2,12.7-19.3,4.9-29l0.3-0.8c0.5-1.2,5-1.2,5.6,0c0.1-0.3,0.3-0.6,0.6-0.6c1.1-0.2,7.8,5,8.8,6
		c5.9,6.5,6.1,12.4,2.2,20.1c2.4-1.9,3.6-4.6,3.6-8.3c0.7-0.7,1.1-1,1.6-0.2c2.7,7.2,7.8,13,14.3,16.8c12.6,7.4,23.2,5.1,36.5,2.1
		c8.2-1.6,17.2,1.6,22.2,8.6c8.5,11.8-7.1,19.6-13.8,8.6c-2.2-7.7-2.9-2.4-0.5,1.1c2.5,3.8,7.6,6.3,12,4.7c9.6-3.6,6-13.8-0.5-19
		c-9.2-7.4-18.9-6.7-29.5-2.6c-2.3,0-0.5-2.4,0.4-3.4c2.7-5.2-1.4-9.6-6.3-10.9c3.5,1.7,7.9,6,5.6,10.4c-4.7,8.9-20.6,2.9-26.8-1.2
		c-2.2-1.5-8-6.2-8.8-8.6c-0.3-0.9-0.1-1.2,0.7-1.6c3.3,0.5,6.8,0.3,8.8-2.8c-5.6,3.1-9.8,3.9-13.4-2.2c-2.6-6.5-4.8-11.5-11.1-15.2
		c-0.1-0.4-0.3-1.3-0.2-1.4c0.9-1.1,13.3,1.1,16,1.6c35.1,6.4,68.3,25.7,94.3,49.9c0.6-0.1,1,0.1,1.2,0.5c-2,1.4-4.1,2.6-6.1,3.9
		c-3.1,2.1-11.2,8.9-13.9,10c-1,0.4-2.3,0.1-3.7,0.7c-2.6,1-5.4,3.6-7.5,5.1c0-0.7-0.3-1.1-0.8-1.5c-31-30-84.3-41.8-125.9-34.2
		c-26.2,4.8-52,16.3-71.6,34.3l-0.4,0.7c-1.8-1.3-5.4-4.3-7.5-4.1c-1,0.1-1.5,1.1-2.3,0.6c-1.9-2-4.2-3.7-6.4-5.3
		C101.1,89.2,96.4,86.2,92,83.1L92,83.1z"/>
	<path class="st42" d="M320.4,102.1c-0.3,0.1-0.8,0-1.1-0.2c-16.6-14.6-36.6-25-57.7-31c-47.4-13.6-100.9-2.3-138.4,30.3
		c-0.4,0.2-1.1,0.3-1.4,0.2c-0.2-0.1-0.5-1.1-0.3-1.4c22.5-19.4,49.8-31.5,79.1-35.3c39.3-5.2,89.2,6.6,118.7,34.7
		C320,99.9,321.9,101.5,320.4,102.1L320.4,102.1z"/>
	<path class="st43" d="M116,83.8c0.9-4.1,7.3-4.3,8.9-0.4c2.3,5.5-4.1,10.7-9.2,9.4c-1-0.3-2.9-1.2-3.2-2.3c-0.3-1.3,2.4-0.1,3.3,0
		c3.3,0.3,7.9-0.8,6.6-5.3C121.7,82.7,117.8,84.1,116,83.8L116,83.8z"/>
	<path class="st44" d="M237.5,55.6l2.5-4.7l2.1-7.2C244.5,47.2,242,54.9,237.5,55.6L237.5,55.6z"/>
</g>
<path class="st45" d="M283,86.1H158.6c1.6-0.7,3.1-1.6,4.7-2.2c30,0.8,60.1,0.7,90.4-0.3l19.8-0.1c4.6,0.7,5.8,0.9,3.7,0.5v-0.5
	C279.2,83.8,281.1,85.2,283,86.1L283,86.1z"/>
<path class="st46" d="M304.8,99.1c-3.2-1.4-10.9-0.8-14.8-0.7c-8.5,0.1-17,1.2-25.4,1.1c-2.6,0-5.2,0.1-7.8,0
	c-0.6-0.4,0-0.7,0.5-0.7c6-0.7,12.2-0.4,18.2-0.8c8.2-0.5,15.3-1.3,23.7-1.1c0.5,0,3.1,1,2-0.4C302.3,97.3,303.9,97.9,304.8,99.1
	L304.8,99.1z"/>
<path class="st47" d="M196.7,98.4c-0.2,1.2,0,3.5,0,4.8l-0.4-3.3l-35.3-0.9L196.7,98.4L196.7,98.4z"/>
<path class="st48" d="M75.2,131.5c-0.2,1.1-2.1,3.6-2.9,4.5c0.9-1.5,1.1-3.3-1.1-2.6c-0.8-0.6-0.2-1.4,0.7-1.1
	c0.4-1.3,0.7-3.6-0.5-4.5c-1.6-1.2-4.8,1.2-5.3-0.2c-1.1-3.5,5.7-4,7.8-1.6C75.1,127.1,75.5,129.9,75.2,131.5L75.2,131.5z"/>
<g>
	<path class="st2" d="M83.6,138.2c0.2,0.1,0.2,0.2,0,0.4l0.3,0.7c-24.3,40.1-30.1,91.8-14.1,137.2c2,5.7,4.3,11.8,7.2,16.5
		c-5.5,12.9-8.4,25.1-12.7,38.3c-0.3-0.1-0.6-0.1-0.8-0.2c-2.4-1.1-10.4-17.5-11.7-20.4c-7.6-16.4-14.9-35.9-17.3-53.9
		c-0.1-1,0.7-1.2,1.5-1.2c-3.9-9.7-6.2-25.6,3.2-32.5c2.8-2,7.8-3.5,10.2-0.7c0.8,0.3,1-0.2,0.4-0.7l-0.6,0.2
		c-6.9-4-12.1,0.1-16,5.9c-3,1.4-0.7-4.3-0.2-5.6c3.7-8.6,10.3-14,18.2-6.5c-1.4-1.9-3.4-3.2-5.6-4c-1.1,0-2-1-0.7-1.5
		c0-0.3,0.1-0.7,0.3-0.7c2-0.3,5.8-0.1,7.7,0.7c-8.6-3.6-15.3,1.1-19.7,8.6c-1.8,1.1-1.3-3.5-1.2-5c0.6-5.9,3.7-11.3,8-15.2
		c7.2-5.2,12.2-9.9,16.9-17.3c0.1-0.2-3.6,0.5-4.1,0.6c-6.6,1.7-9.7,4.8-12.9,10.8l-5.5,12.5c-1.9,1.4-1.7-0.8-1.5-2.6
		c1.4-12.3,9.5-26.6,17.9-35.2c-6,4.9-10.1,11.8-13.2,19l-1.1,0.9c-0.7,0.3-0.8-0.3-0.4-1.9c-0.1-0.4-0.2-0.7-0.2-1.1s-0.1-0.7,0-1
		c2.1-9,4.4-18.2,8.1-26.6c3.1-6.9,12.4-18.7,20.8-16c11.1,3.6,6,19.9-4.5,14.5c2.2,3.4,7.1,2.2,9.3-0.7c4.3-5.5,3.3-11.5-3.1-14.4
		c-1.1-1,3.5-3.9,4.6-4.3l1,0.1l0.8-1.4c0.2-1.1,0.9-2.9,2.1-3.1c0.7-0.6,1.5-0.4,2.5,0.7l2.7,2.5C82.9,135.5,83.9,136.6,83.6,138.2
		L83.6,138.2z"/>
	<path class="st49" d="M83.6,138.6c0.9-2,3-2.1,1.8,0.4C61.7,182,54.3,226.8,70.5,274.6l6.9,17.3c-0.2,0.5-0.3,0.9-0.4,1.1l-1.2-0.1
		c-22-45.2-20.8-100,2.2-144.6C79.1,146.4,82.4,139.7,83.6,138.6L83.6,138.6z"/>
	<path class="st50" d="M59.2,247.2c0.5,1.9-0.3,1.2-1.1,0c-2.7-4.5-9.8-12.4-15.1-7.1c-4.5,4.5,2,10,4.8,7.8
		c0.4-0.3,0.3-1.2,0.9-1.1c-1,4-6,3.4-7.9,0.1c-5.6-9.3,6.3-14.1,12.7-8.3c-0.6-3.5-2.5-6.8-5.1-9.1c-0.7-0.6-2.3-0.9-1.6-1.7
		c5.3,0.5,6.6,4.2,8.2,8.7c0.5,1.4,0.5,2.9,1,4.2C56.6,242.7,58.3,244.8,59.2,247.2L59.2,247.2z"/>
	<path class="st51" d="M58.1,247.2c0.8,0.5,1.2,1.4,1.1,0c0.3,0.9,0.8,1.6,0.7,2.6C58.8,249.4,58.6,248,58.1,247.2L58.1,247.2z"/>
	<path class="st52" d="M49.8,221.6c0.6,0.4,1.9,0.6,1.8,1.9c-0.4,0.4-1.8-1-2.2-1.1C50.4,222.4,50.2,222.3,49.8,221.6L49.8,221.6z"
		/>
</g>
<path class="st53" d="M357.6,146.4c19.4,37.1,25.6,78.5,14.4,119.5c-0.8,2.7-8,24.5-9.5,24.6c-0.4,0-1.2-1.4-0.9-1.9
	c20.9-45.6,17.2-95.8-5.2-139.9l0.4-2.6L357.6,146.4L357.6,146.4z"/>
<path class="st54" d="M365.2,138.6c-1.2-2.6-1.7-6.6-1.5-9.5c0.1-0.8,0.5-3.2,1.1-1.5s0.9,3.7,1.4,5.4c1.5,1.1,2.7,4.5,2.5,6.3
	c-1.2-1.1-1.7,0.7-1.8,1.9C366.6,140.5,365.5,139.1,365.2,138.6L365.2,138.6z"/>
<path class="st55" d="M387,194.4c0,0.5-0.5,2.1-1.1,1.5c-0.3-1.1,0.4-1.5,0.7-2.2C386.5,194,387,194.3,387,194.4L387,194.4z"/>
<path class="st56" d="M73.8,182.5c0,1.3-0.2,1,0.9,1.1c3.8,0.3,7.6,0.3,11.3,0.4c2.4,0.1,5.4-0.3,7.7,0c0.5,0.1,1.1,0.3,0.5,0.7
	l-21.1,0.4C73.3,184.2,73.5,183.3,73.8,182.5L73.8,182.5z"/>
<path class="st57" d="M368.5,207.8v0.4l-0.9-2.1l-11.8-0.1c-1.3-1,2.8-0.7,3.1-0.7c0.5-0.1,1-0.4,1.1-0.4h7.8
	c-0.3-1.2,0.1-3.8-1.3-4.1l-34.7-0.4c-0.6-0.4,0-0.7,0.5-0.7c3.2-0.4,6.6-0.3,9.9-0.4c1.5,0,3.1,0,4.7,0c6.6-0.1,13.2,0.1,19.8,0
	v-2.6C367.4,200.4,368,203.9,368.5,207.8L368.5,207.8z"/>
<path class="st58" d="M363,181.4c-0.4-0.7-0.5-0.7-1.2-0.8c-2.3-0.2-4.4,0.4-6.6,0.4c-8.6,0.2-17.1-0.2-25.7-0.4l0.5-0.7l31.8-0.8
	c0.1-0.1-0.6-2.9-0.7-3.4C362.4,177.3,362.5,179.5,363,181.4L363,181.4z"/>
<path class="st58" d="M364.5,186.9c-0.5-0.9-0.3-0.6-1-0.5c-3.1,0.2-6.1,0.5-9.2,0.5c-0.6-0.4,0-0.7,0.5-0.7c2.6-0.3,6.3,0,8.7-0.4
	c0.5-0.1,0.1-1.4,0.2-1.9C364,185,364.2,185.9,364.5,186.9L364.5,186.9z"/>
<path class="st59" d="M369.2,230.5c-0.1,3.2-0.4,6.2-0.7,9.3c-0.1-0.4,0.2-1.8-0.2-1.9c-2-0.3-5.1,0.1-7.3,0
	c-2.7-0.1-8.5,0.2-10.6-0.3c-0.6-0.2-1,0.3-0.8-0.8h18.9l0.7-7.8C369.2,229.5,369.2,230,369.2,230.5L369.2,230.5z"/>
<path class="st60" d="M277.2,83.5c0.1,0.1,1.8,0.9,1.3,1.1c-0.9-0.2-1.6-0.4-2.5-0.4c-36.7-0.3-75.4,2.2-112.1,0.4
	c-0.9,0-1.2,0.3-0.5-0.7C196,70.1,230,68,264,78.5C268,79.8,273.5,81.6,277.2,83.5L277.2,83.5z"/>
<path class="st2" d="M60.3,124.4c0,2,5.2,1.6,5.5,1.9c0.1,0.1-0.2,1.3,0.2,1.9s5.6,2.5,6,4.1c-0.1,0.2-0.5,0.9-0.7,1.1
	c-2,2.4-6.7,3.1-9.6,4.2c-5.6,2.2-9.7,5.5-13.4,10.3c0.6-2.4,1.9-4.9,3-7.1c2.5-5.3,5.3-10.5,8.2-15.6
	C59.7,124.9,60.2,124.7,60.3,124.4L60.3,124.4z"/>
<g>
	<path class="st61" d="M59.6,125.2l-0.3,1.5c-2.9,5.7-5.8,11.4-8.6,17.1c4.7-4.8,10.8-7.2,17-9c1-0.4,1.9-0.9,2.7-1.6l0.9,0.2
		c2.5-2.2,2.8,0.8,1.1,2.6c-1.7,1.7-3.5,2.4-5.4,3.5c6.1,2.6,8.1,7.8,4.8,13.8c-1.9,3.4-5.2,5.5-9.2,4.4c-1.7-0.5-4.1-3.2-2.2-4.7
		c0.1,1.8,2,2.5,3.5,2.6c6.7,0.5,9.2-8.7,3.9-12.6c-9.8-7.5-20.9,8.6-24.1,16.6s-5.3,17.4-7.4,25.8c-0.4,1.2-0.2,1.8,0.4,1.9
		c3.8-9.5,9.8-19.1,18.9-23.8l-8.7,9.5c-6.8,9.3-12.1,20.6-13.5,32.2c0.6-0.1,0.6-0.8,0.8-1.2c3.5-7.4,5.7-16.3,12.9-20.7
		c3.3-2,6.7-2.4,10.5-3.1c0.4,0,0.2,0.9,0.1,1.2c-0.2,0.6-3.5,5.4-4.1,6.2c-4.5,5.8-11.3,8.8-15.9,14.6c-3.7,4.6-5.4,10.4-4.8,16.3
		c3.6-6.7,8.6-11.5,16.6-10.3c1.1,0.2,2.9,0.7,3.6,1.8h-8c-0.2,1.1,0.3,0.6,0.8,0.8c4,1.4,6.8,4.2,7.9,8.5c-3.4-4-7.2-8.2-12.9-6
		c-3.9,1.6-8.4,9.9-8.5,14.2l4.4-5.4c4.4-3.3,8.5-3.8,13.1-0.6c1.2,0.9,1.1,1.4-0.4,0.7c-7.7-3-14.2,3.7-15.6,11
		c-2.8,15.1,6.2,34.6,19.1,42.1c1.8,1,3.5,1.9,5.6,1.4c3.6-1,4-4.8,0.6-6.2c-1.7-0.7-3.7-0.1-5.5-0.7c-0.5-0.2-0.6,0.2-0.5-0.8
		c1.3,0.3,2.4-0.6,3.5-0.7c10.8-1.3,8.3,10.4,1.1,10.4c-1.9,0-3.1-1-4.9-1.1c-0.3,0.3,3.4,5,3.8,5.6c4.8,7.9,6.4,17.1,0.6,24.9
		c0.7-4,1.8-7.6,1.5-11.7c-0.9-12.3-11.1-19.5-17.2-28.9c-2.3-3.5-3.6-7.1-5.5-10.8c-0.2-0.5-0.6-1.2-0.7-0.1
		c3.7,22.1,11.5,43.5,22,63.1c2.1,3.9,4.3,8,7.1,11.5c-0.2,0.6-0.2,1.6-0.4,2.2c-0.4,1-0.9,0.8-1.5,0
		c-40.5-60.7-43.2-144.2-6.6-207.2l1.2-0.5l1.3-2.4C59.7,122.3,60.6,123.8,59.6,125.2L59.6,125.2z"/>
	<path class="st62" d="M36.7,187.3c-0.3,0.7,0,2.3-1.5,2.2c-0.2-0.2,0.9-3.5,1.1-4.1C36.3,186.1,36.1,187,36.7,187.3z"/>
	<path class="st63" d="M53.8,182.8l-6.7,7.4c-2.6,1.9-5.1,4-7.5,6.3l3-5.3C45.6,187.6,49.6,184.9,53.8,182.8L53.8,182.8z"/>
</g>
<path class="st64" d="M87.6,149l1.3-0.4l16.9,11.6c-1.2-0.2-2.4,0.2-3.4,0.3c-6,0.4-12.8,0.3-18.9,0.1c-0.7,0-1.5,0.4-1.3-0.7
	C83.9,155.9,85.6,152.7,87.6,149L87.6,149z"/>
<path class="st65" d="M350.3,151.2c1.4,2.5,2.7,4.8,4,7.4c0,1.3,0.2,1-0.9,1.1c-5,0.4-10.4-0.3-15.5,0c2-2.4,4.8-3.7,7.2-5.4
	C346.9,153.2,348,151.4,350.3,151.2L350.3,151.2z"/>
<g>
	<path class="st66" d="M391.4,272.2c4.8-9.9,7.6-22.9,1.4-32.9c-2.6-4.2-4.7-3.8-8.2-6.1c-2.8-1.9-4.6-5.6-4.5-9l1.5,3.1
		c2.4,3.9,12,8.5,16.5,8.5c5-0.1,11.1-6.7,8.2-11.9c1.3-0.2,2,0.9,2.2,2.1c1.2,7.7-7.3,13.8-14.2,11.7c0.8,2.4,2,4.2,2.7,6.7
		c1.5,5.2,1.7,11.2,0.8,16.5c-0.1,0.5-0.8,1.9-0.6,2.1c0.5,0.6,0.6-0.2,0.8-0.5c2.4-3.6,5.3-6.9,5.4-11.4c1,0.6,1.1,2.8,1.1,3.9
		c-0.3,5.7-5.7,7.5-8,11.9c-0.9,1.8-1.3,3.8-2.2,5.6c-3.2,6.6-7.2,13.1-12.3,18.3c1.8,0.2,3.4,0.1,5,1.2c0.4,0.2,0.7,0,0.5,0.8
		c-8.5-0.5-13.7,4.8-18.9,10.6c-0.4,0.5-0.7,0.9-1.5,0.9c-0.3-0.9-0.5-1.7-0.7-2.6c0.1-1.6,1.5-2.5,2.2-3.8c2.6-4.9,3.1-11.5,3.6-17
		c0.5,0,0.6,1.3,0.7,1.7c0.3,2.4,0.2,4.9-0.1,7.3c-0.3,2.5-1.4,5-1.5,7.4c7.2-5.3,15.1-12.5,16.1-22.2c0.9-9-7.4-14.4-5.1-24.7
		c0.6-1.8,1.2-2.3,2.1-1.6l1.9,1.6c6.2,6.2,5.8,12.9,4.4,21.2C390.3,272.8,390.7,273.7,391.4,272.2L391.4,272.2z"/>
	<path class="st67" d="M386.3,250.2l-2.7-1.9l-1.3,1.9C383.1,246.4,384.3,248.2,386.3,250.2z"/>
	<path class="st68" d="M390.7,271.4v1.5h0.4l0.4-0.7c-0.3,0.6-0.3,2.2-1.5,2.6C389.6,273.6,390.5,272.3,390.7,271.4L390.7,271.4z"/>
	<path class="st67" d="M388.5,266.2c-1.3-5.2-4.7-10.1-4.4-15.6l2.8,4.8c1,2.4,2.7,7.4,2.3,9.9C389.1,265.7,389,266.1,388.5,266.2
		L388.5,266.2z"/>
</g>
<path class="st2" d="M381.6,122.9c0.1,0,0.3-0.1,0.4,0c11.5,18.8,19.5,39.4,24.6,61c0.6,2.7,1,5.5,1.6,8.2c0.3,1.1,0.2,1.8-0.4,1.9
	c-3.3-9.4-10.3-24.1-16.4-31.8c-3.5-4.5-8.7-7.9-9.8-13.8c-0.6-3.2-0.6-6.9-1.1-10.2c-0.8,0.2-0.8,1.1-1,1.8
	c-1.1,4-0.4,7.6,1.3,11.2c-0.7,0.7-7.2-6-7.8-6.7c-1.3-1.4-3.2-3.6-4.2-5.2c-1.2-2-1.9-4.2-2.5-6.3c2.5-1.3,4.1-3.6,6.4-5.2
	c1.5-1.1,6-4,7.5-4.6C380.3,123,381.5,122.9,381.6,122.9L381.6,122.9z"/>
<g>
	<path class="st69" d="M190.9,284.8c0.3-0.7,1.4-5.2,1.1-5.5c-0.7-0.1-1.3-0.3-2-0.4c-1.9-0.2-6.9-0.5-8.6-0.4l-0.3-0.3
		c-4.8,0.2-9.8,0.4-14.6,0.3l0-1.4c0.3-1.1,0.2-1.9,1.1-2.8c0.8-0.8,4.4-3,5.6-3.6c1.3-0.8,5.4-2.9,6.7-3.2
		C188.1,265.6,195.6,277.9,190.9,284.8z"/>
	<path class="st70" d="M166.6,277c-0.2,1.1,0.6,0.7,1.3,0.7c4.4,0.1,8.8-0.2,13.1,0c0.9,0,1.2-0.3,0.5,0.7c-0.1,0-1.3,0.3-1.5,0.4
		l-13.8,0.4C166.3,278.1,166.3,277.9,166.6,277L166.6,277z"/>
	<path class="st71" d="M191.3,275.5l0.4,2.2c-1.6-0.4-3.2-0.4-4.9-0.4c-0.6,0-2.2,0.5-2.3,0.4c-0.7-0.6,0.4-0.8,0.7-0.9
		C187,276,189.3,275.8,191.3,275.5L191.3,275.5z"/>
</g>
<g>
	<path class="st72" d="M180.7,130.7c-0.1-0.7,0.1-1.5,0-2.2c0.4-1,0.7-2.3,1.4-3.2c2.6-2.8,10.3-0.7,13.5,0.6
		c0.4-2.4,0.9-4.8,1.1-7.3c0.4-5.2,0.1-10.2,0-15.4l-0.2-3.3c-1-0.2-0.7-1.2,0.2-1.6c0.3-1.8,2.9-2.4,4.4-2.8
		c11.6-2.8,28.8-2.8,40.5-0.4c1.4,0.3,5.8,1.3,6.4,2.4c0.2,0.4,0.4,1.6,0.4,2.1c0,5.3-2,11.4-1.8,17.2c0,1.2,0.8,7.3,1.5,7.8
		c1.4,0.9,10.2-2.2,12.5,2.5c2.7,5.5-4.2,12.6-8.1,15.7c-13.9,11.1-32.3,14.3-48.9,7.7C196.6,147.8,181.9,138.8,180.7,130.7
		L180.7,130.7z"/>
	<g>
		<path class="st73" d="M242.2,125.9c0.2-0.1,0.5-0.6,1.1-0.4c-0.1,1.9,1.1,7.9,0,9.1c-0.5,0.6-6.4,2.4-7.6,2.7
			c-5.6,1.3-13.8,2-19.5,1.6c-1.6-0.1-3.8-0.5-5.3-1.1c0.3-0.6,1-0.9,2.1-0.7c0.5-2.1,0.8-4.2,0.7-6.5c0.3-1,0.7-1.5,1.8-1.2
			c7.9,0.3,18.8,0.2,26.2-2.9C241.9,126.4,242.1,126.1,242.2,125.9L242.2,125.9z"/>
		<path class="st74" d="M185.1,128.1c0.4,6.1,6,10.2,10.7,13c14.6,8.7,35.5,7.8,50.1-0.5c4.5-2.6,9.9-6.8,10.8-12.2
			c0.8-0.9,1.4,2.3,1.4,2.8c-0.1,3.8-8.6,10.1-11.7,11.8c-18.4,9.7-46.2,9.7-60.5-7.5C184.5,133.7,180.2,128,185.1,128.1
			L185.1,128.1z"/>
		<path class="st75" d="M216,102.1l-2.4,23.1c-0.1,0.3-0.1,0.7-0.4,0.7c-0.6,0.1-6.4,0.2-6.7,0c-0.1-7.3,1.1-14.5,1.5-21.8
			c0.1-0.9,0.1-2-0.4-2.8C209.9,100.5,214,100.8,216,102.1L216,102.1z"/>
		<path class="st76" d="M242.2,125.9l0.5,0.8c-9.1,3.1-18.5,4.4-28.1,3.3c-0.6,2,0.1,6.1-1.1,7.6c-0.4,0.4-2,0.3-2.6,0.2
			c-1.4-0.1-3-0.4-4.4-0.7c-1.2-2.1-1.5-4.7-0.7-7.6c-1.2-0.1-6.1-1.3-6-2.5c0-0.2,0.1-0.4,0.2-0.6l2.2,0.3c1.2,0.1,2.6,0.8,3.9,1
			C218.2,129.6,230.3,128.8,242.2,125.9L242.2,125.9z"/>
		<path class="st77" d="M207.7,101.3c-2.1-0.3-6.5-0.9-8.2-1.8c-0.5-0.3-1.1-0.3-0.9-1.1c1.6-0.4,2.9,0.4,4.3,0.7
			c14.2,2.2,28.9,2.4,43-1c0.3,1.2-0.5,1.3-1.4,1.7c-6,2.6-21.6,2.7-28.4,2.4C213.4,102,210.3,101.7,207.7,101.3L207.7,101.3z"/>
		<path class="st73" d="M202.2,126.6c-0.6-0.1-1.2,0-1.8,0c-0.1,0.1,0.2,0.4,0.4,0.6c0.2,0.1,4.1,1.5,4.4,1.5
			c0.5,0.1,1.4-0.3,1.5-0.2c0.2,0.2-0.4,4.3-0.4,5.4c0.1,1.2,0.9,2,0.4,3.1c-1.8-0.4-5.4-1.6-7-2.3c-0.6-0.3-1-0.7-1.3-1.3l0.7-7.6
			L202.2,126.6L202.2,126.6z"/>
	</g>
</g>
<g>
	<path class="st78" d="M351.7,82.4c0,0.1-1.1,0.3-1.4,0.2c-0.5-0.2-4.2-4.1-5.1-4.9C315,52.3,280.1,33.6,240.4,30.6
		c2.4,2.3,5.5,3.9,7.4,6.7c2.7,3.8,4.1,13.1,9.5,13.4c3.8,0.2,5.7-1.6,8.9-3c-0.2,2.9-3.9,5-6.4,5.2c-1.5,0.1-2.8-0.4-4.2-0.2
		c4.4,6.5,11.7,11.5,19.3,13.4c3.7,0.9,10.1,2,13.3-0.6c7.1-5.8-1.5-12.4-7.5-13.4c0.1-0.7,1.9-0.4,2.4-0.4
		c6.2,0.6,12.6,5.5,9.2,12.4c-0.6,1.1-1.5,1.4-1.7,2.5c4.6-1.4,9.5-3.2,14.4-3.3c10.1-0.4,25.5,8.9,22.5,20.8
		c-0.9,3.3-5.8,6.1-9,6.1c-5.5-0.1-12.5-5.8-11.1-11.9c2.3-0.5,2.1,2.5,3,4.2c3.3,6.5,14,7.5,14.8-0.7c0.4-3.9-2-7.2-4.7-9.6
		c-13.8-12.7-26.7-0.5-42-2.8c-12.8-1.9-24.3-10-28.8-22.6c-0.3,2.8-0.9,6.7-3.1,8.8c-0.8,0.8-2.5,1.5-2-0.2
		c0.3-1.1,1.3-2.7,1.8-4.2c2-7,0.1-11.9-5.2-16.5c-1.2-1-6.2-4.6-7.5-4.6H228l3.2,4.7c3.1,6.1,4.1,14.4-0.3,20
		c-6.1,7.8-18.7,10.2-25.4,1.9c-6.6-8.3-3.9-19.7,3.6-26.2c-2.4,0.5-5.9-0.1-8.1,0.5c-1.5,0.3-4.9,4.3-5.7,5.7
		c-4.7,7.5-1.3,18.3,5.1,23.6c-5.2-0.7-9-8.3-9.4-13.2c-0.3-3,0.4-5.5,0.5-8.4c-1.7,2.7-3.1,5.4-4.8,8.1c-4.5,6.8-8.6,12.8-16.3,16
		c-10.4,4.3-16.3,1.1-26.5,0.8c-1.4-0.1-8.5,0.3-9.3,1.1s1.9,1,2.3,1.2c4.6,1.9,7.3,5,6.8,10.3c-1.2-1.4-1.3-3.1-2.6-4.6
		c-7.4-9.2-24.2-1-31.3,5.2c-2.3,2-4.1,4.6-6.5,6.5c3.2-9.3,14.2-15.4,22.8-18.5c3.4-1.2,7.1-1.7,10.4-2.8
		c6.6-2.2,10.4-8.6,17.3-10.2c2.3-0.5-0.7,1.7-1,2c-3.2,3.5-4.1,5.1-8.9,6.5c-0.5,0.2-0.6-0.2-0.5,0.8c7.4,1.1,15.1,3,22.5,0.9
		c5-1.4,14.5-7.7,15-13.3c0.4-3.7-0.9-6.3-4.9-6.2c-1.1,0-5.3,2.1-4.9,0.2c0.4-2,6.4-2.8,8.1-2.3c2.9,0.7,2.8,4.4,3.9,6
		c0.2,0.4,0.4,0.2,0.7,0.2c2.6-5.3,6.8-9.5,10.9-13.6c0.1-0.1,2.1-1.1,0.9-1.3c-2-0.3-9.1,1.5-11.5,2c-32.8,7.3-62.3,23.1-87.3,45.8
		c-1.4,1.3-2.8,3.7-4.7,3.9c-0.1-0.1-0.2-0.3-0.4-0.4c-0.4-0.4-0.9-1.4-0.4-1.9c13.4-13.9,32.8-26.8,50-35.3
		c70.9-35,153.9-20,210.2,34.3C352.5,80.8,352.6,81.7,351.7,82.4L351.7,82.4z"/>
	<g>
		<path class="st79" d="M217.4,30c4.6-0.2,8.7,0.7,11.3,5c6.4,10.6,1.5,24.7-11.4,24.7C199.9,59.8,201.2,30.8,217.4,30z"/>
		<path class="st80" d="M218.2,50.4c0.2-0.3,1,2.1,3.1,0.4c3.1-2.5,2.5-9.8-2.2-9.3c-1.2,0.1-2.1,2.3-3.1,0.9c1.6-3,2.5-4.8,6.1-3.2
			c6,2.6,2.4,14-2.5,13C218.9,52,217.7,51.1,218.2,50.4L218.2,50.4z"/>
	</g>
</g>
<g>
	<path class="st81" d="M199.3,327.2l116.6,0.4c0.3,0,0.5,0.1,0.7,0.4c0.9,1.1,2,7.7,1.3,9.3c-0.2,0.4-1,0.7-1.5,0.8l-21.9,0.9
		c6.8-0.1,13.5-0.3,20.2-0.7c1.2,0.1,1.5,0.6,0.7,1.6c-1.8,1.7-3.5,3.3-5.5,4.8c-1.4,0.4-1.9,0.6-2.5,1.9
		c-6.2,4.9-11.3,8.4-18.2,12.3l-2.8,0.5c0.6,0.3,0.4,0.7-0.4,1.3c-5.3,2.8-9.7,4.9-15.3,7.1l-3.6,0.8c-13.7,0.2-27.2,0.1-40.8-0.3
		c-2.9-1.7-5.3-1.6-7.1,0.3c-14.2,0-28.4,0-42.7,0l-3.3-0.4c-16.8-6.4-31.4-15.4-45.1-27.2l0.1-0.7l-2.7-1.5
		c-0.3-0.3-0.5-0.5-0.7-0.7c-1.8-1.6-3.3-3.3-4.6-5.1c-0.1-0.8,1.9-5.5,3.1-5.3C148.6,327.3,173.8,327.3,199.3,327.2L199.3,327.2z"
		/>
	<g>
		<path class="st82" d="M289.2,358.9c-1.1,0.6-2.1,1.2-3.3,1.9c1-1.4-1.1-0.4-1.6-0.5c-15.6-0.8-32.2,0.7-48,0.1
			c-0.4,0-1.4,0.3-1.3-0.4c10.9-1.4,21.9-1.1,32.9-1.1c2.5,0,5,0,7.6,0C280,358.9,284.6,358.8,289.2,358.9L289.2,358.9z"/>
		<path class="st83" d="M309.9,344.7c-0.9,0.8-1.8,1.2-2.5,1.9c0.6-1,0.4-0.7-0.5-0.7c-8.4-0.4-17.1,0.3-25.5,0
			c-5.6-0.2-11.4-0.9-17.1-1.1c-2.9-0.1-6.4,0.4-9.1,0c-0.5-0.1-1.1-0.3-0.5-0.7L309.9,344.7L309.9,344.7z"/>
		<path class="st84" d="M263.3,350.7c0.6,0.5,0,0.7-0.5,0.7c-1.7,0.2-3.7-0.1-5.5,0c-35.7,1.8-71.7,0.2-107.7,0.4l-2-0.6
			L263.3,350.7L263.3,350.7z"/>
		<g>
			<path class="st85" d="M315.7,327.2c1.2-1.1,6.2-1,7.6-0.5l0.7,0.9c0.2,1.1,0.2,2.2,0.4,3.4c-2,2.4-4.3,4.5-6.5,6.7
				c-0.3-0.1-0.3-0.2,0-0.4l-0.6-0.5c0.4-1.3-0.5-8.1-1.4-8.4L199.7,328l-0.4-0.8C238.1,327.1,276.9,327.1,315.7,327.2L315.7,327.2z
				"/>
			<path class="st86" d="M270.6,367.8c-2.2,0.9-4.3,1.9-6.5,2.6c-0.4-0.6-1.4-0.4-2-0.4c-7.9-0.1-15.8-0.1-23.7,0
				c-3.3,0-7.8-0.3-10.9,0c-1.7,0.2-4.1,1.2-5.5,1.1c-1.6,0-1.6-1.1-3.3-1.2c-2.3-0.1-5.1,0.1-7.6,0c-9.7-0.2-19.4,0.4-29.1,0
				c-0.8,0-3.3-1.1-3.1,0.4c-2-0.6-3.9-1.5-5.8-2.2c3.9-0.6,7.9-0.4,11.8-0.4c10.4,0,21.1,0.1,31.6,0c0.6,0,1.3,0.4,1.8,0.3
				c1.1-0.2,1.8-2.6,4.7-1.7c1.8,0.6,3.5,1.5,5.9,1.4L270.6,367.8L270.6,367.8z"/>
			<path class="st87" d="M317.9,337.7c-0.8,0.8-1.7,1.5-2.5,2.2c0.2-1.1-0.6-0.8-1.3-0.8c-10.2,0.6-20.7,0.6-30.9,0.7
				c-2.2,0-4.6,0.5-7,0.1c-0.7-0.1-0.9,0-0.8-0.9l42.6-1.9V337.7L317.9,337.7z"/>
			<path class="st88" d="M125.4,338.8l2,0.8l36.9,0.4l-0.2,1.1H128C127.1,340.3,126.3,339.6,125.4,338.8L125.4,338.8z"/>
			<path class="st89" d="M123.3,327.6c-0.6,1.1-2.7,5.1-2.5,6.1c0.2,0.8,3.5,3.2,3.9,4.3c-2.2-2.1-3.5-2.9-5.5-5.6
				c-1-1.3-2.7-2.5-1.3-4.5C118.5,327.3,122.2,327.6,123.3,327.6L123.3,327.6z"/>
		</g>
	</g>
</g>
<g>
	<path class="st90" d="M184.7,305.3c3.6-1,7.5,0,11.1,0c20.9,0.2,41.9-0.2,62.9,0c8.2,10.8,21.5,16.9,34.7,12.8
		c3.5-1.1,6.9-3.7,10.7-3c4.1,0.7,9.7,6.1,10.8,10.3c-35.6,1.1-72.2,0-107.9,0c-27.4,0-55.3,1-82.4,0c0.4-2.9,3.4-6.5,5.6-8.2
		c2-1.5,6.3-2.9,8.7-2.6c5,0.6,10,3.7,15.3,4.1C168.4,319.8,175.3,314.3,184.7,305.3L184.7,305.3z"/>
	<rect x="225.1" y="310.8" class="st91" width="37.1" height="1.1"/>
</g>
<g>
	<path class="st92" d="M251.3,162.4c1,0.6,3.6,2.1,1.5,2.8c-12.6,7.1-26.5,18.7-39.3,24.4C223.4,179.1,239.2,170.8,251.3,162.4
		L251.3,162.4z"/>
	<path class="st93" d="M168,205.9c-1.6-3.2-0.6-5.5,0.7-8.6c1.4,1.8,2.2,3.9,3.6,5.8C170.9,204.1,169.4,205,168,205.9z"/>
	<path class="st94" d="M259.3,184c-5.3,9.3-14.6,6.2-1.6,0.1C258.2,183.8,259,183.2,259.3,184z"/>
	<path class="st95" d="M241.1,209.3c-6.1,11.9-21.4,16.2-30.3,25.6c-2.6-0.1-5,2.3-6.9,4.4c-3,3.1-9.8,4.1-11.3,8
		c-2.8-2-1.6,1-2.9,2c-0.2,0.2-2.7,1.4-3,1.4c-1.9-0.1-3-0.2-1.9,1.7c-1.9,2.5-5.5,2.8-8.5,2.9c-3.2,1.4-3.5,4.7-7,4
		c-1.9,0.5-6.2,5.5-8.7,5.4C186.2,246.4,219.5,232.4,241.1,209.3L241.1,209.3z"/>
	<g>
		<path class="st96" d="M340.5,105.4c0.5-0.4,0.9-0.6,0.9,0.1c22-15.6,44-30.6,66.1-45.2c0-5.4-65.5,44.6-66.4,43.7
			c-1.3,3.2-3.5-3.3-5.4-3.9c21.5-15.5,44.2-29.5,66.2-44.3c5.2-0.2,8.9,6.5,11.1,10.6c0.5,1.2,2.4,2.3-0.2,3.6
			c-2.2,1.1-1.6-1.9-2.4-2.1c-22.3,13.3-43,29.2-64.5,43.9C344.7,112,341.2,106.1,340.5,105.4z"/>
		<path class="st97" d="M326.3,127.4c-3.2,7.8-15.6,12.9-22.8,18.7c-12.5,9.8-25.5,19-38.9,27.6c-2.9-2.1-3.8-5.6-6.7-7.9
			c19.9-16.3,42.4-30.6,62.9-46.2C323.3,122.2,324.4,124.4,326.3,127.4z"/>
		<path class="st98" d="M190.9,162.7c-0.6,2.1-3.1,3.3-4.4,4.6c-2.1,1.7-3.3,6.5-5.6,7.4c-8.3-9.7-76.7-45.2-57.1-54.9l63.1,45.6
			C188.2,163.8,189.5,162.9,190.9,162.7L190.9,162.7z"/>
		<path class="st99" d="M179.3,181.7c-0.8,6.5-9.9-5.5-11.3,2.2l-0.8,0c-8.7-10.4-66-38.5-52.5-50.3
			C135.9,149.9,159.4,164.9,179.3,181.7z"/>
		<path class="st100" d="M182.2,173.9c-0.6,1.1-1.7,4.7-2.9,4.3L148,156.4c8.5,8.8,22.1,16.5,31.6,24c0,0.4-0.2,0.9-0.4,1.3
			l-65.1-47.6c1.1-2.7,2.8-5.1,4.4-7.4C138.8,143,160.5,160.8,182.2,173.9L182.2,173.9z"/>
		<path class="st101" d="M317.5,116.6c0.9,1,5,3.3,2.6,4.3c-20.9,14.7-40.9,30.7-62.2,44.8c-1.3-1.8-3.4-2.5-4.2-4.5
			C275,146.9,296,129.3,317.5,116.6L317.5,116.6z"/>
		<path class="st102" d="M40.3,71.6c2.6,1.1,3,0.3,6.4,0c4.3,0.3,4.8,1.8,4.2,6c2-3.8,6,0.2,4.5-3c-0.7-0.8-4.1-1.8-1.8-3
			C67.8,82.2,85,91.4,97.8,102.8c-0.1,2.1-2.7-1.2-3.1-1.4c-1.6-0.9-2.5-0.1-1.4,1.4c1.7,1.4,2.8,2.6,4.6,3.7c0.7,0.5,1,2,2.8,1.5
			c-0.9,0.8-2,4.3-3.3,3.6C78.6,98,59.6,84.5,40.3,71.6L40.3,71.6z"/>
		<path class="st101" d="M126.2,117.3c20.8,13.1,46.8,30.4,64.8,45.4c-1.5,0.9-2.5,2.9-4,3.6l-63.7-46
			C124.2,119.3,125.1,118.3,126.2,117.3z"/>
		<path class="st103" d="M317.5,116.6L253.9,162c-0.8-0.6-4.5-3.1-4.4-3.9C261.5,153.2,312.1,106.4,317.5,116.6L317.5,116.6z"/>
		<path class="st104" d="M191.3,162.7l-65.1-45.4c1.2-0.8,3.7-3.9,5.1-3.6l63.9,45.2C194.7,160.7,192.4,161.3,191.3,162.7
			L191.3,162.7z"/>
		<path class="st105" d="M340.1,105.1c-1.7-2.5,65.8-45.5,66-46.9c0.8,0.2,2.4,1.8,2,2.6C385.1,73.5,362.5,95.7,340.1,105.1z"/>
		<path class="st106" d="M108.7,105.4c0.2,0.7-0.1,1.5-0.9,2.4l13.7,8.6c-0.9,2.4-5,7.4-6.7,9.1c-1.6-0.6-12.1-8.2-13.6-10.2
			C102,113.3,106.1,106.4,108.7,105.4z"/>
		<path class="st107" d="M323,117.7c3.8-3.9,9.5-7,14.2-10.1c11.2,10.1-1,10-7.3,17.3C327,126,325.6,119,323,117.7z"/>
		<path class="st108" d="M203.7,171.3c-1.1,1-6,6.5-6.4,6.6c-2.2,0.2-8.2-3.4-9.6,0.6c-8.6-1.1,2.1-10.8,4.7-13.6
			C196.3,166.8,199.7,169.8,203.7,171.3L203.7,171.3z"/>
		<path class="st109" d="M168,184c-19.5-9.4-37.5-26.6-55.9-39.4c-1-0.8-0.3-1.5-0.2-2.2C130.5,155.5,150,169.9,168,184L168,184z"/>
		<path class="st110" d="M203.3,183.2c0-2.1-3.4-2.4-2.9-4.9c0.5-0.3,8.2-9.8,9-8.6c2.1,3.1,12.7,4.8,5.8,8.1
			C211.3,177.1,205.9,182.2,203.3,183.2L203.3,183.2z"/>
		<polygon class="st111" points="416,77.5 416.9,78.9 352.9,124.5 352,123.1 		"/>
		<path class="st112" d="M337.2,107.7c-3.3-2.9-12.7,5.8-15.6,7.1c1.8,1.2,1.6,1.8,1.4,3c-2.1-1.9-4.5-4.9-6.9-6.5
			C322.9,106,331.2,97.2,337.2,107.7z"/>
		<polygon class="st113" points="27.6,77.9 91.3,123.6 90.3,125.2 26.5,79.5 		"/>
		<path class="st114" d="M170.6,184c2.7,1.4,5.6,3.5,7.1,5.8l0.6-0.3c2,2.3,3.9,7.7,6,9.3c0.6,0.5,1.9,0.1,1.1,1.5
			c-1.6-0.9-4.8,1.7-5.6,1.3C175.2,197.2,171.7,190.2,170.6,184L170.6,184z"/>
		<path class="st115" d="M122.5,116.2c-0.3-0.4-0.2-0.9,0.2-1.5c-0.1-0.5-14.6-9-13.3-10c5.2-6.7,13.1,4.2,17.7,6.3
			c0.6,1-1.7,2-2.2,2.6C124.1,114.5,124.1,116.1,122.5,116.2z"/>
		<path class="st116" d="M122.5,116.2c-0.4,0.5-0.8,0.7-1.1,1.1l-14.7-9.3c0.1-0.7,2.1-2.7,2.7-3.3
			C109.7,105.9,127.1,114.3,122.5,116.2L122.5,116.2z"/>
		<path class="st108" d="M204,170.9c-3.5-3.2-16.6-6.7-6.2-9.9l9.5,7.1C206.4,169.3,205.1,170,204,170.9z"/>
		<path class="st117" d="M197.5,199.6c-0.1,0.2-3.6,0.8-4.2,0.8c-1.3,0,0.1-1,0.2-1.7c-0.4-0.6-0.5-7,0.7-4.4c0,0.4-0.2,6.2,1.1,4.7
			c-0.3-1.5-1.1-3.8-0.2-5.6c6.5-5.1,1.8-6.2,2.4-13.2c2.6-1.3,3,5.4,2.9,7.1C199.1,193.9,193.2,191.7,197.5,199.6L197.5,199.6z"/>
		<path class="st118" d="M383,61.9c0,0-0.4-1.1-0.3-1.2C399,46.8,401.9,54.4,383,61.9z"/>
		<path class="st119" d="M47.5,51.9c1.1-0.3,11.5,7.6,13.2,8.7c-1.6,2.1-7.4-3.2-9.4-4.1C50.2,55.4,44.4,53.2,47.5,51.9L47.5,51.9z"
			/>
		<path class="st120" d="M193.5,163.9c1.9,0.4,14.9,7.8,8.5,7.5C200.7,170.3,189.6,165.9,193.5,163.9z"/>
		<path class="st121" d="M195.3,187.7c3.6,2.2-3.7,2.1-5.1,10.6C180.2,199.4,194.2,189.7,195.3,187.7z"/>
		<path class="st122" d="M196.4,189.2c-2.4-0.6-0.4-6.7-3.2-7.4c-0.8-0.3-3.7-0.6-3.8-2.1c0-2.5,5.5,0.5,6.1,3.4
			C195.2,185.2,196.8,187.3,196.4,189.2L196.4,189.2z"/>
		<path class="st102" d="M35.6,68.6c-4.4-1.8-1.1,0.8-1.1,1.7c0,2.2-3.5-0.6-4.2-1.3c-1.6-1.9,0.7-0.9,0.9-3.7
			C32.1,67,34.8,66.7,35.6,68.6z"/>
		<path class="st123" d="M193.1,189.2l0.7,0.6c-2.1,2.4-5,4.6-6.2,7.6C185,195,191.9,190.6,193.1,189.2z"/>
		<path class="st124" d="M178.2,189.5c-0.4,2.1-3.2-2.5-4.2-3c-1.1-0.9-2.8-1.2-3.5-2.6C173.2,184.1,176.5,187.5,178.2,189.5
			L178.2,189.5z"/>
		<path class="st125" d="M199.7,198.8c0.7-0.6-2.6-6.1-0.9-5.9C199.4,192.9,202.4,198.8,199.7,198.8z"/>
		<g>
			<path class="st126" d="M332.1,143.8c-24.3,14.5-48.6,36.5-73.1,53.4c-1.2,1.2,1,0.2,1.4,1c-9.8,8.4,6.7-17.5,4.9-21
				c13.2-8.6,27.1-18.1,40-28.1c1-2.6,4.1-0.8,3.3,0.2c-17.3,13.9,7.6-5.8,13.5-9.9c-3.4-2.5,5.4-5.7,7.1-7.1
				C330.3,134.5,333.7,141.5,332.1,143.8L332.1,143.8z"/>
			<path class="st127" d="M329.2,132.2c-15.9,16.3-41.3,34.1-63.5,49.9c-1.1,0.3-0.6-2.9,0.2-3.2c14.3-9.7,28.6-19.3,42.2-29.9
				l-0.5-0.7c-13.8,10.1-27.5,21.2-42.4,29.4c-0.1-1.9-1.3-3.6-2.2-5.2c14.2-4.4,26.8-18.7,40-26.9c7.4-6,17.9-10.3,23.2-18.1
				C327.2,129,328.3,130.5,329.2,132.2L329.2,132.2z"/>
			<path class="st128" d="M332.1,143.8c-22.3,19.4-48.3,36-71.7,54.3c-1.9,0.9-3.5,0.8-1.9-1.5C282.8,181.2,309.5,154.5,332.1,143.8
				z"/>
			<path class="st127" d="M328,136.2c-0.7,0.7-2.5,1.6-3.5,1.6l4.2-3.7C329.1,134.6,328.3,135.8,328,136.2L328,136.2z"/>
		</g>
		<g>
			<path class="st129" d="M100.7,108c-1.1,2.7-7.8-4.7-8.5-5.8c-0.8-3.8,3.7-0.5,4.9,0.7c0.4,0,1-0.3,1.3-0.6l4,2.7l0.8-1.3
				C81.5,88.5,59.6,73.4,37.5,58.4l-0.9,1.5l7.7,5.3c-0.1,3,4.7,4.2,6.6,5.4c1.5-1.1,2.2,1.2,2.6,2.2c3.7,1.9,4.6,4.6-0.6,3.7
				c-2.3,3.4-2.5,0.4-2.6-2.1c-0.1-2.7-5-2.2-6.9-1.4c-1.5-1-6.2-2-4.7-4.4c-1.7,1.6-3.1,0-4.5-0.9c-7.7-0.3,3.1-10.7,5.1-11.9
				c23.6,11.5,45.6,30,68.2,44.5C107.2,103,102.4,105.6,100.7,108L100.7,108z"/>
			<path class="st102" d="M38.9,70.5c-0.8-0.5-1.8-0.6-2.9-1.5C38.5,68.4,40.1,66,38.9,70.5z"/>
			<path class="st130" d="M44.3,66l-8.7-6l1.8-2.7l67.1,46.1l-1.8,2.7c-3.7-2.6-47.4-32.6-51.8-35.6C50.1,70.9,44,66.9,44.3,66
				L44.3,66z"/>
			<path class="st102" d="M50.8,70.5c0.8,2.1-1.2-0.3-1.3-0.4c-1.3-1-6.3-1.9-5.2-4.1L50.8,70.5z"/>
			<path class="st102" d="M42.5,69.3c0.4,0.3,0.8,2.8-0.7,1.8C41.1,70.7,41.7,68.7,42.5,69.3z"/>
		</g>
		<path class="st131" d="M337.2,107.7c0.8,1.6-3.6,2.7-4.8,3.8c-3.4,1.9-10.1,10.1-11.1,2.7l12.7-8.2
			C334.6,105.1,337,107.3,337.2,107.7L337.2,107.7z"/>
	</g>
	<g>
		<path class="st94" d="M251.3,162.4c-10,8.6-24.5,16.2-35.6,25.4c12.5-7,25.1-16.3,37.7-23.9c9.9,10.1,13.1,15.6-1.2,22.7
			c-1.8,0.9-6.3,8.2-1.9,5.3c3.9-0.2-0.5,3.9-1.7,5c9-4.6-6.7,13.3-7.6,12.4c-12.3,14.8-31.2,24.8-47,35.2
			c-11.4,7.1-31.7,18.2-42.7,26.8c-5.6,0.8-24.6,23.2-23.6,12.9c-10.9,8-15.3,23.3-20,35.5c-6.2,11.8-0.2-13.5,1.1-16.3
			c-8.7,19.3-5.6,40.3,4.1,55.2c-14-1.3-12.1-18.9-23.2-24.5c-14.5-7-18.5,20-31.4,19.7c16.2-24.1,16-57.1,33.9-80.9
			c4.4-7.8,42.5-51.6,48.9-41.6l-13.7,11.4c-17.1,11.7-27.2,59.7,5.5,32.8c28.1-22.5,97.2-44.6,105.9-79.3c0.1-11.7-11-1.5-15.5-0.2
			c-3.9,1-8.1,2.2-11.9,3.4c-2.3,4.3-4,1-1.8-2.3c0.8-2.7,0.4-4.9,1.1-7.6c0-0.3-2.3-0.8-1.8-2.6C216.7,182.9,246.3,154,251.3,162.4
			L251.3,162.4z"/>
		<path class="st126" d="M259.3,184c-5.2,1.7-13.2,10.3-2.4,2.1l0.9,0.2c-4.5,23.9-10.5,26.5-30.8,39.4
			c-30.9,23-64.8,40.8-95.7,63.6c-6.2,2-10.9,11.6-14.6,16.8c2.6-12.8,19.1-24.3,29.7-31c1.6-0.3,7.2-2,4.6-3.6
			c10.7-7.5,21.2-14.8,33.1-19.1c-1.8-3.1,3.8-2.1,5.2-3.6c20.6-16.1,46.8-28,61.6-51.5c-4-0.7-8.6,9.1-13.4,10.2l13.7-14.1l0.1-0.8
			c-0.6-0.6-4.3,3.1-3.5-0.8c1.3-6.1,10.4-8.9,14.4-13C261.9,180.9,260.4,182.4,259.3,184L259.3,184z"/>
		<path class="st95" d="M159.3,265.8c-1,2.2-6.5,3.7-7.6,5.4c2.7,1.2-0.3,2.7-1.8,3.4c-27.9,10.9-46.6,45.5-36.8,74.8
			c1.2,4.2,9.5,12.1,0,9.1c-2.2-4.9-9.7-12.5-9.4-19.5c-0.4-8.4-0.6-33.5,6.2-36.5c-0.3,4.5-4.2,13.8-4.3,19.1
			c6-8,9.7-30.9,22.7-38.6c1.4,0.9-0.8,3.6,1.1,4C138.4,280,148.6,271.1,159.3,265.8L159.3,265.8z"/>
		<path class="st132" d="M149.3,302.4c-6-3.7-17.2-5.8-5.7-12.4c7.4,32.3,69.7-0.9,46.2-24.8c0-0.2,2.1-3.4,2.2-3.5
			C213.2,283.9,171,320.2,149.3,302.4L149.3,302.4z"/>
		<path class="st133" d="M152,216.3c4.9,0.6,6.4,5.7,7.9,9.5c3,4.1,2.4,19.3-4.7,20c-4.2,4.2-13.8,2.6-12.5-4.8
			c0.5-1.6,3.3-6,3.8-2.5c0.1-3.2,2.5-4.3,5.2-3.2c-1.9-1.6-3.8,0.5-5.6,0c-4.3,0.3-8.1,8.3-6.6,12.6c-1.1,0.1-1.8-1.7-1.1-2.3
			c-1.2-10.1,8.6-14.5,14.5-20.1c0.1-1.3,0.5-1.9,0.9-1.8c8.6,5-2.3-7.8-5.9-7.2c-1.1,0.2-8.3-1.7-5.1-3
			C143.5,213.4,151.6,215.2,152,216.3L152,216.3z"/>
		<path class="st134" d="M202.2,228.2c-21.5,15.5-57.6,36.1-84.2,51c-13.7-6.7,3.8-29.1,10.7-35.6c0.9-0.7,10.9-9.3,8-4.6
			c-10.1,6.9-27.2,24.5-21.1,37.8C145.9,265.4,171.8,241.8,202.2,228.2L202.2,228.2z"/>
		<path class="st135" d="M155.6,201.8c-1.1,5.9-15.6,5.9-18.2,7.8c3.2,4.7,10.5,3.5,15.6,6.3c-0.1,1.9-9.7-3.7-9.8-1.1
			c6.7,0.6,14.8,4.8,15.3,12.7c-1.2,0-1.2-1.5-2.3-2c-1.2-0.5-2.1,0.2-2.6-1.4l-0.5,1.5c-0.4-3.8-1.6-6.3-5.7-7.6
			c-0.9-0.4-3.9-1.4-3.4-0.6c-5.4-1.2-16.2-6.3-7.6-11.9l0.5,0.5C142,203.3,150.4,199.9,155.6,201.8L155.6,201.8z"/>
		<path class="st69" d="M161.8,292.3c-4.2,1.1-12.7,4.9-5.8,8.6c-8-1.1-14.4-18-2-14.9C159,282.9,158.7,289.4,161.8,292.3
			L161.8,292.3z"/>
		<path class="st135" d="M157.1,220.1c2.1,0.1,3.3,3.9,2.9,6c2.4-5.9,4,17.3-3.3,21.2c-5.5,7-20.9,3.7-14.6-6.3l0.5,0.3
			c-1.5,5,6.1,9.3,9.3,6c1.5-1.1,3.1-2.4,4.9-2.2C163.2,239.3,160.7,226.6,157.1,220.1L157.1,220.1z"/>
		<path class="st136" d="M130.2,189.5c1-1.2,1.8,1.2,3.3,1.5c0.4,1.7,0.8,3.7,0.7,5.6c0.2,0.2,2-0.9,3.1,0.4c3.6,4.7-0.3,6-3.9,8.4
			c-2.3,1.1-4.1-3.6-3.2-5.3c0.2-0.4,2.5-1.4,2.5-2.5c-0.9-1.3-0.4-1.8-0.4-3.6C132,192.5,130.6,191.4,130.2,189.5L130.2,189.5z"/>
		<path class="st137" d="M159.6,217.8c0.6-2.4,10.2-6.8,11.8-7.5c1.3,0,1,0.8,1.4,1c0.9,0.5,2.1,0.6,2.8,1.8c0,0.9-7.6,5.4-8.8,5.3
			C165.6,217.6,161,217.8,159.6,217.8L159.6,217.8z"/>
		<path class="st138" d="M170.1,292.3c0.2,0.3,0.1,0.7,0.1,1c-5.5,1.5-16.5-11.1-8.7-13.9C164.1,278.4,161.7,288.4,170.1,292.3z"/>
		<path class="st139" d="M146.2,235.3c4.4-3.5,9.2,0.4,8.7,5.6c-0.9,0.2-0.6-0.2-0.9-0.7c-2-7.4-8.3-5.2-6.7,2.2
			c-1.9-0.9-1.2-3.1-1.6-4.8c-3.1,3.5-4.2,6.2,0,9.3c1.4,2.5,8.7-0.6,6.5,1C143,251.5,138.6,240.9,146.2,235.3L146.2,235.3z"/>
		<path class="st140" d="M153.1,225.6c-4.1,6.3-13.6,8.8-14.1,17.7c-0.1,0.6,0.5,3.9-0.8,2.8c-4.8-14.3,29.4-21.3,5.8-28.7
			C143.7,214.8,155.6,220.4,153.1,225.6L153.1,225.6z"/>
		<path class="st141" d="M234.9,203.7c-5.2,8.7-23.9,19.8-32.7,25.7c0.5-0.8,1.3-1.2,0-1.1C213.2,221.5,226.5,209.9,234.9,203.7
			L234.9,203.7z"/>
		<path class="st142" d="M155.6,201.8c-8-0.2-17.2,3-21.8,7.6C132.4,204.5,159.2,196.3,155.6,201.8z"/>
		<path class="st143" d="M203.1,188.4c5.2,2.8,4,6.6-0.4,9.3c-0.9-0.2-2.2-5.7-0.4-6.3l1.8,3C207.5,193.5,200.6,189,203.1,188.4
			L203.1,188.4z"/>
		<path class="st133" d="M156.7,247.2c-4.1,7.2-19.5,5.6-15.6-4.1C139.4,252.2,152.2,251.5,156.7,247.2z"/>
		<path class="st144" d="M153.1,216c4.5,2.1,8.3,4.7,6.9,10.1c-0.2-4.5-4.5-7.7-8-9.7L153.1,216L153.1,216z"/>
		<path class="st136" d="M123.6,192.5c0,1,6,4,6.1,4.8c-0.2,0.3-0.2-0.1,0.5-0.4c1.3,4.2-2.2,1.9-3.6-0.2
			C124.9,196.7,118.9,191.4,123.6,192.5L123.6,192.5z"/>
		<path class="st145" d="M182.9,203.3c0.8-0.7,9.5-4.6,6.1-1.4C187.6,202.5,179.5,208.2,182.9,203.3z"/>
		<path class="st146" d="M123.6,192.5c9.8,5.2,8.2,7.7-0.9,0.8L123.6,192.5z"/>
		<path class="st147" d="M202.2,207.8c3.3-1,5.7-0.9,5.8,3.2c0,0.8-5-2.3-5.8-1.7c1-1.2,3.3-0.7,4.7-0.6
			C206.8,207.4,203.1,207.6,202.2,207.8L202.2,207.8z"/>
		<path class="st141" d="M200.4,230.5c-3,2.5-6.9,4.8-10.6,6.3C193.3,234.7,196.6,232.1,200.4,230.5z"/>
		<path class="st148" d="M130.9,188.1c1.5,0.9,3.2,2.5,2.2,4.3C132.6,191.1,127.9,188.4,130.9,188.1z"/>
		<path class="st69" d="M165.1,301.2c-3.1,0.4-4.6,0.5-7.6,0H165.1z"/>
		<path class="st136" d="M133.4,190.7l-2.6-2.6C132,188.1,133.1,189.7,133.4,190.7z"/>
		<g>
			<path class="st149" d="M212.4,203.3c7.4-1.5,33.7-23.6,22.6,0.4c-0.5-0.1-0.4-0.4-0.4-0.4c0.2,0.2-0.4,0.9-0.7,0.4
				c-27.8,26.8-66,41.6-98,63c-6.1,4-14.7-4.5-10.1-9.8c1.5-1.1,2.1-0.6,1.8,1.5l2,3.1c4.4,4.8,11.5-2,5.9-6.6
				c-9.2-9.2-17.3,11.1-3.4,13.4c2,1.8-12.4,9.2-14.2,7.6c-0.7,3.1-3.2,1.8-3.9-0.9c-2.3-13.4,11.5-30.5,22.6-36
				c-2.8,32.4,40.8,11.6,24.4-19.1c5-3.6,3.9,6.6,17.1-6.2c0.2-0.1,0.2-0.8,0.9,0c1.7,4.5-3.4,7-7.3,7.4c-1.4,0.6-3.4,2.7-4.4,3
				c-5.9-0.7-2,0.6,0.3,1.9c-0.3,1.7,3.3-1.9,3.6-1.9c0.6,0.3,1.6,0.7,0.9,1.5c1.1-0.1,1.5,0.9,1.6,2.2c0.1-7.1,7.1-3.8,8,1.1
				c0.3-0.1,0.7-0.7,0.9-1c8.8,0.1,8.4-13.9-0.4-6.8c-0.4,6.6-4.1-1.3-9.6,2.7c-3.2-3.1,8.4-1.8,7.6-7.4c1.5-3.3,3.7,0.7,6.6,0.4
				c-3.5-4.1-11.3-7.5-4-13.4c0.4,0.4,0.4,0.8-0.1,1.4c0.9-0.9,1.7-1.1,2.3-0.6c-0.7,1.5-3.6,2.4-1.1,3.7c0-2.3,2.8-3.7,4.7-4.5
				c2.4,0.4,5.7-1.4,8.4-1.5c0.6,4.7-8.5,9.1-12,6c1,6.2,10.3,11.5,6.1,19.2c-0.9,1.6-0.6-0.7,0.4,0.1c-11.8,21.5-27.9-1.1-23.6,5.8
				c4.9,4.8,12.9,7.8,17.9,1.9c7.6-2.1,9.3-12.7,6.3-18.8c3.4-2.8,4.6-7.2,8.2-10.2c4.5-2,7.7-4.1,9.5-8.7c-1.2,2.8-0.4,5.6,1.4,1.6
				c0.3-0.2,1.6,0.1,2.6-0.2c-2.1,2.8-5.8,4.6-7.3,7.7c-0.6,0.3-2.4-1.1-3.6-0.8c-4.8,1.5-12.7,15.5-5.1,17.3
				c0.2-1.3-1.7-1.5-1.9-2.4c-0.1-3.5,1.4-10.7,5.5-10.6l-1.1,1.5c1.6-0.9,2-0.4,3.8,0.1c4.7,2.8,8,3.9,11-2c1.4-1.9,4,0,2.2,1
				c-1.1,12.9-13.6,0.6-18.3,7.8c-1.9,4.4,3.3-3.1,6.4-0.9l1.2-1c5.4,2,13.3-0.9,11.2-7.1l0.7-0.5c2.9,5,0.1-10.4-7.4,2.6
				c-3,1.8-0.9-1.2-0.9-1.7C208.1,207.3,209,203.3,212.4,203.3L212.4,203.3z"/>
			<g>
				<path class="st150" d="M236.4,192.1c-0.1,1.5-0.9-0.3-2.6,0.5c-6.9,5.3-17.1,7-22.7,14c0-6.2,10.5-7.7,14.9-10.5
					C228.6,195.2,234.2,189.6,236.4,192.1L236.4,192.1z"/>
				<path class="st151" d="M218.6,208.5c0.7,1.4-1.3,8.8-2.2,6.3c-0.9-1.5,3.6-7-0.7-5.4c-2.9,5.6-6.7,5.4-11.6,2.2
					c-1.1-0.4-3,0.4-1.8-1.3c3.5-0.4,6.6,5,10.4,1.5C214.1,210.5,216,205.3,218.6,208.5L218.6,208.5z"/>
				<path class="st152" d="M186.9,211.5c4.1,4.1,8.5,11.2,3.6,16.2C194.9,218.9,185.3,213.9,186.9,211.5z"/>
				<path class="st153" d="M178.2,213.7l0.5,1.1C165.9,223.5,166.7,220.9,178.2,213.7z"/>
				<path class="st154" d="M202.2,207.8c1-0.6,5.9-0.3,5.1,1.3c-1.1-0.3-9.1,0.3-9.1,4.7C196.3,211.6,200.4,208.4,202.2,207.8
					L202.2,207.8z"/>
				<path class="st155" d="M188.7,203.3c1.7-0.2,7.6-3.5,8.4-1.5c-0.1,1.7-2,1-3.1,1.2C192.9,202.9,187.7,205.3,188.7,203.3
					L188.7,203.3z"/>
				<path class="st156" d="M172,222.7c1-0.2,0.7,0.2,0.7,1.1c0.5,0.6-0.1,1.1-0.7,0.7c-0.5,0.4-3.4,2.4-3.6,2.4
					C164.2,227.9,171.1,223.4,172,222.7z"/>
				<path class="st157" d="M180.4,216.3l1.4-0.2c-1.8,1.8-2.4,5.3-5.4,5.4C177.8,219.9,179.3,218.4,180.4,216.3L180.4,216.3z"/>
				<path class="st158" d="M233.9,203.7c-24.8,26.2-61.1,39.6-91.1,59.3c-4.6,2.8-19.9,14.2-24.1,14.1c-7.1-3.9-0.9-14.6,2.6-19.4
					c-0.4,4.2-10.7,18-0.1,17.8c1.1-0.2,10.8-5.8,10.8-6.4c-1.4-0.9-2.5-0.5-4-1.5c-8.3-4.7-2.3-20.1,7-14.2c0.7,0.4,1.2,1,0.1,1.3
					c-3.8-2.3-6.5,0.1-9.3,2.3c-3,6.7,5,12.9,11,8.5C168.7,244.6,205.4,229.1,233.9,203.7L233.9,203.7z"/>
				<path class="st159" d="M217.9,209.6c0.5,6.8-5.7,8.9-11.3,7.1c2.3,3.3,2.1,2.4,5.4,1.5c0.1,1.1-1.2,1.6-2.1,1.8
					c-3.3,0.5-2.2-1.6-4.5-2.9c-2.4-0.1-5.1-0.6-6,2.6c-0.9-0.3-0.6,1.2-1.2,1.1c-0.3-13.2,15.5,1.4,18.4-8.9
					C217,210.7,216.1,209.3,217.9,209.6L217.9,209.6z"/>
				<path class="st160" d="M135.6,254.3c5.9,2.9-0.1,12.2-4.4,8.6c3.3-0.9,6.7-2,4.7-6.7c-1.9,0.1-3.6-2.1-5.8-0.7l-0.8-0.4
					c-0.3,0.8-1.2,2.9-1.8,3.4l-0.4-1.9l-1.1,1.7C125.2,253.3,132.1,251.6,135.6,254.3L135.6,254.3z"/>
				<path class="st161" d="M129.4,255c1-0.2,1.5,0,1.1,1.1c-4.3,5.3,6.3,7.7,4.6,0.5l0.9-0.5C141.7,266.2,120.9,263.8,129.4,255
					L129.4,255z"/>
				<path class="st162" d="M205.5,217.1c-0.3,1.9-5.7-1.9-5.8,4.1C197.8,218,202.4,214.7,205.5,217.1z"/>
				<path class="st158" d="M198.9,225.2c-0.1,0.1-1.4,0.9-1.9,1.6c-0.1,0.2-2.7,4.5-2.7,2.4c0-0.9,3.3-5.1,4.7-5
					C198.9,224.5,199,224.9,198.9,225.2z"/>
			</g>
		</g>
		<g>
			<path class="st163" d="M182.2,228.6c-1.9-2.6-5.2-7.8-8.6-3c-3.5,1-0.4,4.4-0.5,6.8c-1.8,0-1.6-2.6-2.4-3.4
				c-0.6-0.6-1.9,0.1-1.1-1.5c3.3-4,6-7.8,11.3-4.1c0.5-4.1,5.4-7.2,8.5-3.4C191.5,224.3,186.6,229.4,182.2,228.6L182.2,228.6z"/>
			<path class="st164" d="M182.2,228.6c0.8,3.8-1.5-0.5-1.7-1.8c-4.8-5.9-8.9,0.6-3,4.2c0.4,1.3-2.1-0.2-2.4-0.5
				C167.7,223.5,180.4,219.3,182.2,228.6L182.2,228.6z"/>
			<path class="st165" d="M182.6,221.2c1.4-3,6-1.7,5.8,1.9C184.4,217.7,182.4,226.9,182.6,221.2z"/>
			<path class="st149" d="M183.7,222.7c-1.6,2.6,0.5,2.5,1.1,4.8c-3.3,1-2.6-4.5-2.2-6.3C182.5,222,182.7,222.7,183.7,222.7
				L183.7,222.7z"/>
		</g>
		<path class="st135" d="M136,256.2c2.1,8.6-11.5,6.3-5.8-0.6l-0.7-0.6C131.8,253.8,134.3,254.2,136,256.2z"/>
		<g>
			<path class="st166" d="M55.6,357.8c4-0.9,11-2.8,14.4-6.9c0.7-1.5,1.7-2.7,2.4-0.5c4-14.4,15.3-21.9,24.1-5.7
				c2.1,7.7,10.5,20.7,17.7,17.6c4.7-1,4.4,3.2-0.2,4.1c-8.5,0.8-13.8-3.7-21.3-5.8C74.9,353.7,49.5,369.7,55.6,357.8L55.6,357.8z"
				/>
			<path class="st167" d="M114.2,362.2l2.5,0.4c-14.9,4.5-17.1-13.7-23.7-22.1c-15.8-17.8-23.3,25.1-21.6,9.1
				c-2.7,5.7-10.1,6.6-15.3,8.9c-1.1,0.8-0.4-0.2-0.5-0.7c1.5-2.1,4.9-1.8,7.4-2.7c11.4-3.7,13.5-27.3,28-18.5
				C101.2,344.3,97.4,360.7,114.2,362.2L114.2,362.2z"/>
			<g>
				<path class="st168" d="M83.2,339.6c8.6-1.2,7.6,13-0.4,11.8C76.9,350.4,79.7,341.5,83.2,339.6z"/>
				<path class="st169" d="M83.1,341.1c4.4-1.4,4.2,5.6,1,5.9C81.9,347.2,80.4,341.9,83.1,341.1z"/>
			</g>
		</g>
		<g>
			<path class="st170" d="M291.3,200.3c-0.2,0.7-1,0.9-2.3,0.8c1.9-0.5,18.7,5.1,10.9,5.2c1.6,1.4,9.1,4.5,10,3.4
				c2.1,10.5-14.5,7.2-18.9,13c-6.6,7,17.7,11.3,13.8,23.4c0,0.1,0.1-1.8,0.7-1.1c0.6,2.5-4.2,7.9-5.5,5.2c0.2-0.2,2.1-0.2,1.8-1.5
				c-9.7,6.2-21.5-4.6-21.4-14.8c-0.4-0.9,0-6.4,1-3.9c0.1-1.6,0.6-2.6,1.5-3c-1,8.1,2.3,21.7,12.7,19.4c-8.3-0.6-8.4-12,0-11.4
				c-2.6-4.3-8.5,3.5-6.2,7.1c2.1,2.5,2.5,5-1.3,2.2c-6.1-3.7-5-11.6-5.3-17.3c-1.7-0.8,0.9-2.7,1-1.6c-0.3-0.1,2.7-4,3.7-4.4
				c-2.2-2.1,4.5-4.1,5.8-4.8c2.1-0.6-0.1,0.8-0.2-0.4c2.6-1.1,5.5-2.2,8.1-0.8c0.8-0.1,5.3-1.8,4.3-2.9c-2.1,0.5-4.8-1.6-6.7-3
				c-3.4-1.9-7.6-2.8-9.7-6.3l2.2-0.4C286.3,203.8,286.7,197.7,291.3,200.3L291.3,200.3z"/>
			<path class="st171" d="M274.6,288.2c-1,3-11.5,4-5.3,6.8c4.7,2.1,9.2-0.1,12.6-3.4c1-0.8,2.2-0.5,3.5,1.1c3,0.8,9.7,4.1,4.8,7.2
				c-13.7,6-36.4-5.8-38.9-20.6c-1.1-4.9,2.5-5.4,4.8-1.9C259.4,276.9,277.4,285.4,274.6,288.2L274.6,288.2z"/>
			<path class="st172" d="M262.2,219.3c2.1,3.4,26.6,15.1,11.3,15.7c0-8.7-13.8-7.8-8.7,0.6c-0.8,1.8,1.3,1.6,3.2,1.4
				c1.4,1.6,3-0.3,3.9-1.6c2.4,0.3,1,5-1,5.1c-3.4,7.9-22.9-11.7-22.9-6.3c-2.3-0.6-7.8-3.9-2.2-3.5c2.8-2.3,4.6-5.7,8.2-7.3
				C256.6,220.8,258.5,217.6,262.2,219.3L262.2,219.3z"/>
			<path class="st173" d="M277.2,276.2c2.3,4-7.9,1.4-9,2l0.1,0.6c-0.3-1.3,8.3-0.6,8.7-0.5c1.1,3.1,0,7.3-2.3,9.8
				c-2.7-4.8-13.4-9.5-18.7-10.1c-1.9-2.9-5.2-3.2-4.6,1.2C249.9,260.6,270.1,265.6,277.2,276.2L277.2,276.2z"/>
			<path class="st138" d="M274.2,305.3c-19.5-3.8-36.8-26.2-23.1-44.7c7.5,7.3-16,15.3,8.6,33.6c6.4,4.7,21.6,11.7,29.4,9.2
				C295,306.2,276.4,306.3,274.2,305.3L274.2,305.3z"/>
			<path class="st160" d="M248.4,233.1c18.5,8.9,36.6,19.9,54,30.2c6.5,3.5,16.5,13.7,24.2,10.4c0.5-0.7,0.9-1.1,0.7-2.2h0.7
				c0.2,7.9-8,5.7-12.2,2.6c-22.3-13.7-44.9-27.2-67.9-39.8C244.6,232.3,243.9,230.4,248.4,233.1L248.4,233.1z"/>
			<path class="st174" d="M281.9,291.5c6.2-8.3,3.3-4,12.7-4.8c2.5,7.6-0.1,12.6-7.6,14.5C297.3,297.5,286.4,293.6,281.9,291.5
				L281.9,291.5z"/>
			<path class="st175" d="M274.2,305.3c1.7-0.8,18.9,1.2,14.9-1.9c5.2-1.6,8.9-8.9,10-13.4c2.2,2,6.6,4.4,7.3,7.4
				c0.4,1.8-2.2,1-3.3,1.2C294.2,302,285,310.4,274.2,305.3L274.2,305.3z"/>
			<path class="st176" d="M264.8,236.4c-8-8.1,9.8-12.2,9.1-1.9l4.7-0.7c-0.1,2.9-3.3,0.9-4.2,3.1c1.4-0.6,5.2-0.8,4.6,1.3
				c-5.7-1.9-10.1,8.9-6.2-2.6c-0.5-0.1-0.7-0.4-0.7-0.7C271.1,238.3,266.6,237.8,264.8,236.4L264.8,236.4z"/>
			<path class="st172" d="M266.2,216.3c6.6,9.6,10.2,1.5,15.3,5.2c0,0.5-1.6,2.4-2,3.4c-0.6,1.4-0.7,5.2-2.1,4.8
				c-3.4-4.9-11.4-9.9-15.8-13.6C261.3,213.7,265.6,215.3,266.2,216.3L266.2,216.3z"/>
			<path class="st138" d="M271,293.4c4.8-2.5,8.8-8.3,10.5-13.2C291.2,281.7,276.6,295.9,271,293.4z"/>
			<path class="st177" d="M282.9,217.9c1.2,2.1-3,0.4-4.1,0.3c-4.3,0.5-10.1,2.1-7.8-4.2C266.8,205.1,280,216.4,282.9,217.9
				L282.9,217.9z"/>
			<path class="st178" d="M312.8,190.3c-1.8,3.2-4.1,7.6-1.5,11.1c0.2,1.7-1.5,3.8,1.9,2.7c0.4,0.4-1.7,2.8-2.6,2.2
				c-0.8-1-7.4-3.8-7.5-4.2c-0.3-0.9,2.9-4.1,4.1-3.9c0.3,0.1,0,1.2,0.9,0.8c-0.2-1.5,0.3-2.7,0.7-4.1
				C310.2,195,310.4,189,312.8,190.3L312.8,190.3z"/>
			<path class="st179" d="M278.6,231.6c-5.3,2-8.8-16.9-18.5-0.4c0.2-6.9,9.1-6.2,4.5-9.3c-0.9-0.6-4.5-1.5-2.4-2.6
				c2.4-0.6,3.7,2.6,5.5,3.9c3.7,1,6.6,4.2,8.9,6.9C277.5,230.8,278.3,230.1,278.6,231.6L278.6,231.6z"/>
			<path class="st180" d="M291.3,200.3c4.3,2,19.8,4.1,17.8,10.3C308.1,205.4,279.1,200.5,291.3,200.3z"/>
			<path class="st181" d="M305.5,245l-0.7,1.1c1.4-12-14.4-12.8-15.6-22.1c0.1-0.6,1.6-3.4,1.8-1.3C286.2,230,307.3,232.7,305.5,245
				L305.5,245z"/>
			<path class="st182" d="M293.2,216l1.3,0.4c-7,2.5-11.6,8.9-12.9,16C277.9,226.1,286.9,217.8,293.2,216z"/>
			<path class="st183" d="M309.9,209.6c0.1,0.7,0.1,1.9-0.2,2.6c-3.7-5.2-6.2-0.6-12.9-7.4c1.4-0.7,4.6,2.4,4.7,0.4
				c2.8,1,6.4,2,7.6,5l0.4-1.3C309.7,209.1,309.8,209.1,309.9,209.6L309.9,209.6z"/>
			<path class="st184" d="M321.9,194.4c-2.8,2.6-6.3,4.9-8.5,8.2c-0.5-0.1-1.6-4.6-0.2-4.8C315.7,197.6,319,192.8,321.9,194.4
				L321.9,194.4z"/>
			<path class="st185" d="M266.2,216.3c9.7,9.9,11.3-0.5,15.3,5.2c-3.9-1.7-5,0.7-9.5,0.2C271.2,221.5,263.6,216.8,266.2,216.3z"/>
			<path class="st186" d="M277.2,282.6c-0.1-0.5,0.2-3.7,0-3.7c-1.2-0.4-10.7,1.1-10.5-1.1c2.9-1.1,10.2,2.1,10.5-1.5
				C277.8,278.6,277.6,280.3,277.2,282.6L277.2,282.6z"/>
			<path class="st172" d="M278.2,234.9c2.4,4.4-2.6,1.3-4.7,3.4C273.3,235.3,275.7,234.6,278.2,234.9z"/>
			<path class="st187" d="M313.2,197.7c1.9-2.2,6.2-4.4,9.1-4.5c-0.1,2.1-4.1,1.7-5.5,3.2C315.5,197,312.9,200.5,313.2,197.7
				L313.2,197.7z"/>
			<path class="st188" d="M312.8,189.5c0.2,1.2-1.5,1.6-1.9,2.7c-0.3,0.5-1.8,5.9-2.1,5.5C308.7,195.3,309.2,188.6,312.8,189.5
				L312.8,189.5z"/>
			<path class="st178" d="M312.8,189.5c-1.2-0.2-1.7,0.5-2.5,1.1C310.6,189.6,311.6,188.3,312.8,189.5z"/>
			<g>
				<path class="st189" d="M241.1,234.6c21.1,11.6,42.6,24.6,63.9,36.4c8.3,6.5,25.5,17.4,24.8-1.5c-2.3-13.1-17.5-27.2-26.7-36
					c-0.3-0.7,0.9-2.6,0.2-3.7c28.5,17.2,48.4,41.8,59,74.1c4.8,16.6,8.8,36.2,18.5,50.2c-12-2.5-15-28.7-30.2-18
					c-9.8,8.1-6.4,20-22.2,22.5c-2.4,0.5-2.6-0.7-0.9-2.3c19.1-16.8,9.5-53.9-7.8-68.7c-8.6,2.6-24.8-17.8-35.2-21.7
					C275.9,259.4,240.1,242,241.1,234.6L241.1,234.6z"/>
				<path class="st190" d="M352.8,289.6c-6.6-11.2-14.5-22.9-22.2-33.5C339.6,264.7,348.5,277.9,352.8,289.6z"/>
			</g>
			<g>
				<path class="st191" d="M241.1,234.6c-0.3,0.5-0.9,0.8-0.6,1.5c17.8,14.3,39.9,25.3,58.5,38.4c6.5,4.2,14.6,15.3,21.3,12.4
					c16.4,13.7,25.7,49.9,10.6,67.3c-0.7,1-6.3,4.3-2.5,4.4c-0.9,0.1-3.5,1-4.2,0c25-41.5-14.4-75-48.8-93.4
					C268.9,259.5,227.7,243,241.1,234.6L241.1,234.6z"/>
				<path class="st189" d="M328.8,299.7c-0.8,0.9-3-3.1-3.3-3.7C326.4,295.3,329.3,299.2,328.8,299.7z"/>
			</g>
			<g>
				<path class="st192" d="M279,238.3c0.3,1.4,3.1,5,0,5c0.3,0.8,1.8,0.9,2,1.3c3.8,12.5,33.7,15.4,25.6-4.1
					c7.9,6.1,16.7,17.4,20.7,26.1c2.1,4,1.8,7.1-3.2,7.9c-6.8,0.5-19.2-10.2-25-13.2c-4.2-4.3-40.8-18.9-27.5-20.3
					C272,238.6,277.3,236.7,279,238.3L279,238.3z"/>
				<path class="st193" d="M309.2,242.4c5.9,5.6,20.9,19.5,17.6,27.2c-1-6.6-5.7-13.6-10.2-18.6
					C315.2,248.5,307.1,243.9,309.2,242.4L309.2,242.4z"/>
				<path class="st0" d="M271,240.5c1.9,0.2-1.7,2.3-2.9,1.9c9.1,7,23.4,12.7,33.5,19.7c-13.8-5-36.2-21-53.1-29
					c-0.4-1.4,1.6,0.1,1.8,0.2C256.2,236.1,264.6,244.8,271,240.5L271,240.5z"/>
				<path class="st194" d="M301.5,262.1c6.7,4.7,18.5,12.9,25.1,11.5C322.1,279.2,304.3,265.9,301.5,262.1z"/>
				<path class="st195" d="M314.3,262.9c2.7-6.3-4.6-10-8.4-7.1c-1.1-1.1,4.4-3.2,7.1-0.8C314.5,256.3,317.6,262.4,314.3,262.9
					L314.3,262.9z"/>
			</g>
			<path class="st159" d="M283,227.1l0.7-0.4c-1.2,6.7-0.2,14.7,6.4,18.2c1.7,0.5-1-2.1-1.1-2.3c-2.4-4.4,2-11.6,7.2-8.9
				c-0.2,0.4-0.7,1-1,1.3c-12.5,1.3,0.4,18.4,4.8,6.2C294.6,258.5,278.4,238,283,227.1L283,227.1z"/>
			<path class="st123" d="M295.7,234.6c2.9,1,7.1,4.7,4.9,8.2c-0.4-1.7-0.3-3.7-1.8-4.8c-1,1,0.2,3.7-1.6,3.7
				c0.8-5.2-1.3-7.5-6.2-4.8C292,235.3,293.9,234.2,295.7,234.6L295.7,234.6z"/>
			<path class="st159" d="M287.3,220.8c5.5-2.4-2.4,2.6-3,4.6C282.2,227,286,221.1,287.3,220.8z"/>
			<path class="st196" d="M272.8,235.7c-1.3,0.8-2.7,2.5-4.2,2.6c-0.7,0-0.4-0.7-0.8-0.8c-0.4,0.1-5.4-0.5-3-1.1
				c1.8,0.9,2.7-0.1,3.8,0c0.2,0,0,1.4,1.5,0.4c3.9-3.4-1.5-7.6-5.3-5.2C266.9,226.3,273.9,231.3,272.8,235.7L272.8,235.7z"/>
			<g>
				<path class="st197" d="M327.7,361.9c17.7,5.6,19.3-40.5,36.6-20.8c1.7,4.6,5.8,14.8,1.8,2.8c-0.2-0.6-0.1-1.1,0.6-1.4
					c6.3,15.3,21.2,13.1,16.7,20.6c-1.5,2.5-2.3,0.4-4.2-0.4c-15.5-8.1-29.3-1.5-44.3,2.9C332.4,365.5,318.5,364.1,327.7,361.9z"/>
				<path class="st198" d="M366.6,342.5c-0.2,2.2,5.2,12.8,0.3,7c-2.9-10.5-10.5-18.6-18.5-6.4c-4.4,8.5-7.5,18.6-18.5,19.8
					c-6.3,0.4-0.9-1.7,1.8-1.5C346.8,357.9,349.9,318.5,366.6,342.5L366.6,342.5z"/>
				<g>
					<path class="st199" d="M356.7,340.4c6.4-1,7.2,10.9,0.6,11.1C351.7,351.6,351,341.3,356.7,340.4z"/>
					<g>
						<path class="st200" d="M357.1,341.1c2.2-0.3,3.4,2.9,2.1,4.8C355.6,349.6,351.6,342.1,357.1,341.1z"/>
						<path class="st201" d="M357.4,342.5c1.9-0.3,0.5,3.9-1.7,2.4C354.7,344.2,357,342.6,357.4,342.5z"/>
					</g>
				</g>
			</g>
		</g>
	</g>
</g>
<g>
	<path class="st61" d="M383.7,122.6c21.7,36.5,31.4,75.2,28,118.2c-2.5,30.9-14.8,69.1-32.8,94.1c-1,1.4-2.1,3.3-2-0.1
		c22.6-33.6,32.5-71.2,33.7-111.8c0-1.8,0.2-4.3,0-6c-0.3-3-2.1,1.2-2.9,2.2c-2.1,2.6-3.8,2.8-6.1,4.5c-3.6,2.6-5.4,6-10.6,4.1
		c-3.4-1.3-4.2-4.5-6.2-6.7c-1-1.2-2.9-1.9-4.2-3.5c-3.2-4.1-4.4-16.1-2.5-20.9s7.9-8.9,12.9-8.6c0.1,0.1-0.2,0.5-0.4,0.6
		c-1.8,1.2-5,2.4-6.9,3.7c-4.6,3.4-5.9,10.1-4.4,15.4c1.1-1.4,1.5-3.1,2.5-4.7c1.4-2.3,4.1-5.2,6.8-5.7c12.7-2,19.4,12,14.4,22.7
		c3.4-1,6.2-4.7,6.5-8.4c0.9-8.7-1.5-16.6-9.7-20.2c-4.3-1.9-9.6-0.1-12.9,2.9c-0.8,0.6-0.7,0-0.4-0.7c2.7-4.9,8.1-5.7,13.1-4.7
		l5.5,3.2c-2.7-7.6-7.3-14.4-13.3-19.7c-2.9-2.6-9.9-8-13.9-5.6c-1.9,1.1-1.1,2.6-0.5,3.9c0.9,2.1-2.4,1.6-3.2,0
		c-1.3-2.4-0.1-5.1,2-6.4c5.2-3.4,10.6,1.1,15,3.7c0.6,0.6,1.6,1.2,1.5,0c-2-2.9-3.8-6.1-6.2-8.8c-6.3-6.9-14.2-9.6-19.6-18
		c-1-1.8,0.4-3.9,1.8-1.9h0.9c2.8,3.9,6.1,7.2,9.6,10.2c-1-2.5-1.2-4.9-1-7.5c0.2-2.2,1.4-6.6,3-2.8c-0.1,5.1,0.9,9.6,2.9,13.7
		c2.7,3.3,5.5,6.5,8.4,9.7c6.3,9.4,12.8,20.2,15.2,31.4c0.6-0.3,0.7,0.7,0.7,0.7c-0.3-0.8-0.3-1.7-0.3-2.5l-0.6-0.6
		c-2.6-11.7-5.8-23.7-10.1-35.2s-9-20.1-14.4-30.3c-0.5-1-0.8-2.1-1-3.2C381.8,121.7,383.1,121.8,383.7,122.6L383.7,122.6z"/>
	<path class="st202" d="M391.4,167.9c0.8,0.5,1.8,1.2,1.5,0c0.8,1.2,2.1,2.3,2.8,3.7c0.2,0.5,0.3,1-0.4,0.8
		C394.9,172.3,392.1,168.5,391.4,167.9L391.4,167.9z"/>
	<path class="st7" d="M387,220.4c-1-0.1-1.5-0.9-0.6-1.5c-0.6-1.1-0.2-6.9,0.8-7c0.2,0,0.4,0.1,0.5,0.2c1.3,8,13.6,9.5,12.4,0
		c-0.9-6.9-7.6-4.2-11-0.9c-1.1,0.3-1.5-0.1-1.1-1.2c0.5-1,1.6-2.7,1.9-3.4c0.2-0.5,1.2-3.4,1-3.6c-3.1,1.7-4.1,6.1-5.9,9.1
		l-1.6,5.1c-5.2-3.9-3-9.4,0.4-13.7c5.8-7.4,17.5-3.1,18.3,5.7c0.6,5.8-3,19.3-10.8,16.3C390.1,224.8,387.5,221.7,387,220.4
		L387,220.4z"/>
	<path class="st203" d="M408.1,192.1c0.2,0.9,0.8,1.9,1,3.3c0.1,0.8,0.2,1.5,0.1,2.3c-1.2-0.7-1.1-2.7-1.5-3.7L408.1,192.1
		L408.1,192.1z"/>
	<g>
		<path class="st204" d="M388.1,210l0.5,0.8c3-3.3,10.5-6.3,12,0c2.2,9.1-7.6,12-12.3,4.7l-1.4-3.2c-0.7,2.5-1,5.8,0,8.2
			c-1.1,0.6-2.1-0.4-2.2-1.5c2.5,0.7,1.2,0.1,1.1-1.7C385.8,213.2,386.6,213,388.1,210L388.1,210z"/>
		<path class="st205" d="M389.7,211.6c0.5-0.6,6.4-2.1,7.3-1.9c3,0.7,1.9,6.1-0.5,7.2C393.8,218.1,387.6,213.8,389.7,211.6
			L389.7,211.6z"/>
	</g>
</g>
<g>
	<path class="st206" d="M119.3,332.5c0.8-0.2,1.4,0.4,1.6,1.8l3.8,3.8c0.8-0.6,1-0.2,0.7,0.7c1.5,0.6,2.3,1.3,2.6,2.2
		c0.9,0.3,1.9,0.7,2.6,1.2c13.2,10,25.8,19,41.3,25l1.1,1c2.5-0.1,4.4,0.7,5.8,2.2l1.5,0c26.5,7.8,54.2,8.6,80.7,0.3l2.9-0.2
		c1.6-1.6,3.8-2.5,6.5-2.6l1-1.2c4.5-1.9,9-3.9,13.4-6l0.9,0.1c0.5-1.1,1.6-1.8,3.3-1.9l0.9-1.4c5.4-3.1,10.6-6.7,15.6-10.5l1.6-0.3
		c0.2-1.1,1-1.7,2.5-1.9c0.9-2.2,3.2-4.3,5.5-4.8c-0.1-1.4,1.2-2.3,2.5-2.2c1.3-2.6,3.9-5.5,6.5-6.7c0.3,2.6,0.9,7.2,0.7,9.7
		c-1.4,2.1-3.2,3.7-5.5,4.8l-0.5,1.3c-32.6,28.6-75.7,43.3-118.7,36.5c-28.1-4.4-56.8-18.4-78.3-37.5c-0.4-0.3-0.7-0.8-1-1.2
		s-0.6-0.9-0.8-1.4c-1.5,0.2-2.8-1.3-3.7-2.4c0.1,0.5-0.2,0.7-0.6,0.9c-0.5-0.3-0.5-1.5-0.4-2.1c0.1-0.7,0.7-0.5,0.8-0.8
		c0.4-1.9,0.4-5.5,0.7-7.9C117.7,330.9,118.5,331.4,119.3,332.5L119.3,332.5z"/>
	<path class="st7" d="M109.8,384.2l0.9-0.1c3.4,3.3,7.5,6,11.6,8.5c53.9,33.6,114.1,40.1,172.6,13.7c12-5.4,21.5-11.5,32.3-18.8
		c0.7-0.5,1.5-0.6,2.2-0.8c0.4-0.3,0.5-0.8,0.5-1.3c2.5-1.7,4.8-3.6,6.8-5.8c2.6,0.6,4.6,1,7.3,1.1l0,1.2c-2.6,3-5.7,5.3-9.1,7
		l-0.1,0.8c-54.3,41.2-127.6,51.1-190.7,21.9c-11.9-5.5-24.8-12.9-35.1-21.1c-0.9-0.7-1.6-1.7-2.2-2.6c-0.3,0-0.6,0-0.8,0
		c-1.6-0.3-7-5.5-7.5-7.4c2.3-0.2,4.1-1,6.2-1.5l0.7,0.4C106.9,381,108.4,382.6,109.8,384.2L109.8,384.2z"/>
	<path class="st207" d="M335,389c0.4-0.7,4.9-0.7,5.1-0.5c0.7,0.5,0.3,0.9-0.4,1.3c-67.2,52.4-152.2,55.8-223.6,9.3
		c-3.2-2-10.3-6.7-12.5-9.3c-2-1.9-0.6-1.8,1.4-1.5c0.8-0.5,1.4-0.6,1.9-0.4c65,51,150.6,52.8,219,7.6
		C327.6,394.4,333.7,389.3,335,389L335,389z"/>
	<path class="st16" d="M188.4,302.7c-0.2,0.2-0.8,1-0.7,1.1c20.5-0.3,40.8,0.6,61.3,0.4l8.5-0.8c9.2,6.4,22.1,10.1,33,6.8
		c7.9-2.4,10.6-8.5,19.8-5.6c8.8,2.8,11.1,10.9,13,19.2c0.1,0.4,0.1,0.8,0,1.1c-2.6,0-5.2,0.2-7.8,0.5c-0.2,0.5-0.4,0.5-0.6-0.1
		l-0.8-0.2c-2.1-5-7.7-10.6-13.4-9.1c-14.8,7.8-32.2,3.9-42.3-10c-24.2,0.3-49.1,0.1-72.9-0.1l-0.9-0.5
		C185.8,304.3,187,303.2,188.4,302.7L188.4,302.7z"/>
	<path class="st208" d="M344.1,380.8c1.9,0.1,3.5-0.1,5.4-0.3c0.3,0,1.1-0.3,0.8,0.5c-0.4,1-8.1,7.2-9.6,8.4
		c-0.4,0.3-0.8,0.3-0.9,0.4c1-1.4-0.7-0.3-1.3-0.4c-1.1-0.1-2.2-0.6-3.5-0.4C337.9,386.2,341.6,384.1,344.1,380.8z"/>
	<path class="st209" d="M98.5,380.5c2.6,2.5,5.5,5.2,8.4,7.4c-1.3,1.4-2.3,1.3-4,0.8c-0.1,0.1,0.6,0.9,0.7,1.1L92.7,381
		c-0.2-0.8,0.4-0.5,0.9-0.5C95.2,380.3,97,380.6,98.5,380.5L98.5,380.5z"/>
	<path class="st210" d="M324.1,327.6c-2.6-0.5-5.7-0.4-8.4-0.4c0.1-0.5-0.7-1.5,0.2-1.8c1.7-0.5,4.9,0.2,6.9,0c0.4,0,0.4,0,0.5-0.4
		c0.1-0.2-0.1-0.8,0-1.1C323.6,325.1,323.9,326.4,324.1,327.6L324.1,327.6z"/>
	<path class="st211" d="M106.5,379c1.1,0.9,2.1,2,3.3,3c0,0.8,0,1.5,0,2.2c-1.3-0.8-3.3-2.4-4.4-3.5c-0.5-0.5-0.8-0.9-0.7-1.7
		C105.2,378.9,106,379.1,106.5,379L106.5,379z"/>
	<path class="st212" d="M116,341.8c-0.1-0.2-0.3-2.6,0.5-2.2c0.5,0.2,0.7,1,1,1.4c0.9,0.8,1.9,1.6,2.8,2.4c0.3,1.8-0.1,2.3-1.1,1.5
		c-0.4-0.4-1.1-0.7-1.5-1.1C117.3,343.1,116.1,342.5,116,341.8L116,341.8z"/>
	<path class="st213" d="M325.2,340.6c-0.1,2-1.4,3.1-2.5,4.5c-0.4,0.4-0.7,0.7-1.1,1.1c-0.7-0.1-1.3-0.4-1.8-0.7
		C321.4,343.9,323.2,341.7,325.2,340.6L325.2,340.6z"/>
	<g>
		<path class="st206" d="M119.3,344.7c0.9,0.3,1.9,0.7,2.6,1.3c17.1,13.4,31.8,23.8,52.4,31.2c50.1,18,106.6,4.9,145.7-30.4l1.6-0.6
			c0.2-1.1,0.5-1.5,1.1-1.1c1.6,2.9-1.2,5.7-2.4,8.2c-2.4,4.8-4.2,13.1-0.2,17.3c2.6,2.8,11.7,8,15.3,9.1c0.1,0.4,0.2,0.8,0.1,1.1
			c-0.7,1.4-5.6,4.5-7.3,5.3c-0.2,0.4-0.5,0.8-0.8,1.2s-0.6,0.7-1,1c-17.9,13.6-42,23.5-63.6,28.7c-44.4,10.7-84.4,5-124.7-15.9
			c-9.2-4.8-19-10.6-27-17.1c-0.3-0.2-0.5-0.5-0.7-0.9s-0.4-0.7-0.5-1.1c-1.5,0.2-3.2-1.5-3.3-3c6.3-1.6,12.4-6,15.6-11.7
			c3.7-6.4-1.2-12.1-3.8-17.7l-0.5-6C118.8,343.1,119.5,343.6,119.3,344.7L119.3,344.7z"/>
		<g>
			<path class="st214" d="M336.8,379.7c0.6,0.8,0.4,0.9-0.2,1.4c-2.2,2.2-4.7,3.8-7,5.6c-0.9,0-1.4-0.2-1.5-0.7
				c0.2-0.1,0.5-0.8,0.9-1.1c2.1-1.6,4.7-3.1,6.4-5.2C335.7,379.8,336.4,379.6,336.8,379.7L336.8,379.7z"/>
			<path class="st215" d="M297.5,372.6c-5.1,2-9.1,6.2-10,11.9c-1.2,7.1,4.6,11.7,11.1,8.8c3.9-1.7,5.3-5.5,7.6-8.8
				c-1.2,12.7-17.8,17.2-21.3,3.4c-4.5,6.5-9.4,11.3-16.4,14.8c-11.5,5.7-18.6,8.1-31.6,7.9c-0.5,0-1.8-0.5-1.9-0.4
				c-0.1,0.1-0.7,1.5-1.1,2c-6.2,7.4-18.2,7.3-26.2,3c-8.3-4.5-12.5-12.3-20.1-17.4c-4.4-3-11.5-5.9-16.2-2.3
				c-6.3,4.8-3.2,11.5,4.4,9.8c0.4-0.1,3.1-2.3,2.4-0.9c-1.2,2.9-6.6,3-9,1.8c-7.8-4.1-1.5-15,5.7-14.6c-1.1-1.1-3.6-1.9-5.2-2.3
				c-12.7-3.5-20.8,1.2-32.5,0.5c-2.7-0.2-11.8-2.8-12.9-5.4c-0.6-1.4,1.6,0.3,1.8,0.4c1.3,0.6,2.8,1.3,4.1,1.8c1,0.4,8,2,8.3,1.8
				c0.7-0.6-0.5-0.8-0.7-0.9c-2.9-1.5-4.4-2.1-6.5-4.9c-3.9-5-4.5-10.8-1.8-16.5c0.7-0.1,0.3,0.8,0.3,1.2
				c-1.4,15.7,9.7,21.8,23.6,18.9c0.6-0.1,1.2,0.1,1.6-0.6c-6.7-1.8-13.3-5.4-11.5-13.7c0.1-0.4,0.1-1.1,0.6-1
				c0.5,14,16.1,13.6,25.9,16.2c6.8,1.8,15,5.8,20.5,10.3c0.7,0.6,2,2.4,2.6,2.6c1.3,0.6-0.5-2.4-0.6-2.7c-0.8-1.4-3.3-3.5-3.6-4.2
				c-0.6-1.4,2.1,0.4,2.4,0.5c3.4,2.3,4.4,6.2,6.4,9.4c1.7,2.8,4.1,5.7,6.7,7.7l-1.5-3.4c-1.1-2.9-0.5-8.7,1.8-10.8
				c0.8-0.7,2.2-1.2,1.7,0.2c-0.4,1-1.1,2-1.4,3.1c-0.8,3.8-0.4,8.6,2,11.8c4.7,6,19.2,5.5,24.4,0.4c6.1-6,3.5-18.6-5.8-11.5
				c-0.9,0.7-0.8,1.7-1.8,1.6c-0.5-2.6,0.9-4.4,3.1-5.5c8.3-4.2,12.9,4.6,9.6,11.9c4.9,0.2,9.7-5.5,10.2-10.2c0.3-2.6-0.3-5.4-0.2-8
				c2.9,3.8,3.1,9,1,13.3l-3.7,5c6.5,0.2,17.4-3,21.5-8.4c4.1-5.5,1.1-11.4-5.5-11.7c0.9-1.5,3.8-0.5,5.3,0c6,2.1,6,7,2.7,11.7
				c0,0.4,0.6,0.2,0.8,0.1c4.7-1.4,11.9-9.6,14.5-13.8c4.5-7.4,3.1-12,12.6-15.4c6.4-2.3,7.9-1.4,13.9,0.3c2.2,1.1-0.6,1.5-1.3,0.4
				c-2,0.5-5.2,0.3-7.3,0C300.1,372,298.9,372.4,297.5,372.6L297.5,372.6z"/>
			<path class="st216" d="M328.1,386h1.8l-0.4,0.7c-22.8,17.8-55.7,31.3-84.3,34.9c-42.2,5.4-76.6-2.7-113.6-22.8
				c-5.7-3.1-17.7-10.1-21.8-14.7c-0.9-1.1-1.8-1.8,0-2.2c22.7,18.5,57.7,33.8,86.5,37.9C240.8,426.3,291.8,413.2,328.1,386
				L328.1,386z"/>
			<path class="st217" d="M120.4,343.2c56.6,49.9,129.3,55.5,190.4,9.6c3-2.3,6-5.2,9-7.4c0.4-0.3,1.3-0.5,1.8-1.1v1.9
				c-14.4,15.3-42.1,29.1-62,34.6c-52.4,14.3-100.2-0.9-140.2-36.1C120.8,344.2,118.8,343,120.4,343.2L120.4,343.2z"/>
			<path class="st218" d="M309.5,371.2c3.1,0.9,7.6,1.6,10.4,3c0.5,0.2,1.1,0.5,1.2,1.1c-5.2-0.8-11.7,0.3-16.1,3.4
				c-0.4,0.3-3.3,3.6-2.7,1.3c0.9-3.3,4.9-5.3,7.9-6c1-0.3,3.2,0.3,2.9-0.9c-5.4-1.1-10.2-1.5-15.6-0.4c0.7-0.3,2.9-1.1,3.5-1.1h7.3
				c0.3,0,1,0.6,1.6,0.4L309.5,371.2L309.5,371.2z"/>
			<path class="st219" d="M221.9,403.5c3.2,0.9,1.1,6.6-1.6,6.6c-3.3,0.1-6.5-4-6.4-7.2c0-1,1.1-4.5,2.3-4.3
				c1.4,0.3,0.4,4.2,0.6,5.7C217.5,409.6,221.5,407.7,221.9,403.5L221.9,403.5z"/>
		</g>
	</g>
	<path class="st220" d="M264.1,370.4c-28.7,9.5-56.5,9.1-85.1,0c-1.6-1.9,1.8-1.6,3.1-1.1c12.4,0,24.6,0,36.8-0.1
		c2.5,1.3,5.2,1.4,8.1,0.1c12.3-0.3,24.7-0.3,37.2,0.1L264.1,370.4L264.1,370.4z"/>
</g>
</svg>
