<?xml version="1.0" encoding="UTF-8"?>
<svg id="Capa_2" data-name="Capa 2" xmlns="http://www.w3.org/2000/svg" viewBox="0 0 2213 2653.05">
  <defs>
    <style>
      .cls-1 {
        isolation: isolate;
      }

      .cls-2 {
        fill: #fff;
        stroke-width: 0px;
      }
    </style>
  </defs>
  <g id="white_text-on-band" class="cls-1">
    <g id="white_text-on-band-2" data-name="white_text-on-band">
      <path class="cls-2" d="m249,552.04c28.28-5.3,68.28-6,105-6h227c32.1,5.16,63.29,8.41,100,6,79.78-5.24,138.97-27.93,209-41,35.66-.67,71.34-1.33,107-2h93c14.37,2.93,37.29,3.28,55,7,72.17,15.15,141.6,31.65,216,49,34.4,8.02,107.44,24.67,152,17,27.82-4.79,55.76-8.85,87-11,0,.33,41.68.5,55-2,42.35-7.95,109.28-14.1,147-15s129.12-.71,179,2c49.88,2.71,87.34,5.81,113,16,21.8,8.66,33.64,29.31,44,50,.07-44.89,2.79-91.82,9-129v-86c5.44-33.9,10.88-83.74,4-122-11.09-61.71-31.04-120.79-63-162-14.69-18.93-74.47-66.44-100-73-65.33-6.33-130.67-12.67-196-19h-123c-51.22,10.45-111.18,15-177,15h-60c-9.33-2.67-18.67-5.33-28-8-36.66-4.33-73.34-8.67-110-13C1233.27,11.73,1166.16-.85,1090,.05c-20.67,2-41.34,4-62,6-32.33,5-64.67,10-97,15-50.21,10.99-101.49,27.12-153,38-24.66,5.21-54.44,1.75-83,3-11.77.52-23.22,6.51-39,4-37.46-5.97-78.4-8.89-110-19-22.33-1.33-44.67-2.67-67-4-50.03-8.49-118.51-15.83-170,1-15.09,4.93-67.48,42.55-78,54-8.42,9.17-24.02,50.28-27,64,.33,27,.67,54,1,81,0,47.57-2.3,96.12-2,144-1-.67-2-1.33-3-2-5,48.33-10,96.67-15,145-2.33,14.33-4.67,28.67-7,43,9-6.33,18-12.67,27-19,11.71-4.87,29.51.72,44-2ZM1909,103.05c13.7,1.82,24.81,11.74,36,17,11.33,4,22.67,8,34,12,23,13.59,40.46,30.23,73,35v3c-11.59,24.09-3.73,31.41,1,57-1,.67-2,1.33-3,2-9.25-2.38-12.43-12.7-19-18-15.65-12.63-34.61-27.89-55-35-.64,45.65,9.08,79.66,15,118,21.27,3.93,29.85-2.99,41-14,2.67,1.33,5.33,2.67,8,4-1.33,13.67-2.67,27.33-4,41,4.33,13,8.67,26,13,39-.67.33-1.33.67-2,1h-7c-5.98-13.77-25.03-26.32-43-28v16c2,24.66,4,49.34,6,74,23.46,1.02,50.21,17.91,64-1,2.67-5.33,5.33-10.67,8-16,.33.67.67,1.33,1,2,14.79,13.11-3.57,46.93-2,64,2.33,8.33,4.67,16.67,7,25-29.88-4.38-51.21-28.88-83-35-28.65-5.52-43.3,12.98-72,13-1.33-2.67-2.67-5.33-4-8,26.75-11.12,29.19-53.5,23-93-8.98-57.29-11.29-112.38-20-166-8.13-50.08,7.43-67.19-19-102,1-2.33,2-4.67,3-7Zm-208,302c9.8-59.26,13.64-133.62,4-197-5.59-36.74,6.05-72.1-22-86,1-2.67,2-5.33,3-8,29.41-7.29,60.85-.83,85-12,33.44,10.21,68.57,79.99,58,128-6.33,19-12.67,38-19,57,6,13.67,12,27.33,18,41,16.5,37.53,34.93,68.51,54,102,5.42,9.53,28.88,37.75,25,43-23.81-3.26-41.13-13.73-72-14-9.67-14-19.33-28-29-42-10.33-27.66-20.67-55.34-31-83-6,2.33-12,4.67-18,7-.68,51.61-15.4,105.41,24,123-1.67,2.67-3.33,5.33-5,8-31.26.04-51.9,1.34-73,9-6.96,2.53-22.93,9.91-28,6-1-1.67-2-3.33-3-5,26.64-11.93,23.41-43.2,29-77Zm-121-270c3,30,6,60,9,90,1.33,33.66,2.67,67.34,4,101,5,23.66,10,47.34,15,71,8.19,33.54,9.27,69.22,32,88-1.33,2-2.67,4-4,6-11.33-2.33-22.67-4.67-34-7-20,2.33-40,4.67-60,7-1.33-2-2.67-4-4-6v-1c28.16-10.42,29.07-47.18,19-81-14.33-.67-28.67-1.33-43-2-3.49,26.61-24.72,71.01,8,82-.67,1.33-1.33,2.67-2,4-1,1.33-2,2.67-3,4-13-3-26-6-39-9-11.67,1.33-23.33,2.67-35,4-.33-2.33-.67-4.67-1-7,21.67-10.85,24.27-57.17,32-82,24.69-79.29,62.13-176.08,69-268,12.33,2,24.67,4,37,6Zm-354-55c14,4.67,28,9.33,42,14,19.59,4.37,43.5-3.97,58,4,1,2.33,2,4.67,3,7-15.44,2.98-26.38,8.76-31,22,.67,51.99,1.33,104.01,2,156,.33,23.66.67,47.34,1,71v-2c10.62-21.26,9.8-50.82,15-77,8.67-51.66,17.33-103.34,26-155,10.82,4.35,37.19,13.37,43,23,1.67,12.67,3.33,25.33,5,38,6.13,33.47,10.82,68.64,9,110-.33,22-.67,44-1,66,11.33-52.66,22.67-105.34,34-158,7.74-30.36,7.54-56.4-15-71,.33-1,.67-2,1-3,1-1.33,2-2.67,3-4,14.67,5.67,29.33,11.33,44,17,12.28,2.89,32.91-6.72,39,1v5c-25.98,10.55-26.62,61.59-35,90-13,48.33-26,96.67-39,145-6.67,35.33-13.33,70.67-20,106-9.67,1-19.33,2-29,3-3.33-37.66-6.67-75.34-10-113-4.14-26.99,2.07-59.84-8-82h-1c-20,61.66-40,123.34-60,185-39.22-35.92-19.18-84.27-29-146-13.16-82.73-7.76-192.65-48-246,.33-2,.67-4,1-6Zm-198-10c.67-1.67,1.33-3.33,2-5,13.67,2.67,27.33,5.33,41,8,17.63,3.31,40.98-3.96,54,4,20.04,12.25,61.86,83.79,59,118-2.42,29.01-12.68,47.6-23,68,27.92,64.66,51.48,126.45,91,178-1,1.67-2,3.33-3,5-12.33-3.67-24.67-7.33-37-11-10.59-2.04-21.15-.21-29-4-9-15.33-18-30.67-27-46-9.33-27.66-18.67-55.34-28-83-7.07,1.04-10.04,1.23-18,1-.31,23.91-4.57,81.02,3,100,4.82,12.08,15.24,18.05,23,27-1.33,2.33-2.67,4.67-4,7-14.36-4.93-35.6-16-54-13-12.67,2.33-25.33,4.67-38,7-1-2.67-2-5.33-3-8,27.34-17.66,17.12-50.74,23-91,8.44-57.81-.93-132.44-9-184-5.54-35.39.53-59.63-24-75,.33-1,.67-2,1-3Zm-156,38c37.38-1.88,63.32-15.11,93-24,12.67-2.67,25.33-5.33,38-8h4c-2.33,6.33-4.67,12.67-7,19,3.67,16,7.33,32,11,48-1.33,2-2.67,4-4,6-1-.67-2-1.33-3-2-10.1-26.76-41.17-24.4-65-13,3,40,6,80,9,120,18.85-2.71,32.61-16.69,40-31,2.33.33,4.67.67,7,1,.33.67.67,1.33,1,2-2.67,14.67-5.33,29.34-8,44,2.45,11.27,8.77,21.3,10,35-2.33,1.33-4.67,2.67-7,4-.67-.33-1.33-.67-2-1-5.09-12.17-24.47-21.63-41-16-1.67,31.33-3.33,62.67-5,94,41.78-9.98,59.54,3.2,75-37,2.33,1.33,4.67,2.67,7,4-3.33,17.33-6.67,34.67-10,52,2.33,5.67,4.67,11.33,7,17h-44c-20.33,1.33-40.67,2.67-61,4-15,4.67-30,9.33-45,14-.33-.67-.67-1.33-1-2-.33-2-.67-4-1-6,26.01-17.4,16.32-54.28,22-93,7.14-48.65,6.39-109.32-1-158-1-14.67-2-29.33-3-44-3.9-9.91-11.79-13.5-19-20,1-3,2-6,3-9Zm-196,28c13.67,3.33,27.33,6.67,41,10,19.33-.67,38.67-1.33,58-2,29.29,9.89,54.19,46.85,69,72,35.31,59.96-5.57,144.75-32,190-9.22,15.78-16.14,36.1-31,46-12.91,8.61-34.15-1.88-51,1-17.67,5.67-35.34,11.33-53,17-1-1.67-2-3.33-3-5,6.97-9.06,16.02-16.84,20-29,1-15.67,2-31.34,3-47,7.14-47.15,9.48-101.04,2-150-5.78-37.79,3.27-80.45-26-94,1-3,2-6,3-9Zm-189,78c-1.33-22.66-2.67-45.34-4-68-3.94-11.51-11.67-18.98-19-27,1-2.67,2-5.33,3-8,20.68,6.97,38.05,14.55,64,16,20.33,58.66,40.67,117.34,61,176h1c6.13-57.27,11.54-150.86-28-171v-3c1-1.67,2-3.33,3-5,16,5.33,32,10.67,48,16,14-1.67,28-3.33,42-5,1,3,2,6,3,9-27.77,10.74-15.83,50.99-21,85-7.05,46.38-9.48,127.43-2,176,1.33,24.33,2.67,48.67,4,73-11.33,4.67-22.67,9.33-34,14-7-15.67-14-31.34-21-47-19.1-44.44-43.09-93.36-53-143h-1c-.28,29.25,4.3,56.38,0,86-.67,20.66-1.33,41.34-2,62,3.03,12.08,16.32,24.23,29,27-.67,1.33-1.33,2.67-2,4-1,1.33-2,2.67-3,4-16.33-2.67-32.67-5.33-49-8-14.67,2.33-29.33,4.67-44,7-1-2-2-4-3-6,32-33.42,16.08-40.53,24-94,7.34-49.58,12.04-116.64,4-170Zm-223-54v-2c61.31,4.64,51.03-24.38,87-32,1,2.67,2,5.33,3,8-23.92,18.01-15.48,49.22-21,87-.67,22.33-1.33,44.67-2,67-7.51,50.18-5.09,136.17,23,164,4.51-.22,5.39-.71,8-2,4.56-22.4,10.73-46.65,15-72,2.33-55.66,4.67-111.34,7-167,5.62-34.81,2.89-72.69-25-78v-4c1.33-1.67,2.67-3.33,4-5,34,.61,54.44-.36,78-13h6c1.33,2.33,2.67,4.67,4,7-.33.67-.67,1.33-1,2-34.53,14.89-14.04,95.21-21,139-1.67,37-3.33,74-5,111-7.06,31.44-23.35,55.15-38,79-10.39,16.92-21.35,43.03-43,48-31.74,7.29-48.19-39.36-54-62-14.09-54.95-18.63-127.89-8-194,5.75-35.76,3.87-63.24-20-75,1-2,2-4,3-6Zm1181,745c24.34,2.84,56.53,9.34,87,24,19.28-3.17,44.8-9.36,66-11-2.64-17.74-37.07-68.84-43-82-29.17-64.75-43.54-120.99-46-149-2.46-28.01-12.48-60.15-17-82-64.04-8.92-130.37-20.42-198-38-29.33-7.62-88.1-21.54-120-28-63.95-12.95-169.34-14-191-14-19.17,37.95-41.69,65.85-66,99-20.92,28.51-47.81,83.11-64,124-39.63,100.1-115.7,310.2-80,486,18.55,91.36,57.69,161.98,122,212,33.39,25.97,162,99.33,158,99v1c31,14.67,103.67,44.67,109,45,17,5.33,34,10.67,51,16,31.66,12.67,63.34,25.33,95,38,22.98,7.8,50.53,6.16,72,9,2.33-4.67,4.67-9.33,7-14-6.41-9.25-16.01-11.1-25-18-14.87-11.4-27.07-44.14-35-64,0-.67-5.13-77.37-3-81,1.33-8.33,2.67-16.67,4-25,5.33-18.33,10.67-36.67,16-55,32.48-72.81,86.87-140.3,140-194,12.66-12.79,39.26-28.03,49-40,3.95-4.86,5.18-11.19,10-15,27.33-14.33,54.67-28.67,82-43,39.02-22.82,97.55-52.41,155-62,4.54-11.79,5.09-19.85,4-31-18.69-25.11-40.88-45.92-69-66-13.65-5.44-56.5-9.09-103-9-46.5.1-109.81,23.75-139,33-27.14,5.74-105.43,8.21-129,2,8.67-1.33,104.14-8.16,118-14,18.17-7.66,40.36-14.79,54-20-46.55-18.55-114.84-24.17-139-33-29.92-10.94-91.59-28.34-108-42,19.85,8.25,73.74,15.15,100,26,25.32,10.47,51.51,13.15,76,16Zm-810,587c30.83,6.63,64.4,20.12,95,14,25.89-5.18,59.9,15.62,87,3,1.33-1,2.67-2,4-3-7.55-52.35-41.43-31.19-84-43-26.81-7.44-84.92-25.67-106-40-8.67-8.33-17.33-16.67-26-25-12.33-8-24.67-16-37-24-25.64-20.24-47.95-45.97-71-69-16-12.67-32-25.33-48-38-8-9.67-16-19.33-24-29-41.92-35.97-80.83-70.97-127-103-3.33-4.33-6.67-8.67-10-13-35.84-32.88-71.33-65-140-65-11.67-.33-23.33-.67-35-1-8.66,1.84-15.19,3.92-27,5-10.96,25.78-15.36,51.61-25,82-3.89,12.26-9.91,19.6-11,30-1.67.67-3.33,1.33-5,2-30.86-21.26-28.38-104.8-3-129,25.38-26.76,131.46-38.2,193-27,29.66,4,59.34,8,89,12,40,11.67,80,23.33,120,35,24,5.67,48,11.33,72,17,13,7.33,26,14.67,39,22,20.29,11.85,65.98,28.57,76,48,1,.67,2,1.33,3,2h1c-1.85-27.97-17.11-45.25-17-78h1c7.33,10.67,14.67,21.33,22,32,12.94,20.62,24.91,42.46,38,62,6,13.67,12,27.33,18,41,29.44,49.82,59.16,112.44,104,147-8.33-15.33-16.66-30.36-37-98-65.58-218.16,66.03-515,128-622,24.59-42.46,51.54-73.44,74-112-6.33-.33-12.67-.67-19-1-24.66,2-49.34,4-74,6-48.33,12-96.67,24-145,36h-40c-33.46,0-65.98.74-95-4-33.37-5.45-77.28-3.89-107,1-33.64,5.54-71.86-4.6-106,1-21.33-1-42.67-2-64-3-63.9,5.89-125.93,10.93-153,54-24.82,39.5-27.93,112.57-40,164-1.67,10.67-3.33,21.33-5,32-11.38,29.12-27.01,56.09-44,79-6.67,15.33-13.33,30.67-20,46-9.7,14.21-15.51,37.41-24,58-10.46,25.36-24.17,52.15-30,81,.67,9.33,1.33,18.67,2,28,2,18.33,4,36.67,6,55,6.41,17.27,19.08,30.78,27,45,17.12,30.75,39.05,42.53,66,63,19.72,14.98,38.27,32.86,60,46,69.85,42.23,150.47,69.27,229,104,15,7,30,14,45,21,28,6.67,56,13.33,84,20,39.2,12.32,70.9,23.31,116,33Zm1541-446c-11.26-64.38-8.86-134.21-19-196-4.45-27.11-5.59-65.19-1-94,.33-9.33.67-18.67,1-28-4.82-16.1-5.19-39.62-11-56-4.79-13.51-24.97-59.2-53-79-28.03-19.8-124.2-20.67-176-20-51.8.67-95.42,2.64-132,4-36.58,1.36-87.67,8.67-113,13-37.18,6.59-70.01,1.02-106,7-21.6,3.59-32.45,5.19-55,7,3.17,17.55,12.56,55.5,17,93,3.93,33.24,17.86,74.94,31,110,12.6,33.61,39.89,65.62,55,108,9.71-.98,62.66,4.68,88,7,74.81,6.86,83.48,14.37,137,26,25.72,5.59,41,11.3,68,17,36.12,7.63,70.77,25.5,104,35,.33.67.67,1.33,1,2-40.51,3.09-72.07-20.14-109-23,0,.33-142.32-33.44-174-34,28.36,16.25,65.35,55.31,69,66,.33,7.33.76,23.97-3,30,12.02.07,51.86-3.27,73,1,53.62,10.83,158.89,7.27,187,42,25.21-5.59,46.33,32.88,60,50,5.67,5.33,11.33,10.67,17,16,.67,4.67,1.33,9.33,2,14,5.51,8.58,17.38,14.68,23,24,31.24,51.85,22.42,135.14-19,170-7.71-2.73,8.31-44.91,0-61-7.53-16.54-26.69-8.24-44-13-9.91-2.73-23.46-14.05-34-9-1,.67-2,1.33-3,2,11.12,23.4,25.92,45.01,34,70,8.59,26.58,9.68,49.78,22,71,2,.67,4,1.33,6,2,9.62-4.62,13.07-14.07,21-20,39.72-29.68,53.75-72.32,65-131,2.67-16.67,5.33-33.34,8-50-14.44-53.5-26.79-114.63-37-173Zm-41,570c-6.64-33.72-5.13-66.55-13-98-23.42-93.62-51.22-170.79-96-242-14-17.33-28-34.67-42-52-40.46-52.72-70.46-75.44-142-98-18.22-5.74-37.56-13.31-60-14-13.35,6.8-33.86,1.31-49,5-28.66,9.67-57.34,19.33-86,29,20.33,6.67,40.67,13.33,61,20,29.26,14.97,68,54.84,84,84,3.33,12,6.67,24,10,36,14.43,44.86,19.82,89.12,35,138,11.23,36.17,36.73,63.69,50,98,7.04,18.19,6.2,46.55,12,74,3.02,14.28,7.27,36.49,3,55-7.08,30.71-14.23,67.8-29,92-17.43,28.55-44.12,54.92-58,89-13.24,32.51-19.64,96.08-38,125-8.33,10.67-16.67,21.33-25,32-8.85,15.33-16.3,38.34-30,49-7.67,4.67-15.33,9.33-23,14-13.38,8.38-20.81,25.51-36,33-7.78,3.83-16.99,2.79-23,8-45.57,39.46-106.01,87.4-169,102h-1c-.67-1-1.33-2-2-3,9.67-6.67,19.33-13.33,29-20,18.26-8.06,37.73-13.69,53-25,9.9-7.33,17.42-23.44,29-29,69.76-33.51,137.59-102.11,178-165,24.56-38.22,21.02-98.97,44-138,17.24-29.28,43.64-53.47,61-83,16.97-28.88,29.41-112.22,19-160-11.79-54.12-28.31-95.56-48-141-5.33-8.67-10.67-17.33-16-26-.67-11.33-1.33-22.67-2-34-12.79-42.81-27.8-86.25-50-121-7.38-11.56-23.37-18.63-30-30-3.01-5.16,1.27-8.26-3-12-20.53-17.97-57.94-36.69-90-41-7,.33-14,.67-21,1-4.67-1-9.33-2-14-3-21.66,14.67-43.34,29.34-65,44-73.99,46.91-153.7,154.62-180,249-21.6,77.52,8.27,142.04,55,171,18.12,11.23,30.6,36.9,58,39,1.33-4,2.67-8,4-12,1.22-8.28-11.2-20.85-15-29-65.55-17.65-77.36-47.12-96-110-4.63-15.62-.82-37.66,2-49,2.89-11.61-.09-20.99,4-30,8.31-18.29,38.91-30.54,62-23,5.65-7.4,12.25-13.26,18-21h4c6.3,10.14,5.49,23.78-2,32,5,2,10,4,15,6,1.47,2.98,2.08,5.7,2,11-12.89,6.86-21.54-5.23-33-8-11.58-2.8-13.92,3.88-29-2-15.24,7.8-32.12,44.45-14,94,17.15,46.89,34.5,78.47,77,68,27.98-6.89,31.87-19.7,44-63,7.74,14.65,7.67,27,8,27,4.35,7.2,4.04,18.28,7,29,2,2.67,4,5.33,6,8,5.5,16.91-11.61,29.49-15,42,4,4.67,8,9.33,12,14,.33,1,.67,2,1,3v1c-17.87-4.31-21.26-1.14-40-1-33.51,46.53,6.09,174.09,51,177,12.8-10.06,31.71-31.27,38-47,7.93,2.66,6.71,14.43,6,25,6.33,2.27,8.53,5.97,11,12-7.72,19.44-15.8,37.22-28,52-6.44,7.8-16.74,10.32-23,19-6.33-1-12.67-2-19-3-8.91-6.69-4.71-34.3-5-46-4.33-3.33-8.67-6.67-13-10-1.4,25.2-10.04,52.36-19,70,1.3,8.29,8.26,7.4,12,5,1.86,7.6,6.89,6.98,9,12,.33,11,.67,22,1,33-2.82,1.3-2.85,1.87-6,1-5.7-4.79-9.39-20.84-11-29-37.42-5.96-90.6,32.04-78,76,7.93,19.76,23.24,9.84,39,15,4.72,3,3.59,5.81,3,13-5.2,2.96-13.68,3.84-21,5-5.48,6.02-8.84,12.17-10,20-3,.67-6,1.33-9,2-23.35-37.72-72.45-2.07-75,37,2.95,7.23,6.23,11.59,14,14,.67,4.67,1.33,9.33,2,14,4-2.33,8-4.67,12-7,2.89,2.38,3.42,1.96,5,6,4.33-1.33,8.67-2.67,13-4,2.67,2.33,5.33,4.67,8,7-1.21,13.02-9.06,14.5-14,23,22.64,46.42,70.44,80.99,112,109,15.17,10.22,31.46,26.56,55,22,8.03,5.99,22.5,17.88,27,27-20.05,56.36-95.97,43.84-147,26l-9-1c-3.03,18.29,7.13,49.28,2,74-13.29,64.03-38.13,110.71-81,145-7.67,6.67-15.33,13.33-23,20h-15c-9.67,3-19.33,6-29,9-7.28-5.73-19.72-25.79-21-36,4-11,8-22,12-33,4.88-17.59,1.03-39.14,5-59,2.51-12.54,8.64-23.05,11-34,9.29-43.06-7.24-85.22-12-117-38.82,18.98-120.7,26.39-175,15h-35c-43-9.67-86-19.33-129-29-42.56-15.88-122.66-92.54-140-134-13.55-32.4-14.14-80.81-10-116,2.41-20.52,20.64-38.17,31-52,33.45-44.64,68.23-100.19,142-103,.33-.67.67-1.33,1-2-32.36-19.96-67.45-41.5-107-54-12.33-2-24.67-4-37-6-12-3-24-6-36-9-24.66,11.33-49.34,22.67-74,34-44.29,17.41-76.73,41.33-102,77-7,11.67-14,23.33-21,35-5.33,4-10.67,8-16,12-15.74,20.69-31.2,67.72-39,95v24c-12.53,72.75,12.18,139.8,33,191,5.84,14.36,7.4,28.11,14,41,28.4,55.46,77.04,102.25,124,140,19.66,17.33,39.34,34.67,59,52,24.59,17.44,52.5,29.26,79,45,30.4,18.06,63.81,39.74,99,52,30.66,5.67,61.34,11.33,92,17,56.33,9.67,112.67,19.33,169,29,35.33-5.67,70.67-11.33,106-17,35.15-6.08,66.24-3.92,98-11,29.66-8,59.34-16,89-24h16c28.33-10.33,56.67-20.67,85-31,21.66-11.33,43.34-22.67,65-34,26.54-10.21,49.61-16.95,73-29,25.12-12.94,46.7-31.2,69-47,34.79-24.65,72.71-48.86,101-80,30.92-34.04,55.96-74.32,82-113,26.27-39.02,61.62-70.86,81-118,33.12-80.56,53.8-172.68,73-267,6.6-32.42,2.59-67.59,6-99,.84-7.69,4.4-19.31,6-29,3.19-19.29-2.22-42.84-5-59-4.78-27.79-4.23-54.77-9-79Zm-675-63c-4.54,2.17-8.34,2.04-15,2-2.67-4-5.33-8-8-12-1.18-5.22,3.56-6.64,3-12-1.33-4-2.67-8-4-12-23.88,1.6-41.36-33.13-21-54,14.28,4.49,52.31,19.34,44,42-1.98,3.34-1.57,2.98-6,4,6.3,10.63,9.74,27.97,7,42Zm-47,534c-2.67.67-5.33,1.33-8,2-2.76-4.29-5.71-7.25-7-13h-5c-2,1.67-4,3.33-6,5-2.85,5.54.67,18.19-8,21-1-.33-2-.67-3-1-1.46-8.06-2.7-12.71-6-18,.71-16.26,13.42-21.54,24-28,15.01.82,14.68,9.18,22,20-1,4-2,8-3,12Zm68-4c1.99-1.85,2.31-3.77,3-7,16.24-9.72,39.64-12.42,52-26h6c.67,1.67,1.33,3.33,2,5-5.07,6.98-55.02,47.03-63,28Zm258-178h-11c-12.61-7.7-20.68-23.23-35-30-3.44-.61-2.24-.1-5,2h-1v-7c25.52.86,29.71,23,53,23,1.98,3.16,2.7,3.41,3,9-1.33,1-2.67,2-4,3Zm-6-321c11.42,14.48,11.46,44.42,10,66-4.97,3.75-5.9,5.15-14,4-.67,2.33-1.33,4.67-2,7-3.91,2.53-8.97,3.9-15,2-2.46,3.98-4.07,8.32-8,11-12.64-8.67-3.26-45.19,3-56-17.69,4.8-31.5,18.1-32,40h-1c-.67-12-1.33-24-2-36,2.68-14.43,9.74-25.92,7-41,5.67-5.33,11.33-10.67,17-16,2-.33,4-.67,6-1,2.33,2.33,4.67,4.67,7,7-.88-4.57-.74-6.48,1-10h3c6.08,4.84,3.63,9.06,8,16,4,2.33,8,4.67,12,7Zm-6-57c-.33,2-.67,4-1,6-18.97,3.56-48.67,8.94-59,22,2.66,2.39-.05,4.59-1,6-8.27,12.22-11,22.15-11,44,0,47.57-8.51,116.1,21,138,39.22,29.11,67.18-33.87,80-30v12c3.33-.67,6.67-1.33,10-2,.67,1,1.33,2,2,3,6.2,15.04-3.71,36.52-7,47-14.21,45.24-61.6,70.82-109,45,3.88-16.26,18.5-26.86,21-41-6.67-8-13.33-16-20-24-19.31-40.75-45.78-139.66-20-189,8.6-16.46,28.77-36.37,46-44,7.67-2,15.33-4,23-6,13.73-.12,18.77,5.94,25,13Zm-73-212c11.11,23.05,9.41,60.88-20,65-4.66-9.47.54-28.68-10-39-1.39,12.11-8.85,31.02-27,21-13.1-7.23-6.36-28.76,0-37-3.44-4.89-10.36-4.55-19-4h-1c-4.74,6.77-4.52,11.39-4,23-4.74,3.24-7.32,5.14-16,5-5.75-8.48-7.28-32.15-7-45,8.46-9.44,13.57-18.29,26-24,4.67-1.33,9.33-2.67,14-4,22.38,6.74,53.72,17.65,64,39Zm-126,479c-18.86-12.66-11.19-24.43,0-38-7.09-8.6-16.6-26.19-27-31-9.53-19.78,11-36.27,21-44h8c15.77,23.63,48.94,100.76-2,113Zm57-333c-8.67-9.33-17.33-18.67-26-28-24.62-28.21-74.43-56.26-59-122,6.96-29.64,29.63-66.04,57-75,15.76-5.16,28.13-1.5,41-8,14,7,28,14,42,21v1c-4.5,3.47-59.56,4.72-74,7,.67,1.33,1.33,2.67,2,4-8.25,1.42-13.52,2.09-18,7-40.58,36.14-20.14,128.78,25,148,51.65,21.99,106.6-20.65,117-56,3.3-11.22-6.49-16.31-3-26,2.33-2.67,4.67-5.33,7-8,4.98,4.7.28,10.31,3,18,1.71,4.84,8.51,4.84,10,11,7.55,31.31-20.77,109.54-41,120h-6c-3.28-4.52-5.1-6.47-5-15-7.92,7.69-18.4,20.51-38,13-3.67-2.67-7.33-5.33-11-8-8.56-1.91-15.82.75-23-4Zm-133,542h-4c.67-1.33,1.33-2.67,2-4-8.38-1.27-12.5-4.99-16-11,4.54-3.22,8.76.24,13,3,7.72-.38,16.05-4.8,19-10,2.03-2.79,1.72-11.13,0-15-1.85-1.83-5.38-1.91-8-3-1-.67-2-1.33-3-2,7.51-9.94,18.39-11.17,28-19h6c16.18,23.86-16.58,55.8-37,61Zm-15,168c-3.04-2.16-9.89-12.45-11-16-1.21-7.2,10.27-16.08,13-25l-4,2c3.66-13.9-3.37-23.59,2-37,13.14-32.8,61.53-82.45,105-84-.33-17-.67-34-1-51,3.13-13.29,17.74-19.24,24-29,3.67-9.67,7.33-19.33,11-29,16.25-25.33,49.38-54.65,82-63,9.89,7.25,29,8.47,36,19v5c-1.33.67-2.67,1.33-4,2-10.47,2.72-25.38-11.4-42-6-20.12,6.54-59.31,58.7-71,78-4.4,7.26-16.05,19.66-12,34,4.51,15.97,24.5,11.29,32,23,7.12-.78,10.19-5.35,15-6,5.33,1.33,10.67,2.67,16,4,15.4,2.53,30.73-4.39,43-8,1.33,1,2.67,2,4,3-1.59,9.98-60.12,75.07-70,82-10.84,7.59-28.24,11.58-35,23-5.24,3.24-18.5,5.81-23-2,7.13-15.54,23.26-21.36,26-41v-1c-4.37-1.13-3.54.58-8,4h-4c2.73-4.01,4.05-5.54,4-13-21.99-22.18-86.92,21.09-97,38-4.73,7.94-1.88,18.25-2,28,7.76,3.36,24.3,10.27,32,12,4.15.93,8.41-3.99,14-2,1,.33,2,.67,3,1,.33,1,.67,2,1,3-.87,20.74-53.45,68.14-79,52Zm179-216c-10.67,4.33-21.33,8.67-32,13,4.3-9.46,5.17-21.41,11-29v-2c.33,1.67.67,3.33,1,5h1c5.58-10.85,19.58-13.01,25-24,0,0,2.82-20.31,3-25,8.67-5.67,17.33-11.33,26-17h8c12.84,18.2-28.43,69.28-43,79Zm-751-358c-8,1.33-16,2.67-24,4-17.48,6.23-39.53,18.97-48,35-.15,12.47,3.59,16.44,10,22,1,.33,2,.67,3,1,25.91-35.83,107.29-55.09,133-5,3-1,6-2,9-3,3.33-3.67,6.67-7.33,10-11-2.94-30.32-56.47-43.87-93-43Zm-247,282c16.53-22.97,63.65-56.7,92-69,49.15-21.32,90.22-28.57,151-16,17.66,1,35.33,2,53,3,28.73,5.27,57.52,15.87,80,29,88.57,51.72,140.49,112.79,193,200,25.08,41.64,40.42,87.92,66,128,50.8,79.61,99.72,121.83,198,155,33.19,11.2,86.26,28.36,110-3-13.84-11.1-37.73-10.45-54-19-32.69-17.17-56.37-42.35-85-62-20.21-13.87-44.76-25.14-57-47,2-1.33,4-2.67,6-4-1.75-11.57-10.17-14.79-15-23-13-25.33-26-50.67-39-76-5.14-8.52-21.09-29.16-19-40v-2c3.36-1.16,16.05,12.24,33,8,7.95-1.99,14.42-10.39,16-20,1.57-9.53.7-18.03-1-25-7.63-31.24-32.56-61.54-49-59-8.46,1.3-10.82,8.97-15,15h-3c-1.67-1-3.33-2-5-3-.46-13.08,1.93-18.65,10-25,8,.33,16,.67,24,1-4-11.67-8-23.33-12-35-23.71,3.43-37.64-3.44-50-14,3.93-2.94,9.49-4.15,13-7,3,2.33,6,4.67,9,7,5.5,2.61,14.57.64,18-2,9.09-5.04,13.23-30.96,9-45-7.88-26.14-21.36-52.87-56-52-3,2.33-6,4.67-9,7-3.84,15.97.67,28.63,1,46-1,.67-2,1.33-3,2-5.01-4.26-3.19-9.75-9-11-5.26-32.01,2.84-41.98-22-56-6.24,3.54-9.9,1.58-17-1-3.12-8.02-3.63-10.61-4-20,10.3-3.63,21.67-1.52,28,7h4c1.33-2,2.67-4,4-6,10.56-27.15-55.18-65.41-77-66,13.73,16.74,23.11,35.12,36,54-1.23,14.76-11.68,18.98-14,30-1.34,6.37-.1,14.44-2,20,40.14-14.82,76.76,66.16,82,98-8.04,3.2-14.4,28.15-20,35,.67,4,1.33,8,2,12,39.89-8.13,74.58,61.99,69,101-3.02,21.11,5.18,37.89-9,49,2.33,8.67,4.67,17.33,7,26-5.78.57-7.06-2.22-9,1-18.63-5.42-36.91-32.86-43-51v-1c1-.67,2-1.33,3-2,5.26,8.54,17.85,15.77,31,13,21.95-33.92-1.54-76.12-18-101-4.67-7.06-7.48-17.78-17-20-6.82-1.46-9.43,4.58-17,6-.7,10.21-2.62,37.41-11,41h-1c-3-8-6-16-9-24-7.19-10.88-16.44-21.67-23-34-2-5.67-4-11.33-6-17-5.13-6.77-11.62-7.25-14-18,1-1.33,2-2.67,3-4,9.24,2.91,21.53,8.88,32,13,12.79-1.75,20.31-9.95,33-14,8.86-41.16-22.61-86.63-52-101-18.04-.31-22.75,6.88-29,18,2.02,3.67.05,2.18,5,3-1.99,7-4.25,12.59-4,24-2,.67-4,1.33-6,2-4.84-6.84-8.36-8.01-8-21-26.88-8.18-67.54-35.24-82-57,1.67-1.67,3.33-3.33,5-5,4.15,1.63,78.28,11.47,86,9,3.67-3,7.33-6,11-9,11.16-43.77-39.79-91.32-72-98-25.05-5.19-41.8,8.44-53,18,1.54,19.24,14.01,25.04,18,41l-3,3c-15.14,5.19-41.51-27.17-51-34-7.56-5.44-23.35-14.69-34-15-5.05-.15-6.02,3.23-12,2-17-9.01-10.78-20.65-21-30-23.24-21.27-65.91-3.04-91,2,.33,7.67.67,15.33,1,23-7.85,3.85-22.57,10.82-25,20-28.06-6.18-53.1,20.03-81,22-3.09-2.44-3.98-3.22-5-8-17.92,3.23-22.44-9.7-37-7-17.63,3.27-21.94,10.58-28,18-6.06,7.42-11.07,18.12-7,24,3.52,1.97,5.49,5.13,7,9,4.65,12.91-43.18,61-52,73-4.16.54-4.43.42-8-1-6.67,10.33-13.33,20.67-20,31-2.33-1.67-4.67-3.33-7-5-33.47-15.03-58.71,41.95-59,77,2.33,2.33,4.67,4.67,7,7,2-.33,4-.67,6-1,5.09-9.43,4.11-25.33,11-33-.33,1.67-.67,3.33-1,5,5-12,10-24,15-36,5.23-6.53,18.71-7.68,26-12-11.67,22-23.33,44-35,66-22.93,63.87-18.81,145.52-17,230,.67-29.33,1.33-58.67,2-88,10.34-41.83,33.47-75.88,54-107,15.72-23.83,27.39-48.92,44-72Zm676,81c2-1.33,4-2.67,6-4,2,.33,4,.67,6,1,10.41,4.71,34.34,34.78,27,52v2c-2-3-4-6-6-9v-2c-2.02,4.33-2.8,7.68-5,11-13.32-1.22-15.27-9.15-25-14-3.23-9.07-3.28-23.72-3-37Zm-43-169c4.67.67,9.33,1.33,14,2,10.98,17.15,16.37,28.55,16,53v1c-3.16,1.98-3.41,2.7-9,3-9.67-11-19.33-22-29-33,1.31-6.23,4.79-18.82,8-26Zm-18,167c1.26,1.56,4.04,2.12,1,3,4.77,18.91,40.28,39.11,27,70-2.67.33-5.33.67-8,1-3-1.67-6-3.33-9-5-8.29-14.46-20.39-52.28-11-69Zm-68-142c2.33-.67,4.67-1.33,7-2,11.97,1.98,41.55,35.29,35,51v2h-1c-3-6-6-12-9-18-3.52.49-10.41,4.34-18,2-.33.67-.67,1.33-1,2,2.99,6.58,6.6,13.88,7,22-2.33.33-4.67.67-7,1-4.85-6.76-9.43-14.93-11-25-2.85-1.34-1.49.82-3,3-.33-5.33-.67-10.67-1-16-.33.67-.67,1.33-1,2-5.95-8.11,2.1-15.14,3-24Zm-100-142c24.73-.07,55.22,21.9,61,41v14c-4.71.7-8.03,0-14,1-8.13-7.47-21-23.39-36-17-13.07-9.27-28.12-27.02-11-39Zm-352,22c1.33-.67,2.67-1.33,4-2,5.25-9.07,2.25-19.46,0-30-10.22-7.71-25.01-9.36-43-10-3.51,2.55-9.61,1.5-14,4-14.95,8.51-55.02,50.72-50,78,1.64,8.91,8.2,11.08,11,18,4.23,2.1,10.48,3.04,17,3,1-1,2-2,3-3v-4c-2.33-2.23-2.56-2.43-7-3-4.6-31,34.37-77.31,67-66,4.32,1.75,10.56,7.05,9,15h3Zm392,606c59.28,13.86,114.9-15.75,156-27-9.18-12.65-32.68-24.57-53-25-20.4,14.58-135.67,34.46-177,28-17.91-2.8-73.71-12.73-89-7-.67.33-1.33.67-2,1,12.33,1.67,24.67,3.33,37,5v1c-1,.67-2,1.33-3,2,24,6,48,12,72,18,9.99,1.67,22.94-2.06,30,2h2c-2.33.33-4.67.67-7,1,11.33.33,22.67.67,34,1Zm4-2045c5.67-10.67,11.33-21.33,17-32,8.53-30.62-13.75-107.89-30-112,1.07,22.11,5.95,136.27,13,146v-2Zm649,38c5.67-12.67,11.33-25.33,17-38,9.79-35.29-8.48-94.31-20-111-1.67-.33-3.33-.67-5-1-3.34,13.01,2.32,138.45,7,150h1Zm-982,120c21.81-66.39,42.76-127.48,4-193-7.81-13.2-14.44-32.97-31-37,3,41,6,82,9,123-3.33,36.66-6.67,73.34-10,110,12.19.42,21.02,1.79,28-3Zm772-132v2c-7.67,26-15.33,52-23,78,9.67.33,19.33.67,29,1-2-27-4-54-6-81Z"/>
    </g>
  </g>
</svg>