<?xml version="1.0" encoding="UTF-8"?>
<svg id="Capa_2" data-name="Capa 2" xmlns="http://www.w3.org/2000/svg" viewBox="0 0 2213 3282.55">
  <defs>
    <style>
      .cls-1 {
        isolation: isolate;
      }

      .cls-2 {
        fill: #fff;
        stroke-width: 0px;
      }
    </style>
  </defs>
  <g id="white_runes_text" class="cls-1">
    <g id="white_runes_text-2" data-name="white_runes_text">
      <path class="cls-2" d="m1723.69,486.83c-4.16,10.51-8.58,17.83-13.26,21.95l-3.12,2.81c1.3,3.76,2.34,6.57,3.12,8.44l.39,2.25c2.86,0,10.66-2.25,23.41-6.75,13-4.12,20.8-6.19,23.41-6.19,2.86,0,11.31,2.07,25.36,6.19,13.78,4.5,22.1,6.75,24.97,6.75l4.29-10.69-4.68-3.94c-5.46-3.75-10.53-10.69-15.21-20.82-4.68-10.13-7.02-19.14-7.02-27.02v-123.26h8.19c3.38,0,6.89-1.49,10.53-4.5l29.26,113.13,29.26,64.16h30.43c2.34,0,8.84,1.69,19.5,5.07,10.92,3.38,17.42,5.07,19.51,5.07l1.95-8.44-2.34-2.25c-8.06-7.88-15.87-21.39-23.41-40.52l-35.5-84.42-32.38-109.19c17.68-39.02,26.53-71.66,26.53-97.93s-8.19-57.21-24.58-95.12c-16.65-37.89-30.43-56.84-41.35-56.84h-43.3c-2.6,0-10.4-2.25-23.41-6.75-12.75-4.12-20.55-6.19-23.41-6.19-.26,1.13-.39,1.88-.39,2.25l-3.12,9,3.12,2.81c4.68,3.75,9.1,10.89,13.26,21.39,4.16,10.51,6.24,19.51,6.24,27.02l7.02,205.99-7.02,179.54c0,7.88-2.08,16.88-6.24,27.02Zm75.29-366.39c5.46,25.52,8.19,46.71,8.19,63.6l-.78,45.02-21.06,51.78-5.46-200.92c7.54,1.5,13.91,15.01,19.11,40.52Zm-329.45,388.34l-2.34,2.25,2.34,7.88c2.08,0,7.8-1.69,17.16-5.07,9.62-3,15.47-4.5,17.55-4.5,2.86,0,10.79,1.88,23.8,5.63,13,4.13,20.93,6.19,23.8,6.19l4.68-10.13-4.29-2.81c-5.21-3.75-9.62-10.13-13.26-19.14-3.12-8.63-4.68-16.32-4.68-23.08v-2.81l9.75-70.91h45.25l8.58,72.6c0,7.51-1.82,15.57-5.46,24.2-3.65,8.64-7.94,14.63-12.87,18.01l-7.02,3.94c1.82,3.75,3.25,6.57,4.29,8.44,0,.38.39.94,1.17,1.69,3.12,0,12.22-2.06,27.31-6.19,15.08-3.75,24.19-5.63,27.31-5.63,2.34,0,9.1,1.69,20.29,5.07,11.44,4.13,18.33,6.19,20.68,6.19l2.73-9.57-2.73-2.25c-7.8-8.25-13.79-22.7-17.94-43.34l-37.06-184.6-23.8-271.28-38.23-9.57c-22.37,185.36-45.51,340.32-69.44,464.89-3.38,21.02-9.23,35.65-17.55,43.9Zm98.31-294.35c3.9,45.78,8.84,86.49,14.82,122.13h-31.21c6.24-30.01,11.7-70.72,16.38-122.13ZM448.8,486.83c-4.16,10.51-8.58,17.83-13.26,21.95l-3.51,2.81,3.9,10.69c2.6,0,9.88-2.25,21.85-6.75,11.96-4.12,19.24-6.19,21.85-6.19s10.53,2.07,23.8,6.19c13.26,4.5,21.32,6.75,24.19,6.75l4.68-10.69-6.63-4.5c-5.21-4.12-10.14-11.06-14.82-20.82-4.68-9.75-7.02-18.57-7.02-26.45l3.9-148.58-3.9-60.78,76.07,290.98,35.11-16.88-5.46-254.96,5.46-195.3c0-7.5,1.95-16.51,5.85-27.02,3.9-10.5,7.93-17.63,12.09-21.39l3.51-2.81-3.12-9c-.26-.37-.39-1.13-.39-2.25-2.6,0-9.62,2.07-21.07,6.19-11.7,4.5-18.86,6.75-21.46,6.75-2.86,0-10.92-2.25-24.19-6.75-13.26-4.12-21.2-6.19-23.8-6.19l-4.68,11.26,6.24,3.94c5.46,4.13,10.53,11.07,15.21,20.82,4.68,10.13,7.02,18.95,7.02,26.45l2.34,151.96-2.34,29.83-62.42-231.32h-24.19c-2.6,0-9.62-2.25-21.07-6.75-11.7-4.12-18.86-6.19-21.46-6.19-.26,1.13-.52,1.88-.78,2.25l-2.73,9,3.12,2.81c4.42,3.75,8.58,10.89,12.48,21.39,3.9,10.51,5.85,19.51,5.85,27.02l5.46,198.67-5.46,186.85c0,7.88-2.08,16.88-6.24,27.02Zm421.32,0c-4.16,10.51-8.58,17.83-13.26,21.95l-3.12,2.81c1.3,3.76,2.34,6.57,3.12,8.44l.39,2.25c2.86,0,10.66-2.25,23.41-6.75,13-4.12,20.8-6.19,23.41-6.19h111.57c0-2.25-1.43-6.94-4.29-14.07-2.6-7.5-3.9-12-3.9-13.51,0-4.12,1.95-15.94,5.85-35.46,3.64-19.5,5.46-31.14,5.46-34.89l-6.24-8.44-8.19,19.14c-3.12,7.51-8.33,14.63-15.6,21.39-7.55,6.75-13.92,10.13-19.11,10.13h-37.84l6.24-139.58h7.41c5.2,0,11.57,3.01,19.11,9.01,7.8,6.01,13.26,12.38,16.38,19.14l2.34,5.07,8.19-5.63c0-3.38-1.56-12.57-4.68-27.58-3.64-15-5.46-24.2-5.46-27.58s1.82-12.57,5.46-27.58c3.12-15.38,4.68-24.57,4.68-27.58l-8.19-5.63-2.34,5.07c-3.12,6.75-8.58,13.14-16.38,19.14-7.55,6.01-13.92,9-19.11,9h-7.41v-14.07l-6.24-164.34h30.43c5.46,0,11.96,3.38,19.51,10.13,7.8,6.75,13.39,13.89,16.77,21.39l7.02,15.76,5.85-7.88c0-4.12-1.82-15.38-5.46-33.77-3.9-18.38-5.85-29.45-5.85-33.21,0-1.87,1.43-6.56,4.29-14.07,2.6-7.5,3.9-12.19,3.9-14.07h-104.16c-2.6,0-10.41-2.25-23.41-6.75-12.75-4.12-20.55-6.19-23.41-6.19-.26,1.13-.39,1.88-.39,2.25l-3.12,9,3.12,2.81c4.68,3.75,9.1,10.89,13.26,21.39,4.16,10.51,6.24,19.51,6.24,27.02l6.24,195.86-6.24,189.67c0,7.88-2.08,16.88-6.24,27.02Zm176.53,0c-4.16,10.51-8.58,17.83-13.26,21.95l-3.12,2.81c1.3,3.76,2.34,6.57,3.12,8.44l.39,2.25c2.86,0,10.66-2.25,23.41-6.75,13-4.12,20.8-6.19,23.41-6.19,2.86,0,11.31,2.07,25.36,6.19,13.78,4.5,22.1,6.75,24.97,6.75l4.29-10.69-4.68-3.94c-5.46-3.75-10.53-10.69-15.21-20.82-4.68-10.13-7.02-19.14-7.02-27.02v-123.26h8.19c3.38,0,6.89-1.49,10.53-4.5l29.26,113.13,29.26,64.16h30.43c2.34,0,8.84,1.69,19.51,5.07,10.92,3.38,17.42,5.07,19.5,5.07l1.95-8.44-2.34-2.25c-8.06-7.88-15.87-21.39-23.41-40.52l-35.5-84.42-32.38-109.19c17.68-39.02,26.53-71.66,26.53-97.93s-8.19-57.21-24.58-95.12c-16.65-37.89-30.43-56.84-41.35-56.84h-43.3c-2.6,0-10.41-2.25-23.41-6.75-12.75-4.12-20.55-6.19-23.41-6.19-.26,1.13-.39,1.88-.39,2.25l-3.12,9,3.12,2.81c4.68,3.75,9.1,10.89,13.26,21.39,4.16,10.51,6.24,19.51,6.24,27.02l7.02,205.99-7.02,179.54c0,7.88-2.08,16.88-6.24,27.02Zm75.29-366.39c5.46,25.52,8.19,46.71,8.19,63.6l-.78,45.02-21.07,51.78-5.46-200.92c7.54,1.5,13.91,15.01,19.11,40.52Zm130.11-51.22l19.9,155.9,14.82,299.42,25.75,29.27,46.03-211.62,15.21-61.35,5.07,34.89,21.46,224,32.77-15.2,27.31-225.13,35.89-233.57c3.9-19.14,10.01-32.64,18.33-40.52l2.73-2.25c-.78-3-1.56-5.25-2.34-6.75,0-.37-.13-.93-.39-1.69-2.08,0-8.19,1.69-18.33,5.07-10.14,3.38-16.26,5.06-18.33,5.06-2.6,0-10.53-2.25-23.8-6.75-13.01-4.12-20.81-6.19-23.41-6.19l-4.68,11.26,4.29,3.38c4.94,3.75,9.36,10.51,13.26,20.26,3.38,8.26,5.07,15.76,5.07,22.51v2.81l-36.28,293.23-2.73-160.97-15.99-151.4-43.69-14.07-33.94,301.67-8.19,43.9-2.34-157.59V72.04c.78-7.88,3.51-16.32,8.19-25.33,4.68-9,9.36-15,14.04-18.01l9.75-5.63-5.07-11.26c-3.12,0-12.23,2.07-27.31,6.19-15.35,4.5-24.58,6.75-27.7,6.75-2.34,0-9.23-2.06-20.68-6.19-11.45-3.75-18.47-5.63-21.07-5.63l-2.34,10.13,2.34,2.81c8.06,8.64,13.52,23.07,16.38,43.34Zm-587.71,417.61c-4.16,10.51-8.58,17.83-13.26,21.95l-3.12,2.81c1.3,3.76,2.34,6.57,3.12,8.44l.39,2.25c2.86,0,10.66-2.25,23.41-6.75,13-4.12,20.8-6.19,23.41-6.19h12.48l40.57,11.82c15.6-.75,34.58-34.89,56.95-102.43,22.63-68.29,33.94-127.57,33.94-177.85,0-38.64-12.62-84.61-37.84-137.89-25.23-52.15-46.56-78.23-63.98-78.23h-42.13c-2.6,0-10.4-2.25-23.41-6.75-12.75-4.12-20.55-6.19-23.41-6.19-.26,1.13-.39,1.88-.39,2.25l-3.12,9,3.12,2.81c4.68,3.75,9.1,10.89,13.26,21.39,4.16,10.51,6.24,19.51,6.24,27.02l9.36,203.74-9.36,181.79c0,7.88-2.08,16.88-6.24,27.02Zm61.64-406.35c10.92,6.38,23.27,31.52,37.06,75.42,14.04,44.66,21.07,83.3,21.07,115.94,0,34.89-4.16,75.98-12.48,123.26-8.58,46.91-15.74,70.55-21.46,70.91l-24.19-7.32,9.36-184.04-9.36-194.17Zm-12.97,2245.07c1.33-.67,2.67-1.33,4-2,5.25-9.07,2.25-19.46,0-30-10.22-7.71-25.01-9.36-43-10-3.51,2.55-9.61,1.5-14,4-14.95,8.51-55.02,50.72-50,78,1.64,8.91,8.2,11.08,11,18,4.23,2.1,10.48,3.04,17,3,1-1,2-2,3-3v-4c-2.33-2.23-2.56-2.42-7-3-4.6-31,34.37-77.31,67-66,4.32,1.75,10.56,7.05,9,15h3Zm-95,183c16.53-22.97,63.65-56.7,92-69,49.15-21.32,90.22-28.57,151-16,17.66,1,35.33,2,53,3,28.73,5.27,57.52,15.87,80,29,88.57,51.72,140.49,112.79,193,200,25.08,41.64,40.42,87.92,66,128,50.8,79.61,99.72,121.83,198,155,33.19,11.2,86.26,28.36,110-3-13.84-11.1-37.73-10.45-54-19-32.69-17.17-56.37-42.35-85-62-20.21-13.87-44.76-25.14-57-47,2-1.33,4-2.67,6-4-1.75-11.57-10.17-14.79-15-23-13-25.33-26-50.67-39-76-5.14-8.52-21.09-29.16-19-40v-2c3.36-1.16,16.05,12.24,33,8,7.95-1.99,14.42-10.39,16-20,1.57-9.53.7-18.03-1-25-7.63-31.24-32.56-61.54-49-59-8.46,1.3-10.82,8.97-15,15h-3c-1.67-1-3.33-2-5-3-.46-13.08,1.93-18.65,10-25,8,.33,16,.67,24,1-4-11.67-8-23.33-12-35-23.71,3.43-37.64-3.45-50-14,3.93-2.94,9.49-4.15,13-7,3,2.33,6,4.67,9,7,5.5,2.61,14.57.64,18-2,9.09-5.04,13.23-30.96,9-45-7.88-26.14-21.36-52.87-56-52-3,2.33-6,4.67-9,7-3.84,15.97.67,28.63,1,46-1,.67-2,1.33-3,2-5.01-4.26-3.19-9.75-9-11-5.26-32.01,2.84-41.98-22-56-6.24,3.54-9.9,1.58-17-1-3.12-8.02-3.63-10.61-4-20,10.3-3.63,21.67-1.52,28,7h4c1.33-2,2.67-4,4-6,10.56-27.15-55.18-65.41-77-66,13.73,16.74,23.11,35.12,36,54-1.23,14.76-11.68,18.98-14,30-1.34,6.37-.1,14.44-2,20,40.14-14.83,76.76,66.16,82,98-8.04,3.2-14.4,28.15-20,35,.67,4,1.33,8,2,12,39.89-8.13,74.58,61.99,69,101-3.02,21.11,5.18,37.89-9,49,2.33,8.67,4.67,17.33,7,26-5.78.57-7.06-2.22-9,1-18.63-5.42-36.91-32.86-43-51v-1c1-.67,2-1.33,3-2,5.26,8.54,17.85,15.77,31,13,21.95-33.92-1.54-76.12-18-101-4.67-7.06-7.48-17.78-17-20-6.82-1.46-9.43,4.58-17,6-.7,10.21-2.62,37.41-11,41h-1c-3-8-6-16-9-24-7.19-10.88-16.44-21.67-23-34-2-5.67-4-11.33-6-17-5.13-6.77-11.62-7.25-14-18,1-1.33,2-2.67,3-4,9.24,2.91,21.53,8.88,32,13,12.79-1.75,20.31-9.95,33-14,8.86-41.16-22.61-86.63-52-101-18.04-.32-22.75,6.88-29,18,2.02,3.67.05,2.19,5,3-1.99,7-4.25,12.59-4,24-2,.67-4,1.33-6,2-4.84-6.84-8.36-8.01-8-21-26.88-8.18-67.54-35.24-82-57,1.67-1.67,3.33-3.33,5-5,4.15,1.63,78.28,11.47,86,9,3.67-3,7.33-6,11-9,11.16-43.77-39.79-91.32-72-98-25.05-5.19-41.8,8.44-53,18,1.54,19.24,14.01,25.04,18,41-1,1-2,2-3,3-15.14,5.19-41.51-27.17-51-34-7.56-5.44-23.35-14.69-34-15-5.05-.15-6.02,3.23-12,2-17-9.01-10.78-20.65-21-30-23.24-21.27-65.91-3.04-91,2,.33,7.67.67,15.33,1,23-7.85,3.85-22.57,10.82-25,20-28.06-6.18-53.1,20.03-81,22-3.09-2.44-3.98-3.22-5-8-17.92,3.23-22.44-9.7-37-7-17.63,3.27-21.94,10.58-28,18-6.06,7.42-11.07,18.12-7,24,3.52,1.97,5.49,5.13,7,9,4.65,12.91-43.18,61-52,73-4.16.54-4.43.42-8-1-6.67,10.33-13.33,20.67-20,31-2.33-1.67-4.67-3.33-7-5-33.47-15.03-58.71,41.95-59,77,2.33,2.33,4.67,4.67,7,7,2-.33,4-.67,6-1,5.09-9.43,4.11-25.33,11-33-.33,1.67-.67,3.33-1,5,5-12,10-24,15-36,5.23-6.53,18.71-7.68,26-12-11.67,22-23.33,44-35,66-22.93,63.87-18.81,145.52-17,230,.67-29.33,1.33-58.67,2-88,10.34-41.83,33.47-75.88,54-107,15.72-23.83,27.39-48.92,44-72Zm676,81c2-1.33,4-2.67,6-4,2,.33,4,.67,6,1,10.41,4.71,34.34,34.78,27,52v2c-2-3-4-6-6-9v-2c-2.02,4.33-2.8,7.68-5,11-13.32-1.22-15.27-9.15-25-14-3.23-9.07-3.28-23.72-3-37Zm-43-169c4.67.67,9.33,1.33,14,2,10.98,17.15,16.37,28.55,16,53v1c-3.16,1.98-3.41,2.7-9,3-9.67-11-19.33-22-29-33,1.31-6.23,4.79-18.82,8-26Zm-18,167c1.26,1.56,4.04,2.12,1,3,4.77,18.91,40.28,39.11,27,70-2.67.33-5.33.67-8,1-3-1.67-6-3.33-9-5-8.29-14.46-20.39-52.28-11-69Zm-68-142c2.33-.67,4.67-1.33,7-2,11.97,1.98,41.55,35.29,35,51v2h-1c-3-6-6-12-9-18-3.52.49-10.41,4.33-18,2-.33.67-.67,1.33-1,2,2.99,6.58,6.6,13.88,7,22-2.33.33-4.67.67-7,1-4.85-6.76-9.43-14.93-11-25-2.85-1.34-1.49.82-3,3-.33-5.33-.67-10.67-1-16-.33.67-.67,1.33-1,2-5.95-8.11,2.1-15.14,3-24Zm-100-142c24.73-.07,55.22,21.9,61,41v14c-4.71.7-8.03,0-14,1-8.13-7.47-21-23.39-36-17-13.07-9.27-28.12-27.02-11-39Zm40,628c59.28,13.86,114.9-15.75,156-27-9.18-12.65-32.68-24.57-53-25-20.4,14.58-135.67,34.46-177,28-17.91-2.8-73.71-12.73-89-7-.67.33-1.33.67-2,1,12.33,1.67,24.67,3.33,37,5v1c-1,.67-2,1.33-3,2,24,6,48,12,72,18,9.99,1.67,22.94-2.06,30,2h2c-2.33.33-4.67.67-7,1,11.33.33,22.67.67,34,1ZM232.48,47.28c4.16,10.51,6.24,19.51,6.24,27.02l2.34,159.84-2.34,106.94c0,31.15,9.88,69.98,29.65,116.5,20.02,46.53,36.67,69.79,49.93,69.79s29.9-23.26,49.93-69.79c19.76-46.52,29.65-85.35,29.65-116.5l-1.56-93.43,1.56-174.47c.26-7.88,2.34-16.69,6.24-26.45,4.16-10.13,8.58-17.07,13.26-20.82l3.12-2.81-3.9-11.26c-2.34,0-9.5,2.07-21.46,6.19-11.97,4.5-19.25,6.75-21.85,6.75s-10.53-2.25-23.8-6.75c-13.26-4.12-21.33-6.19-24.19-6.19l-4.68,11.26,6.24,3.94c5.46,3.75,10.4,10.69,14.82,20.82,4.68,10.13,7.02,18.95,7.02,26.45l-1.17,156.46,1.56,131.7c0,17.64-1.69,39.59-5.07,65.85-3.65,26.27-6.63,39.4-8.97,39.4-6.77,0-15.35-17.63-25.75-52.9-10.4-34.89-15.6-64.16-15.6-87.8l2.34-73.17-1.95-179.54c0-7.5,2.08-16.51,6.24-27.02,4.16-10.5,8.58-17.63,13.26-21.39l3.12-2.81c-1.3-4.12-2.34-7.12-3.12-9,0-.37-.13-1.13-.39-2.25-2.86,0-10.67,2.07-23.41,6.19-13.01,4.5-20.81,6.75-23.41,6.75-2.86,0-10.67-2.25-23.41-6.75-13.01-4.12-20.81-6.19-23.41-6.19l-3.9,11.26,3.51,2.81c4.68,3.75,9.1,10.89,13.26,21.39Zm1902.52,2198.27c-6.64-33.72-5.13-66.55-13-98-23.42-93.62-51.22-170.79-96-242-14-17.33-28-34.67-42-52-40.46-52.73-70.46-75.44-142-98-18.22-5.74-37.56-13.31-60-14-13.35,6.8-33.86,1.31-49,5-28.66,9.67-57.34,19.33-86,29,20.33,6.67,40.67,13.33,61,20,29.26,14.97,68,54.84,84,84,3.33,12,6.67,24,10,36,14.43,44.86,19.82,89.12,35,138,11.23,36.17,36.73,63.69,50,98,7.04,18.19,6.2,46.55,12,74,3.02,14.28,7.27,36.49,3,55-7.08,30.71-14.23,67.8-29,92-17.43,28.55-44.12,54.92-58,89-13.24,32.51-19.64,96.08-38,125-8.33,10.67-16.67,21.33-25,32-8.85,15.33-16.3,38.34-30,49-7.67,4.67-15.33,9.33-23,14-13.38,8.37-20.81,25.51-36,33-7.78,3.83-16.99,2.79-23,8-45.57,39.46-106.01,87.4-169,102h-1c-.67-1-1.33-2-2-3,9.67-6.67,19.33-13.33,29-20,18.26-8.06,37.73-13.69,53-25,9.9-7.33,17.42-23.44,29-29,69.76-33.51,137.59-102.11,178-165,24.56-38.22,21.02-98.97,44-138,17.24-29.28,43.64-53.47,61-83,16.97-28.88,29.41-112.22,19-160-11.79-54.12-28.31-95.56-48-141-5.33-8.67-10.67-17.33-16-26-.67-11.33-1.33-22.67-2-34-12.79-42.81-27.8-86.25-50-121-7.38-11.56-23.37-18.63-30-30-3.01-5.16,1.27-8.26-3-12-20.53-17.97-57.94-36.69-90-41-7,.33-14,.67-21,1-4.67-1-9.33-2-14-3-21.66,14.67-43.34,29.33-65,44-73.99,46.91-153.7,154.62-180,249-21.6,77.52,8.27,142.04,55,171,18.12,11.23,30.6,36.9,58,39,1.33-4,2.67-8,4-12,1.22-8.28-11.2-20.85-15-29-65.55-17.65-77.36-47.12-96-110-4.63-15.62-.82-37.66,2-49,2.89-11.61-.09-20.99,4-30,8.31-18.29,38.91-30.54,62-23,5.65-7.4,12.25-13.26,18-21h4c6.3,10.14,5.49,23.78-2,32,5,2,10,4,15,6,1.47,2.98,2.08,5.7,2,11-12.89,6.86-21.54-5.23-33-8-11.58-2.8-13.92,3.88-29-2-15.24,7.8-32.12,44.45-14,94,17.15,46.89,34.5,78.47,77,68,27.98-6.89,31.87-19.7,44-63,7.74,14.65,7.67,27,8,27,4.35,7.2,4.04,18.28,7,29,2,2.67,4,5.33,6,8,5.5,16.91-11.61,29.49-15,42,4,4.67,8,9.33,12,14,.33,1,.67,2,1,3v1c-17.87-4.31-21.26-1.14-40-1-33.51,46.53,6.09,174.09,51,177,12.8-10.06,31.71-31.27,38-47,7.93,2.66,6.71,14.43,6,25,6.33,2.26,8.53,5.97,11,12-7.72,19.44-15.8,37.22-28,52-6.44,7.8-16.74,10.32-23,19-6.33-1-12.67-2-19-3-8.91-6.69-4.71-34.31-5-46-4.33-3.33-8.67-6.67-13-10-1.4,25.2-10.04,52.37-19,70,1.3,8.29,8.26,7.4,12,5,1.86,7.6,6.89,6.98,9,12,.33,11,.67,22,1,33-2.82,1.3-2.85,1.86-6,1-5.7-4.79-9.39-20.84-11-29-37.42-5.96-90.6,32.04-78,76,7.93,19.76,23.24,9.84,39,15,4.72,3,3.59,5.81,3,13-5.2,2.96-13.68,3.84-21,5-5.48,6.02-8.84,12.17-10,20-3,.67-6,1.33-9,2-23.35-37.72-72.45-2.07-75,37,2.95,7.23,6.23,11.6,14,14,.67,4.67,1.33,9.33,2,14,4-2.33,8-4.67,12-7,2.89,2.38,3.42,1.96,5,6,4.33-1.33,8.67-2.67,13-4,2.67,2.33,5.33,4.67,8,7-1.21,13.02-9.06,14.5-14,23,22.64,46.42,70.44,80.99,112,109,15.17,10.22,31.46,26.56,55,22,8.03,5.99,22.5,17.88,27,27-20.05,56.36-95.97,43.84-147,26l-9-1c-3.03,18.29,7.13,49.28,2,74-13.29,64.03-38.13,110.71-81,145-7.67,6.67-15.33,13.33-23,20h-15c-9.67,3-19.33,6-29,9-7.28-5.74-19.72-25.79-21-36,4-11,8-22,12-33,4.88-17.59,1.03-39.14,5-59,2.51-12.54,8.64-23.05,11-34,9.29-43.06-7.24-85.22-12-117-38.82,18.98-120.7,26.39-175,15h-35c-43-9.67-86-19.33-129-29-42.56-15.88-122.66-92.54-140-134-13.55-32.4-14.14-80.81-10-116,2.41-20.52,20.64-38.17,31-52,33.45-44.64,68.23-100.19,142-103,.33-.67.67-1.33,1-2-32.36-19.96-67.45-41.5-107-54-12.33-2-24.67-4-37-6-12-3-24-6-36-9-24.66,11.33-49.34,22.67-74,34-44.29,17.41-76.73,41.33-102,77-7,11.67-14,23.33-21,35-5.33,4-10.67,8-16,12-15.74,20.69-31.2,67.72-39,95v24c-12.53,72.75,12.18,139.8,33,191,5.84,14.36,7.4,28.11,14,41,28.4,55.46,77.04,102.25,124,140,19.66,17.33,39.34,34.67,59,52,24.59,17.44,52.5,29.26,79,45,30.4,18.06,63.81,39.74,99,52,30.66,5.67,61.34,11.33,92,17,56.33,9.67,112.67,19.33,169,29,35.33-5.67,70.67-11.33,106-17,35.15-6.08,66.24-3.92,98-11,29.66-8,59.34-16,89-24h16c28.33-10.33,56.67-20.67,85-31,21.66-11.33,43.34-22.67,65-34,26.54-10.21,49.61-16.95,73-29,25.12-12.94,46.7-31.2,69-47,34.79-24.65,72.71-48.86,101-80,30.92-34.04,55.96-74.32,82-113,26.27-39.02,61.62-70.86,81-118,33.12-80.56,53.8-172.68,73-267,6.6-32.42,2.59-67.59,6-99,.84-7.69,4.4-19.31,6-29,3.19-19.29-2.22-42.84-5-59-4.78-27.79-4.23-54.77-9-79Zm-675-63c-4.54,2.17-8.34,2.04-15,2-2.67-4-5.33-8-8-12-1.18-5.22,3.56-6.64,3-12-1.33-4-2.67-8-4-12-23.88,1.6-41.36-33.13-21-54,14.28,4.49,52.31,19.34,44,42-1.98,3.34-1.57,2.98-6,4,6.3,10.63,9.74,27.97,7,42Zm-47,534c-2.67.67-5.33,1.33-8,2-2.76-4.29-5.71-7.25-7-13h-5c-2,1.67-4,3.33-6,5-2.85,5.54.67,18.19-8,21-1-.33-2-.67-3-1-1.46-8.06-2.7-12.71-6-18,.71-16.26,13.42-21.54,24-28,15.01.82,14.68,9.18,22,20-1,4-2,8-3,12Zm68-4c1.99-1.85,2.31-3.77,3-7,16.24-9.72,39.64-12.42,52-26h6c.67,1.67,1.33,3.33,2,5-5.07,6.98-55.02,47.03-63,28Zm258-178h-11c-12.61-7.7-20.68-23.23-35-30-3.44-.61-2.24-.1-5,2h-1v-7c25.52.86,29.71,23,53,23,1.98,3.16,2.7,3.41,3,9-1.33,1-2.67,2-4,3Zm-6-321c11.42,14.48,11.46,44.42,10,66-4.97,3.75-5.9,5.15-14,4-.67,2.33-1.33,4.67-2,7-3.91,2.53-8.97,3.9-15,2-2.46,3.98-4.07,8.32-8,11-12.64-8.67-3.26-45.19,3-56-17.69,4.8-31.5,18.1-32,40h-1c-.67-12-1.33-24-2-36,2.68-14.43,9.74-25.92,7-41,5.67-5.33,11.33-10.67,17-16,2-.33,4-.67,6-1,2.33,2.33,4.67,4.67,7,7-.88-4.57-.74-6.48,1-10h3c6.08,4.84,3.63,9.06,8,16,4,2.33,8,4.67,12,7Zm-6-57c-.33,2-.67,4-1,6-18.97,3.56-48.67,8.94-59,22,2.66,2.39-.05,4.59-1,6-8.27,12.22-11,22.15-11,44,0,47.57-8.51,116.1,21,138,39.22,29.11,67.18-33.87,80-30v12c3.33-.67,6.67-1.33,10-2,.67,1,1.33,2,2,3,6.2,15.04-3.71,36.52-7,47-14.21,45.24-61.6,70.82-109,45,3.88-16.26,18.5-26.86,21-41-6.67-8-13.33-16-20-24-19.31-40.75-45.78-139.66-20-189,8.6-16.46,28.77-36.37,46-44,7.67-2,15.33-4,23-6,13.73-.12,18.77,5.94,25,13Zm-73-212c11.11,23.05,9.41,60.88-20,65-4.66-9.47.54-28.68-10-39-1.39,12.11-8.85,31.02-27,21-13.1-7.23-6.36-28.76,0-37-3.44-4.89-10.36-4.55-19-4h-1c-4.74,6.77-4.52,11.39-4,23-4.74,3.24-7.32,5.14-16,5-5.75-8.48-7.28-32.15-7-45,8.46-9.44,13.57-18.29,26-24,4.67-1.33,9.33-2.67,14-4,22.38,6.74,53.72,17.65,64,39Zm-126,479c-18.86-12.66-11.19-24.43,0-38-7.09-8.6-16.6-26.19-27-31-9.53-19.78,11-36.27,21-44h8c15.77,23.63,48.94,100.76-2,113Zm57-333c-8.67-9.33-17.33-18.67-26-28-24.62-28.21-74.43-56.25-59-122,6.96-29.64,29.63-66.04,57-75,15.76-5.16,28.13-1.5,41-8,14,7,28,14,42,21v1c-4.5,3.47-59.56,4.72-74,7,.67,1.33,1.33,2.67,2,4-8.25,1.42-13.52,2.09-18,7-40.58,36.14-20.14,128.78,25,148,51.65,21.99,106.6-20.65,117-56,3.3-11.22-6.49-16.31-3-26,2.33-2.67,4.67-5.33,7-8,4.98,4.7.28,10.31,3,18,1.71,4.84,8.51,4.84,10,11,7.55,31.31-20.77,109.54-41,120h-6c-3.28-4.52-5.1-6.47-5-15-7.92,7.69-18.4,20.51-38,13-3.67-2.67-7.33-5.33-11-8-8.56-1.91-15.82.75-23-4Zm-133,542h-4c.67-1.33,1.33-2.67,2-4-8.38-1.27-12.5-4.99-16-11,4.54-3.22,8.76.24,13,3,7.72-.38,16.05-4.8,19-10,2.03-2.79,1.72-11.13,0-15-1.85-1.83-5.38-1.91-8-3-1-.67-2-1.33-3-2,7.51-9.94,18.39-11.17,28-19h6c16.18,23.86-16.58,55.8-37,61Zm-15,168c-3.04-2.16-9.89-12.45-11-16-1.21-7.2,10.27-16.08,13-25-1.33.67-2.67,1.33-4,2,3.66-13.9-3.37-23.59,2-37,13.14-32.8,61.53-82.45,105-84-.33-17-.67-34-1-51,3.13-13.29,17.74-19.24,24-29,3.67-9.67,7.33-19.33,11-29,16.25-25.33,49.38-54.65,82-63,9.89,7.25,29,8.47,36,19v5c-1.33.67-2.67,1.33-4,2-10.47,2.72-25.38-11.4-42-6-20.12,6.54-59.31,58.7-71,78-4.4,7.26-16.05,19.66-12,34,4.51,15.97,24.5,11.29,32,23,7.12-.78,10.19-5.35,15-6,5.33,1.33,10.67,2.67,16,4,15.4,2.53,30.73-4.39,43-8,1.33,1,2.67,2,4,3-1.59,9.98-60.12,75.07-70,82-10.84,7.59-28.24,11.58-35,23-5.24,3.24-18.5,5.81-23-2,7.13-15.54,23.26-21.36,26-41v-1c-4.37-1.13-3.54.58-8,4h-4c2.73-4.01,4.05-5.54,4-13-21.99-22.18-86.92,21.09-97,38-4.73,7.94-1.88,18.25-2,28,7.76,3.36,24.3,10.27,32,12,4.15.93,8.41-3.99,14-2,1,.33,2,.67,3,1,.33,1,.67,2,1,3-.87,20.74-53.45,68.14-79,52Zm179-216c-10.67,4.33-21.33,8.67-32,13,4.3-9.46,5.17-21.41,11-29v-2c.33,1.67.67,3.33,1,5h1c5.58-10.85,19.58-13.01,25-24,0,0,2.82-20.31,3-25,8.67-5.67,17.33-11.33,26-17h8c12.84,18.2-28.43,69.28-43,79Zm560-909c-11.26-64.38-8.86-134.21-19-196-4.45-27.11-5.59-65.19-1-94,.33-9.33.67-18.67,1-28-4.82-16.1-5.19-39.62-11-56-4.79-13.51-24.97-59.2-53-79-28.03-19.8-124.2-20.67-176-20s-95.42,2.64-132,4c-36.58,1.36-87.67,8.67-113,13-37.18,6.59-70.01,1.02-106,7-21.6,3.59-32.45,5.19-55,7,3.17,17.55,12.56,55.5,17,93,3.93,33.24,17.86,74.94,31,110,12.6,33.61,39.89,65.62,55,108,9.71-.98,62.66,4.68,88,7,74.81,6.86,83.48,14.37,137,26,25.72,5.59,41,11.3,68,17,36.12,7.63,70.77,25.5,104,35,.33.67.67,1.33,1,2-40.51,3.09-72.07-20.14-109-23,0,.33-142.32-33.44-174-34,28.36,16.25,65.35,55.31,69,66,.33,7.33.76,23.97-3,30,12.02.07,51.86-3.27,73,1,53.62,10.83,158.89,7.27,187,42,25.21-5.59,46.33,32.88,60,50,5.67,5.33,11.33,10.67,17,16,.67,4.67,1.33,9.33,2,14,5.51,8.58,17.38,14.68,23,24,31.24,51.85,22.42,135.14-19,170-7.71-2.73,8.31-44.91,0-61-7.53-16.54-26.69-8.24-44-13-9.91-2.73-23.46-14.05-34-9-1,.67-2,1.33-3,2,11.12,23.4,25.92,45.01,34,70,8.59,26.58,9.68,49.78,22,71,2,.67,4,1.33,6,2,9.62-4.62,13.07-14.07,21-20,39.72-29.68,53.75-72.32,65-131,2.67-16.67,5.33-33.33,8-50-14.44-53.5-26.79-114.63-37-173Zm-731-141c24.34,2.83,56.53,9.34,87,24,19.28-3.17,44.8-9.36,66-11-2.64-17.74-37.07-68.84-43-82-29.17-64.75-43.54-120.99-46-149-2.46-28.01-12.48-60.15-17-82-64.04-8.92-130.37-20.42-198-38-29.33-7.62-88.1-21.54-120-28-63.95-12.95-169.34-14-191-14-19.17,37.95-41.69,65.85-66,99-20.92,28.51-47.81,83.11-64,124-39.63,100.1-115.7,310.2-80,486,18.55,91.36,57.69,161.98,122,212,33.39,25.97,162,99.33,158,99v1c31,14.67,103.67,44.67,109,45,17,5.33,34,10.67,51,16,31.66,12.67,63.34,25.33,95,38,22.98,7.8,50.53,6.16,72,9,2.33-4.67,4.67-9.33,7-14-6.41-9.25-16.01-11.1-25-18-14.87-11.4-27.07-44.14-35-64,0-.67-5.13-77.37-3-81,1.33-8.33,2.67-16.67,4-25,5.33-18.33,10.67-36.67,16-55,32.48-72.81,86.87-140.3,140-194,12.66-12.79,39.26-28.03,49-40,3.95-4.86,5.18-11.19,10-15,27.33-14.33,54.67-28.67,82-43,39.02-22.82,97.55-52.41,155-62,4.54-11.79,5.09-19.85,4-31-18.69-25.11-40.88-45.92-69-66-13.65-5.44-56.5-9.1-103-9-46.5.1-109.81,23.75-139,33-27.14,5.74-105.43,8.21-129,2,8.67-1.33,104.14-8.16,118-14,18.17-7.66,40.36-14.79,54-20-46.55-18.55-114.84-24.17-139-33-29.92-10.94-91.59-28.34-108-42,19.85,8.25,73.74,15.15,100,26,25.32,10.47,51.51,13.15,76,16Zm-810,587c30.83,6.62,64.4,20.12,95,14,25.89-5.18,59.9,15.62,87,3,1.33-1,2.67-2,4-3-7.55-52.35-41.43-31.19-84-43-26.81-7.44-84.92-25.67-106-40-8.67-8.33-17.33-16.67-26-25-12.33-8-24.67-16-37-24-25.64-20.24-47.95-45.97-71-69-16-12.67-32-25.33-48-38-8-9.67-16-19.33-24-29-41.92-35.97-80.83-70.97-127-103-3.33-4.33-6.67-8.67-10-13-35.84-32.88-71.33-65-140-65-11.67-.33-23.33-.67-35-1-8.66,1.84-15.19,3.92-27,5-10.96,25.78-15.36,51.61-25,82-3.89,12.26-9.91,19.6-11,30-1.67.67-3.33,1.33-5,2-30.86-21.26-28.38-104.8-3-129,25.38-26.76,131.46-38.2,193-27,29.66,4,59.34,8,89,12,40,11.67,80,23.33,120,35,24,5.67,48,11.33,72,17,13,7.33,26,14.67,39,22,20.29,11.85,65.98,28.57,76,48,1,.67,2,1.33,3,2h1c-1.85-27.97-17.11-45.25-17-78h1c7.33,10.67,14.67,21.33,22,32,12.94,20.62,24.91,42.46,38,62,6,13.67,12,27.34,18,41,29.44,49.82,59.16,112.44,104,147-8.33-15.33-16.66-30.36-37-98-65.58-218.16,66.03-515,128-622,24.59-42.46,51.54-73.44,74-112-6.33-.33-12.67-.67-19-1-24.66,2-49.34,4-74,6-48.33,12-96.67,24-145,36h-40c-33.46,0-65.98.74-95-4-33.37-5.45-77.28-3.89-107,1-33.64,5.54-71.86-4.6-106,1-21.33-1-42.67-2-64-3-63.9,5.89-125.93,10.93-153,54-24.82,39.5-27.93,112.57-40,164-1.67,10.67-3.33,21.33-5,32-11.38,29.12-27.01,56.09-44,79-6.67,15.33-13.33,30.67-20,46-9.7,14.21-15.51,37.41-24,58-10.46,25.36-24.17,52.15-30,81,.67,9.33,1.33,18.67,2,28,2,18.33,4,36.67,6,55,6.41,17.27,19.08,30.78,27,45,17.12,30.75,39.05,42.53,66,63,19.72,14.98,38.27,32.86,60,46,69.85,42.23,150.47,69.27,229,104,15,7,30,14,45,21,28,6.67,56,13.33,84,20,39.2,12.32,70.9,23.31,116,33Zm-386-940c28.28-5.3,68.28-6,105-6h227c32.1,5.17,63.29,8.41,100,6,79.78-5.24,138.97-27.93,209-41,35.66-.67,71.34-1.33,107-2h93c14.37,2.93,37.29,3.28,55,7,72.17,15.15,141.6,31.65,216,49,34.4,8.02,107.44,24.67,152,17,27.82-4.79,55.76-8.85,87-11,0,.33,41.68.5,55-2,42.35-7.95,109.28-14.1,147-15,37.72-.9,129.12-.71,179,2,49.88,2.71,87.34,5.81,113,16,21.8,8.66,33.64,29.31,44,50,.07-44.89,2.79-91.82,9-129v-86c5.44-33.9,10.88-83.74,4-122-11.09-61.71-31.04-120.79-63-162-14.69-18.93-74.47-66.44-100-73-65.33-6.33-130.67-12.67-196-19h-123c-51.22,10.45-111.18,15-177,15h-60c-9.33-2.67-18.67-5.33-28-8-36.66-4.33-73.34-8.67-110-13-60.73-13.31-127.84-25.9-204-25-20.67,2-41.34,4-62,6-32.33,5-64.67,10-97,15-50.21,10.99-101.49,27.12-153,38-24.66,5.21-54.44,1.75-83,3-11.77.52-23.22,6.51-39,4-37.46-5.97-78.4-8.89-110-19-22.33-1.33-44.67-2.67-67-4-50.03-8.49-118.51-15.83-170,1-15.09,4.93-67.48,42.55-78,54-8.42,9.16-24.02,50.28-27,64,.33,27,.67,54,1,81,0,47.57-2.3,96.12-2,144-1-.67-2-1.33-3-2-5,48.33-10,96.67-15,145-2.33,14.33-4.67,28.67-7,43,9-6.33,18-12.67,27-19,11.71-4.86,29.51.72,44-2Zm1592-225c.33-53.66.67-107.34,1-161,6.33-8.67,12.67-17.33,19-26h2c16.87,12.98,44.73,45.96,65,52,21.65-14.86,39.17-42.33,73-41-.67,1.67-1.33,3.33-2,5,1.33-.67,2.67-1.33,4-2,1.33,2,2.67,4,4,6-2.67,9-5.33,18-8,27-6.42,7.55-59.99,44.85-65,43,.72,6.76-3.83,10.52-9,14-11.42-13.7-29.17-22.43-40-36-3,1.33-6,2.67-9,4,.21,48.81-.06,101.71,0,159,22.97-12.47,32.66-38.42,67-39,19.33,25.66,38.67,51.34,58,77v29c-10.13.48-15.45,2.77-23-1-20.61-13.11-26.46-47.95-51-57-21,17.33-42,34.67-63,52h-2c-27.76-22.87-21.21-56.03-21-105Zm-404-116c19.76-24.5,41.42-47.01,60-73,4.33,4.33,8.67,8.67,13,13-9,19.33-18,38.67-27,58-8.68,14.37-21.14,25.33-25,45,20,19.66,40,39.34,60,59-.1-6.74.58-8.54,3-12-1.68-4.7-5.79-4.23-7-8,.33-30.33.67-60.67,1-91,5.05-13.61,15.48-16.2,20-28h3c2.94,4.17,4.21,5.92,4,14,23.79,4.61,12.51,99.06,12,124h1c28.03-17.51,40.1-37.35,59-64-15-29-30-58-45-87,4.67-5.67,9.33-11.33,14-17,38.32,18.72,59.3,85.87,92,112-.89,6.87-16.57,17.13-22,24-25.47,32.22-65.65,51.42-93,82-3.98,4.16-11.81,58.58-14,79-2.67.67-5.33,1.33-8,2-21.04-17.99-23-50.24-22-88-27.41-18.3-46.07-42.06-71-62-15-12-30-24-45-36-.67-.33-1.33-.67-2-1,8.64-17.63,27.06-30.19,39-45Zm-260,11c16.81,13.88,29.07,30.71,45,45,7.13,6.4,13.33,6.3,23,11,10.33,11,20.67,22,31,33-2.38,6.39-4.16,13.64-7,21-4.81,1.69-3.22.51-9-1-1.3,15.15-15.42,21.78-23,31-18.81,22.89-52.64,79.1-86,83h-1c-14.48-53.89,54.83-93.46,72-127-22.13-29.38-56.88-53.41-85-77-.67-13-1.33-26-2-39,10,2,20,4,30,6,4,4.67,8,9.33,12,14Zm-164,0c3.67-4.33,7.33-8.67,11-13,2.33,1,4.67,2,7,3,26.84-35.21,68.41-60.63,94-94,12.33.33,24.67.67,37,1,.33,1.33.67,2.67,1,4-12.07,2.8-7.17,21.12-14,32-9.76,15.56-34.61,24.56-49,36-9.21,7.32-19.82,22.72-27,32,16.69,26.38,44.99,41.92,64,66,8.33,11,16.67,22,25,33,6.05,14.78,3.26,17.99,11,31v1c-14.67-2-29.33-4-44-6-11.75-5.28-21.14-24.07-29-34-17.67-22.32-40.22-38.21-57-62h-3c-1.47,3.11-1.74,3.29-1,7-7.51-3.71-14.38-3.11-22-6-4.78-9.69-4.36-19.36-4-31Zm-330,3h1c3.25,5.55,12.82,22.26,9,34-3.67,5.33-7.33,10.67-11,16-10.55,23.47-18.19,48.42-28,66,.33,2,.67,4,1,6,13.01,3.31,36.73,1.98,48-3,6.77-38.96,3.86-90.5,13-127,.33-13,.67-26,1-39l15-15c4.16,1.66,7.56,2.57,10,6,.67,15.67,1.33,31.33,2,47,0,29.83,1.56,103.46,11,121,13.93-.12,31.18-.94,42,2,.67-.33,1.33-.67,2-1-4.7-24.12-20.73-39.68-27-63-.91-2.56,2.94-25.63,3-38,9,5,18,10,27,15,6.24,6.22,6.77,16.6,11,25,13.99,27.8,32.88,64.88,65,75-1.33,4.67-2.67,9.33-4,14-5.17,6.59-14.34,3.72-22,8-6.67,5.67-13.33,11.33-20,17-8.96-.87-9.78-2.25-17-3-1-3.33-2-6.67-3-10-21.33,1-42.67,2-64,3-6.05,14.37,10.66,39.74,4,58-3.96,10.87-16.92,16.06-20,29-7.29-1.07-7.32-1.77-13,1-5.33-8.67-10.67-17.33-16-26-.33-17.67-.67-35.33-1-53-18.71-8.43-66.69,2.91-90,3-10.47-10.75-4.96-20.41-13-31,16.27-31.92,56.61-128.5,84-137Zm-395,108v-2c25.56,13.53,51.32,28.95,76,42h1c-8.99-53.8-11.71-113.09-22-169-3.11-16.93-11.31-20.4-12-41,5.33-6.33,10.67-12.67,16-19,18.22,12.04,32.28,28.09,50,40,17,10,34,20,51,30,6,6.33,12,12.67,18,19,.67,3,1.33,6,2,9,4.67,2.33,9.33,4.67,14,7v5c-38.97,22.93-57.85-16.36-91-24,2.28,14.64,4.68,33.93,7,46,.33,16,.67,32,1,48,4.48,21.98,13.8,49.49,14,72,4.67,2,9.33,4,14,6,0,0-3.71,42.39-6,46-3.07,6.07-26.99,1.41-34,0-25.55-39.36-77.57-50.05-105-84,3.12-11.75-.36-19.18,6-31Zm577,1264c-8,1.33-16,2.67-24,4-17.48,6.23-39.53,18.97-48,35-.15,12.47,3.59,16.44,10,22,1,.33,2,.67,3,1,25.91-35.83,107.29-55.09,133-5,3-1,6-2,9-3,3.33-3.67,6.67-7.33,10-11-2.94-30.32-56.47-43.87-93-43ZM1961.85,486.83c-4.16,10.51-8.58,17.83-13.26,21.95l-3.12,2.81c1.3,3.76,2.34,6.57,3.12,8.44l.39,2.25c2.86,0,10.66-2.25,23.41-6.75,13-4.12,20.8-6.19,23.41-6.19h111.57c0-2.25-1.43-6.94-4.29-14.07-2.6-7.5-3.9-12-3.9-13.51,0-4.12,1.95-15.94,5.85-35.46,3.64-19.5,5.46-31.14,5.46-34.89l-6.24-8.44-8.19,19.14c-3.12,7.51-8.33,14.63-15.6,21.39-7.55,6.75-13.92,10.13-19.11,10.13h-37.84l6.24-139.58h7.41c5.2,0,11.57,3.01,19.12,9.01,7.8,6.01,13.26,12.38,16.38,19.14l2.34,5.07,8.19-5.63c0-3.38-1.56-12.57-4.68-27.58-3.65-15-5.46-24.2-5.46-27.58s1.82-12.57,5.46-27.58c3.12-15.38,4.68-24.57,4.68-27.58l-8.19-5.63-2.34,5.07c-3.12,6.75-8.58,13.14-16.38,19.14-7.55,6.01-13.92,9-19.12,9h-7.41v-14.07l-6.24-164.34h30.43c5.46,0,11.96,3.38,19.51,10.13,7.8,6.75,13.39,13.89,16.77,21.39l7.02,15.76,5.85-7.88c0-4.12-1.82-15.38-5.46-33.77-3.9-18.38-5.85-29.45-5.85-33.21,0-1.87,1.43-6.56,4.29-14.07,2.6-7.5,3.9-12.19,3.9-14.07h-104.16c-2.6,0-10.4-2.25-23.41-6.75-12.74-4.12-20.55-6.19-23.41-6.19-.26,1.13-.39,1.88-.39,2.25l-3.12,9,3.12,2.81c4.68,3.75,9.1,10.89,13.26,21.39,4.16,10.51,6.24,19.51,6.24,27.02l6.24,195.86-6.24,189.67c0,7.88-2.08,16.88-6.24,27.02Z"/>
    </g>
  </g>
</svg>